<svg width="32" height="32" viewBox="0 0 32 32" fill="none" xmlns="http://www.w3.org/2000/svg">
<path d="M22.6664 12.2266C22.4166 11.9783 22.0787 11.8389 21.7264 11.8389C21.3742 11.8389 21.0363 11.9783 20.7864 12.2266L15.9998 16.9466L11.2798 12.2266C11.03 11.9783 10.692 11.8389 10.3398 11.8389C9.98752 11.8389 9.64959 11.9783 9.39977 12.2266C9.2748 12.3505 9.1756 12.498 9.10791 12.6605C9.04022 12.823 9.00537 12.9972 9.00537 13.1733C9.00537 13.3493 9.04022 13.5235 9.10791 13.686C9.1756 13.8485 9.2748 13.996 9.39977 14.1199L15.0531 19.7733C15.1771 19.8982 15.3245 19.9974 15.487 20.0651C15.6495 20.1328 15.8238 20.1677 15.9998 20.1677C16.1758 20.1677 16.3501 20.1328 16.5125 20.0651C16.675 19.9974 16.8225 19.8982 16.9464 19.7733L22.6664 14.1199C22.7914 13.996 22.8906 13.8485 22.9583 13.686C23.026 13.5235 23.0608 13.3493 23.0608 13.1733C23.0608 12.9972 23.026 12.823 22.9583 12.6605C22.8906 12.498 22.7914 12.3505 22.6664 12.2266Z" fill="white"/>
</svg>
