<svg width="20" height="20" viewBox="0 0 20 20" fill="none" xmlns="http://www.w3.org/2000/svg">
<path d="M5.06667 10.3167C5.10633 10.419 5.1658 10.5124 5.24167 10.5917L9.40833 14.7583C9.48603 14.836 9.57827 14.8977 9.67979 14.9397C9.78131 14.9818 9.89012 15.0034 10 15.0034C10.2219 15.0034 10.4347 14.9153 10.5917 14.7583C10.6694 14.6806 10.731 14.5884 10.7731 14.4869C10.8151 14.3854 10.8367 14.2766 10.8367 14.1667C10.8367 13.9448 10.7486 13.7319 10.5917 13.575L7.84167 10.8333L14.1667 10.8333C14.3877 10.8333 14.5996 10.7455 14.7559 10.5893C14.9122 10.433 15 10.221 15 10C15 9.77899 14.9122 9.56703 14.7559 9.41075C14.5996 9.25447 14.3877 9.16667 14.1667 9.16667L7.84167 9.16667L10.5917 6.42501C10.6698 6.34754 10.7318 6.25537 10.7741 6.15382C10.8164 6.05227 10.8382 5.94335 10.8382 5.83334C10.8382 5.72333 10.8164 5.61441 10.7741 5.51286C10.7318 5.41131 10.6698 5.31914 10.5917 5.24168C10.5142 5.16357 10.422 5.10157 10.3205 5.05926C10.2189 5.01696 10.11 4.99518 10 4.99518C9.88999 4.99518 9.78107 5.01696 9.67952 5.05926C9.57797 5.10157 9.4858 5.16357 9.40834 5.24168L5.24167 9.40834C5.1658 9.48759 5.10633 9.58105 5.06667 9.68334C4.98332 9.88622 4.98332 10.1138 5.06667 10.3167Z" fill="white" fill-opacity="0.5"/>
<path d="M5.53285 10.1359L5.53295 10.1359L5.52916 10.1267C5.49582 10.0455 5.49582 9.95449 5.52916 9.87334L5.52925 9.87338L5.53285 9.86409C5.54821 9.82449 5.57099 9.7882 5.59995 9.75717L9.76189 5.59523L9.76334 5.59378C9.79433 5.56253 9.83119 5.53773 9.87181 5.52081C9.91243 5.50389 9.956 5.49518 10 5.49518C10.044 5.49518 10.0876 5.50389 10.1282 5.52081C10.1688 5.53773 10.2057 5.56253 10.2367 5.59378L10.2396 5.59668C10.2708 5.62766 10.2956 5.66453 10.3125 5.70515C10.3295 5.74577 10.3382 5.78934 10.3382 5.83334C10.3382 5.87734 10.3295 5.92091 10.3125 5.96153C10.2956 6.00215 10.2708 6.03902 10.2396 6.07001L10.2387 6.07092L7.48865 8.81258L6.63197 9.66667L7.84167 9.66667L14.1667 9.66667C14.2551 9.66667 14.3399 9.70179 14.4024 9.76431C14.4649 9.82682 14.5 9.9116 14.5 10C14.5 10.0884 14.4649 10.1732 14.4024 10.2357C14.3399 10.2982 14.2551 10.3333 14.1667 10.3333L7.84167 10.3333L6.63197 10.3333L7.48865 11.1874L10.2381 13.9286C10.2382 13.9286 10.2382 13.9287 10.2383 13.9288C10.3013 13.9919 10.3367 14.0775 10.3367 14.1667C10.3367 14.2109 10.328 14.2547 10.3111 14.2955C10.2942 14.3364 10.2694 14.3735 10.2381 14.4048C10.175 14.4679 10.0893 14.5034 10 14.5034C9.95578 14.5034 9.91199 14.4947 9.87113 14.4778C9.83028 14.4609 9.79316 14.4361 9.76189 14.4048L5.59995 10.2428C5.57099 10.2118 5.54821 10.1755 5.53285 10.1359Z" stroke="white" stroke-opacity="0.5"/>
</svg>
