<svg width="21" height="20" viewBox="0 0 21 20" fill="none" xmlns="http://www.w3.org/2000/svg">
<path d="M15.4343 9.68333C15.3946 9.58103 15.3352 9.48758 15.2593 9.40833L11.0926 5.24166C11.0149 5.16396 10.9227 5.10233 10.8212 5.06028C10.7197 5.01823 10.6109 4.99658 10.501 4.99658C10.2791 4.99658 10.0662 5.08474 9.90931 5.24166C9.83161 5.31936 9.76998 5.4116 9.72793 5.51312C9.68588 5.61464 9.66423 5.72344 9.66423 5.83333C9.66423 6.05524 9.75239 6.26807 9.90931 6.42499L12.6593 9.16666H6.33431C6.1133 9.16666 5.90133 9.25446 5.74505 9.41074C5.58877 9.56702 5.50098 9.77898 5.50098 9.99999C5.50098 10.221 5.58877 10.433 5.74505 10.5892C5.90133 10.7455 6.1133 10.8333 6.33431 10.8333H12.6593L9.90931 13.575C9.8312 13.6525 9.76921 13.7446 9.7269 13.8462C9.68459 13.9477 9.66281 14.0566 9.66281 14.1667C9.66281 14.2767 9.68459 14.3856 9.7269 14.4871C9.76921 14.5887 9.8312 14.6809 9.90931 14.7583C9.98678 14.8364 10.0789 14.8984 10.1805 14.9407C10.282 14.983 10.391 15.0048 10.501 15.0048C10.611 15.0048 10.7199 14.983 10.8215 14.9407C10.923 14.8984 11.0152 14.8364 11.0926 14.7583L15.2593 10.5917C15.3352 10.5124 15.3946 10.419 15.4343 10.3167C15.5177 10.1138 15.5177 9.88621 15.4343 9.68333Z" fill="white"/>
</svg>
