<svg width="24" height="24" viewBox="0 0 24 24" fill="none" xmlns="http://www.w3.org/2000/svg">
<path d="M22.8834 17.7961L20.3994 15.2521C19.8651 14.7442 19.1911 14.4077 18.4641 14.2858C17.737 14.1639 16.9901 14.2622 16.3194 14.5681L15.2394 13.4881C16.5121 11.7876 17.0933 9.66809 16.8661 7.55628C16.6388 5.44447 15.62 3.49715 14.0147 2.10632C12.4094 0.715487 10.3368 -0.0155755 8.2142 0.0602976C6.09156 0.136171 4.07646 1.01334 2.57457 2.51524C1.07267 4.01713 0.195497 6.03223 0.119624 8.15487C0.0437507 10.2775 0.774813 12.3501 2.16564 13.9554C3.55647 15.5607 5.5038 16.5795 7.61561 16.8067C9.72742 17.034 11.8469 16.4527 13.5474 15.1801L14.6154 16.2481C14.2735 16.9196 14.151 17.6816 14.2651 18.4265C14.3792 19.1713 14.7242 19.8616 15.2514 20.4001L17.7954 22.9441C18.4704 23.6182 19.3854 23.9969 20.3394 23.9969C21.2934 23.9969 22.2084 23.6182 22.8834 22.9441C23.2263 22.6088 23.4987 22.2084 23.6847 21.7664C23.8707 21.3244 23.9666 20.8496 23.9666 20.3701C23.9666 19.8905 23.8707 19.4158 23.6847 18.9738C23.4987 18.5318 23.2263 18.1313 22.8834 17.7961ZM12.7074 12.7081C11.8677 13.5457 10.7986 14.1156 9.63509 14.3459C8.47162 14.5762 7.266 14.4565 6.17052 14.0019C5.07505 13.5473 4.13887 12.7783 3.48026 11.7919C2.82164 10.8056 2.47013 9.64612 2.47013 8.46008C2.47013 7.27403 2.82164 6.1146 3.48026 5.12823C4.13887 4.14187 5.07505 3.37282 6.17052 2.91825C7.266 2.46368 8.47162 2.34398 9.63509 2.57426C10.7986 2.80454 11.8677 3.37448 12.7074 4.21208C13.2662 4.76942 13.7095 5.43153 14.012 6.16047C14.3144 6.88941 14.4701 7.67087 14.4701 8.46008C14.4701 9.24928 14.3144 10.0307 14.012 10.7597C13.7095 11.4886 13.2662 12.1507 12.7074 12.7081ZM21.1914 21.1921C21.0798 21.3046 20.9471 21.3938 20.8009 21.4547C20.6547 21.5157 20.4978 21.547 20.3394 21.547C20.181 21.547 20.0241 21.5157 19.8779 21.4547C19.7317 21.3938 19.599 21.3046 19.4874 21.1921L16.9434 18.6481C16.8309 18.5365 16.7417 18.4038 16.6807 18.2576C16.6198 18.1113 16.5884 17.9545 16.5884 17.7961C16.5884 17.6377 16.6198 17.4808 16.6807 17.3346C16.7417 17.1884 16.8309 17.0556 16.9434 16.9441C17.055 16.8316 17.1877 16.7423 17.3339 16.6814C17.4801 16.6205 17.637 16.5891 17.7954 16.5891C17.9538 16.5891 18.1107 16.6205 18.2569 16.6814C18.4031 16.7423 18.5358 16.8316 18.6474 16.9441L21.1914 19.4881C21.3039 19.5996 21.3931 19.7324 21.4541 19.8786C21.515 20.0248 21.5464 20.1817 21.5464 20.3401C21.5464 20.4985 21.515 20.6553 21.4541 20.8016C21.3931 20.9478 21.3039 21.0805 21.1914 21.1921Z" fill="#F2F2F2"/>
</svg>
