<svg width="21" height="20" viewBox="0 0 21 20" fill="none" xmlns="http://www.w3.org/2000/svg">
<path d="M5.49967 17.5001C6.42015 17.5001 7.16634 16.7539 7.16634 15.8334C7.16634 14.9129 6.42015 14.1667 5.49967 14.1667C4.5792 14.1667 3.83301 14.9129 3.83301 15.8334C3.83301 16.7539 4.5792 17.5001 5.49967 17.5001Z" stroke="white" stroke-width="2" stroke-linecap="round" stroke-linejoin="round"/>
<path d="M15.4997 5.83333C16.4201 5.83333 17.1663 5.08714 17.1663 4.16667C17.1663 3.24619 16.4201 2.5 15.4997 2.5C14.5792 2.5 13.833 3.24619 13.833 4.16667C13.833 5.08714 14.5792 5.83333 15.4997 5.83333Z" stroke="white" stroke-width="2" stroke-linecap="round" stroke-linejoin="round"/>
<path d="M10.5003 15.8334H14.2503C15.0239 15.8334 15.7657 15.5261 16.3127 14.9791C16.8597 14.4322 17.167 13.6903 17.167 12.9167C17.167 12.1432 16.8597 11.4013 16.3127 10.8544C15.7657 10.3074 15.0239 10.0001 14.2503 10.0001H7.58366C6.81011 10.0001 6.06825 9.69279 5.52126 9.14581C4.97428 8.59883 4.66699 7.85696 4.66699 7.08342C4.66699 6.30987 4.97428 5.568 5.52126 5.02102C6.06825 4.47404 6.81011 4.16675 7.58366 4.16675H10.5003" stroke="white" stroke-width="2" stroke-linecap="round" stroke-linejoin="round"/>
</svg>
