<svg xmlns="http://www.w3.org/2000/svg" xmlns:xlink="http://www.w3.org/1999/xlink">
    <symbol id="account" viewBox="0 0 24 24">
        <path d="M11.9996 2C10.06 2.00369 8.16344 2.57131 6.54079 3.63374C4.91814 4.69617 3.63946 6.20754 2.8605 7.98377C2.08155 9.76 1.83594 11.7244 2.15359 13.6378C2.47124 15.5511 3.33844 17.3308 4.64956 18.76C5.58598 19.775 6.7225 20.5851 7.9875 21.1392C9.25249 21.6933 10.6185 21.9793 11.9996 21.9793C13.3806 21.9793 14.7466 21.6933 16.0116 21.1392C17.2766 20.5851 18.4131 19.775 19.3496 18.76C20.6607 17.3308 21.5279 15.5511 21.8455 13.6378C22.1632 11.7244 21.9176 9.76 21.1386 7.98377C20.3597 6.20754 19.081 4.69617 17.4583 3.63374C15.8357 2.57131 13.9391 2.00369 11.9996 2ZM11.9996 20C9.92803 19.9969 7.93848 19.1903 6.44956 17.75C6.9016 16.6495 7.67059 15.7083 8.65881 15.0459C9.64703 14.3835 10.8099 14.0298 11.9996 14.0298C13.1893 14.0298 14.3521 14.3835 15.3403 15.0459C16.3285 15.7083 17.0975 16.6495 17.5496 17.75C16.0606 19.1903 14.0711 19.9969 11.9996 20ZM9.99956 10C9.99956 9.60444 10.1169 9.21776 10.3366 8.88886C10.5564 8.55996 10.8687 8.30362 11.2342 8.15224C11.5996 8.00087 12.0018 7.96126 12.3897 8.03843C12.7777 8.1156 13.1341 8.30608 13.4138 8.58579C13.6935 8.86549 13.884 9.22186 13.9611 9.60982C14.0383 9.99778 13.9987 10.3999 13.8473 10.7654C13.6959 11.1308 13.4396 11.4432 13.1107 11.6629C12.7818 11.8827 12.3951 12 11.9996 12C11.4691 12 10.9604 11.7893 10.5853 11.4142C10.2103 11.0391 9.99956 10.5304 9.99956 10ZM18.9096 16C18.0161 14.4718 16.641 13.283 14.9996 12.62C15.5087 12.0427 15.8405 11.3307 15.955 10.5694C16.0696 9.80822 15.962 9.03011 15.6453 8.3285C15.3286 7.62688 14.8161 7.03156 14.1695 6.61397C13.5228 6.19637 12.7694 5.97425 11.9996 5.97425C11.2298 5.97425 10.4763 6.19637 9.82965 6.61397C9.18298 7.03156 8.67053 7.62688 8.35381 8.3285C8.03709 9.03011 7.92955 9.80822 8.04409 10.5694C8.15863 11.3307 8.49039 12.0427 8.99956 12.62C7.35816 13.283 5.98303 14.4718 5.08956 16C4.3775 14.7871 4.00128 13.4065 3.99956 12C3.99956 9.87827 4.84242 7.84344 6.34271 6.34315C7.843 4.84285 9.87783 4 11.9996 4C14.1213 4 16.1561 4.84285 17.6564 6.34315C19.1567 7.84344 19.9996 9.87827 19.9996 12C19.9978 13.4065 19.6216 14.7871 18.9096 16Z" fill="white" fill-opacity="0.5"/>
    </symbol>
    <symbol id="calendarData" viewBox="0 0 24 24">
        <path d="M12 19C12.1978 19 12.3911 18.9414 12.5556 18.8315C12.72 18.7216 12.8482 18.5654 12.9239 18.3827C12.9996 18.2 13.0194 17.9989 12.9808 17.8049C12.9422 17.6109 12.847 17.4327 12.7071 17.2929C12.5673 17.153 12.3891 17.0578 12.1951 17.0192C12.0011 16.9806 11.8 17.0004 11.6173 17.0761C11.4346 17.1518 11.2784 17.28 11.1685 17.4444C11.0586 17.6089 11 17.8022 11 18C11 18.2652 11.1054 18.5196 11.2929 18.7071C11.4804 18.8946 11.7348 19 12 19ZM17 19C17.1978 19 17.3911 18.9414 17.5556 18.8315C17.72 18.7216 17.8482 18.5654 17.9239 18.3827C17.9996 18.2 18.0194 17.9989 17.9808 17.8049C17.9422 17.6109 17.847 17.4327 17.7071 17.2929C17.5673 17.153 17.3891 17.0578 17.1951 17.0192C17.0011 16.9806 16.8 17.0004 16.6173 17.0761C16.4346 17.1518 16.2784 17.28 16.1685 17.4444C16.0586 17.6089 16 17.8022 16 18C16 18.2652 16.1054 18.5196 16.2929 18.7071C16.4804 18.8946 16.7348 19 17 19ZM17 15C17.1978 15 17.3911 14.9414 17.5556 14.8315C17.72 14.7216 17.8482 14.5654 17.9239 14.3827C17.9996 14.2 18.0194 13.9989 17.9808 13.8049C17.9422 13.6109 17.847 13.4327 17.7071 13.2929C17.5673 13.153 17.3891 13.0578 17.1951 13.0192C17.0011 12.9806 16.8 13.0004 16.6173 13.0761C16.4346 13.1518 16.2784 13.28 16.1685 13.4444C16.0586 13.6089 16 13.8022 16 14C16 14.2652 16.1054 14.5196 16.2929 14.7071C16.4804 14.8946 16.7348 15 17 15ZM12 15C12.1978 15 12.3911 14.9414 12.5556 14.8315C12.72 14.7216 12.8482 14.5654 12.9239 14.3827C12.9996 14.2 13.0194 13.9989 12.9808 13.8049C12.9422 13.6109 12.847 13.4327 12.7071 13.2929C12.5673 13.153 12.3891 13.0578 12.1951 13.0192C12.0011 12.9806 11.8 13.0004 11.6173 13.0761C11.4346 13.1518 11.2784 13.28 11.1685 13.4444C11.0586 13.6089 11 13.8022 11 14C11 14.2652 11.1054 14.5196 11.2929 14.7071C11.4804 14.8946 11.7348 15 12 15ZM19 3H18V2C18 1.73478 17.8946 1.48043 17.7071 1.29289C17.5196 1.10536 17.2652 1 17 1C16.7348 1 16.4804 1.10536 16.2929 1.29289C16.1054 1.48043 16 1.73478 16 2V3H8V2C8 1.73478 7.89464 1.48043 7.70711 1.29289C7.51957 1.10536 7.26522 1 7 1C6.73478 1 6.48043 1.10536 6.29289 1.29289C6.10536 1.48043 6 1.73478 6 2V3H5C4.20435 3 3.44129 3.31607 2.87868 3.87868C2.31607 4.44129 2 5.20435 2 6V20C2 20.7956 2.31607 21.5587 2.87868 22.1213C3.44129 22.6839 4.20435 23 5 23H19C19.7956 23 20.5587 22.6839 21.1213 22.1213C21.6839 21.5587 22 20.7956 22 20V6C22 5.20435 21.6839 4.44129 21.1213 3.87868C20.5587 3.31607 19.7956 3 19 3ZM20 20C20 20.2652 19.8946 20.5196 19.7071 20.7071C19.5196 20.8946 19.2652 21 19 21H5C4.73478 21 4.48043 20.8946 4.29289 20.7071C4.10536 20.5196 4 20.2652 4 20V11H20V20ZM20 9H4V6C4 5.73478 4.10536 5.48043 4.29289 5.29289C4.48043 5.10536 4.73478 5 5 5H6V6C6 6.26522 6.10536 6.51957 6.29289 6.70711C6.48043 6.89464 6.73478 7 7 7C7.26522 7 7.51957 6.89464 7.70711 6.70711C7.89464 6.51957 8 6.26522 8 6V5H16V6C16 6.26522 16.1054 6.51957 16.2929 6.70711C16.4804 6.89464 16.7348 7 17 7C17.2652 7 17.5196 6.89464 17.7071 6.70711C17.8946 6.51957 18 6.26522 18 6V5H19C19.2652 5 19.5196 5.10536 19.7071 5.29289C19.8946 5.48043 20 5.73478 20 6V9ZM7 15C7.19778 15 7.39112 14.9414 7.55557 14.8315C7.72002 14.7216 7.84819 14.5654 7.92388 14.3827C7.99957 14.2 8.01937 13.9989 7.98079 13.8049C7.9422 13.6109 7.84696 13.4327 7.70711 13.2929C7.56725 13.153 7.38907 13.0578 7.19509 13.0192C7.00111 12.9806 6.80004 13.0004 6.61732 13.0761C6.43459 13.1518 6.27841 13.28 6.16853 13.4444C6.05865 13.6089 6 13.8022 6 14C6 14.2652 6.10536 14.5196 6.29289 14.7071C6.48043 14.8946 6.73478 15 7 15ZM7 19C7.19778 19 7.39112 18.9414 7.55557 18.8315C7.72002 18.7216 7.84819 18.5654 7.92388 18.3827C7.99957 18.2 8.01937 17.9989 7.98079 17.8049C7.9422 17.6109 7.84696 17.4327 7.70711 17.2929C7.56725 17.153 7.38907 17.0578 7.19509 17.0192C7.00111 16.9806 6.80004 17.0004 6.61732 17.0761C6.43459 17.1518 6.27841 17.28 6.16853 17.4444C6.05865 17.6089 6 17.8022 6 18C6 18.2652 6.10536 18.5196 6.29289 18.7071C6.48043 18.8946 6.73478 19 7 19Z" fill="white" fill-opacity="0.5"/>
    </symbol>
    <symbol id="clock" viewBox="0 0 24 24">
        <path d="M11 2C9.02219 2 7.08879 2.58649 5.4443 3.6853C3.79981 4.78412 2.51809 6.3459 1.76121 8.17317C1.00433 10.0004 0.806299 12.0111 1.19215 13.9509C1.578 15.8907 2.53041 17.6725 3.92894 19.0711C5.32746 20.4696 7.10929 21.422 9.0491 21.8079C10.9889 22.1937 12.9996 21.9957 14.8268 21.2388C16.6541 20.4819 18.2159 19.2002 19.3147 17.5557C20.4135 15.9112 21 13.9778 21 12C21 10.6868 20.7413 9.38642 20.2388 8.17317C19.7363 6.95991 18.9997 5.85752 18.0711 4.92893C17.1425 4.00035 16.0401 3.26375 14.8268 2.7612C13.6136 2.25866 12.3132 2 11 2ZM11 20C9.41775 20 7.87104 19.5308 6.55544 18.6518C5.23985 17.7727 4.21447 16.5233 3.60897 15.0615C3.00347 13.5997 2.84504 11.9911 3.15372 10.4393C3.4624 8.88743 4.22433 7.46197 5.34315 6.34315C6.46197 5.22433 7.88743 4.4624 9.43928 4.15372C10.9911 3.84504 12.5997 4.00346 14.0615 4.60896C15.5233 5.21447 16.7727 6.23984 17.6518 7.55544C18.5308 8.87103 19 10.4177 19 12C19 14.1217 18.1572 16.1566 16.6569 17.6569C15.1566 19.1571 13.1217 20 11 20ZM11 6C10.7348 6 10.4804 6.10536 10.2929 6.29289C10.1054 6.48043 10 6.73478 10 7V11.42L7.9 12.63C7.70736 12.7392 7.5564 12.9092 7.47078 13.1134C7.38517 13.3176 7.36975 13.5444 7.42695 13.7583C7.48414 13.9722 7.61072 14.1611 7.78682 14.2953C7.96292 14.4296 8.17859 14.5015 8.4 14.5C8.57518 14.5012 8.7476 14.4564 8.9 14.37L11.5 12.87L11.59 12.78L11.75 12.65C11.7891 12.6005 11.8226 12.5468 11.85 12.49C11.8826 12.4363 11.9094 12.3793 11.93 12.32C11.9572 12.2564 11.9741 12.1889 11.98 12.12L12 12V7C12 6.73478 11.8946 6.48043 11.7071 6.29289C11.5196 6.10536 11.2652 6 11 6Z" fill="white" fill-opacity="0.5"/>
    </symbol>
    <symbol id="checked-green" viewBox="0 0 24 24">
        <path d="M18.7085 7.2101C18.6155 7.11638 18.5049 7.04198 18.3831 6.99121C18.2612 6.94044 18.1305 6.91431 17.9985 6.91431C17.8665 6.91431 17.7358 6.94044 17.6139 6.99121C17.492 7.04198 17.3814 7.11638 17.2885 7.2101L9.83849 14.6701L6.70849 11.5301C6.61196 11.4369 6.49802 11.3636 6.37317 11.3143C6.24831 11.2651 6.11499 11.241 5.98081 11.2433C5.84663 11.2457 5.71422 11.2744 5.59114 11.3279C5.46806 11.3814 5.35672 11.4586 5.26348 11.5551C5.17025 11.6516 5.09693 11.7656 5.04773 11.8904C4.99852 12.0153 4.97439 12.1486 4.97672 12.2828C4.97904 12.417 5.00776 12.5494 5.06126 12.6725C5.11475 12.7955 5.19196 12.9069 5.28848 13.0001L9.12849 16.8401C9.22145 16.9338 9.33205 17.0082 9.45391 17.059C9.57577 17.1098 9.70647 17.1359 9.83849 17.1359C9.9705 17.1359 10.1012 17.1098 10.2231 17.059C10.3449 17.0082 10.4555 16.9338 10.5485 16.8401L18.7085 8.68011C18.81 8.58646 18.891 8.47281 18.9464 8.34631C19.0018 8.21981 19.0304 8.08321 19.0304 7.94511C19.0304 7.807 19.0018 7.6704 18.9464 7.5439C18.891 7.4174 18.81 7.30375 18.7085 7.2101Z" fill="#27AE60"/>
    </symbol>
    <symbol id="alert" viewBox="0 0 24 24">
        <path d="M12 8V12M12 16H12.01M22 12C22 17.5228 17.5228 22 12 22C6.47715 22 2 17.5228 2 12C2 6.47715 6.47715 2 12 2C17.5228 2 22 6.47715 22 12Z" stroke="#E30514" stroke-linecap="round" stroke-linejoin="round" fill-opacity="0"/>
    </symbol>
    <symbol id="check" viewBox="0 0 24 24">
        <path d="M18.7104 7.20986C18.6175 7.11613 18.5069 7.04174 18.385 6.99097C18.2632 6.9402 18.1324 6.91406 18.0004 6.91406C17.8684 6.91406 17.7377 6.9402 17.6159 6.99097C17.494 7.04174 17.3834 7.11613 17.2904 7.20986L9.84044 14.6699L6.71044 11.5299C6.61392 11.4366 6.49998 11.3633 6.37512 11.3141C6.25026 11.2649 6.11694 11.2408 5.98276 11.2431C5.84858 11.2454 5.71617 11.2741 5.59309 11.3276C5.47001 11.3811 5.35868 11.4583 5.26544 11.5549C5.1722 11.6514 5.09889 11.7653 5.04968 11.8902C5.00048 12.015 4.97635 12.1484 4.97867 12.2825C4.98099 12.4167 5.00972 12.5491 5.06321 12.6722C5.1167 12.7953 5.19392 12.9066 5.29044 12.9999L9.13044 16.8399C9.2234 16.9336 9.334 17.008 9.45586 17.0588C9.57772 17.1095 9.70843 17.1357 9.84044 17.1357C9.97245 17.1357 10.1032 17.1095 10.225 17.0588C10.3469 17.008 10.4575 16.9336 10.5504 16.8399L18.7104 8.67986C18.8119 8.58622 18.893 8.47257 18.9484 8.34607C19.0038 8.21957 19.0324 8.08296 19.0324 7.94486C19.0324 7.80676 19.0038 7.67015 18.9484 7.54365C18.893 7.41715 18.8119 7.3035 18.7104 7.20986Z"/>
    </symbol>
    <symbol id="geo" viewBox="0 0 24 24">
        <path d="M12 2C9.87827 2 7.84344 2.84285 6.34315 4.34315C4.84285 5.84344 4 7.87827 4 10C4 15.4 11.05 21.5 11.35 21.76C11.5311 21.9149 11.7616 22.0001 12 22.0001C12.2384 22.0001 12.4689 21.9149 12.65 21.76C13 21.5 20 15.4 20 10C20 7.87827 19.1571 5.84344 17.6569 4.34315C16.1566 2.84285 14.1217 2 12 2ZM12 19.65C9.87 17.65 6 13.34 6 10C6 8.4087 6.63214 6.88258 7.75736 5.75736C8.88258 4.63214 10.4087 4 12 4C13.5913 4 15.1174 4.63214 16.2426 5.75736C17.3679 6.88258 18 8.4087 18 10C18 13.34 14.13 17.66 12 19.65ZM12 6C11.2089 6 10.4355 6.2346 9.77772 6.67412C9.11992 7.11365 8.60723 7.73836 8.30448 8.46927C8.00173 9.20017 7.92252 10.0044 8.07686 10.7804C8.2312 11.5563 8.61216 12.269 9.17157 12.8284C9.73098 13.3878 10.4437 13.7688 11.2196 13.9231C11.9956 14.0775 12.7998 13.9983 13.5307 13.6955C14.2616 13.3928 14.8864 12.8801 15.3259 12.2223C15.7654 11.5645 16 10.7911 16 10C16 8.93913 15.5786 7.92172 14.8284 7.17157C14.0783 6.42143 13.0609 6 12 6ZM12 12C11.6044 12 11.2178 11.8827 10.8889 11.6629C10.56 11.4432 10.3036 11.1308 10.1522 10.7654C10.0009 10.3999 9.96126 9.99778 10.0384 9.60982C10.1156 9.22186 10.3061 8.86549 10.5858 8.58579C10.8655 8.30608 11.2219 8.1156 11.6098 8.03843C11.9978 7.96126 12.3999 8.00087 12.7654 8.15224C13.1308 8.30362 13.4432 8.55996 13.6629 8.88886C13.8827 9.21776 14 9.60444 14 10C14 10.5304 13.7893 11.0391 13.4142 11.4142C13.0391 11.7893 12.5304 12 12 12Z" fill="white" fill-opacity="0.5"/>
    </symbol>
</svg>