<svg xmlns="http://www.w3.org/2000/svg" xmlns:xlink="http://www.w3.org/1999/xlink">
    <symbol id="history" viewBox="0 0 24 24">
        <path d="M11.4401 2C8.87644 2.00731 6.41355 2.99891 4.56006 4.77V3C4.56006 2.73478 4.4547 2.48043 4.26717 2.29289C4.07963 2.10536 3.82528 2 3.56006 2C3.29484 2 3.04049 2.10536 2.85295 2.29289C2.66542 2.48043 2.56006 2.73478 2.56006 3V7.5C2.56006 7.76522 2.66542 8.01957 2.85295 8.20711C3.04049 8.39464 3.29484 8.5 3.56006 8.5H8.06006C8.32528 8.5 8.57963 8.39464 8.76717 8.20711C8.9547 8.01957 9.06006 7.76522 9.06006 7.5C9.06006 7.23478 8.9547 6.98043 8.76717 6.79289C8.57963 6.60536 8.32528 6.5 8.06006 6.5H5.66006C6.57177 5.53701 7.70856 4.81576 8.96819 4.40114C10.2278 3.98651 11.5707 3.89152 12.8762 4.1247C14.1816 4.35788 15.4086 4.91193 16.4468 5.73699C17.485 6.56205 18.3018 7.63226 18.8238 8.85133C19.3457 10.0704 19.5564 11.4001 19.4369 12.7208C19.3175 14.0415 18.8716 15.3118 18.1393 16.4174C17.4071 17.5231 16.4115 18.4293 15.2421 19.0547C14.0727 19.68 12.7662 20.0049 11.4401 20C11.1748 20 10.9205 20.1054 10.733 20.2929C10.5454 20.4804 10.4401 20.7348 10.4401 21C10.4401 21.2652 10.5454 21.5196 10.733 21.7071C10.9205 21.8946 11.1748 22 11.4401 22C14.0922 22 16.6358 20.9464 18.5111 19.0711C20.3865 17.1957 21.4401 14.6522 21.4401 12C21.4401 9.34784 20.3865 6.8043 18.5111 4.92893C16.6358 3.05357 14.0922 2 11.4401 2ZM11.4401 8C11.1748 8 10.9205 8.10536 10.733 8.29289C10.5454 8.48043 10.4401 8.73478 10.4401 9V12C10.4401 12.2652 10.5454 12.5196 10.733 12.7071C10.9205 12.8946 11.1748 13 11.4401 13H13.4401C13.7053 13 13.9596 12.8946 14.1472 12.7071C14.3347 12.5196 14.4401 12.2652 14.4401 12C14.4401 11.7348 14.3347 11.4804 14.1472 11.2929C13.9596 11.1054 13.7053 11 13.4401 11H12.4401V9C12.4401 8.73478 12.3347 8.48043 12.1472 8.29289C11.9596 8.10536 11.7053 8 11.4401 8Z"
              fill="white"/>
    </symbol>
    <symbol id="car" viewBox="0 0 24 24">
        <path d="M5 9.50001H5.32L6.57 6.38001C6.79325 5.82527 7.17718 5.3499 7.67253 5.01492C8.16787 4.67993 8.75202 4.50063 9.35 4.50001H15.35C16.0447 4.49802 16.7186 4.7372 17.2566 5.17673C17.7946 5.61625 18.1634 6.22886 18.3 6.91001L18.82 9.50001H19C19.7956 9.50001 20.5587 9.81608 21.1213 10.3787C21.6839 10.9413 22 11.7044 22 12.5V15.5C22 15.7652 21.8946 16.0196 21.7071 16.2071C21.5196 16.3947 21.2652 16.5 21 16.5H20C20 17.2957 19.6839 18.0587 19.1213 18.6213C18.5587 19.1839 17.7956 19.5 17 19.5C16.2044 19.5 15.4413 19.1839 14.8787 18.6213C14.3161 18.0587 14 17.2957 14 16.5H10C10 17.2957 9.68393 18.0587 9.12132 18.6213C8.55871 19.1839 7.79565 19.5 7 19.5C6.20435 19.5 5.44129 19.1839 4.87868 18.6213C4.31607 18.0587 4 17.2957 4 16.5H3C2.73478 16.5 2.48043 16.3947 2.29289 16.2071C2.10536 16.0196 2 15.7652 2 15.5V12.5C2 11.7044 2.31607 10.9413 2.87868 10.3787C3.44129 9.81608 4.20435 9.50001 5 9.50001ZM11 6.50001H9.35C9.15143 6.50181 8.95789 6.56269 8.79404 6.67488C8.6302 6.78708 8.50347 6.94552 8.43 7.13001L7.48 9.50001H11V6.50001ZM16.34 7.30001C16.2932 7.07074 16.1676 6.86511 15.9849 6.71894C15.8021 6.57277 15.5739 6.49529 15.34 6.50001H13V9.50001H16.78L16.34 7.30001ZM17 17.5C17.1978 17.5 17.3911 17.4414 17.5556 17.3315C17.72 17.2216 17.8482 17.0654 17.9239 16.8827C17.9996 16.7 18.0194 16.4989 17.9808 16.3049C17.9422 16.1109 17.847 15.9328 17.7071 15.7929C17.5673 15.6531 17.3891 15.5578 17.1951 15.5192C17.0011 15.4806 16.8 15.5004 16.6173 15.5761C16.4346 15.6518 16.2784 15.78 16.1685 15.9444C16.0586 16.1089 16 16.3022 16 16.5C16 16.7652 16.1054 17.0196 16.2929 17.2071C16.4804 17.3947 16.7348 17.5 17 17.5ZM7 17.5C7.19778 17.5 7.39112 17.4414 7.55557 17.3315C7.72002 17.2216 7.84819 17.0654 7.92388 16.8827C7.99957 16.7 8.01937 16.4989 7.98079 16.3049C7.9422 16.1109 7.84696 15.9328 7.70711 15.7929C7.56726 15.6531 7.38907 15.5578 7.19509 15.5192C7.00111 15.4806 6.80004 15.5004 6.61732 15.5761C6.43459 15.6518 6.27841 15.78 6.16853 15.9444C6.05865 16.1089 6 16.3022 6 16.5C6 16.7652 6.10536 17.0196 6.29289 17.2071C6.48043 17.3947 6.73478 17.5 7 17.5ZM4 14.5H4.78C5.06118 14.1907 5.40391 13.9435 5.78622 13.7743C6.16852 13.6052 6.58195 13.5178 7 13.5178C7.41805 13.5178 7.83148 13.6052 8.21378 13.7743C8.59609 13.9435 8.93882 14.1907 9.22 14.5H14.78C15.0612 14.1907 15.4039 13.9435 15.7862 13.7743C16.1685 13.6052 16.582 13.5178 17 13.5178C17.418 13.5178 17.8315 13.6052 18.2138 13.7743C18.5961 13.9435 18.9388 14.1907 19.22 14.5H20V12.5C20 12.2348 19.8946 11.9804 19.7071 11.7929C19.5196 11.6054 19.2652 11.5 19 11.5H5C4.73478 11.5 4.48043 11.6054 4.29289 11.7929C4.10536 11.9804 4 12.2348 4 12.5V14.5Z"
              fill="#F2F2F2"/>
    </symbol>
    <symbol id="award" viewBox="0 0 24 24">
        <path d="M12 15C15.866 15 19 11.866 19 8C19 4.13401 15.866 1 12 1C8.13401 1 5 4.13401 5 8C5 11.866 8.13401 15 12 15Z"
              stroke="#F2F2F2" stroke-width="2" stroke-linecap="round" stroke-linejoin="round" fill-opacity="0"/>
        <path d="M8.21 13.8899L7 22.9999L12 19.9999L17 22.9999L15.79 13.8799" stroke="#F2F2F2" stroke-width="2"
              stroke-linecap="round" stroke-linejoin="round" fill-opacity="0"/>
    </symbol>
    <symbol id="settings" viewBox="0 0 24 24">
        <path d="M21.32 9.55L19.43 8.92L20.32 7.14C20.4102 6.95369 20.4404 6.74397 20.4064 6.53978C20.3723 6.33558 20.2758 6.14699 20.13 6L18 3.87C17.8522 3.72209 17.6618 3.62421 17.4555 3.59013C17.2493 3.55605 17.0375 3.58748 16.85 3.68L15.07 4.57L14.44 2.68C14.3735 2.483 14.2472 2.31163 14.0787 2.18975C13.9102 2.06787 13.7079 2.00155 13.5 2H10.5C10.2904 1.99946 10.0858 2.06482 9.91537 2.18685C9.7449 2.30887 9.61709 2.48138 9.55 2.68L8.92 4.57L7.14 3.68C6.95369 3.58978 6.74397 3.55961 6.53978 3.59364C6.33558 3.62767 6.14699 3.72423 6 3.87L3.87 6C3.72209 6.14777 3.62421 6.33818 3.59013 6.54446C3.55605 6.75074 3.58748 6.96251 3.68 7.15L4.57 8.93L2.68 9.56C2.483 9.62654 2.31163 9.75283 2.18975 9.92131C2.06787 10.0898 2.00155 10.2921 2 10.5V13.5C1.99946 13.7096 2.06482 13.9142 2.18685 14.0846C2.30887 14.2551 2.48138 14.3829 2.68 14.45L4.57 15.08L3.68 16.86C3.58978 17.0463 3.55961 17.256 3.59364 17.4602C3.62767 17.6644 3.72423 17.853 3.87 18L6 20.13C6.14777 20.2779 6.33818 20.3758 6.54446 20.4099C6.75074 20.444 6.96251 20.4125 7.15 20.32L8.93 19.43L9.56 21.32C9.62709 21.5186 9.7549 21.6911 9.92537 21.8132C10.0958 21.9352 10.3004 22.0005 10.51 22H13.51C13.7196 22.0005 13.9242 21.9352 14.0946 21.8132C14.2651 21.6911 14.3929 21.5186 14.46 21.32L15.09 19.43L16.87 20.32C17.0551 20.4079 17.2628 20.4369 17.4649 20.4029C17.667 20.3689 17.8538 20.2737 18 20.13L20.13 18C20.2779 17.8522 20.3758 17.6618 20.4099 17.4555C20.444 17.2493 20.4125 17.0375 20.32 16.85L19.43 15.07L21.32 14.44C21.517 14.3735 21.6884 14.2472 21.8103 14.0787C21.9321 13.9102 21.9985 13.7079 22 13.5V10.5C22.0005 10.2904 21.9352 10.0858 21.8132 9.91537C21.6911 9.7449 21.5186 9.61709 21.32 9.55ZM20 12.78L18.8 13.18C18.5241 13.2695 18.2709 13.418 18.0581 13.6151C17.8452 13.8122 17.6778 14.0533 17.5675 14.3216C17.4571 14.5899 17.4064 14.879 17.419 15.1688C17.4315 15.4586 17.5069 15.7422 17.64 16L18.21 17.14L17.11 18.24L16 17.64C15.7436 17.5122 15.4627 17.4411 15.1763 17.4313C14.89 17.4215 14.6049 17.4734 14.3403 17.5834C14.0758 17.6934 13.8379 17.8589 13.6429 18.0688C13.4479 18.2787 13.3003 18.5281 13.21 18.8L12.81 20H11.22L10.82 18.8C10.7305 18.5241 10.582 18.2709 10.3849 18.0581C10.1878 17.8452 9.94671 17.6778 9.67842 17.5675C9.41014 17.4571 9.12105 17.4064 8.83123 17.419C8.5414 17.4315 8.25777 17.5069 8 17.64L6.86 18.21L5.76 17.11L6.36 16C6.4931 15.7422 6.56852 15.4586 6.58105 15.1688C6.59358 14.879 6.5429 14.5899 6.43254 14.3216C6.32218 14.0533 6.15478 13.8122 5.94195 13.6151C5.72912 13.418 5.47595 13.2695 5.2 13.18L4 12.78V11.22L5.2 10.82C5.47595 10.7305 5.72912 10.582 5.94195 10.3849C6.15478 10.1878 6.32218 9.94671 6.43254 9.67842C6.5429 9.41014 6.59358 9.12105 6.58105 8.83123C6.56852 8.5414 6.4931 8.25777 6.36 8L5.79 6.89L6.89 5.79L8 6.36C8.25777 6.4931 8.5414 6.56852 8.83123 6.58105C9.12105 6.59358 9.41014 6.5429 9.67842 6.43254C9.94671 6.32218 10.1878 6.15478 10.3849 5.94195C10.582 5.72912 10.7305 5.47595 10.82 5.2L11.22 4H12.78L13.18 5.2C13.2695 5.47595 13.418 5.72912 13.6151 5.94195C13.8122 6.15478 14.0533 6.32218 14.3216 6.43254C14.5899 6.5429 14.879 6.59358 15.1688 6.58105C15.4586 6.56852 15.7422 6.4931 16 6.36L17.14 5.79L18.24 6.89L17.64 8C17.5122 8.25645 17.4411 8.53735 17.4313 8.82369C17.4215 9.11003 17.4734 9.39513 17.5834 9.65969C17.6934 9.92424 17.8589 10.1621 18.0688 10.3571C18.2787 10.5521 18.5281 10.6997 18.8 10.79L20 11.19V12.78ZM12 8C11.2089 8 10.4355 8.2346 9.77772 8.67413C9.11993 9.11365 8.60724 9.73836 8.30448 10.4693C8.00173 11.2002 7.92252 12.0044 8.07686 12.7804C8.2312 13.5563 8.61217 14.269 9.17158 14.8284C9.73099 15.3878 10.4437 15.7688 11.2196 15.9231C11.9956 16.0775 12.7998 15.9983 13.5307 15.6955C14.2616 15.3928 14.8864 14.8801 15.3259 14.2223C15.7654 13.5645 16 12.7911 16 12C16 10.9391 15.5786 9.92172 14.8284 9.17158C14.0783 8.42143 13.0609 8 12 8ZM12 14C11.6044 14 11.2178 13.8827 10.8889 13.6629C10.56 13.4432 10.3036 13.1308 10.1522 12.7654C10.0009 12.3999 9.96126 11.9978 10.0384 11.6098C10.1156 11.2219 10.3061 10.8655 10.5858 10.5858C10.8655 10.3061 11.2219 10.1156 11.6098 10.0384C11.9978 9.96126 12.3999 10.0009 12.7654 10.1522C13.1308 10.3036 13.4432 10.56 13.6629 10.8889C13.8827 11.2178 14 11.6044 14 12C14 12.5304 13.7893 13.0391 13.4142 13.4142C13.0391 13.7893 12.5304 14 12 14Z"
              fill="#F2F2F2"/>
    </symbol>
    <symbol id="heart" viewBox="0 0 24 24">
        <path d="M20.1598 4.99992C19.0998 3.93713 17.6946 3.28846 16.1981 3.17109C14.7017 3.05372 13.2126 3.47539 11.9998 4.35992C10.7274 3.41356 9.14378 2.98443 7.56771 3.15896C5.99164 3.33348 4.54023 4.0987 3.50576 5.30051C2.47129 6.50231 1.93061 8.05144 1.99259 9.63594C2.05457 11.2204 2.71461 12.7226 3.83979 13.8399L10.0498 20.0599C10.5698 20.5717 11.2702 20.8585 11.9998 20.8585C12.7294 20.8585 13.4298 20.5717 13.9498 20.0599L20.1598 13.8399C21.3274 12.6652 21.9827 11.0762 21.9827 9.41992C21.9827 7.76365 21.3274 6.17465 20.1598 4.99992ZM18.7498 12.4599L12.5398 18.6699C12.4691 18.7413 12.385 18.7979 12.2923 18.8366C12.1996 18.8752 12.1002 18.8951 11.9998 18.8951C11.8994 18.8951 11.7999 18.8752 11.7072 18.8366C11.6146 18.7979 11.5305 18.7413 11.4598 18.6699L5.24979 12.4299C4.46555 11.6283 4.0264 10.5514 4.0264 9.42992C4.0264 8.30846 4.46555 7.23158 5.24979 6.42992C6.04894 5.64091 7.12676 5.19849 8.24979 5.19849C9.37281 5.19849 10.4506 5.64091 11.2498 6.42992C11.3428 6.52365 11.4534 6.59804 11.5752 6.64881C11.6971 6.69958 11.8278 6.72572 11.9598 6.72572C12.0918 6.72572 12.2225 6.69958 12.3444 6.64881C12.4662 6.59804 12.5768 6.52365 12.6698 6.42992C13.4689 5.64091 14.5468 5.19849 15.6698 5.19849C16.7928 5.19849 17.8706 5.64091 18.6698 6.42992C19.4648 7.22107 19.9184 8.29211 19.9333 9.41361C19.9483 10.5351 19.5234 11.6179 18.7498 12.4299V12.4599Z" fill="#F2F2F2"/>
    </symbol>
    <symbol id="history-empty" viewBox="0 0 148 139">
        <g clip-path="url(#history-empty)">
            <path fill-rule="evenodd" clip-rule="evenodd" d="M19.45 4.11365L18.8107 2.49765C18.0238 0.465417 15.7125 -0.513974 13.6716 0.269538C11.6307 1.07754 10.6472 3.35462 11.434 5.38685L12.0733 7.00285C12.573 8.25439 13.6323 9.11591 14.8491 9.4044C14.8752 9.62557 14.9326 9.84718 15.0239 10.0635L22.3445 27.1958L7.49015 33.48C6.49442 32.9378 5.27055 32.8241 4.131 33.2752L2.50814 33.9118C0.467269 34.6953 -0.540872 36.9969 0.270559 39.0291C1.0574 41.0614 3.36875 42.0653 5.40962 41.2573L7.03248 40.6207C8.31259 40.1292 9.1864 39.0405 9.45973 37.7957L24.2078 31.5564L30.8441 47.0871C29.3812 48.2617 28.2333 49.8563 27.6135 51.7613C26.8021 54.2833 27.0234 56.9766 28.2282 59.3516C29.4331 61.7266 31.5231 63.4895 34.0558 64.2975L58.4971 72.1571C59.4806 72.4754 60.5133 72.6468 61.5707 72.6468C62.6172 72.6468 63.3024 72.4549 64.0793 72.2373L64.1033 72.2306L76.9141 68.411V136.234C76.9141 137.556 77.9714 138.609 79.2992 138.609C80.627 138.609 81.6843 137.556 81.6843 136.234V65.2279C81.6843 64.4689 81.34 63.7589 80.7253 63.3181C80.1106 62.8774 79.3238 62.7305 78.6107 62.9509L62.7263 67.6764C62.1116 67.8723 61.9395 67.8968 61.5461 67.8968C61.0051 67.8968 60.4641 67.8233 59.9478 67.6519L35.5065 59.7923C34.1787 59.3516 33.0968 58.4457 32.4575 57.1969C31.8182 55.9727 31.7198 54.5526 32.1379 53.2304C33.023 50.4881 35.9737 48.9945 38.7277 49.876L60.9313 57.0256C61.3739 57.1725 61.8657 57.1969 62.3329 57.05L87.143 49.7781C87.2168 49.7536 87.2905 49.7291 87.3397 49.7046L89.5773 48.8476C95.7737 46.4971 102.659 46.4481 108.953 48.7497C109.568 48.9701 110.207 49.2884 110.896 49.7046C110.933 49.7168 110.963 49.7352 110.994 49.7536C111.025 49.7719 111.056 49.7903 111.092 49.8025C111.437 49.9739 111.756 50.1943 112.101 50.4636L141.263 73.969C143.353 75.6585 143.82 78.6456 142.32 80.8982L127.837 102.69C126.879 104.159 125.231 105.04 123.436 105.04C122.535 105.04 121.596 104.798 120.816 104.378C120.758 104.327 120.697 104.278 120.633 104.232C118.248 102.518 117.633 99.2374 119.231 96.7644L125.625 86.946C125.743 86.7627 125.833 86.5693 125.896 86.3708L129.51 80.9227C130.173 79.8943 129.977 78.5232 129.018 77.7641L120.264 70.7125C119.551 70.1494 118.567 70.027 117.731 70.4187C116.895 70.835 116.379 71.6674 116.379 72.5734V92.4188L115.223 94.1935C112.582 98.2475 113.163 103.46 116.379 106.837V136.307C116.379 137.629 117.436 138.682 118.764 138.682C120.067 138.682 121.149 137.605 121.125 136.258V109.496C121.887 109.668 122.649 109.766 123.436 109.766C126.829 109.766 129.977 108.076 131.821 105.285L146.304 83.4936C149.156 79.2087 148.271 73.5038 144.263 70.2718L115.1 46.7664C114.535 46.3012 113.92 45.9095 113.281 45.5912C112.371 45.0525 111.511 44.6118 110.625 44.2935C103.224 41.6001 95.159 41.6491 87.8807 44.4159L85.7169 45.2484L61.6936 52.2755L40.203 45.3463C38.5142 44.8016 36.7819 44.7329 35.1529 45.0647L28.5971 29.6994L44.9514 22.7806C45.9769 23.4103 47.2805 23.5673 48.4892 23.0888L50.1121 22.4522C52.1529 21.6442 53.1611 19.3671 52.3497 17.3349C51.5628 15.3027 49.2515 14.2988 47.2106 15.1068L45.5877 15.7434C44.3766 16.2083 43.5292 17.2079 43.2099 18.3684L26.7362 25.3378L19.4253 8.20261C19.3421 8.00932 19.2359 7.83192 19.1112 7.67245C19.7679 6.64605 19.9379 5.33559 19.45 4.11365ZM82.4709 22.0858C82.4709 31.3166 90.0197 38.8089 99.2651 38.8089C108.51 38.8089 116.059 31.3411 116.059 22.1103C116.059 12.8795 108.535 5.38721 99.2651 5.38721C89.9951 5.38721 82.4709 12.8551 82.4709 22.0858ZM87.2412 22.1103C87.2412 15.4994 92.6507 10.1372 99.2651 10.1372C105.879 10.1372 111.289 15.4994 111.289 22.1103C111.289 28.7212 105.904 34.0833 99.2651 34.0833C92.6261 34.0833 87.2412 28.7212 87.2412 22.1103ZM121.149 84.9137V77.5438L124.321 80.1147L121.149 84.9137Z" fill="white" fill-opacity="0.5"/>
            <path d="M99.3631 138.682C98.0353 138.682 96.978 137.629 96.978 136.307V111.92C96.978 110.598 98.0353 109.545 99.3631 109.545C100.691 109.545 101.748 110.598 101.748 111.92V136.307C101.748 137.605 100.666 138.682 99.3631 138.682Z" fill="white" fill-opacity="0.5"/>
            <path fill-rule="evenodd" clip-rule="evenodd" d="M18.714 103.081H18.0975C13.819 103.081 10.3274 99.6041 10.3274 95.3438V88.1942C10.3274 83.9339 13.819 80.457 18.0975 80.457H69.4143C70.7421 80.457 71.7994 81.5099 71.7994 82.8321C71.7994 84.1542 70.7421 85.2071 69.4143 85.2071H18.0975C16.45 85.2071 15.0976 86.5537 15.0976 88.1942V95.3438C15.0976 96.9842 16.45 98.3309 18.0975 98.3309H69.4143C70.4846 98.3309 71.3792 99.0151 71.6859 99.9729C71.7755 100.224 71.8242 100.496 71.8242 100.779C71.8242 102.101 70.7669 103.154 69.4391 103.154H26.4825C24.4416 103.154 22.7942 104.501 22.7942 106.141V113.291C22.7942 114.932 24.4416 116.278 26.4825 116.278H69.4391C70.7669 116.278 71.8242 117.331 71.8242 118.653C71.8242 118.863 71.797 119.066 71.7458 119.259C71.5152 120.333 70.5666 121.126 69.4144 121.126H15.7862C14.1387 121.126 12.7863 122.473 12.7863 124.113V131.263C12.7863 132.903 14.1387 134.25 15.7862 134.25H69.4144C70.7422 134.25 71.7995 135.303 71.7995 136.625C71.8241 137.923 70.7422 139 69.4389 139H15.7862C11.5077 139 8.01611 135.523 8.01611 131.263V124.113C8.01611 119.853 11.5077 116.376 15.7862 116.376H18.7256C18.2742 115.43 18.0239 114.386 18.0239 113.291V106.141C18.0239 105.056 18.27 104.02 18.714 103.081Z" fill="white" fill-opacity="0.5"/>
        </g>
        <defs>
            <clipPath id="history-empty">
                <rect width="148" height="139" fill="white"/>
            </clipPath>
        </defs>
    </symbol>
    <symbol id="car-empty" viewBox="0 0 148 148">
        <path d="M27.0562 88.3374C22.8937 88.3374 19.6562 91.5749 19.6562 95.7374C19.6562 99.8999 22.8937 103.137 27.0562 103.137C31.2187 103.137 34.4562 99.8999 34.4562 95.7374C34.4562 91.5749 31.2187 88.3374 27.0562 88.3374ZM27.0562 98.0499C25.6687 98.0499 24.7437 97.1249 24.7437 95.7374C24.7437 94.3499 25.6687 93.4249 27.0562 93.4249C28.4437 93.4249 29.3687 94.3499 29.3687 95.7374C29.3687 96.8937 28.4437 98.0499 27.0562 98.0499Z" fill="white" fill-opacity="0.5"/>
        <path d="M111.694 88.3374C107.531 88.3374 104.294 91.5749 104.294 95.7374C104.294 99.8999 107.531 103.137 111.694 103.137C115.856 103.137 119.094 99.8999 119.094 95.7374C119.094 91.5749 115.856 88.3374 111.694 88.3374ZM111.694 98.0499C110.306 98.0499 109.381 97.1249 109.381 95.7374C109.381 94.3499 110.306 93.4249 111.694 93.4249C113.081 93.4249 114.006 94.3499 114.006 95.7374C114.006 96.8937 113.081 98.0499 111.694 98.0499Z" fill="white" fill-opacity="0.5"/>
        <path d="M141.756 57.5813H140.369C138.75 47.8688 128.113 35.3813 112.619 35.3813H60.125C46.25 35.3813 34.225 56.4251 31.2188 62.2063H17.8062C7.8625 62.2063 0 70.3001 0 80.0126V92.9626C0 95.7376 2.3125 98.0501 5.0875 98.0501H10.4062C11.5625 106.144 18.7312 112.388 27.0562 112.388C35.3812 112.388 42.55 106.144 43.7062 98.0501H95.0437C96.2 106.144 103.369 112.388 111.694 112.388C120.019 112.388 127.188 106.144 128.344 98.0501H135.512C138.287 98.0501 140.6 95.7376 140.6 92.9626V80.9376H141.756C145.225 80.9376 148 78.1626 148 74.6939V63.8251C148 60.3563 145.225 57.5813 141.756 57.5813ZM27.0562 107.3C20.5812 107.3 15.2625 101.981 15.2625 95.5064C15.2625 89.0314 20.5812 83.7126 27.0562 83.7126C33.5312 83.7126 38.85 89.0314 38.85 95.5064C38.85 102.213 33.5312 107.3 27.0562 107.3ZM111.694 107.3C105.219 107.3 99.9 101.981 99.9 95.5064C99.9 89.0314 105.219 83.7126 111.694 83.7126C118.169 83.7126 123.488 89.0314 123.488 95.5064C123.488 102.213 118.169 107.3 111.694 107.3ZM135.512 93.1939H128.344C127.188 85.1001 120.019 78.8563 111.694 78.8563C103.369 78.8563 96.2 85.1001 95.0437 93.1939H43.7062C42.55 85.1001 35.3812 78.8563 27.0562 78.8563C18.7312 78.8563 11.5625 85.1001 10.4062 93.1939H5.0875V80.2439C5.0875 73.3064 10.8687 67.5251 17.8062 67.5251H32.6063C33.5312 67.5251 34.4562 67.0626 34.9188 66.1376C38.3875 58.9689 49.7188 40.7001 60.125 40.7001H112.387C126.725 40.7001 135.281 53.4188 135.281 60.3563V78.6251V93.1939H135.512ZM142.912 74.6939C142.912 75.3876 142.45 75.8501 141.756 75.8501H140.6V62.6689H141.756C142.45 62.6689 142.912 63.1314 142.912 63.8251V74.6939Z" fill="white" fill-opacity="0.5"/>
        <path d="M83.0186 46.019H65.9061C59.1998 46.019 52.7248 49.2565 49.2561 54.8065L43.4748 63.594C43.0123 64.2878 43.0123 65.444 43.4748 66.1378C43.9373 67.0628 44.8623 67.5253 45.7873 67.5253H83.0186C84.4061 67.5253 85.5623 66.369 85.5623 64.9815V48.5628C85.5623 47.1753 84.4061 46.019 83.0186 46.019ZM80.4748 62.4378H50.4123L53.6498 57.5815C56.1936 53.6503 60.8186 51.1065 65.9061 51.1065H80.4748V62.4378Z" fill="white" fill-opacity="0.5"/>
        <path d="M108.225 46.019H93.6561C92.2686 46.019 91.1123 47.1753 91.1123 48.5628V64.9815C91.1123 66.369 92.2686 67.5253 93.6561 67.5253H125.8C127.187 67.5253 128.344 66.369 128.344 64.9815C128.575 54.5753 119.556 46.019 108.225 46.019ZM96.4311 62.4378V51.1065H108.456C115.856 51.1065 122.1 55.9628 123.256 62.4378H96.4311Z" fill="white" fill-opacity="0.5"/>
    </symbol>
    <symbol id="form-servise" viewBox="0 0 24 24">
        <path fill-rule="evenodd" clip-rule="evenodd" d="M9.80245 7.11851C9.80245 11.0441 12.9866 14.237 16.9013 14.237C20.816 14.237 24.0001 11.0441 24.0001 7.11851C24.0001 3.19295 20.816 0 16.9013 0C12.9866 0 9.80245 3.19295 9.80245 7.11851ZM10.5604 7.11851C10.5604 3.61215 13.4046 0.760039 16.9013 0.760039C20.3979 0.760039 23.2421 3.61215 23.2421 7.11851C23.2421 10.6249 20.3979 13.477 16.9013 13.477C13.4046 13.477 10.5604 10.6249 10.5604 7.11851ZM0 13.9392C0 19.4867 4.50073 23.9999 10.0329 23.9999C15.0923 23.9999 19.3742 20.2037 19.9876 15.1772C20.015 14.9696 19.8665 14.7815 19.6595 14.7541C19.4524 14.7267 19.2649 14.8756 19.2375 15.0832C19.2223 15.2083 19.2046 15.3325 19.1845 15.4559L18.6008 14.9383C18.4992 14.8482 18.339 14.856 18.2452 14.9618C18.1554 15.0637 18.1632 15.2243 18.2687 15.3183L19.0722 16.0308C18.925 16.6756 18.7114 17.2934 18.4393 17.8771L18.0109 17.2145C17.9367 17.0969 17.7804 17.0656 17.6632 17.14C17.546 17.2145 17.5148 17.3712 17.589 17.4887L18.1765 18.3974C17.8421 19.0105 17.4411 19.5806 16.9837 20.0984L16.7604 19.3418C16.7213 19.2047 16.5806 19.1303 16.4478 19.1695C16.3111 19.2086 16.2368 19.3497 16.2759 19.4829L16.5833 20.524C16.123 20.9838 15.6151 21.3948 15.0685 21.7494L15.0569 20.9519C15.053 20.8109 14.9358 20.6973 14.7991 20.7012C14.6584 20.7012 14.5451 20.8148 14.549 20.9559L14.5649 22.054C13.9148 22.4195 13.2175 22.7086 12.4858 22.9098L12.7169 22.135C12.7599 22.0018 12.6817 21.8608 12.5489 21.8216C12.4161 21.7785 12.2754 21.8569 12.2364 21.9901L11.9214 23.046C11.3103 23.1732 10.6785 23.2399 10.0329 23.2399L9.97724 23.2397L10.408 22.5543C10.4822 22.4367 10.4471 22.28 10.3299 22.2056C10.2127 22.1311 10.0564 22.1664 9.98215 22.2839L9.39509 23.2181C8.62376 23.1654 7.87802 23.0176 7.16945 22.7864L7.79043 22.2604C7.89983 22.1703 7.91155 22.0097 7.82169 21.9039C7.73183 21.7942 7.57165 21.7824 7.46616 21.8726L6.62136 22.5881C5.91938 22.3087 5.25922 21.9457 4.65313 21.5115L5.39557 21.1987C5.5245 21.1439 5.58701 20.995 5.53231 20.8657C5.47762 20.7365 5.32916 20.6738 5.20023 20.7286L4.18491 21.1531C3.68091 20.7415 3.22069 20.2779 2.81245 19.7706L3.60593 19.6709C3.74267 19.6552 3.84034 19.5259 3.82471 19.3888C3.80908 19.2517 3.68016 19.1537 3.54342 19.1694L2.46137 19.3054C2.09094 18.7814 1.77318 18.2175 1.51591 17.6214L2.30494 17.7393C2.32057 17.7433 2.33229 17.7433 2.34401 17.7433C2.46512 17.7433 2.57452 17.6532 2.59405 17.5239C2.61358 17.3867 2.51591 17.2575 2.37917 17.2379L1.30116 17.0771C1.08407 16.4716 0.927962 15.8371 0.840294 15.1812L1.56671 15.5062C1.59797 15.5219 1.63313 15.5297 1.66829 15.5297C1.76206 15.5297 1.85582 15.4749 1.8988 15.3808C1.95349 15.2555 1.8988 15.1066 1.76987 15.0478L0.781492 14.6056C0.765877 14.3855 0.757936 14.1633 0.757936 13.9392C0.757936 13.4079 0.802749 12.8818 0.890553 12.3658L1.47667 12.8854C1.52356 12.9285 1.58607 12.9481 1.64467 12.9481C1.71499 12.9481 1.78141 12.9207 1.8322 12.8619C1.92206 12.7601 1.91425 12.5994 1.80876 12.5054L1.00637 11.794C1.15567 11.1598 1.37096 10.5442 1.64868 9.95647L2.07062 10.6091C2.11751 10.6875 2.19955 10.7267 2.2816 10.7267C2.32848 10.7267 2.37536 10.711 2.41834 10.6836C2.53554 10.6091 2.5668 10.4524 2.49257 10.3349L1.91338 9.43901C2.24389 8.84 2.64215 8.27496 3.10402 7.75485L3.32096 8.48959C3.35221 8.59929 3.45379 8.6698 3.56319 8.6698C3.58663 8.6698 3.61007 8.66589 3.63351 8.66197C3.77025 8.62279 3.84448 8.48175 3.80541 8.34855L3.50485 7.33057C3.9677 6.87005 4.47345 6.46287 5.01323 6.11352L5.02429 6.88334C5.0282 7.02438 5.1415 7.14583 5.27824 7.14583C5.4228 7.0949 5.5361 7.02046 5.53219 6.87551L5.51692 5.80983C6.16844 5.44478 6.8624 5.15995 7.58483 4.96239L7.36828 5.6884C7.32531 5.8216 7.40345 5.96264 7.53628 6.00181C7.55972 6.00965 7.58316 6.01357 7.6066 6.01357C7.716 6.01357 7.81367 5.94305 7.84883 5.83335L8.14895 4.82713C8.50468 4.75364 8.86621 4.70095 9.23197 4.66987C9.43904 4.65028 9.59531 4.46615 9.57578 4.25851C9.55624 4.05087 9.37262 3.89808 9.16556 3.91375C6.67296 4.12922 4.36009 5.26537 2.65668 7.11845C0.945467 8.98329 0 11.4044 0 13.9392ZM10.3884 13.4692C10.4314 13.4966 10.4783 13.5083 10.5252 13.5083C10.572 13.5083 10.6228 13.4927 10.6658 13.4731L11.4472 12.9481C11.5644 12.8698 11.5956 12.713 11.5175 12.5955C11.4394 12.478 11.2831 12.4466 11.1659 12.525L10.8729 12.7209L10.9901 12.0314C11.0135 11.8903 10.9198 11.761 10.783 11.7375C10.6424 11.714 10.5134 11.8081 10.49 11.9452L10.2751 13.2145C10.2595 13.3125 10.3025 13.4143 10.3884 13.4692ZM13.5219 16.5092C13.4672 16.5092 13.4125 16.4935 13.3656 16.4543L10.7324 14.3975C10.6582 14.3388 10.6191 14.2408 10.6386 14.1468C10.6582 14.0528 10.7285 13.9783 10.8223 13.9509L12.4944 13.4965C12.6272 13.4612 12.7679 13.5395 12.803 13.6767C12.8382 13.8099 12.7601 13.9509 12.6233 13.9862L11.4395 14.3074L13.6743 16.0508C13.7837 16.137 13.8032 16.2976 13.7173 16.4073C13.6743 16.4778 13.6001 16.5092 13.5219 16.5092ZM7.91147 17.8255C7.95445 17.8569 8.00524 17.8726 8.05603 17.8726C8.13807 17.8726 8.21621 17.8334 8.26309 17.7629L10.0407 15.2007L11.8105 17.755C11.8887 17.8686 12.0489 17.8961 12.1622 17.8177C12.2755 17.7393 12.3028 17.5787 12.2247 17.4651L10.2478 14.6091C10.2009 14.5386 10.1228 14.4994 10.0407 14.4994C9.95868 14.4994 9.88054 14.5425 9.83366 14.6091L7.84896 17.4729C7.76692 17.5866 7.79817 17.7472 7.91147 17.8255ZM6.544 16.5172C6.46977 16.5172 6.39553 16.4819 6.34474 16.4192C6.25879 16.3095 6.27833 16.1489 6.38772 16.0627L8.63809 14.3076L5.78215 13.5318C5.64932 13.4966 5.56727 13.3555 5.60244 13.2223C5.6376 13.0891 5.77825 13.0069 5.91108 13.0421L9.25537 13.951C9.34914 13.9745 9.41946 14.0529 9.439 14.1469C9.45853 14.241 9.42337 14.3389 9.34523 14.3977L6.69246 16.4662C6.65339 16.5015 6.59869 16.5172 6.544 16.5172ZM9.40376 13.4416C9.44674 13.469 9.49362 13.4847 9.54441 13.4847C9.59129 13.4847 9.63817 13.469 9.68115 13.4455C9.7671 13.3907 9.81008 13.2888 9.79445 13.1909L9.20842 9.74328C9.18497 9.60616 9.05214 9.51213 8.9154 9.53564C8.77866 9.55914 8.68489 9.69234 8.70833 9.82946L9.1967 12.6933L6.82131 11.0949C6.7041 11.0165 6.54783 11.0479 6.46969 11.1654C6.39155 11.2829 6.42281 11.4397 6.54001 11.518L9.40376 13.4416ZM10.0328 19.8902C6.75884 19.8902 4.09825 17.2222 4.09825 13.9392C4.09825 12.5758 4.54364 11.2947 5.39143 10.233C6.21188 9.20263 7.36441 8.46218 8.63415 8.1566C8.77089 8.12526 8.90763 8.20753 8.93889 8.34465C8.97014 8.48177 8.8881 8.61889 8.75136 8.65023C7.5871 8.93231 6.53615 9.60616 5.78603 10.5503C5.01247 11.5219 4.60615 12.6972 4.60615 13.9431C4.60615 16.9441 7.04014 19.3887 10.0367 19.3887C11.2869 19.3887 12.5098 18.9499 13.4748 18.1586C14.4281 17.375 15.0922 16.282 15.3462 15.0792C15.3735 14.9421 15.5103 14.8559 15.647 14.8833C15.7837 14.9108 15.8697 15.0479 15.8424 15.185C15.565 16.4974 14.8383 17.6923 13.7951 18.5503C12.7325 19.4122 11.4002 19.8902 10.0328 19.8902ZM17.1589 8.7926V9.10561L17.882 9.56323C17.9992 9.63767 18.0344 9.79438 17.9601 9.91191C17.9094 9.99418 17.8273 10.0373 17.7453 10.0373C17.6984 10.0373 17.6515 10.0255 17.6124 9.9981L17.1589 9.71087V10.1861C17.1589 10.1895 17.1588 10.1929 17.1587 10.1962L17.4989 10.6406C17.5849 10.7503 17.5614 10.911 17.452 10.9972C17.3427 11.0833 17.1825 11.0598 17.0965 10.9501L16.8777 10.6642L16.6707 10.9462C16.6238 11.0128 16.5457 11.0481 16.4675 11.0481C16.4167 11.0481 16.362 11.0324 16.3191 10.9972C16.2058 10.9149 16.1823 10.7543 16.2644 10.6446L16.651 10.1152V9.67242L16.163 9.99418C16.0458 10.0725 15.8895 10.0373 15.8114 9.91974C15.7332 9.80221 15.7684 9.6455 15.8856 9.56715L16.651 9.06255V8.80987L15.5815 8.1253L15.4281 8.22334L15.4051 8.99898C15.4051 9.13218 15.2918 9.24188 15.155 9.24188H15.1472C15.0066 9.23796 14.8972 9.12043 14.9011 8.98331L14.9125 8.55291L14.3675 8.90125L14.1977 9.41821C14.1587 9.52008 14.061 9.5906 13.9555 9.5906C13.9281 9.5906 13.9008 9.58668 13.8774 9.57884C13.7445 9.53575 13.6742 9.39079 13.7172 9.25759L13.8266 8.92458L13.4671 8.91283C13.3265 8.90891 13.2171 8.79138 13.2249 8.65034C13.2288 8.5093 13.346 8.3996 13.4867 8.40744L14.1665 8.43042L14.6152 8.14359L14.2017 8.00388C14.0689 7.96079 13.9986 7.81583 14.0455 7.68263C14.0884 7.54942 14.233 7.4789 14.3658 7.52592L15.1582 7.79654L15.3541 7.67129V6.32681L15.1164 6.17253L14.3656 6.42896C14.3382 6.44072 14.3109 6.44464 14.2875 6.44464C14.182 6.44464 14.0843 6.37803 14.0491 6.27226C14.0062 6.13905 14.0765 5.9941 14.2054 5.951L14.58 5.82444L14.1811 5.56557L13.5571 5.58667H13.5493C13.4125 5.58667 13.3031 5.48089 13.2953 5.34377C13.2914 5.20273 13.4008 5.0852 13.5375 5.08128L13.897 5.06953L13.7876 4.73652C13.7446 4.60332 13.8149 4.46228 13.9478 4.41527C14.0806 4.37217 14.2212 4.44269 14.2681 4.57589L14.4541 5.14217L14.9172 5.44272L14.9047 4.97157C14.9008 4.83053 15.0102 4.71692 15.1509 4.713C15.2876 4.70908 15.4048 4.81878 15.4087 4.95982L15.4296 5.7752L15.6079 5.89094L16.651 5.22329V4.99134L15.8894 4.50931C15.7722 4.43488 15.737 4.27817 15.8112 4.16064C15.8855 4.0431 16.0417 4.00784 16.1589 4.08228L16.651 4.39393V3.89644L16.2685 3.39668C16.1825 3.28698 16.206 3.12635 16.3153 3.04016C16.4247 2.95397 16.5849 2.97748 16.6709 3.08718L16.8897 3.37317L17.0967 3.09109C17.1788 2.97748 17.3389 2.95397 17.4483 3.03625C17.5616 3.11852 17.5851 3.27914 17.503 3.38884L17.1589 3.86V4.38253L17.6084 4.0862C17.7256 4.00784 17.8819 4.0431 17.96 4.16064C18.0381 4.27817 18.003 4.43488 17.8858 4.51323L17.1589 4.9924V5.24057L18.1573 5.87958L18.4143 5.71531L18.4367 4.95982C18.4406 4.81878 18.5578 4.70908 18.6946 4.713C18.8352 4.71692 18.9446 4.83445 18.9407 4.97157L18.9297 5.38585L19.3587 5.11167L19.5346 4.57589C19.5776 4.44269 19.7222 4.37217 19.855 4.41527C19.9878 4.45836 20.0582 4.60332 20.0152 4.73652L19.9058 5.06953L20.2652 5.08128C20.4059 5.0852 20.5153 5.20273 20.5074 5.34377C20.4996 5.48089 20.3863 5.58667 20.2535 5.58667H20.2457L19.588 5.56444L19.2103 5.80581L19.64 5.951C19.7729 5.9941 19.8432 6.13905 19.7963 6.27226C19.7612 6.37803 19.6635 6.44464 19.558 6.44464C19.5306 6.44464 19.5033 6.44072 19.4759 6.43288L18.6635 6.15537L18.4288 6.30534V7.72154L18.6676 7.87648L19.4759 7.60039C19.6088 7.55729 19.7533 7.62781 19.7963 7.7571C19.8393 7.8903 19.769 8.03526 19.64 8.07835L19.2051 8.2253L19.5195 8.42935L20.1672 8.40745C20.3079 8.39962 20.4251 8.51323 20.429 8.65035C20.4329 8.79139 20.3235 8.90892 20.1868 8.91284L19.8273 8.92459L19.9367 9.2576C19.9797 9.3908 19.9094 9.53184 19.7765 9.57885C19.7453 9.58669 19.7179 9.59061 19.6945 9.59061C19.589 9.59061 19.4913 9.524 19.4562 9.41823L19.2769 8.8725L18.9298 8.64723L18.9407 9.05778C18.9446 9.19882 18.8352 9.31244 18.6946 9.31635C18.6946 9.32027 18.6907 9.32027 18.6907 9.32027C18.5539 9.32027 18.4406 9.21057 18.4367 9.07345L18.4141 8.31257L18.1632 8.14976L17.1589 8.7926ZM17.6869 6.18023L17.1589 5.84258V6.5177L17.6869 6.18023ZM17.3294 7.00807L17.9288 6.62498V7.39701L17.3294 7.00807ZM16.3979 7.00415L15.8581 6.65387V7.34916L16.3979 7.00415ZM16.0507 7.82537L16.651 7.44168V8.20926L16.0507 7.82537ZM17.1589 8.1945V7.49802L17.6995 7.84881L17.1589 8.1945ZM16.0767 6.19512L16.651 6.56784V5.82782L16.0767 6.19512Z" fill="white" fill-opacity="0.5"/>
    </symbol>
    <symbol id="geo" viewBox="0 0 24 24">
        <path d="M12 2C9.87827 2 7.84344 2.84285 6.34315 4.34315C4.84285 5.84344 4 7.87827 4 10C4 15.4 11.05 21.5 11.35 21.76C11.5311 21.9149 11.7616 22.0001 12 22.0001C12.2384 22.0001 12.4689 21.9149 12.65 21.76C13 21.5 20 15.4 20 10C20 7.87827 19.1571 5.84344 17.6569 4.34315C16.1566 2.84285 14.1217 2 12 2ZM12 19.65C9.87 17.65 6 13.34 6 10C6 8.4087 6.63214 6.88258 7.75736 5.75736C8.88258 4.63214 10.4087 4 12 4C13.5913 4 15.1174 4.63214 16.2426 5.75736C17.3679 6.88258 18 8.4087 18 10C18 13.34 14.13 17.66 12 19.65ZM12 6C11.2089 6 10.4355 6.2346 9.77772 6.67412C9.11992 7.11365 8.60723 7.73836 8.30448 8.46927C8.00173 9.20017 7.92252 10.0044 8.07686 10.7804C8.2312 11.5563 8.61216 12.269 9.17157 12.8284C9.73098 13.3878 10.4437 13.7688 11.2196 13.9231C11.9956 14.0775 12.7998 13.9983 13.5307 13.6955C14.2616 13.3928 14.8864 12.8801 15.3259 12.2223C15.7654 11.5645 16 10.7911 16 10C16 8.93913 15.5786 7.92172 14.8284 7.17157C14.0783 6.42143 13.0609 6 12 6ZM12 12C11.6044 12 11.2178 11.8827 10.8889 11.6629C10.56 11.4432 10.3036 11.1308 10.1522 10.7654C10.0009 10.3999 9.96126 9.99778 10.0384 9.60982C10.1156 9.22186 10.3061 8.86549 10.5858 8.58579C10.8655 8.30608 11.2219 8.1156 11.6098 8.03843C11.9978 7.96126 12.3999 8.00087 12.7654 8.15224C13.1308 8.30362 13.4432 8.55996 13.6629 8.88886C13.8827 9.21776 14 9.60444 14 10C14 10.5304 13.7893 11.0391 13.4142 11.4142C13.0391 11.7893 12.5304 12 12 12Z"/>
    </symbol>
    <symbol id="rouble" viewBox="0 0 24 24">
        <path d="M1.86698 19.2721H5.60039V22.1816C5.60039 22.3231 5.65021 22.439 5.75045 22.5296C5.85041 22.6208 5.97821 22.6663 6.13388 22.6663H8.91708C9.06152 22.6663 9.18651 22.6208 9.29208 22.5296C9.39766 22.439 9.45028 22.3231 9.45028 22.1816V19.2721H17.867C18.0223 19.2721 18.1501 19.2271 18.2503 19.1359C18.3506 19.0448 18.4004 18.9289 18.4004 18.7873V16.8478C18.4004 16.7071 18.3506 16.5904 18.2503 16.4998C18.1504 16.4087 18.0223 16.3631 17.867 16.3631H9.45001V14.5751H15.1167C17.3388 14.5751 19.1524 13.9596 20.5584 12.7267C21.9638 11.4952 22.6668 9.90432 22.6668 7.95406C22.6668 6.0051 21.9638 4.4142 20.5584 3.18139C19.1527 1.94981 17.3388 1.33301 15.1167 1.33301H6.1336C5.97788 1.33301 5.85037 1.37855 5.75017 1.46917C5.65021 1.5603 5.60012 1.67697 5.60012 1.81774V11.3483H1.86698C1.71131 11.3483 1.58375 11.3962 1.48355 11.4921C1.38364 11.5881 1.3335 11.7017 1.3335 11.833V14.0903C1.3335 14.2319 1.38332 14.3478 1.48355 14.4389C1.58379 14.5301 1.71103 14.5751 1.86698 14.5751H5.60039V16.363H1.86698C1.71131 16.363 1.58375 16.4086 1.48355 16.4998C1.38364 16.5904 1.3335 16.7068 1.3335 16.8478V18.7873C1.3335 18.9288 1.38332 19.0448 1.48355 19.1359C1.58375 19.2271 1.71126 19.2721 1.86698 19.2721ZM9.45001 4.56061H14.7834C15.961 4.56061 16.9109 4.87363 17.6333 5.49988C18.3554 6.12617 18.7166 6.94462 18.7166 7.95431C18.7166 8.96451 18.3554 9.78321 17.6333 10.4087C16.9109 11.0355 15.961 11.3486 14.7834 11.3486H9.45001V4.56061Z"/>
    </symbol>
    <symbol id="password-open" viewBox="0 0 24 24">
        <path d="M12 15C13.6569 15 15 13.6569 15 12C15 10.3431 13.6569 9 12 9C10.3431 9 9 10.3431 9 12C9 13.6569 10.3431 15 12 15Z" fill="white" fill-opacity="0.5"/>
        <path d="M23.0076 11.1844C21.7673 9.26625 20.1581 7.63688 18.3543 6.47203C16.3588 5.18203 14.1557 4.5 11.9835 4.5C9.99041 4.5 8.03056 5.06953 6.15838 6.19266C4.24916 7.33781 2.51947 9.01078 1.01713 11.1647C0.847525 11.4081 0.75412 11.6965 0.748778 11.9931C0.743436 12.2897 0.8264 12.5813 0.987126 12.8306C2.22509 14.768 3.81838 16.3997 5.594 17.5486C7.59322 18.8437 9.74478 19.5 11.9835 19.5C14.1731 19.5 16.3809 18.8236 18.3679 17.5444C20.1707 16.3833 21.7767 14.7478 23.0123 12.8137C23.1675 12.5702 23.2495 12.2872 23.2487 11.9984C23.2479 11.7096 23.1642 11.4271 23.0076 11.1844V11.1844ZM11.9995 16.5C11.1095 16.5 10.2394 16.2361 9.4994 15.7416C8.75938 15.2471 8.18261 14.5443 7.84201 13.7221C7.50142 12.8998 7.4123 11.995 7.58594 11.1221C7.75957 10.2492 8.18815 9.44736 8.81749 8.81802C9.44683 8.18868 10.2486 7.7601 11.1216 7.58647C11.9945 7.41283 12.8993 7.50195 13.7215 7.84254C14.5438 8.18314 15.2466 8.75991 15.7411 9.49993C16.2355 10.24 16.4995 11.11 16.4995 12C16.4981 13.1931 16.0236 14.3369 15.1799 15.1805C14.3363 16.0241 13.1925 16.4986 11.9995 16.5V16.5Z" fill="white" fill-opacity="0.5"/>
    </symbol>
    <symbol id="password-close" viewBox="0 0 24 24">
        <path d="M20.2501 21.0001C20.1516 21.0003 20.054 20.9809 19.963 20.9432C19.872 20.9054 19.7894 20.8501 19.7199 20.7803L3.21994 4.28025C3.08522 4.13845 3.01123 3.94964 3.01373 3.75407C3.01624 3.5585 3.09504 3.37164 3.23334 3.23334C3.37164 3.09504 3.5585 3.01624 3.75407 3.01373C3.94964 3.01123 4.13845 3.08522 4.28025 3.21994L20.7802 19.7199C20.8851 19.8248 20.9564 19.9584 20.9853 20.1039C21.0142 20.2493 20.9994 20.4001 20.9427 20.5371C20.8859 20.6741 20.7898 20.7912 20.6666 20.8736C20.5433 20.956 20.3984 21 20.2501 21.0001Z" fill="white" fill-opacity="0.5"/>
        <path d="M11.984 18.0002C10.0392 18.0002 8.16371 17.4245 6.40965 16.2892C4.81261 15.258 3.37496 13.7809 2.25183 12.0236V12.0198C3.18652 10.6806 4.21027 9.54812 5.30996 8.635C5.31991 8.62668 5.32802 8.61639 5.33379 8.60478C5.33956 8.59317 5.34285 8.58048 5.34347 8.56753C5.34409 8.55458 5.34201 8.54164 5.33737 8.52953C5.33273 8.51742 5.32563 8.50641 5.31652 8.49719L4.38277 7.56484C4.36618 7.54811 4.34389 7.53824 4.32035 7.5372C4.29682 7.53616 4.27375 7.54402 4.25574 7.55922C3.08761 8.54359 2.0034 9.75109 1.01761 11.1648C0.848014 11.4083 0.754608 11.6966 0.749266 11.9932C0.743924 12.2899 0.826888 12.5814 0.987615 12.8308C2.22558 14.7681 3.81886 16.3998 5.59449 17.5487C7.59371 18.8439 9.74527 19.5002 11.984 19.5002C13.1924 19.4964 14.3923 19.2973 15.5371 18.9105C15.5522 18.9053 15.5658 18.8965 15.5765 18.8846C15.5872 18.8728 15.5947 18.8585 15.5983 18.8429C15.602 18.8274 15.6015 18.8112 15.5972 18.7959C15.5928 18.7805 15.5845 18.7666 15.5732 18.7553L14.5617 17.7437C14.5384 17.721 14.5096 17.7048 14.4781 17.6965C14.4466 17.6883 14.4136 17.6884 14.3821 17.6969C13.5987 17.8986 12.793 18.0005 11.984 18.0002Z" fill="white" fill-opacity="0.5"/>
        <path d="M23.0081 11.1844C21.7678 9.26625 20.1586 7.63688 18.3548 6.47203C16.3594 5.18203 14.1562 4.5 11.9841 4.5C10.7884 4.50212 9.60172 4.70543 8.47358 5.10141C8.45855 5.10664 8.4451 5.11561 8.4345 5.12747C8.42389 5.13934 8.41648 5.15371 8.41296 5.16923C8.40945 5.18475 8.40994 5.20091 8.41439 5.21619C8.41885 5.23147 8.42712 5.24536 8.43843 5.25656L9.44858 6.26672C9.4721 6.28984 9.5013 6.30634 9.53323 6.31457C9.56516 6.3228 9.5987 6.32246 9.63046 6.31359C10.3978 6.10602 11.1891 6.00058 11.9841 6C13.8914 6 15.7612 6.58266 17.5411 7.73438C19.1681 8.78438 20.6226 10.26 21.7486 12C21.7494 12.0011 21.7499 12.0024 21.7499 12.0037C21.7499 12.0051 21.7494 12.0064 21.7486 12.0075C20.9313 13.2942 19.9171 14.4446 18.743 15.4167C18.7329 15.425 18.7247 15.4353 18.7188 15.4469C18.713 15.4586 18.7096 15.4713 18.7089 15.4843C18.7083 15.4973 18.7103 15.5103 18.715 15.5225C18.7196 15.5347 18.7268 15.5457 18.7359 15.555L19.6687 16.4873C19.6852 16.504 19.7074 16.5139 19.7308 16.515C19.7543 16.5161 19.7773 16.5084 19.7953 16.4934C21.0487 15.4381 22.1337 14.1975 23.0128 12.8147C23.1682 12.571 23.2503 12.2878 23.2495 11.9988C23.2487 11.7098 23.1649 11.4272 23.0081 11.1844Z" fill="white" fill-opacity="0.5"/>
        <path d="M12.0002 7.5C11.6632 7.49982 11.3271 7.53756 10.9985 7.6125C10.9819 7.61595 10.9666 7.62383 10.9541 7.63531C10.9416 7.64679 10.9325 7.66144 10.9277 7.6777C10.9229 7.69395 10.9226 7.71121 10.9268 7.72763C10.931 7.74405 10.9396 7.75901 10.9516 7.77094L16.2293 13.0472C16.2412 13.0592 16.2562 13.0678 16.2726 13.072C16.289 13.0763 16.3063 13.0759 16.3225 13.0711C16.3388 13.0663 16.3535 13.0572 16.3649 13.0447C16.3764 13.0323 16.3843 13.0169 16.3877 13.0003C16.538 12.3413 16.5379 11.6568 16.3873 10.9979C16.2368 10.3389 15.9397 9.72227 15.5182 9.19384C15.0967 8.66541 14.5615 8.23874 13.9525 7.9455C13.3435 7.65226 12.6762 7.49999 12.0002 7.5Z" fill="white" fill-opacity="0.5"/>
        <path d="M7.77091 10.9536C7.75899 10.9415 7.74402 10.933 7.7276 10.9287C7.71118 10.9245 7.69392 10.9248 7.67767 10.9296C7.66141 10.9344 7.64676 10.9436 7.63528 10.956C7.6238 10.9685 7.61592 10.9839 7.61247 11.0005C7.44248 11.7431 7.46382 12.5168 7.67451 13.249C7.88519 13.9811 8.27832 14.6478 8.81704 15.1865C9.35577 15.7252 10.0225 16.1184 10.7546 16.3291C11.4868 16.5397 12.2604 16.5611 13.0031 16.3911C13.0197 16.3876 13.0351 16.3798 13.0475 16.3683C13.06 16.3568 13.0691 16.3422 13.0739 16.3259C13.0788 16.3096 13.0791 16.2924 13.0748 16.276C13.0706 16.2595 13.062 16.2446 13.05 16.2327L7.77091 10.9536Z" fill="white" fill-opacity="0.5"/>
    </symbol>
</svg>