<svg xmlns="http://www.w3.org/2000/svg" xmlns:xlink="http://www.w3.org/1999/xlink">
    <symbol id="services1" viewBox="0 0 31 31">
        <path d="M15.4975 31C11.3576 31 7.4647 29.3895 4.54008 26.4599C1.61052 23.5304 0 19.6375 0 15.4975C0 11.3576 1.61052 7.4647 4.54008 4.54008C7.4647 1.61052 11.3576 0 15.4975 0C19.6374 0 23.5304 1.61052 26.455 4.54008C29.3845 7.46964 30.9951 11.3576 30.9951 15.4975C30.9951 19.6375 29.3845 23.5304 26.455 26.455C23.5304 29.3845 19.6374 31 15.4975 31ZM15.4975 0.958406C11.6145 0.958406 7.96367 2.47012 5.21689 5.21689C2.47012 7.96367 0.958406 11.6145 0.958406 15.4975C0.958406 19.3806 2.47012 23.0363 5.21689 25.7782C7.96367 28.52 11.6145 30.0367 15.4975 30.0367C19.3806 30.0367 23.0314 28.5249 25.7782 25.7782C28.5249 23.0314 30.0367 19.3806 30.0367 15.4975C30.0367 11.6145 28.5249 7.96367 25.7782 5.21689C23.0314 2.47012 19.3806 0.958406 15.4975 0.958406Z"
              fill="white"/>
        <path d="M16.2675 14.9146C16.1786 14.9146 16.0847 14.8899 16.0057 14.8356C15.8426 14.7318 15.7636 14.5441 15.7932 14.3514L16.7072 8.96658C16.7516 8.70475 16.9987 8.53184 17.2605 8.5763C17.5223 8.62076 17.6952 8.86777 17.6508 9.12961L16.9196 13.4128L20.4618 11.0365C20.6791 10.8883 20.9805 10.9476 21.1287 11.1699C21.2769 11.3873 21.2176 11.6887 20.9953 11.8369L16.5244 14.8356C16.4503 14.8899 16.3564 14.9146 16.2675 14.9146Z"
              fill="white"/>
        <path d="M20.9321 19.5733C20.8283 19.5733 20.7246 19.5387 20.6357 19.4745L16.5353 16.288C16.392 16.1744 16.3228 15.9916 16.3574 15.8137C16.392 15.6359 16.5254 15.4926 16.7032 15.4482L21.8757 14.0501C22.1326 13.9809 22.3944 14.1341 22.4636 14.386C22.5327 14.6429 22.3796 14.9047 22.1276 14.9739L17.884 16.12L21.2236 18.7186C21.431 18.8816 21.4706 19.183 21.3075 19.3905C21.2186 19.509 21.0754 19.5733 20.9321 19.5733Z"
              fill="white"/>
        <path d="M12.4247 21.6875C12.3308 21.6875 12.237 21.6579 12.153 21.6035C11.9356 21.4504 11.8813 21.154 12.0344 20.9366L15.1221 16.4953C15.211 16.3669 15.3592 16.2878 15.5173 16.2878C15.6754 16.2878 15.8236 16.3669 15.9125 16.4953L18.9903 20.9267C19.1434 21.1441 19.0891 21.4405 18.8717 21.5937C18.6543 21.7468 18.3579 21.6925 18.2048 21.4751L15.5173 17.6069L12.8249 21.485C12.7261 21.6184 12.5778 21.6875 12.4247 21.6875Z"
              fill="white"/>
        <path d="M10.074 19.5881C9.93068 19.5881 9.78742 19.5239 9.69355 19.4053C9.53052 19.1978 9.57005 18.8965 9.77754 18.7335L13.1468 16.1151L8.86853 14.9591C8.61164 14.8899 8.46343 14.6281 8.5326 14.3712C8.60176 14.1143 8.86359 13.9661 9.12048 14.0353L14.3275 15.4383C14.5004 15.4877 14.6387 15.626 14.6733 15.8088C14.7079 15.9867 14.6387 16.1695 14.4955 16.2831L10.3704 19.4893C10.2814 19.5535 10.1777 19.5881 10.074 19.5881Z"
              fill="white"/>
        <path d="M14.7371 14.8799C14.6432 14.8799 14.5494 14.8552 14.4703 14.8009L10.0142 11.812C9.79684 11.6638 9.73756 11.3674 9.88083 11.1451C10.029 10.9277 10.3254 10.8684 10.5478 11.0117L14.0751 13.3781L13.3538 9.12946C13.3094 8.86763 13.4872 8.62062 13.7441 8.57616C14.0059 8.53169 14.2529 8.70954 14.2974 8.96643L15.2064 14.3167C15.241 14.5044 15.157 14.6971 14.994 14.8009C14.9199 14.8503 14.8309 14.8799 14.7371 14.8799Z"
              fill="white"/>
        <path d="M15.498 24.8198C10.3602 24.8198 6.17578 20.6403 6.17578 15.4975C6.17578 10.3547 10.3602 6.17529 15.498 6.17529C20.6359 6.17529 24.8202 10.3547 24.8202 15.4975C24.8202 20.6403 20.6408 24.8198 15.498 24.8198ZM15.498 7.1337C10.8888 7.1337 7.13419 10.8833 7.13419 15.4975C7.13419 20.1117 10.8888 23.8613 15.498 23.8613C20.1073 23.8613 23.8618 20.1117 23.8618 15.4975C23.8618 10.8833 20.1122 7.1337 15.498 7.1337Z"
              fill="white"/>
        <path d="M15.2701 2.57404C15.2108 2.57404 15.1515 2.55922 15.1021 2.52463C14.9539 2.43077 14.9095 2.23316 15.0033 2.08495L16.1248 0.306467C16.2186 0.15826 16.4162 0.113798 16.5644 0.207662C16.7126 0.301527 16.7571 0.499136 16.6632 0.647344L15.5418 2.42583C15.4825 2.52463 15.3788 2.57404 15.2701 2.57404Z"
              fill="white"/>
        <path d="M14.6324 30.753C14.5731 30.753 14.5138 30.7382 14.4644 30.7036C14.3162 30.6097 14.2718 30.4121 14.3656 30.2639L15.4871 28.4854C15.5809 28.3372 15.7785 28.2928 15.9267 28.3866C16.0749 28.4805 16.1194 28.6781 16.0255 28.8263L14.9041 30.6048C14.8448 30.6987 14.7411 30.753 14.6324 30.753Z"
              fill="white"/>
        <path d="M11.7226 3.12742C11.693 3.12742 11.6633 3.12248 11.6288 3.1126C11.4608 3.0632 11.362 2.88535 11.4163 2.71738L12.019 0.701765C12.0684 0.533797 12.2463 0.434992 12.4143 0.489334C12.5822 0.538737 12.681 0.716585 12.6267 0.884553L12.024 2.90017C11.9894 3.0385 11.861 3.12742 11.7226 3.12742Z"
              fill="white"/>
        <path d="M18.7031 30.4367C18.6735 30.4367 18.6438 30.4318 18.6092 30.4219C18.4413 30.3725 18.3425 30.1947 18.3968 30.0267L18.9995 28.0111C19.0489 27.8431 19.2268 27.7443 19.3947 27.7987C19.5627 27.8481 19.6615 28.0259 19.6072 28.1939L19.0045 30.2095C18.9649 30.3478 18.8414 30.4367 18.7031 30.4367Z"
              fill="white"/>
        <path d="M8.10674 4.82669C7.93383 4.82669 7.79057 4.69824 7.78563 4.52039L7.75598 2.42573C7.75104 2.24788 7.89431 2.10462 8.07216 2.10462C8.25001 2.09968 8.39328 2.24294 8.39822 2.42079L8.42786 4.51051C8.42786 4.68836 8.28459 4.82669 8.10674 4.82669Z"
              fill="white"/>
        <path d="M22.9524 28.7869C22.7795 28.7869 22.6363 28.6535 22.6313 28.4806L22.6017 26.3859C22.5967 26.2081 22.74 26.0648 22.9179 26.0648C23.0908 26.0599 23.239 26.2031 23.2439 26.381L23.2736 28.4757C23.2736 28.6486 23.1352 28.7869 22.9524 28.7869C22.9574 28.7869 22.9524 28.7869 22.9524 28.7869Z"
              fill="white"/>
        <path d="M3.36903 24.5877C3.21095 24.5877 3.07262 24.4691 3.05286 24.3061C3.0331 24.1332 3.1566 23.9701 3.32951 23.9504L5.41429 23.6935C5.5872 23.6737 5.75023 23.7972 5.76999 23.9701C5.78975 24.143 5.66624 24.3061 5.49334 24.3258L3.40855 24.5827C3.39373 24.5827 3.38385 24.5877 3.36903 24.5877Z"
              fill="white"/>
        <path d="M25.5702 7.22731C25.4121 7.22731 25.2738 7.10875 25.254 6.94572C25.2343 6.77281 25.3578 6.60978 25.5307 6.59002L27.6155 6.33313C27.7884 6.31337 27.9514 6.43688 27.9712 6.60978C27.9909 6.78269 27.8674 6.94572 27.6945 6.96548L25.6097 7.22237C25.5998 7.22237 25.585 7.22731 25.5702 7.22731Z"
              fill="white"/>
        <path d="M6.19455 27.5322C6.07105 27.5322 5.95248 27.4581 5.89814 27.3346C5.82898 27.1715 5.90802 26.9838 6.07105 26.9146L8.00762 26.1044C8.17065 26.0353 8.35838 26.1143 8.42754 26.2773C8.4967 26.4404 8.41766 26.6281 8.25463 26.6973L6.31806 27.5075C6.2736 27.5223 6.23408 27.5322 6.19455 27.5322Z"
              fill="white"/>
        <path d="M22.8977 4.83148C22.7742 4.83148 22.6556 4.75738 22.6013 4.63387C22.5321 4.47085 22.6111 4.28312 22.7742 4.21395L24.7107 3.40375C24.8738 3.33459 25.0615 3.41363 25.1307 3.57666C25.1998 3.73969 25.1208 3.92742 24.9578 3.99658L23.0212 4.80678C22.9817 4.8216 22.9372 4.83148 22.8977 4.83148Z"
              fill="white"/>
        <path d="M10.147 29.7849C10.0581 29.7849 9.9642 29.7453 9.90492 29.6712C9.7913 29.5379 9.80612 29.3353 9.94444 29.2217L11.55 27.8681C11.6834 27.7544 11.886 27.7693 11.9996 27.9076C12.1132 28.041 12.0984 28.2435 11.9601 28.3571L10.3545 29.7108C10.2952 29.7602 10.2211 29.7849 10.147 29.7849Z"
              fill="white"/>
        <path d="M19.272 3.12227C19.1831 3.12227 19.0892 3.08275 19.0299 3.00865C18.9163 2.87526 18.9311 2.67271 19.0694 2.55908L20.675 1.20546C20.8084 1.09183 21.011 1.10665 21.1246 1.24498C21.2382 1.37837 21.2234 1.58092 21.0851 1.69454L19.4795 3.04817C19.4202 3.09757 19.3461 3.12227 19.272 3.12227Z"
              fill="white"/>
        <path d="M5.43379 7.24741C5.29547 7.24741 5.16702 7.15848 5.1275 7.02015L4.52973 5.00454C4.48033 4.83657 4.57419 4.65872 4.7471 4.60932C4.91507 4.55992 5.09292 4.65378 5.14232 4.82669L5.74009 6.84231C5.78949 7.01027 5.69563 7.18812 5.52272 7.23752C5.49308 7.24247 5.46343 7.24741 5.43379 7.24741Z"
              fill="white"/>
        <path d="M26.1887 26.3167C26.0503 26.3167 25.9219 26.2278 25.8824 26.0895L25.2846 24.0739C25.2352 23.9059 25.3291 23.7281 25.502 23.6787C25.6699 23.6293 25.8478 23.7231 25.8972 23.896L26.495 25.9116C26.5444 26.0796 26.4505 26.2575 26.2776 26.3069C26.248 26.3118 26.2183 26.3167 26.1887 26.3167Z"
              fill="white"/>
        <path d="M3.43813 10.4386C3.33439 10.4386 3.23064 10.3892 3.17136 10.2904L2.03016 8.52673C1.9363 8.37852 1.97582 8.18091 2.12403 8.08705C2.27224 7.99318 2.46985 8.03271 2.56371 8.18091L3.7049 9.94458C3.79877 10.0928 3.75925 10.2904 3.61104 10.3843C3.5567 10.4188 3.49741 10.4386 3.43813 10.4386Z"
              fill="white"/>
        <path d="M28.7272 22.8783C28.6234 22.8783 28.5197 22.8289 28.4604 22.7301L27.3192 20.9664C27.2254 20.8182 27.2649 20.6206 27.4131 20.5267C27.5613 20.4329 27.7589 20.4724 27.8528 20.6206L28.994 22.3843C29.0878 22.5325 29.0483 22.7301 28.9001 22.824C28.8507 22.8635 28.7865 22.8783 28.7272 22.8783Z"
              fill="white"/>
        <path d="M2.44524 13.887C2.37113 13.887 2.29209 13.8623 2.23281 13.8079L0.656871 12.4148C0.523485 12.2962 0.513604 12.0937 0.62723 11.9652C0.745795 11.8318 0.948345 11.822 1.07679 11.9356L2.65273 13.3287C2.78611 13.4473 2.79599 13.6498 2.68237 13.7783C2.62309 13.8524 2.53416 13.887 2.44524 13.887Z"
              fill="white"/>
        <path d="M30.1552 19.0542C30.0811 19.0542 30.0021 19.0295 29.9428 18.9752L28.3668 17.582C28.2334 17.4635 28.2236 17.2609 28.3372 17.1325C28.4558 16.9991 28.6583 16.9892 28.7868 17.1028L30.3627 18.496C30.4961 18.6145 30.506 18.8171 30.3923 18.9455C30.3281 19.0196 30.2441 19.0542 30.1552 19.0542Z"
              fill="white"/>
        <path d="M2.48496 17.8938C2.4405 17.8938 2.39604 17.8839 2.35652 17.8642L0.439704 17.0095C0.276677 16.9354 0.207513 16.7477 0.276677 16.5896C0.35078 16.4266 0.538509 16.3574 0.696597 16.4266L2.61341 17.2812C2.77644 17.3553 2.8456 17.5431 2.77644 17.7012C2.7221 17.8247 2.60353 17.8938 2.48496 17.8938Z"
              fill="white"/>
        <path d="M30.4615 14.5093C30.4171 14.5093 30.3726 14.4994 30.3331 14.4797L28.4163 13.625C28.2532 13.5509 28.1841 13.3632 28.2532 13.2051C28.3273 13.0421 28.5151 12.9729 28.6732 13.0421L30.59 13.8967C30.753 13.9708 30.8222 14.1586 30.753 14.3166C30.7036 14.4401 30.585 14.5093 30.4615 14.5093Z"
              fill="white"/>
        <path d="M3.53692 21.3271C3.5221 21.3271 3.50727 21.3271 3.48751 21.3222L1.40767 21.0159C1.23476 20.9912 1.11126 20.8281 1.13596 20.6552C1.16066 20.4823 1.32369 20.3588 1.4966 20.3835L3.57644 20.6898C3.74935 20.7145 3.87285 20.8775 3.84815 21.0505C3.82839 21.2135 3.69006 21.3271 3.53692 21.3271Z"
              fill="white"/>
        <path d="M29.573 10.5327C29.5582 10.5327 29.5434 10.5327 29.5236 10.5277L27.4438 10.2214C27.2709 10.1967 27.1474 10.0337 27.1721 9.8608C27.1968 9.68789 27.3598 9.56438 27.5327 9.58908L29.6126 9.89538C29.7855 9.92008 29.909 10.0831 29.8843 10.256C29.8645 10.4141 29.7262 10.5327 29.573 10.5327Z"
              fill="white"/>
    </symbol>
    <symbol id="services2" viewBox="0 0 31 31">
        <path d="M5.57701 27.0112C5.44899 27.0112 5.32098 26.9599 5.22369 26.8627L4.13812 25.7771C3.94354 25.5825 3.94354 25.265 4.13812 25.0705L25.0711 4.13751C25.1632 4.04534 25.2912 3.98901 25.4244 3.98901C25.5575 3.98901 25.6855 4.04022 25.7777 4.13751L26.8633 5.22307C27.0578 5.41766 27.0578 5.73513 26.8633 5.92971L5.93033 26.8627C5.83304 26.9599 5.70502 27.0112 5.57701 27.0112ZM5.19808 25.4238L5.58213 25.8078L25.8084 5.58151L25.4244 5.19747L5.19808 25.4238Z"
              fill="white"/>
        <path d="M2.68379 30.9997C2.55578 30.9997 2.42776 30.9485 2.33047 30.8512L0.143983 28.6647C-0.0505986 28.4701 -0.0505986 28.1526 0.143983 27.9581L3.58501 24.517C3.7796 24.3224 4.09707 24.3224 4.29165 24.517L6.47814 26.7035C6.67272 26.8981 6.67272 27.2156 6.47814 27.4102L3.03711 30.8512C2.93982 30.9536 2.81181 30.9997 2.68379 30.9997ZM1.20394 28.3165L2.68379 29.7963L5.4233 27.0568L3.94345 25.577L1.20394 28.3165Z"
              fill="white"/>
        <path d="M27.0578 6.62639C26.9298 6.62639 26.8018 6.57519 26.7045 6.4779L24.518 4.29141C24.3234 4.09683 24.3234 3.77935 24.518 3.58477L27.959 0.143739C28.1536 -0.0508428 28.4711 -0.0508428 28.6657 0.143739L30.8522 2.33023C31.0468 2.52481 31.0468 2.84229 30.8522 3.03687L27.4111 6.4779C27.3138 6.57519 27.1858 6.62639 27.0578 6.62639ZM25.578 3.94321L27.0578 5.42306L29.7973 2.68355L28.3175 1.2037L25.578 3.94321Z"
              fill="white"/>
        <path d="M14.2769 15.8585C14.1489 15.8585 14.0208 15.8073 13.9236 15.71L4.13812 5.92971C3.94354 5.73513 3.94354 5.41766 4.13812 5.22307L5.22369 4.13751C5.31586 4.04534 5.44387 3.98901 5.57701 3.98901C5.71014 3.98901 5.83816 4.04022 5.93033 4.13751L15.6492 13.8564C15.8438 14.051 15.8438 14.3684 15.6492 14.563C15.4546 14.7576 15.1371 14.7576 14.9425 14.563L5.57701 5.19747L5.19296 5.58151L14.6251 15.0136C14.8197 15.2082 14.8197 15.5257 14.6251 15.7203C14.5278 15.8124 14.4049 15.8585 14.2769 15.8585Z"
              fill="white"/>
        <path d="M25.4235 27.0111C25.2955 27.0111 25.1675 26.9599 25.0702 26.8626L15.2182 17.0106C15.0236 16.816 15.0236 16.4986 15.2182 16.304C15.4128 16.1094 15.7303 16.1094 15.9248 16.304L25.4235 25.8027L25.8076 25.4186L16.2833 15.8943C16.0887 15.6997 16.0887 15.3823 16.2833 15.1877C16.4779 14.9931 16.7953 14.9931 16.9899 15.1877L26.8675 25.0653C27.0621 25.2599 27.0621 25.5773 26.8675 25.7719L25.782 26.8575C25.6796 26.9599 25.5515 27.0111 25.4235 27.0111Z"
              fill="white"/>
        <path d="M28.3163 30.9997C28.1883 30.9997 28.0602 30.9485 27.9629 30.8512L24.5219 27.4102C24.3273 27.2156 24.3273 26.8981 24.5219 26.7035L26.7084 24.517C26.903 24.3224 27.2205 24.3224 27.415 24.517L30.8561 27.9581C31.0507 28.1526 31.0507 28.4701 30.8561 28.6647L28.6696 30.8512C28.5723 30.9536 28.4443 30.9997 28.3163 30.9997ZM25.5768 27.0568L28.3163 29.7963L29.7961 28.3165L27.0566 25.577L25.5768 27.0568Z"
              fill="white"/>
        <path d="M3.94322 6.62591C3.8152 6.62591 3.68719 6.5747 3.5899 6.47741L0.148866 3.03638C-0.0457158 2.8418 -0.0457158 2.52432 0.148866 2.32974L2.33535 0.143251C2.52994 -0.0513311 2.84741 -0.0513311 3.04199 0.143251L6.48303 3.58428C6.67761 3.77886 6.67761 4.09634 6.48303 4.29092L4.29654 6.47741C4.19925 6.5747 4.07123 6.62591 3.94322 6.62591ZM1.20371 2.68306L3.94322 5.42257L5.42307 3.94272L2.68355 1.20321L1.20371 2.68306Z"
              fill="white"/>
    </symbol>
    <symbol id="services3" viewBox="0 0 27 37">
        <path d="M21.8846 23.836H5.11541C2.29353 23.836 0 21.5197 0 18.6698V0.588168C0 0.266798 0.264176 0 0.582388 0C0.9006 0 1.16478 0.266798 1.16478 0.588168V18.6637C1.16478 20.8587 2.93596 22.6475 5.10941 22.6475H21.8786C24.052 22.6475 25.8232 20.8587 25.8232 18.6637V0.588168C25.8292 0.266798 26.0934 0 26.4176 0C26.7418 0 27 0.266798 27 0.588168V18.6637C27 21.5197 24.7065 23.836 21.8846 23.836Z"
              fill="white"/>
        <path d="M20.9904 20.8952H6.03448C4.30533 20.8952 2.90039 19.5005 2.90039 17.7846V0.588225C2.90039 0.369936 3.07451 0.194092 3.29065 0.194092C3.50679 0.194092 3.68091 0.369936 3.68091 0.588225V17.7846C3.68091 19.064 4.73762 20.1069 6.03448 20.1069H20.9965C22.2933 20.1069 23.35 19.064 23.35 17.7846V0.588225C23.35 0.369936 23.5241 0.194092 23.7403 0.194092C23.9564 0.194092 24.1305 0.369936 24.1305 0.588225V17.7846C24.1305 19.5005 22.7256 20.8952 20.9904 20.8952Z"
              fill="white"/>
        <path d="M22.9712 32.4402H4.03454C3.71032 32.4402 3.45215 32.1734 3.45215 31.852V25.4973C3.45215 25.1699 3.71632 24.9092 4.03454 24.9092H22.9712C23.2954 24.9092 23.5535 25.176 23.5535 25.4973V31.852C23.5535 32.1794 23.2894 32.4402 22.9712 32.4402ZM4.61693 31.2638H22.3828V26.0916H4.61693V31.2638Z"
              fill="white"/>
        <path d="M22.7854 34.7203H4.22106C3.89684 34.7203 3.63867 34.4535 3.63867 34.1321C3.63867 33.8047 3.90285 33.5439 4.22106 33.5439H22.7854C23.1097 33.5439 23.3678 33.8107 23.3678 34.1321C23.3678 34.4535 23.1097 34.7203 22.7854 34.7203Z"
              fill="white"/>
        <path d="M22.7854 36.9998H4.22106C3.89684 36.9998 3.63867 36.733 3.63867 36.4117C3.63867 36.0842 3.90285 35.8235 4.22106 35.8235H22.7854C23.1097 35.8235 23.3678 36.0903 23.3678 36.4117C23.3678 36.7391 23.1097 36.9998 22.7854 36.9998Z"
              fill="white"/>
    </symbol>
    <symbol id="services4" viewBox="0 0 31 31">
        <path d="M12.9591 31C5.81345 31 0 25.1705 0 18.0049C0 14.7309 1.22123 11.6035 3.43155 9.19479C5.63178 6.80122 8.61924 5.3337 11.8388 5.05538C12.1063 5.03514 12.3435 5.2325 12.3687 5.5007C12.3939 5.7689 12.1921 6.00674 11.9246 6.03204C8.94726 6.28506 6.18688 7.64631 4.15318 9.8577C2.10435 12.0843 0.979001 14.9788 0.979001 18.0049C0.979001 24.629 6.35341 30.0183 12.9591 30.0183C19.0047 30.0183 24.1167 25.4893 24.8484 19.4826C24.8838 19.2144 25.126 19.0221 25.3935 19.0575C25.6609 19.0929 25.8527 19.3358 25.8174 19.604C25.0251 26.0965 19.4942 31 12.9591 31Z"
              fill="white"/>
        <path d="M13.5946 17.4484C13.5341 17.4484 13.4735 17.4333 13.418 17.3978C13.307 17.327 13.2515 17.1954 13.2717 17.0689L13.5492 15.4294C13.5795 15.2522 13.746 15.1308 13.9277 15.1611C14.1043 15.1915 14.2254 15.3585 14.1952 15.5407L14.0438 16.4313L14.4222 16.1783C14.5736 16.0771 14.7755 16.1176 14.8764 16.2694C14.9773 16.4212 14.937 16.6236 14.7856 16.7248L13.7763 17.4029C13.7208 17.4282 13.6552 17.4484 13.5946 17.4484Z"
              fill="white"/>
        <path d="M17.466 21.3244C17.3954 21.3244 17.3247 21.3042 17.2642 21.2536L13.8629 18.5969C13.767 18.521 13.7166 18.3945 13.7418 18.273C13.767 18.1516 13.8579 18.0554 13.979 18.02L16.1388 17.433C16.3104 17.3875 16.4921 17.4887 16.5375 17.6658C16.5829 17.8378 16.482 18.02 16.3054 18.0656L14.7763 18.4805L17.6629 20.7324C17.8042 20.8437 17.8294 21.0512 17.7184 21.1929C17.6629 21.284 17.567 21.3244 17.466 21.3244Z"
              fill="white"/>
        <path d="M10.4062 23.0855C10.3406 23.0855 10.275 23.0653 10.2195 23.0248C10.0731 22.9236 10.0328 22.7161 10.1387 22.5694L12.7023 18.8702C12.7629 18.7842 12.8638 18.7285 12.9698 18.7285C13.0757 18.7285 13.1767 18.7791 13.2372 18.8702L15.7907 22.5592C15.8916 22.706 15.8563 22.9135 15.71 23.0147C15.5636 23.1159 15.3567 23.0805 15.2558 22.9337L12.9698 19.6343L10.6737 22.9438C10.6131 23.0349 10.5122 23.0855 10.4062 23.0855Z"
              fill="white"/>
        <path d="M8.4523 21.3348C8.35641 21.3348 8.26053 21.2893 8.19493 21.2083C8.08391 21.0666 8.10914 20.8591 8.25044 20.7478L11.1572 18.4808L7.46825 17.4788C7.29667 17.4333 7.1907 17.2511 7.23611 17.079C7.28153 16.907 7.4632 16.8007 7.63478 16.8463L11.9545 18.0203C12.0756 18.0506 12.1664 18.1518 12.1917 18.2733C12.2169 18.3947 12.1715 18.5212 12.0706 18.5971L8.64406 21.269C8.59359 21.3146 8.52294 21.3348 8.4523 21.3348Z"
              fill="white"/>
        <path d="M12.3278 17.4178C12.2622 17.4178 12.2017 17.3975 12.1462 17.3621L8.44715 14.8775C8.29576 14.7763 8.25539 14.5738 8.35631 14.422C8.45724 14.2702 8.6591 14.2297 8.81049 14.3309L11.8787 16.3956L11.2479 12.6964C11.2176 12.5193 11.3387 12.3473 11.5154 12.3169C11.692 12.2865 11.8636 12.408 11.8938 12.5851L12.6508 17.0383C12.671 17.1648 12.6155 17.2963 12.5045 17.3672C12.4489 17.3975 12.3884 17.4178 12.3278 17.4178Z"
              fill="white"/>
        <path d="M12.9594 25.6916C8.73054 25.6916 5.29395 22.2454 5.29395 18.0048C5.29395 16.2438 5.86923 14.5891 6.9643 13.2177C8.02404 11.8868 9.51273 10.9304 11.1528 10.5357C11.3294 10.4952 11.5061 10.6015 11.5464 10.7786C11.5868 10.9557 11.4808 11.1328 11.3042 11.1733C9.80037 11.5376 8.4429 12.408 7.47399 13.6276C6.4748 14.8826 5.94998 16.4007 5.94998 18.0099C5.94998 21.8862 9.09388 25.0438 12.9645 25.0438C14.5793 25.0438 16.1588 24.4771 17.4053 23.4549C18.6366 22.4428 19.4945 21.031 19.8225 19.4774C19.8578 19.3003 20.0345 19.189 20.2111 19.2244C20.3877 19.2598 20.4987 19.4369 20.4634 19.614C20.1051 21.3093 19.1665 22.8527 17.8191 23.9609C16.4465 25.0742 14.7257 25.6916 12.9594 25.6916Z"
              fill="white"/>
        <path d="M12.2378 30.7621C12.1773 30.7621 12.1167 30.7469 12.0662 30.7115C11.9148 30.6153 11.8694 30.4129 11.9653 30.2611L12.8938 28.7835C12.9897 28.6316 13.1916 28.5861 13.343 28.6822C13.4944 28.7784 13.5398 28.9808 13.4439 29.1326L12.5154 30.6103C12.4548 30.7115 12.3488 30.7621 12.2378 30.7621Z"
              fill="white"/>
        <path d="M9.82507 7.76763C9.7948 7.76763 9.76452 7.76257 9.73424 7.75245C9.56266 7.70185 9.46173 7.51967 9.51724 7.34762L10.0168 5.67263C10.0673 5.50057 10.249 5.39937 10.4205 5.45503C10.5921 5.50563 10.6931 5.68781 10.6375 5.85986L10.138 7.53485C10.0925 7.67655 9.96637 7.76763 9.82507 7.76763Z"
              fill="white"/>
        <path d="M15.6132 30.4991C15.5829 30.4991 15.5526 30.494 15.5223 30.4839C15.3507 30.4333 15.2498 30.2511 15.3053 30.0791L15.8049 28.4041C15.8554 28.232 16.0371 28.1308 16.2086 28.1865C16.3802 28.2371 16.4811 28.4193 16.4256 28.5913L15.926 30.2663C15.8857 30.408 15.7545 30.4991 15.6132 30.4991Z"
              fill="white"/>
        <path d="M6.81822 9.23014C6.64159 9.23014 6.49525 9.07327 6.4902 8.8911L6.46497 7.13514C6.45992 6.95296 6.60627 6.80115 6.78794 6.80115C6.96961 6.79609 7.11596 6.94284 7.121 7.11996L7.14623 8.88098C7.15128 9.06821 7.00493 9.16436 6.81822 9.23014C6.82326 9.23014 6.82326 9.23014 6.81822 9.23014Z"
              fill="white"/>
        <path d="M19.1454 29.1277C18.9687 29.1277 18.8224 28.991 18.8174 28.8139L18.7921 27.0681C18.7871 26.8859 18.9334 26.7391 19.1151 26.7391C19.2968 26.7341 19.4431 26.8808 19.4481 27.063L19.4734 28.8038C19.4734 28.9809 19.327 29.1277 19.1454 29.1277Z"
              fill="white"/>
        <path d="M2.88661 25.6311C2.72513 25.6311 2.58383 25.5096 2.56364 25.3426C2.54346 25.1655 2.66962 24.9985 2.84624 24.9783L4.57716 24.7607C4.75378 24.7404 4.92031 24.8669 4.9405 25.0441C4.96068 25.2212 4.83452 25.3882 4.6579 25.4084L2.92698 25.626C2.91689 25.6311 2.90175 25.6311 2.88661 25.6311Z"
              fill="white"/>
        <path d="M5.23369 28.0801C5.10753 28.0801 4.98641 28.0042 4.9309 27.8777C4.86026 27.7107 4.941 27.5184 5.10753 27.4475L6.71733 26.7745C6.88386 26.7036 7.07562 26.7846 7.14627 26.9516C7.21692 27.1186 7.13618 27.3109 6.96965 27.3817L5.35985 28.0598C5.31948 28.075 5.27406 28.0801 5.23369 28.0801Z"
              fill="white"/>
        <path d="M8.51808 29.9576C8.42725 29.9576 8.33136 29.9171 8.27081 29.8412C8.15474 29.7046 8.16988 29.4971 8.31118 29.3807L9.64343 28.2522C9.77968 28.1358 9.98658 28.151 10.1026 28.2927C10.2187 28.4293 10.2036 28.6368 10.0623 28.7532L8.73003 29.8817C8.66443 29.9323 8.58873 29.9576 8.51808 29.9576Z"
              fill="white"/>
        <path d="M4.60208 11.1986C4.46078 11.1986 4.32958 11.1075 4.28921 10.9658L3.79466 9.29084C3.74419 9.11878 3.84008 8.93661 4.0167 8.886C4.18828 8.8354 4.36995 8.93155 4.42041 9.10866L4.91496 10.7837C4.96542 10.9557 4.86954 11.1379 4.69292 11.1885C4.66264 11.1935 4.63236 11.1986 4.60208 11.1986Z"
              fill="white"/>
        <path d="M21.8306 27.0734C21.6893 27.0734 21.5581 26.9823 21.5177 26.8406L21.0232 25.1656C20.9727 24.9935 21.0686 24.8114 21.2452 24.7608C21.4168 24.7102 21.5985 24.8063 21.6489 24.9834L22.1435 26.6584C22.1939 26.8305 22.0981 27.0126 21.9214 27.0632C21.8912 27.0683 21.8609 27.0734 21.8306 27.0734Z"
              fill="white"/>
        <path d="M2.94682 13.8555C2.84084 13.8555 2.73487 13.8049 2.67431 13.7037L1.72559 12.2362C1.62971 12.0844 1.67008 11.8819 1.82147 11.7858C1.97286 11.6896 2.17472 11.7301 2.2706 11.8819L3.21932 13.3495C3.3152 13.5013 3.27483 13.7037 3.12344 13.7998C3.06793 13.8353 3.00737 13.8555 2.94682 13.8555Z"
              fill="white"/>
        <path d="M23.94 24.209C23.834 24.209 23.728 24.1584 23.6675 24.0572L22.7188 22.5897C22.6229 22.4379 22.6632 22.2355 22.8146 22.1393C22.966 22.0432 23.1679 22.0836 23.2638 22.2355L24.2125 23.703C24.3084 23.8548 24.268 24.0572 24.1166 24.1533C24.0611 24.1938 24.0005 24.209 23.94 24.209Z"
              fill="white"/>
        <path d="M2.12461 16.7248C2.04891 16.7248 1.96817 16.6995 1.90762 16.6438L0.600599 15.485C0.464346 15.3635 0.454254 15.1561 0.570321 15.0245C0.691434 14.8879 0.898336 14.8777 1.02954 14.9941L2.33656 16.153C2.47281 16.2744 2.4829 16.4819 2.36684 16.6135C2.30123 16.6894 2.21545 16.7248 2.12461 16.7248Z"
              fill="white"/>
        <path d="M25.1207 21.0261C25.045 21.0261 24.9643 21.0008 24.9037 20.9451L23.5967 19.7863C23.4604 19.6648 23.4503 19.4573 23.5664 19.3258C23.6875 19.1891 23.8944 19.179 24.0256 19.2954L25.3327 20.4542C25.4689 20.5757 25.479 20.7832 25.3629 20.9147C25.3024 20.9906 25.2115 21.0261 25.1207 21.0261Z"
              fill="white"/>
        <path d="M2.155 20.0594C2.10958 20.0594 2.06416 20.0493 2.02379 20.029L0.429132 19.3155C0.262601 19.2396 0.191952 19.0473 0.262601 18.8854C0.333251 18.7234 0.53006 18.6475 0.691545 18.7234L2.28621 19.437C2.45274 19.5129 2.52339 19.7052 2.45274 19.8671C2.39723 19.9885 2.27611 20.0594 2.155 20.0594Z"
              fill="white"/>
        <path d="M3.0278 22.9185C3.01266 22.9185 2.99752 22.9185 2.97734 22.9134L1.25147 22.6553C1.07485 22.63 0.948686 22.4631 0.973918 22.2859C0.99915 22.1088 1.16568 21.9823 1.3423 22.0076L3.07322 22.2657C3.24984 22.291 3.376 22.458 3.35077 22.6351C3.32554 22.8021 3.18424 22.9185 3.0278 22.9185Z"
              fill="white"/>
        <path d="M21.8304 18.3895C16.7739 18.3895 12.6611 14.2653 12.6611 9.19474C12.6611 4.12422 16.7739 0 21.8304 0C26.8869 0 30.9997 4.12422 30.9997 9.19474C30.9997 14.2653 26.8869 18.3895 21.8304 18.3895ZM21.8304 0.981717C17.3139 0.981717 13.6401 4.66569 13.6401 9.19474C13.6401 13.7238 17.3139 17.4078 21.8304 17.4078C26.347 17.4078 30.0207 13.7238 30.0207 9.19474C30.0207 4.66569 26.347 0.981717 21.8304 0.981717Z"
              fill="white"/>
        <path d="M21.8612 14.2349C20.9579 14.2349 20.1101 13.8908 19.4591 13.2633C18.793 12.6207 18.4145 11.7553 18.3943 10.8242C18.3388 7.8487 21.3565 4.15461 21.4827 3.99774C21.5433 3.92689 21.6341 3.88135 21.7249 3.88135C21.8208 3.88135 21.9116 3.91677 21.9722 3.98762C22.1085 4.13943 25.2625 7.69183 25.323 10.6876C25.3432 11.6187 24.995 12.4941 24.3541 13.1672C23.7132 13.8352 22.8503 14.2147 21.9217 14.2349C21.9066 14.2349 21.8864 14.2349 21.8612 14.2349ZM21.7502 4.72643C21.0386 5.66261 19.0049 8.54704 19.0503 10.8141C19.0806 12.3727 20.3675 13.6125 21.9167 13.5821C22.6686 13.567 23.3701 13.2583 23.8898 12.7168C24.4096 12.1753 24.6922 11.4568 24.6771 10.7028C24.6317 8.42052 22.497 5.63225 21.7502 4.72643Z"
              fill="white"/>
        <path d="M21.9814 12.995C21.8351 12.995 21.7039 12.8938 21.6635 12.7471C21.6181 12.5699 21.7291 12.3928 21.9007 12.3524C23.0261 12.074 23.455 11.3048 23.2077 9.9942C23.1724 9.81709 23.2885 9.64504 23.4701 9.60961C23.6468 9.57419 23.8183 9.69058 23.8537 9.87276C24.1615 11.5174 23.5256 12.6256 22.0622 12.9849C22.037 12.99 22.0117 12.995 21.9814 12.995Z"
              fill="white"/>
        <path d="M23.2189 9.19965C23.0927 9.19965 22.9716 9.12374 22.9161 8.99723C22.8707 8.8859 22.8353 8.82012 22.8353 8.82012C22.7546 8.65819 22.8202 8.46083 22.9817 8.37986C23.1432 8.2989 23.34 8.36468 23.4207 8.52662C23.4207 8.53168 23.4611 8.61264 23.5166 8.74421C23.5872 8.91121 23.5065 9.1035 23.34 9.16929C23.2996 9.19459 23.2592 9.19965 23.2189 9.19965Z"
              fill="white"/>
    </symbol>
    <symbol id="services5" viewBox="0 0 31 31">
        <path d="M12.9591 31C5.81345 31 0 25.1705 0 18.0049C0 14.7309 1.22123 11.6035 3.43155 9.19479C5.63178 6.80122 8.61924 5.3337 11.8388 5.05538C12.1063 5.03514 12.3435 5.2325 12.3687 5.5007C12.3939 5.7689 12.1921 6.00674 11.9246 6.03204C8.94726 6.28506 6.18688 7.64631 4.15318 9.8577C2.10435 12.0843 0.979001 14.9788 0.979001 18.0049C0.979001 24.629 6.35341 30.0183 12.9591 30.0183C19.0047 30.0183 24.1167 25.4893 24.8484 19.4826C24.8838 19.2144 25.126 19.0221 25.3935 19.0575C25.6609 19.0929 25.8527 19.3358 25.8174 19.604C25.0251 26.0965 19.4942 31 12.9591 31Z"
              fill="white"/>
        <path d="M13.5946 17.4484C13.5341 17.4484 13.4735 17.4333 13.418 17.3978C13.307 17.327 13.2515 17.1954 13.2717 17.0689L13.5492 15.4294C13.5795 15.2522 13.746 15.1308 13.9277 15.1611C14.1043 15.1915 14.2254 15.3585 14.1952 15.5407L14.0438 16.4313L14.4222 16.1783C14.5736 16.0771 14.7755 16.1176 14.8764 16.2694C14.9773 16.4212 14.937 16.6236 14.7856 16.7248L13.7763 17.4029C13.7208 17.4282 13.6552 17.4484 13.5946 17.4484Z"
              fill="white"/>
        <path d="M17.466 21.3244C17.3954 21.3244 17.3247 21.3042 17.2642 21.2536L13.8629 18.5969C13.767 18.521 13.7166 18.3945 13.7418 18.273C13.767 18.1516 13.8579 18.0554 13.979 18.02L16.1388 17.433C16.3104 17.3875 16.4921 17.4887 16.5375 17.6658C16.5829 17.8378 16.482 18.02 16.3054 18.0656L14.7763 18.4805L17.6629 20.7324C17.8042 20.8437 17.8294 21.0512 17.7184 21.1929C17.6629 21.284 17.567 21.3244 17.466 21.3244Z"
              fill="white"/>
        <path d="M10.4062 23.0855C10.3406 23.0855 10.275 23.0653 10.2195 23.0248C10.0731 22.9236 10.0328 22.7161 10.1387 22.5694L12.7023 18.8702C12.7629 18.7842 12.8638 18.7285 12.9698 18.7285C13.0757 18.7285 13.1767 18.7791 13.2372 18.8702L15.7907 22.5592C15.8916 22.706 15.8563 22.9135 15.71 23.0147C15.5636 23.1159 15.3567 23.0805 15.2558 22.9337L12.9698 19.6343L10.6737 22.9438C10.6131 23.0349 10.5122 23.0855 10.4062 23.0855Z"
              fill="white"/>
        <path d="M8.4523 21.3348C8.35641 21.3348 8.26053 21.2893 8.19493 21.2083C8.08391 21.0666 8.10914 20.8591 8.25044 20.7478L11.1572 18.4808L7.46825 17.4788C7.29667 17.4333 7.1907 17.2511 7.23611 17.079C7.28153 16.907 7.4632 16.8007 7.63478 16.8463L11.9545 18.0203C12.0756 18.0506 12.1664 18.1518 12.1917 18.2733C12.2169 18.3947 12.1715 18.5212 12.0706 18.5971L8.64406 21.269C8.59359 21.3146 8.52294 21.3348 8.4523 21.3348Z"
              fill="white"/>
        <path d="M12.3278 17.4178C12.2622 17.4178 12.2017 17.3975 12.1462 17.3621L8.44715 14.8775C8.29576 14.7763 8.25539 14.5738 8.35631 14.422C8.45724 14.2702 8.6591 14.2297 8.81049 14.3309L11.8787 16.3956L11.2479 12.6964C11.2176 12.5193 11.3387 12.3473 11.5154 12.3169C11.692 12.2865 11.8636 12.408 11.8938 12.5851L12.6508 17.0383C12.671 17.1648 12.6155 17.2963 12.5045 17.3672C12.4489 17.3975 12.3884 17.4178 12.3278 17.4178Z"
              fill="white"/>
        <path d="M12.9594 25.6916C8.73054 25.6916 5.29395 22.2454 5.29395 18.0048C5.29395 16.2438 5.86923 14.5891 6.9643 13.2177C8.02404 11.8868 9.51273 10.9304 11.1528 10.5357C11.3294 10.4952 11.5061 10.6015 11.5464 10.7786C11.5868 10.9557 11.4808 11.1328 11.3042 11.1733C9.80037 11.5376 8.4429 12.408 7.47399 13.6276C6.4748 14.8826 5.94998 16.4007 5.94998 18.0099C5.94998 21.8862 9.09388 25.0438 12.9645 25.0438C14.5793 25.0438 16.1588 24.4771 17.4053 23.4549C18.6366 22.4428 19.4945 21.031 19.8225 19.4774C19.8578 19.3003 20.0345 19.189 20.2111 19.2244C20.3877 19.2598 20.4987 19.4369 20.4634 19.614C20.1051 21.3093 19.1665 22.8527 17.8191 23.9609C16.4465 25.0742 14.7257 25.6916 12.9594 25.6916Z"
              fill="white"/>
        <path d="M12.2378 30.7621C12.1773 30.7621 12.1167 30.7469 12.0662 30.7115C11.9148 30.6153 11.8694 30.4129 11.9653 30.2611L12.8938 28.7835C12.9897 28.6316 13.1916 28.5861 13.343 28.6822C13.4944 28.7784 13.5398 28.9808 13.4439 29.1326L12.5154 30.6103C12.4548 30.7115 12.3488 30.7621 12.2378 30.7621Z"
              fill="white"/>
        <path d="M9.82507 7.76763C9.7948 7.76763 9.76452 7.76257 9.73424 7.75245C9.56266 7.70185 9.46173 7.51967 9.51724 7.34762L10.0168 5.67263C10.0673 5.50057 10.249 5.39937 10.4205 5.45503C10.5921 5.50563 10.6931 5.68781 10.6375 5.85986L10.138 7.53485C10.0925 7.67655 9.96637 7.76763 9.82507 7.76763Z"
              fill="white"/>
        <path d="M15.6132 30.4991C15.5829 30.4991 15.5526 30.494 15.5223 30.4839C15.3507 30.4333 15.2498 30.2511 15.3053 30.0791L15.8049 28.4041C15.8554 28.232 16.0371 28.1308 16.2086 28.1865C16.3802 28.2371 16.4811 28.4193 16.4256 28.5913L15.926 30.2663C15.8857 30.408 15.7545 30.4991 15.6132 30.4991Z"
              fill="white"/>
        <path d="M6.81822 9.23014C6.64159 9.23014 6.49525 9.07327 6.4902 8.8911L6.46497 7.13514C6.45992 6.95296 6.60627 6.80115 6.78794 6.80115C6.96456 6.79609 7.11596 6.94284 7.121 7.11996L7.14623 8.88098C7.15128 9.06821 7.00493 9.16436 6.81822 9.23014C6.82326 9.23014 6.82326 9.23014 6.81822 9.23014Z"
              fill="white"/>
        <path d="M19.1454 29.1277C18.9687 29.1277 18.8224 28.991 18.8174 28.8139L18.7921 27.0681C18.7871 26.8859 18.9334 26.7391 19.1151 26.7391C19.2917 26.7341 19.4431 26.8808 19.4481 27.063L19.4734 28.8038C19.4734 28.9809 19.327 29.1277 19.1454 29.1277Z"
              fill="white"/>
        <path d="M2.88661 25.6311C2.72513 25.6311 2.58383 25.5096 2.56364 25.3426C2.54346 25.1655 2.66962 24.9985 2.84624 24.9783L4.57716 24.7607C4.75378 24.7404 4.92031 24.8669 4.9405 25.0441C4.96068 25.2212 4.83452 25.3882 4.6579 25.4084L2.92698 25.626C2.91689 25.6311 2.90175 25.6311 2.88661 25.6311Z"
              fill="white"/>
        <path d="M5.23369 28.0801C5.10753 28.0801 4.98641 28.0042 4.9309 27.8777C4.86026 27.7107 4.941 27.5184 5.10753 27.4475L6.71733 26.7745C6.88386 26.7036 7.07562 26.7846 7.14627 26.9516C7.21692 27.1186 7.13618 27.3109 6.96965 27.3817L5.35985 28.0598C5.31948 28.075 5.27406 28.0801 5.23369 28.0801Z"
              fill="white"/>
        <path d="M8.51808 29.9576C8.42725 29.9576 8.33136 29.9171 8.27081 29.8412C8.15474 29.7046 8.16988 29.4971 8.31118 29.3807L9.64343 28.2522C9.77968 28.1358 9.98658 28.151 10.1026 28.2927C10.2187 28.4293 10.2036 28.6368 10.0623 28.7532L8.73003 29.8817C8.66443 29.9323 8.58873 29.9576 8.51808 29.9576Z"
              fill="white"/>
        <path d="M4.60208 11.1986C4.46078 11.1986 4.32958 11.1075 4.28921 10.9658L3.79466 9.29084C3.74419 9.11878 3.84008 8.93661 4.0167 8.886C4.18828 8.8354 4.36995 8.93155 4.42041 9.10866L4.91496 10.7837C4.96542 10.9557 4.86954 11.1379 4.69292 11.1885C4.66264 11.1935 4.63236 11.1986 4.60208 11.1986Z"
              fill="white"/>
        <path d="M21.8306 27.0734C21.6893 27.0734 21.5581 26.9823 21.5177 26.8406L21.0232 25.1656C20.9727 24.9935 21.0686 24.8114 21.2452 24.7608C21.4168 24.7102 21.5985 24.8063 21.6489 24.9834L22.1435 26.6584C22.1939 26.8305 22.0981 27.0126 21.9214 27.0632C21.8912 27.0683 21.8609 27.0734 21.8306 27.0734Z"
              fill="white"/>
        <path d="M2.94682 13.8555C2.84084 13.8555 2.73487 13.8049 2.67431 13.7037L1.72559 12.2362C1.62971 12.0844 1.67008 11.8819 1.82147 11.7858C1.97286 11.6896 2.17472 11.7301 2.2706 11.8819L3.21932 13.3495C3.3152 13.5013 3.27483 13.7037 3.12344 13.7998C3.06793 13.8353 3.00737 13.8555 2.94682 13.8555Z"
              fill="white"/>
        <path d="M23.94 24.209C23.834 24.209 23.728 24.1584 23.6675 24.0572L22.7188 22.5897C22.6229 22.4379 22.6632 22.2355 22.8146 22.1393C22.966 22.0432 23.1679 22.0836 23.2638 22.2355L24.2125 23.703C24.3084 23.8548 24.268 24.0572 24.1166 24.1533C24.0611 24.1938 24.0005 24.209 23.94 24.209Z"
              fill="white"/>
        <path d="M2.12461 16.7248C2.04891 16.7248 1.96817 16.6995 1.90762 16.6438L0.600599 15.485C0.464346 15.3635 0.454254 15.1561 0.570321 15.0245C0.691434 14.8879 0.898336 14.8777 1.02954 14.9941L2.33656 16.153C2.47281 16.2744 2.4829 16.4819 2.36684 16.6135C2.30123 16.6894 2.21545 16.7248 2.12461 16.7248Z"
              fill="white"/>
        <path d="M25.1207 21.0261C25.045 21.0261 24.9643 21.0008 24.9037 20.9451L23.5967 19.7863C23.4604 19.6648 23.4503 19.4573 23.5664 19.3258C23.6875 19.1891 23.8944 19.179 24.0256 19.2954L25.3327 20.4542C25.4689 20.5757 25.479 20.7832 25.3629 20.9147C25.3024 20.9906 25.2115 21.0261 25.1207 21.0261Z"
              fill="white"/>
        <path d="M2.155 20.0594C2.10958 20.0594 2.06416 20.0493 2.02379 20.029L0.429132 19.3155C0.262601 19.2396 0.191952 19.0473 0.262601 18.8854C0.333251 18.7234 0.53006 18.6475 0.691545 18.7234L2.28621 19.437C2.45274 19.5129 2.52339 19.7052 2.45274 19.8671C2.39723 19.9885 2.27611 20.0594 2.155 20.0594Z"
              fill="white"/>
        <path d="M3.0278 22.9185C3.01266 22.9185 2.99752 22.9185 2.97734 22.9134L1.25147 22.6553C1.07485 22.63 0.948686 22.4631 0.973918 22.2859C0.99915 22.1088 1.16568 21.9823 1.3423 22.0076L3.07322 22.2657C3.24984 22.291 3.376 22.458 3.35077 22.6351C3.32554 22.8021 3.18424 22.9185 3.0278 22.9185Z"
              fill="white"/>
        <path d="M21.8304 18.3895C16.7739 18.3895 12.6611 14.2653 12.6611 9.19474C12.6611 4.12422 16.7739 0 21.8304 0C26.8869 0 30.9997 4.12422 30.9997 9.19474C30.9997 14.2653 26.8869 18.3895 21.8304 18.3895ZM21.8304 0.981717C17.3139 0.981717 13.6401 4.66569 13.6401 9.19474C13.6401 13.7238 17.3139 17.4078 21.8304 17.4078C26.347 17.4078 30.0207 13.7238 30.0207 9.19474C30.0207 4.66569 26.347 0.981717 21.8304 0.981717Z"
              fill="white"/>
        <path d="M23.63 12H22.26L19.08 7.65V12H17.66V5.33H19.12L22.21 9.52V5.33H23.63V12ZM26.4812 12H24.4732V11.556C25.0438 11.132 25.4212 10.8307 25.6052 10.652C25.7918 10.4707 25.8852 10.3013 25.8852 10.144C25.8852 10.0347 25.8425 9.94933 25.7572 9.888C25.6718 9.82667 25.5705 9.796 25.4532 9.796C25.1732 9.796 24.9345 9.89867 24.7372 10.104L24.4132 9.728C24.5385 9.584 24.6918 9.476 24.8732 9.404C25.0572 9.32933 25.2465 9.292 25.4412 9.292C25.7345 9.292 25.9772 9.36933 26.1692 9.524C26.3638 9.67867 26.4612 9.88533 26.4612 10.144C26.4612 10.3627 26.3745 10.5773 26.2012 10.788C26.0305 10.996 25.7612 11.2333 25.3932 11.5H26.4812V12Z"
              fill="white"/>
    </symbol>
    <symbol id="services6" viewBox="0 0 31 31">
        <path d="M15.39 31C13.084 31 10.9446 29.342 9.35884 26.3369C7.83222 23.4354 6.98828 19.5904 6.98828 15.5055C6.98828 13.6184 7.14417 11.9059 7.44519 10.417L7.95586 10.526L7.44519 10.417C8.09562 7.23733 9.2137 4.94669 9.26208 4.84852C10.864 1.71798 13.0356 0 15.39 0H22.6039C24.9099 0 27.0493 1.65799 28.6351 4.66309C30.1617 7.56457 31.0056 11.415 31.0056 15.5C31.0056 16.0836 30.9841 16.678 30.925 17.6325C30.8712 18.5487 30.6401 20.0649 30.6293 20.1304V20.1358C29.5435 26.6314 26.3183 31 22.6092 31H15.39ZM10.1974 5.32301C10.1544 5.41027 9.07932 7.63547 8.4719 10.6297C8.18162 12.0477 8.03649 13.6893 8.03649 15.5055C8.03649 19.4159 8.83205 23.0864 10.2834 25.8406C11.6756 28.4857 13.4925 29.9419 15.39 29.9419H22.6039C23.6736 29.9419 25.2808 29.4675 26.8719 27.2204C28.1459 25.4261 29.1135 22.8464 29.5919 19.9667C29.6026 19.8849 29.823 18.4124 29.8768 17.567C29.9305 16.6399 29.952 16.0618 29.952 15.5C29.952 11.5895 29.1565 7.91362 27.7051 5.16485C26.3129 2.5197 24.496 1.05806 22.5985 1.05806H15.39C13.4495 1.05806 11.6058 2.57424 10.1974 5.32301Z"
              fill="white"/>
        <path d="M17.6687 30.8309C15.4325 30.8309 13.3415 29.211 11.7934 26.2659C10.2775 23.3917 9.44434 19.574 9.44434 15.5217C9.44434 15.3254 9.60022 15.1672 9.79374 15.1672C9.98725 15.1672 10.1431 15.3254 10.1431 15.5217C10.1431 19.4649 10.9495 23.1627 12.4062 25.9332C13.8307 28.6384 15.7013 30.1218 17.6687 30.1218C17.8622 30.1218 18.0181 30.28 18.0181 30.4763C18.0181 30.6727 17.8569 30.8309 17.6687 30.8309Z"
              fill="white"/>
        <path d="M11.0627 7.72812C11.0251 7.72812 10.9875 7.72267 10.9499 7.70631C10.7671 7.64086 10.6703 7.43907 10.7348 7.25909C12.2453 2.85779 14.8363 0.229004 17.6691 0.229004C17.8626 0.229004 18.0185 0.387167 18.0185 0.583508C18.0185 0.779848 17.8626 0.938012 17.6691 0.938012C15.1481 0.938012 12.8044 3.38681 11.396 7.49361C11.3423 7.63541 11.2079 7.72812 11.0627 7.72812Z"
              fill="white"/>
        <path d="M22.9155 30.8309C20.9105 30.8309 19.0506 29.2056 17.6745 26.2496C16.336 23.3808 15.5996 19.5686 15.5996 15.5218C15.5996 11.475 16.336 7.66813 17.6745 4.79938C19.0506 1.84881 20.9105 0.229004 22.9155 0.229004C23.1091 0.229004 23.2649 0.387167 23.2649 0.583508C23.2649 0.779848 23.1091 0.938012 22.9155 0.938012C21.1954 0.938012 19.5559 2.41602 18.3034 5.1048C17.008 7.88083 16.293 11.5786 16.293 15.5272C16.293 19.4758 17.008 23.179 18.3034 25.9551C19.5613 28.6493 21.1954 30.1328 22.9155 30.1328C23.1091 30.1328 23.2649 30.2909 23.2649 30.4873C23.2649 30.6836 23.1091 30.8309 22.9155 30.8309Z"
              fill="white"/>
        <path d="M20.0073 30.8309C18.0023 30.8309 16.1424 29.2056 14.7663 26.2496C13.4278 23.3808 12.6914 19.5686 12.6914 15.5218C12.6914 11.475 13.4278 7.66813 14.7663 4.79938C16.1424 1.84881 18.0023 0.229004 20.0073 0.229004C20.2009 0.229004 20.3567 0.387167 20.3567 0.583508C20.3567 0.779848 20.2009 0.938012 20.0073 0.938012C18.2872 0.938012 16.6477 2.41602 15.3952 5.1048C14.0998 7.88083 13.3848 11.5786 13.3848 15.5272C13.3848 19.4758 14.0998 23.179 15.3952 25.9551C16.6531 28.6493 18.2872 30.1328 20.0073 30.1328C20.2009 30.1328 20.3567 30.2909 20.3567 30.4873C20.3567 30.6836 20.2009 30.8309 20.0073 30.8309Z"
              fill="white"/>
        <path d="M23.9849 23.37C23.3398 23.37 22.426 22.9228 21.7164 20.8013C21.2273 19.3232 20.9531 17.3653 20.9531 15.2928C20.9531 13.2203 21.2219 11.2624 21.7164 9.78437C22.4206 7.65734 23.3398 7.21558 23.9849 7.21558C24.6299 7.21558 25.5437 7.6628 26.2533 9.78437C26.7424 11.2624 27.0166 13.2203 27.0166 15.2928C27.0166 17.3653 26.7478 19.3232 26.2533 20.8013C25.5491 22.9228 24.6299 23.37 23.9849 23.37ZM23.9849 8.26818C23.6785 8.26818 23.157 8.75358 22.7055 10.1171C22.2486 11.4914 21.996 13.324 21.996 15.2874C21.996 17.2508 22.2486 19.0833 22.7055 20.4577C23.157 21.8211 23.6785 22.3065 23.9849 22.3065C24.2913 22.3065 24.8127 21.8211 25.2642 20.4577C25.7211 19.0833 25.9738 17.2508 25.9738 15.2874C25.9738 13.324 25.7211 11.4914 25.2642 10.1171C24.8127 8.75358 24.2913 8.26818 23.9849 8.26818Z"
              fill="white"/>
        <path d="M10.5949 15.6908C9.59511 15.6908 8.42864 15.6036 7.37506 15.2981C7.09554 15.2163 6.93428 14.9273 7.01491 14.6437C7.09554 14.3601 7.38044 14.1965 7.65996 14.2783C9.41772 14.78 11.5948 14.6219 12.514 14.5182C12.5301 12.2712 13.0945 9.55518 13.3848 8.29533C12.4011 8.3226 10.5788 8.30078 8.96081 7.88083C8.68129 7.80993 8.51465 7.52087 8.58453 7.23727C8.65441 6.95367 8.93931 6.7846 9.21883 6.8555C11.3529 7.41179 13.9868 7.21 14.0137 7.21C14.1803 7.19909 14.347 7.26454 14.4545 7.40089C14.562 7.53178 14.5996 7.71176 14.5566 7.87538C14.5459 7.91901 13.4654 12.1076 13.5568 14.9709C13.5675 15.2381 13.374 15.4672 13.116 15.5108C13.0407 15.5218 11.971 15.6908 10.5949 15.6908Z"
              fill="white"/>
        <path d="M6.0902 7.41178C5.98807 7.41178 5.89131 7.36815 5.82143 7.28089L3.467 4.35214C3.34337 4.20488 3.36487 3.98127 3.51538 3.85583C3.66589 3.73039 3.88091 3.75766 4.00454 3.90492L6.35897 6.82821C6.48261 6.98092 6.45573 7.19908 6.31059 7.32452C6.24609 7.38451 6.16546 7.41178 6.0902 7.41178Z"
              fill="white"/>
        <path d="M2.64519 16.0564C2.54305 16.0564 2.4463 16.0128 2.37642 15.9255C2.25278 15.7728 2.27966 15.5547 2.42479 15.4292L5.30602 13.0404C5.45653 12.915 5.67154 12.9422 5.79518 13.0895C5.91881 13.2422 5.89193 13.4604 5.7468 13.5858L2.86558 15.9801C2.80107 16.0346 2.72044 16.0564 2.64519 16.0564Z"
              fill="white"/>
        <path d="M4.2412 10.6514H0.349402C0.155887 10.6514 0 10.4932 0 10.2969C0 10.1005 0.155887 9.94238 0.349402 9.94238H4.2412C4.43471 9.94238 4.5906 10.1005 4.5906 10.2969C4.5906 10.4932 4.43471 10.6514 4.2412 10.6514Z"
              fill="white"/>
    </symbol>
    <symbol id="services7" viewBox="0 0 31 31">
        <path d="M11.2212 31C8.20095 31 5.36942 29.3684 3.25101 26.4152C1.15359 23.4912 0 19.614 0 15.4971C0 11.3801 1.15359 7.50877 3.25101 4.5848C5.36942 1.63158 8.20095 0 11.2212 0C12.7524 0 14.2363 0.415205 15.6311 1.23977C15.8828 1.38596 15.9772 1.73099 15.8461 2.0117C15.715 2.2924 15.4056 2.39766 15.1539 2.25146C13.906 1.51462 12.5846 1.1462 11.2265 1.1462C5.59489 1.14035 1.0225 7.57895 1.0225 15.4971C1.0225 23.4152 5.59489 29.8538 11.2212 29.8538C12.6213 29.8538 13.9794 29.462 15.2588 28.6842C15.5052 28.5322 15.8146 28.6374 15.9509 28.9123C16.0873 29.1871 15.9929 29.5322 15.7464 29.6842C14.315 30.5556 12.7943 31 11.2212 31Z"
              fill="white"/>
        <path d="M11.9607 27.6316C9.78984 27.6316 7.76057 26.345 6.25043 24.0117C4.77174 21.731 3.95898 18.7076 3.95898 15.5029C3.95898 12.2982 4.77174 9.27485 6.25043 6.99415C7.76582 4.66082 9.78984 3.37427 11.9607 3.37427C12.2229 3.37427 12.485 3.39181 12.742 3.43275C13.0199 3.47368 13.2191 3.76023 13.1824 4.07017C13.1457 4.38012 12.8888 4.60234 12.6109 4.5614C12.3959 4.53216 12.1809 4.51462 11.9659 4.51462C8.11189 4.50292 4.98148 9.43859 4.98148 15.4971C4.98148 21.5556 8.11189 26.4912 11.9607 26.4912C12.2543 26.4912 12.548 26.462 12.8364 26.4035C13.1143 26.3509 13.3817 26.5556 13.4289 26.8655C13.4761 27.1754 13.2925 27.4737 13.0146 27.5263C12.6686 27.5965 12.312 27.6316 11.9607 27.6316Z"
              fill="white"/>
        <path d="M12.7941 27.2749C12.7679 27.2749 12.7469 27.2749 12.7207 27.2691C10.7649 26.7954 8.97681 25.351 7.69214 23.2048C6.40222 21.0586 5.69434 18.3217 5.69434 15.4972C5.69434 12.7428 6.37076 10.0586 7.60824 7.93577C8.83524 5.81881 10.5551 4.35097 12.4428 3.80126C12.6263 3.74863 12.8099 3.87144 12.8571 4.07027C12.9042 4.27495 12.7941 4.47963 12.6159 4.53226C8.99779 5.58489 6.376 10.1931 6.376 15.4913C6.376 18.1638 7.04193 20.7486 8.25844 22.7779C9.44349 24.7603 11.0795 26.0878 12.8623 26.5206C13.0458 26.5673 13.1612 26.7662 13.1245 26.9709C13.0878 27.158 12.9514 27.2749 12.7941 27.2749Z"
              fill="white"/>
        <path d="M19.7837 31C16.7634 31 13.9319 29.3684 11.8135 26.4152C9.71609 23.4971 8.5625 19.6199 8.5625 15.5029C8.5625 11.386 9.71609 7.50877 11.8135 4.59064C13.9319 1.63158 16.7634 0 19.7837 0C22.804 0 25.6356 1.63158 27.754 4.5848C29.8514 7.50292 31.005 11.3801 31.005 15.4971C31.005 19.614 29.8514 23.4912 27.754 26.4094C25.6303 29.3684 22.7988 31 19.7837 31ZM19.7837 1.14035C14.1574 1.14035 9.585 7.57895 9.585 15.4971C9.585 23.4152 14.1574 29.8597 19.7837 29.8597C25.4101 29.8597 29.9772 23.4152 29.9772 15.4971C29.9772 7.57895 25.4049 1.14035 19.7837 1.14035ZM20.1193 27.0292C20.0407 27.0292 19.9568 27.0292 19.8519 27.0234C19.6422 27.0117 19.4586 26.8597 19.3905 26.6316C18.9605 25.1813 18.8766 23.4795 19.1545 21.5789C19.401 19.8655 19.8624 18.538 20.0459 18.0409C20.156 17.7485 20.4549 17.614 20.7171 17.7368C20.9793 17.8596 21.0999 18.193 20.9898 18.4854C20.8272 18.9181 19.4796 22.6491 20.2557 25.8889C22.652 25.807 24.8228 23.6725 25.924 20.345C23.7951 19.9357 21.9651 18.3099 21.2362 17.5789C21.0265 17.3684 21.0107 17.0117 21.1943 16.7719C21.383 16.538 21.7029 16.5205 21.9179 16.7251C24.0992 18.9006 25.9449 19.2456 26.6423 19.2924C26.7996 19.3041 26.9412 19.3918 27.0304 19.538C27.1195 19.6842 27.1457 19.8655 27.0985 20.0292C25.924 24.2807 23.1868 27.0292 20.1193 27.0292ZM15.3687 24.2047C15.2166 24.2047 15.0698 24.1287 14.9701 23.9883C13.4338 21.8363 12.5529 18.7895 12.5529 15.6199C12.5529 15.1053 12.5738 14.5848 12.621 14.076C12.642 13.848 12.7783 13.6608 12.9723 13.5906C15.2271 12.7836 17.6339 14.0585 18.562 14.6433C18.8084 14.7953 18.8923 15.1462 18.756 15.4211C18.6197 15.6959 18.3051 15.7895 18.0586 15.6374C17.293 15.1579 15.3896 14.1345 13.6068 14.5789C13.5858 14.9298 13.5754 15.2749 13.5754 15.6257C13.5754 18.0819 14.1417 20.4503 15.1589 22.3041C16.0241 19.4327 17.9432 17.386 18.368 16.9591C18.5777 16.7485 18.9028 16.7661 19.0916 17C19.2804 17.2339 19.2646 17.5965 19.0549 17.807C18.7875 18.076 16.4226 20.5322 15.8773 23.7427C15.8406 23.9591 15.6938 24.1345 15.4997 24.1871C15.4526 24.1988 15.4106 24.2047 15.3687 24.2047ZM25.0798 15.8538C23.4071 15.8538 21.9756 15.3626 21.6138 15.2222C21.3463 15.1228 21.2048 14.8012 21.2939 14.5029C21.3044 14.462 21.3201 14.4269 21.3411 14.3918C21.2467 14.3567 21.1576 14.2982 21.0946 14.2047C20.9164 13.9591 20.9531 13.6023 21.1733 13.4035C21.1995 13.3801 23.8003 11.0175 24.5764 7.75439C24.6288 7.54386 24.7809 7.38012 24.9749 7.33918C25.1689 7.29825 25.3629 7.38597 25.4835 7.5614C26.7892 9.53801 27.5652 12.1579 27.6753 14.9415C27.6858 15.2047 27.5337 15.4386 27.3135 15.5088C26.5637 15.7602 25.7981 15.8538 25.0798 15.8538ZM21.9598 14.152C23.1501 14.5965 25.0221 14.9357 26.6266 14.538C26.4955 12.5789 26.0026 10.731 25.2161 9.19883C24.2722 11.7953 22.4894 13.6374 21.9598 14.152ZM19.1702 13.9006C19.0025 13.9006 18.8399 13.807 18.7403 13.6433C18.2631 12.8304 16.5432 10.1404 14.3671 9.73099C14.2046 9.70175 14.063 9.5848 13.9948 9.42105C13.9214 9.25731 13.9267 9.06433 14.0053 8.90059C14.687 7.49123 15.5836 6.32164 16.6061 5.51462C17.6811 4.66667 18.8976 4.21637 20.1246 4.21637C20.3605 4.21637 20.6017 4.23392 20.8377 4.26901C21.0422 4.29825 21.21 4.46199 21.2677 4.67836C22.2115 8.4269 20.5913 12.6842 20.4077 13.1579C20.2924 13.4444 19.9935 13.5731 19.7313 13.4503C19.7156 13.4444 19.6946 13.4327 19.6789 13.4211C19.6579 13.5789 19.5792 13.7251 19.4534 13.8187C19.3643 13.8713 19.2646 13.9006 19.1702 13.9006ZM15.2323 8.80117C17.2668 9.55556 18.8137 11.7485 19.4429 12.7602C19.4482 12.7368 19.4586 12.7135 19.4639 12.6901C19.6317 12.269 21.016 8.63158 20.3605 5.35673C20.2766 5.35088 20.198 5.35088 20.1141 5.35088C18.2316 5.35088 16.4803 6.59649 15.2323 8.80117Z"
              fill="white"/>
        <path d="M20.052 18.7954C18.804 18.7954 17.792 17.3919 17.792 15.6667C17.792 13.9416 18.804 12.5381 20.052 12.5381C21.2999 12.5381 22.312 13.9416 22.312 15.6667C22.312 17.3919 21.2999 18.7954 20.052 18.7954ZM20.052 13.6726C19.3808 13.6726 18.8145 14.5849 18.8145 15.6609C18.8145 16.7428 19.3808 17.6492 20.052 17.6492C20.7231 17.6492 21.2895 16.7369 21.2895 15.6609C21.2895 14.5849 20.7231 13.6726 20.052 13.6726Z"
              fill="white"/>
    </symbol>
    <symbol id="services8" viewBox="0 0 44 31">
        <path d="M15.0184 25.8573C10.9602 25.8573 7.77832 20.1543 7.77832 12.8712C7.77832 9.45945 8.4894 6.27039 9.77508 3.88577C11.1398 1.37905 13.0001 0 15.0184 0H21.0086C25.0668 0 28.2487 5.66705 28.2487 12.9071C28.2487 20.1471 25.0668 25.807 21.0086 25.807C20.4699 25.807 19.2273 25.8214 18.0207 25.8357C16.814 25.8501 15.5642 25.8573 15.0184 25.8573ZM15.0184 1.4006C13.5316 1.4006 12.1094 2.52108 11.0105 4.55375C9.83254 6.73726 9.17892 9.69648 9.17892 12.8784C9.17892 16.0674 9.83254 19.0482 11.0105 21.2604C12.1166 23.329 13.5387 24.4639 15.0184 24.4639C15.5571 24.4639 16.7996 24.4495 18.0063 24.4351C19.213 24.4208 20.4628 24.4064 21.0086 24.4064C22.4954 24.4064 23.9176 23.2787 25.0165 21.2389C26.1944 19.0482 26.8481 16.089 26.8481 12.8999C26.8481 9.71084 26.1944 6.75162 25.0165 4.56094C23.9176 2.52108 22.4954 1.39342 21.0086 1.39342H15.0184V1.4006Z"
              fill="white"/>
        <path d="M16.8352 25.5341C14.9246 25.5341 13.1505 24.1694 11.8433 21.6986C10.5864 19.3139 9.88965 16.1608 9.88965 12.8065C9.88965 9.45226 10.5792 6.29911 11.8433 3.92168C13.1505 1.45087 14.9246 0.0861816 16.8352 0.0861816C17.0938 0.0861816 17.3021 0.294476 17.3021 0.553049C17.3021 0.811622 17.0938 1.01992 16.8352 1.01992C15.2838 1.01992 13.8042 2.20504 12.6693 4.35263C11.4842 6.60078 10.8234 9.6031 10.8234 12.8065C10.8234 16.01 11.477 19.0123 12.6693 21.2604C13.8042 23.4152 15.2909 24.6003 16.8352 24.6003C17.0938 24.6003 17.3021 24.8086 17.3021 25.0672C17.3021 25.3258 17.0866 25.5341 16.8352 25.5341Z"
              fill="white"/>
        <path d="M21.1527 25.5341C17.6763 25.5341 14.9541 19.9388 14.9541 12.8065C14.9541 5.67423 17.6763 0.0861816 21.1527 0.0861816C21.4112 0.0861816 21.6195 0.294476 21.6195 0.553049C21.6195 0.811622 21.4112 1.01992 21.1527 1.01992C19.8311 1.01992 18.5095 2.22659 17.5183 4.33827C16.4624 6.5936 15.8807 9.59591 15.8807 12.8065C15.8807 19.199 18.294 24.6075 21.1455 24.6075C21.4041 24.6075 21.6123 24.8158 21.6123 25.0744C21.6195 25.3258 21.4112 25.5341 21.1527 25.5341Z"
              fill="white"/>
        <path d="M18.7601 25.5341C15.2837 25.5341 12.5615 19.9388 12.5615 12.8065C12.5615 5.67423 15.2837 0.0861816 18.7601 0.0861816C19.0187 0.0861816 19.227 0.294476 19.227 0.553049C19.227 0.811622 19.0187 1.01992 18.7601 1.01992C17.4385 1.01992 16.1169 2.22659 15.1257 4.33827C14.0699 6.5936 13.4881 9.59591 13.4881 12.8065C13.4881 19.199 15.9014 24.6075 18.7529 24.6075C19.0115 24.6075 19.2198 24.8158 19.2198 25.0744C19.2198 25.3258 19.0115 25.5341 18.7601 25.5341Z"
              fill="white"/>
        <path d="M22.0286 17.5541C21.5904 17.5541 20.9799 17.274 20.5274 15.9236C20.2257 15.033 20.0605 13.8551 20.0605 12.6053C20.0605 11.3555 20.2257 10.1776 20.5274 9.28694C20.9799 7.93661 21.5976 7.65649 22.0286 7.65649C22.4667 7.65649 23.0772 7.93661 23.5297 9.28694C23.8314 10.1776 23.9966 11.3555 23.9966 12.6053C23.9966 13.8551 23.8314 15.033 23.5297 15.9236C23.0844 17.274 22.4667 17.5541 22.0286 17.5541ZM22.0286 8.59023C21.7269 8.59023 20.9943 9.99801 20.9943 12.6053C20.9943 15.2126 21.7269 16.6203 22.0286 16.6203C22.3302 16.6203 23.0629 15.2126 23.0629 12.6053C23.0629 9.99801 22.3302 8.59023 22.0286 8.59023Z"
              fill="white"/>
        <path d="M28.2203 31.0001C28.1916 31.0001 28.1628 31.0001 28.1341 30.9929L0.632036 28.1917C0.423742 28.1702 0.229812 28.0553 0.114891 27.8757C-3.03308e-05 27.6961 -0.0287606 27.4735 0.0430651 27.2724L6.50738 8.10924C7.03171 6.36388 8.02291 5.10693 9.45942 4.38149C9.80419 4.2091 10.228 4.34557 10.4003 4.69034C10.5727 5.0351 10.4363 5.45887 10.0915 5.63125C9.00692 6.17713 8.25275 7.14678 7.84334 8.51865C7.84334 8.52583 7.83616 8.53301 7.83616 8.5402L1.64478 26.8917L27.7175 29.5421L34.462 7.44845C35.1443 5.19312 37.1842 3.67041 39.5472 3.67041H42.9733C43.3612 3.67041 43.67 3.98644 43.67 4.36712V25.6275C43.67 25.9292 43.4689 26.2022 43.1816 26.2955L28.443 30.957C28.4071 30.9714 28.3783 30.9786 28.3424 30.9857C28.2993 30.9929 28.2562 31.0001 28.2203 31.0001ZM39.5472 5.07101C37.8091 5.07101 36.3079 6.19149 35.8051 7.85067L29.2833 29.226L42.2766 25.1176V5.07101H39.5472Z"
              fill="white"/>
        <path d="M0.696358 28.1987C0.387507 28.1987 0.100204 27.9904 0.0211955 27.6744C-0.0793605 27.3009 0.143299 26.9202 0.523976 26.8197L12.3249 23.7312C12.6984 23.6306 13.0791 23.8533 13.1797 24.2339C13.2802 24.6074 13.0576 24.9881 12.6769 25.0887L0.875922 28.1772C0.818462 28.1915 0.761001 28.1987 0.696358 28.1987Z"
              fill="white"/>
        <path d="M42.9731 26.3313C42.9587 26.3313 42.9444 26.3313 42.93 26.3313L23.4868 25.1031C23.0989 25.0815 22.8116 24.7439 22.8332 24.3632C22.8547 23.9754 23.1923 23.6881 23.573 23.7096L43.009 24.9379C43.3969 24.9594 43.6842 25.297 43.6626 25.6777C43.6411 26.044 43.3394 26.3313 42.9731 26.3313Z"
              fill="white"/>
    </symbol>
    <symbol id="services9" viewBox="0 0 31 31">
        <path d="M12.9591 31C5.81345 31 0 25.1705 0 18.0049C0 14.7309 1.22123 11.6035 3.43155 9.19479C5.63178 6.80122 8.61924 5.3337 11.8388 5.05538C12.1063 5.03514 12.3435 5.2325 12.3687 5.5007C12.3939 5.7689 12.1921 6.00674 11.9246 6.03204C8.94726 6.28506 6.18688 7.64631 4.15318 9.8577C2.10435 12.0843 0.979001 14.9788 0.979001 18.0049C0.979001 24.629 6.35341 30.0183 12.9591 30.0183C19.0047 30.0183 24.1167 25.4893 24.8484 19.4826C24.8838 19.2144 25.126 19.0221 25.3935 19.0575C25.6609 19.0929 25.8527 19.3358 25.8174 19.604C25.0251 26.0965 19.4942 31 12.9591 31Z"
              fill="white"/>
        <path d="M13.5946 17.4484C13.5341 17.4484 13.4735 17.4333 13.418 17.3978C13.307 17.327 13.2515 17.1954 13.2717 17.0689L13.5492 15.4294C13.5795 15.2522 13.746 15.1308 13.9277 15.1611C14.1043 15.1915 14.2254 15.3585 14.1952 15.5407L14.0438 16.4313L14.4222 16.1783C14.5736 16.0771 14.7755 16.1176 14.8764 16.2694C14.9773 16.4212 14.937 16.6236 14.7856 16.7248L13.7763 17.4029C13.7208 17.4282 13.6552 17.4484 13.5946 17.4484Z"
              fill="white"/>
        <path d="M17.466 21.3244C17.3954 21.3244 17.3247 21.3042 17.2642 21.2536L13.8629 18.5969C13.767 18.521 13.7166 18.3945 13.7418 18.273C13.767 18.1516 13.8579 18.0554 13.979 18.02L16.1388 17.433C16.3104 17.3875 16.4921 17.4887 16.5375 17.6658C16.5829 17.8378 16.482 18.02 16.3054 18.0656L14.7763 18.4805L17.6629 20.7324C17.8042 20.8437 17.8294 21.0512 17.7184 21.1929C17.6629 21.284 17.567 21.3244 17.466 21.3244Z"
              fill="white"/>
        <path d="M10.4062 23.0855C10.3406 23.0855 10.275 23.0653 10.2195 23.0248C10.0731 22.9236 10.0328 22.7161 10.1387 22.5694L12.7023 18.8702C12.7629 18.7842 12.8638 18.7285 12.9698 18.7285C13.0757 18.7285 13.1767 18.7791 13.2372 18.8702L15.7907 22.5592C15.8916 22.706 15.8563 22.9135 15.71 23.0147C15.5636 23.1159 15.3567 23.0805 15.2558 22.9337L12.9698 19.6343L10.6737 22.9438C10.6131 23.0349 10.5122 23.0855 10.4062 23.0855Z"
              fill="white"/>
        <path d="M8.4523 21.3348C8.35641 21.3348 8.26053 21.2893 8.19493 21.2083C8.08391 21.0666 8.10914 20.8591 8.25044 20.7478L11.1572 18.4808L7.46825 17.4788C7.29667 17.4333 7.1907 17.2511 7.23611 17.079C7.28153 16.907 7.4632 16.8007 7.63478 16.8463L11.9545 18.0203C12.0756 18.0506 12.1664 18.1518 12.1917 18.2733C12.2169 18.3947 12.1715 18.5212 12.0706 18.5971L8.64406 21.269C8.59359 21.3146 8.52294 21.3348 8.4523 21.3348Z"
              fill="white"/>
        <path d="M12.3278 17.4178C12.2622 17.4178 12.2017 17.3975 12.1462 17.3621L8.44715 14.8775C8.29576 14.7763 8.25539 14.5738 8.35631 14.422C8.45724 14.2702 8.6591 14.2297 8.81049 14.3309L11.8787 16.3956L11.2479 12.6964C11.2176 12.5193 11.3387 12.3473 11.5154 12.3169C11.692 12.2865 11.8636 12.408 11.8938 12.5851L12.6508 17.0383C12.671 17.1648 12.6155 17.2963 12.5045 17.3672C12.4489 17.3975 12.3884 17.4178 12.3278 17.4178Z"
              fill="white"/>
        <path d="M12.9594 25.6916C8.73054 25.6916 5.29395 22.2454 5.29395 18.0048C5.29395 16.2438 5.86923 14.5891 6.9643 13.2177C8.02404 11.8868 9.51273 10.9304 11.1528 10.5357C11.3294 10.4952 11.5061 10.6015 11.5464 10.7786C11.5868 10.9557 11.4808 11.1328 11.3042 11.1733C9.80037 11.5376 8.4429 12.408 7.47399 13.6276C6.4748 14.8826 5.94998 16.4007 5.94998 18.0099C5.94998 21.8862 9.09388 25.0438 12.9645 25.0438C14.5793 25.0438 16.1588 24.4771 17.4053 23.4549C18.6366 22.4428 19.4945 21.031 19.8225 19.4774C19.8578 19.3003 20.0345 19.189 20.2111 19.2244C20.3877 19.2598 20.4987 19.4369 20.4634 19.614C20.1051 21.3093 19.1665 22.8527 17.8191 23.9609C16.4465 25.0742 14.7257 25.6916 12.9594 25.6916Z"
              fill="white"/>
        <path d="M12.2378 30.7621C12.1773 30.7621 12.1167 30.7469 12.0662 30.7115C11.9148 30.6153 11.8694 30.4129 11.9653 30.2611L12.8938 28.7835C12.9897 28.6316 13.1916 28.5861 13.343 28.6822C13.4944 28.7784 13.5398 28.9808 13.4439 29.1326L12.5154 30.6103C12.4548 30.7115 12.3488 30.7621 12.2378 30.7621Z"
              fill="white"/>
        <path d="M9.82507 7.76763C9.7948 7.76763 9.76452 7.76257 9.73424 7.75245C9.56266 7.70185 9.46173 7.51967 9.51724 7.34762L10.0168 5.67263C10.0673 5.50057 10.249 5.39937 10.4205 5.45503C10.5921 5.50563 10.6931 5.68781 10.6375 5.85986L10.138 7.53485C10.0925 7.67655 9.96637 7.76763 9.82507 7.76763Z"
              fill="white"/>
        <path d="M15.6132 30.4991C15.5829 30.4991 15.5526 30.494 15.5223 30.4839C15.3507 30.4333 15.2498 30.2511 15.3053 30.0791L15.8049 28.4041C15.8554 28.232 16.0371 28.1308 16.2086 28.1865C16.3802 28.2371 16.4811 28.4193 16.4256 28.5913L15.926 30.2663C15.8857 30.408 15.7545 30.4991 15.6132 30.4991Z"
              fill="white"/>
        <path d="M6.81822 9.23014C6.64159 9.23014 6.49525 9.07327 6.4902 8.8911L6.46497 7.13514C6.45992 6.95296 6.60627 6.80115 6.78794 6.80115C6.96456 6.79609 7.11596 6.94284 7.121 7.11996L7.14623 8.88098C7.15128 9.06821 7.00493 9.16436 6.81822 9.23014C6.82326 9.23014 6.82326 9.23014 6.81822 9.23014Z"
              fill="white"/>
        <path d="M19.1454 29.1277C18.9687 29.1277 18.8224 28.991 18.8174 28.8139L18.7921 27.0681C18.7871 26.8859 18.9334 26.7391 19.1151 26.7391C19.2917 26.7341 19.4431 26.8808 19.4481 27.063L19.4734 28.8038C19.4734 28.9809 19.327 29.1277 19.1454 29.1277Z"
              fill="white"/>
        <path d="M2.88661 25.6311C2.72513 25.6311 2.58383 25.5096 2.56364 25.3426C2.54346 25.1655 2.66962 24.9985 2.84624 24.9783L4.57716 24.7607C4.75378 24.7404 4.92031 24.8669 4.9405 25.0441C4.96068 25.2212 4.83452 25.3882 4.6579 25.4084L2.92698 25.626C2.91689 25.6311 2.90175 25.6311 2.88661 25.6311Z"
              fill="white"/>
        <path d="M5.23369 28.0801C5.10753 28.0801 4.98641 28.0042 4.9309 27.8777C4.86026 27.7107 4.941 27.5184 5.10753 27.4475L6.71733 26.7745C6.88386 26.7036 7.07562 26.7846 7.14627 26.9516C7.21692 27.1186 7.13618 27.3109 6.96965 27.3817L5.35985 28.0598C5.31948 28.075 5.27406 28.0801 5.23369 28.0801Z"
              fill="white"/>
        <path d="M8.51808 29.9576C8.42725 29.9576 8.33136 29.9171 8.27081 29.8412C8.15474 29.7046 8.16988 29.4971 8.31118 29.3807L9.64343 28.2522C9.77968 28.1358 9.98658 28.151 10.1026 28.2927C10.2187 28.4293 10.2036 28.6368 10.0623 28.7532L8.73003 29.8817C8.66443 29.9323 8.58873 29.9576 8.51808 29.9576Z"
              fill="white"/>
        <path d="M4.60208 11.1986C4.46078 11.1986 4.32958 11.1075 4.28921 10.9658L3.79466 9.29084C3.74419 9.11878 3.84008 8.93661 4.0167 8.886C4.18828 8.8354 4.36995 8.93155 4.42041 9.10866L4.91496 10.7837C4.96542 10.9557 4.86954 11.1379 4.69292 11.1885C4.66264 11.1935 4.63236 11.1986 4.60208 11.1986Z"
              fill="white"/>
        <path d="M21.8306 27.0734C21.6893 27.0734 21.5581 26.9823 21.5177 26.8406L21.0232 25.1656C20.9727 24.9935 21.0686 24.8114 21.2452 24.7608C21.4168 24.7102 21.5985 24.8063 21.6489 24.9834L22.1435 26.6584C22.1939 26.8305 22.0981 27.0126 21.9214 27.0632C21.8912 27.0683 21.8609 27.0734 21.8306 27.0734Z"
              fill="white"/>
        <path d="M2.94682 13.8555C2.84084 13.8555 2.73487 13.8049 2.67431 13.7037L1.72559 12.2362C1.62971 12.0844 1.67008 11.8819 1.82147 11.7858C1.97286 11.6896 2.17472 11.7301 2.2706 11.8819L3.21932 13.3495C3.3152 13.5013 3.27483 13.7037 3.12344 13.7998C3.06793 13.8353 3.00737 13.8555 2.94682 13.8555Z"
              fill="white"/>
        <path d="M23.94 24.209C23.834 24.209 23.728 24.1584 23.6675 24.0572L22.7188 22.5897C22.6229 22.4379 22.6632 22.2355 22.8146 22.1393C22.966 22.0432 23.1679 22.0836 23.2638 22.2355L24.2125 23.703C24.3084 23.8548 24.268 24.0572 24.1166 24.1533C24.0611 24.1938 24.0005 24.209 23.94 24.209Z"
              fill="white"/>
        <path d="M2.12461 16.7248C2.04891 16.7248 1.96817 16.6995 1.90762 16.6438L0.600599 15.485C0.464346 15.3635 0.454254 15.1561 0.570321 15.0245C0.691434 14.8879 0.898336 14.8777 1.02954 14.9941L2.33656 16.153C2.47281 16.2744 2.4829 16.4819 2.36684 16.6135C2.30123 16.6894 2.21545 16.7248 2.12461 16.7248Z"
              fill="white"/>
        <path d="M25.1207 21.0261C25.045 21.0261 24.9643 21.0008 24.9037 20.9451L23.5967 19.7863C23.4604 19.6648 23.4503 19.4573 23.5664 19.3258C23.6875 19.1891 23.8944 19.179 24.0256 19.2954L25.3327 20.4542C25.4689 20.5757 25.479 20.7832 25.3629 20.9147C25.3024 20.9906 25.2115 21.0261 25.1207 21.0261Z"
              fill="white"/>
        <path d="M2.155 20.0594C2.10958 20.0594 2.06416 20.0493 2.02379 20.029L0.429132 19.3155C0.262601 19.2396 0.191952 19.0473 0.262601 18.8854C0.333251 18.7234 0.53006 18.6475 0.691545 18.7234L2.28621 19.437C2.45274 19.5129 2.52339 19.7052 2.45274 19.8671C2.39723 19.9885 2.27611 20.0594 2.155 20.0594Z"
              fill="white"/>
        <path d="M3.0278 22.9185C3.01266 22.9185 2.99752 22.9185 2.97734 22.9134L1.25147 22.6553C1.07485 22.63 0.948686 22.4631 0.973918 22.2859C0.99915 22.1088 1.16568 21.9823 1.3423 22.0076L3.07322 22.2657C3.24984 22.291 3.376 22.458 3.35077 22.6351C3.32554 22.8021 3.18424 22.9185 3.0278 22.9185Z"
              fill="white"/>
        <path d="M21.8304 18.3895C16.7739 18.3895 12.6611 14.2653 12.6611 9.19474C12.6611 4.12422 16.7739 0 21.8304 0C26.8869 0 30.9997 4.12422 30.9997 9.19474C30.9997 14.2653 26.8869 18.3895 21.8304 18.3895ZM21.8304 0.981717C17.3139 0.981717 13.6401 4.66569 13.6401 9.19474C13.6401 13.7238 17.3139 17.4078 21.8304 17.4078C26.347 17.4078 30.0207 13.7238 30.0207 9.19474C30.0207 4.66569 26.347 0.981717 21.8304 0.981717Z"
              fill="white"/>
        <path d="M21.8213 11.5173C21.7607 11.5173 21.7002 11.5021 21.6447 11.4667L19.9844 10.404C19.8885 10.3433 19.833 10.2421 19.833 10.1257V8.00034C19.833 7.88901 19.8885 7.78274 19.9844 7.72202L21.6447 6.65934C21.7506 6.58849 21.8869 6.58849 21.9929 6.65934L23.6531 7.72202C23.749 7.78274 23.8045 7.88395 23.8045 8.00034V10.1257C23.8045 10.237 23.749 10.3433 23.6531 10.404L21.9929 11.4667C21.9424 11.5021 21.8818 11.5173 21.8213 11.5173ZM20.484 9.94859L21.8213 10.8038L23.1586 9.94859V8.18252L21.8213 7.32731L20.484 8.18252V9.94859Z"
              fill="white"/>
        <path d="M21.8358 13.4861C21.6542 13.4861 21.5078 13.3393 21.5078 13.1572V4.97956C21.5078 4.79739 21.6542 4.65063 21.8358 4.65063C22.0175 4.65063 22.1638 4.79739 22.1638 4.97956V13.1572C22.1638 13.3393 22.0175 13.4861 21.8358 13.4861Z"
              fill="white"/>
        <path d="M25.0862 11.5175C25.0257 11.5175 24.9651 11.5023 24.9096 11.4669L18.102 7.04915C17.9506 6.953 17.9052 6.75059 18.0061 6.59877C18.102 6.44696 18.3039 6.40142 18.4553 6.50263L25.2629 10.9204C25.4142 11.0165 25.4597 11.2189 25.3587 11.3707C25.2982 11.4618 25.1922 11.5175 25.0862 11.5175Z"
              fill="white"/>
        <path d="M18.3239 11.5883C18.2179 11.5883 18.112 11.5326 18.0464 11.4364C17.9505 11.2846 17.9959 11.0822 18.1473 10.9861L25.1618 6.50256C25.3132 6.40641 25.515 6.45196 25.6109 6.60377C25.7068 6.75558 25.6614 6.958 25.51 7.05414L18.4955 11.5377C18.445 11.5731 18.3845 11.5883 18.3239 11.5883Z"
              fill="white"/>
        <path d="M21.8211 5.23758C21.7202 5.23758 21.6243 5.18698 21.5637 5.10601L21.0137 4.38743C20.9027 4.24574 20.9329 4.03827 21.0742 3.92694C21.2155 3.81561 21.4224 3.84597 21.5335 3.98766L21.8161 4.35707L22.0835 3.99272C22.1895 3.84597 22.3964 3.81561 22.5377 3.92188C22.684 4.02815 22.7143 4.23562 22.6083 4.37731L22.0835 5.09589C22.023 5.18698 21.9271 5.23758 21.8211 5.23758Z"
              fill="white"/>
        <path d="M21.8313 6.59383C21.7707 6.59383 21.7101 6.57865 21.6597 6.54323L20.5242 5.82465C20.3729 5.7285 20.3274 5.52609 20.4233 5.37428C20.5192 5.22246 20.7211 5.17692 20.8724 5.27307L21.8313 5.88032L22.7447 5.27813C22.8961 5.17692 23.0979 5.22246 23.1988 5.37428C23.2998 5.52609 23.2543 5.7285 23.103 5.82971L22.0129 6.54829C21.9574 6.57359 21.8918 6.59383 21.8313 6.59383Z"
              fill="white"/>
        <path d="M22.9211 12.9648C22.8605 12.9648 22.8 12.9496 22.7495 12.9142L21.7907 12.307L20.8773 12.9092C20.7259 13.0104 20.5241 12.9648 20.4231 12.813C20.3222 12.6612 20.3676 12.4588 20.519 12.3576L21.609 11.639C21.715 11.5681 21.8563 11.5681 21.9623 11.6339L23.0977 12.3525C23.2491 12.4487 23.2945 12.6511 23.1986 12.8029C23.133 12.9091 23.0271 12.9648 22.9211 12.9648Z"
              fill="white"/>
        <path d="M17.501 7.21614C17.3244 7.21614 17.1831 7.07951 17.173 6.9024C17.1679 6.72022 17.3092 6.56841 17.4859 6.56335L17.9501 6.54817L17.8088 6.11804C17.7533 5.94598 17.8442 5.76381 18.0157 5.70308C18.1873 5.64742 18.369 5.73851 18.4295 5.91056L18.7071 6.75565C18.7374 6.85179 18.7222 6.96312 18.6667 7.04409C18.6062 7.13011 18.5153 7.18072 18.4093 7.18578L17.5111 7.21614C17.5111 7.21614 17.506 7.21614 17.501 7.21614Z"
              fill="white"/>
        <path d="M18.455 8.32447C18.3187 8.32447 18.1926 8.23845 18.1472 8.10182C18.0917 7.92976 18.1825 7.74253 18.349 7.68686L19.2776 7.37312L19.2523 6.42176C19.2473 6.23959 19.3886 6.09284 19.5703 6.08778C19.7469 6.08272 19.8983 6.22441 19.9033 6.40658L19.9336 7.59072C19.9386 7.73241 19.8478 7.86398 19.7116 7.90952L18.5559 8.30423C18.5206 8.31941 18.4853 8.32447 18.455 8.32447Z"
              fill="white"/>
        <path d="M25.2631 8.32447C25.2278 8.32447 25.1925 8.31941 25.1572 8.30929L24.0015 7.91458C23.8653 7.86904 23.7745 7.73747 23.7795 7.59578L23.8148 6.40658C23.8199 6.22441 23.9713 6.08272 24.1479 6.08778C24.3296 6.09284 24.4709 6.24465 24.4658 6.42176L24.4406 7.37312L25.3691 7.68686C25.5407 7.74253 25.6315 7.92976 25.571 8.10182C25.5256 8.23845 25.3994 8.32447 25.2631 8.32447Z"
              fill="white"/>
        <path d="M24.1428 12.0387C23.9662 12.0387 23.8199 11.897 23.8148 11.7198L23.7795 10.5307C23.7745 10.389 23.8653 10.2574 24.0015 10.2118L25.1572 9.81714C25.3287 9.76147 25.5155 9.85256 25.571 10.0196C25.6265 10.1916 25.5356 10.3788 25.3691 10.4345L24.4406 10.7483L24.4658 11.6996C24.4709 11.8818 24.3296 12.0285 24.1479 12.0336C24.1479 12.0387 24.1428 12.0387 24.1428 12.0387Z"
              fill="white"/>
        <path d="M19.576 11.9374C19.5709 11.9374 19.5709 11.9374 19.5659 11.9374C19.3842 11.9324 19.2429 11.7806 19.248 11.6034L19.2732 10.6521L18.3447 10.3383C18.1731 10.2827 18.0822 10.0954 18.1428 9.92339C18.1983 9.75134 18.385 9.66025 18.5566 9.72098L19.7122 10.1157C19.8485 10.1612 19.9393 10.2928 19.9343 10.4345L19.8989 11.6237C19.8989 11.7957 19.7526 11.9374 19.576 11.9374Z"
              fill="white"/>
        <path d="M26.1614 7.21614C26.1563 7.21614 26.1513 7.21614 26.1513 7.21614L25.253 7.18578C25.1521 7.18072 25.0562 7.13011 24.9957 7.04409C24.9351 6.95806 24.92 6.85179 24.9553 6.75565L25.2328 5.91056C25.2884 5.73851 25.4751 5.64742 25.6466 5.70308C25.8182 5.75875 25.9091 5.94598 25.8535 6.11804L25.7123 6.54817L26.1765 6.56335C26.3582 6.56841 26.4995 6.72022 26.4894 6.9024C26.4793 7.07951 26.333 7.21614 26.1614 7.21614Z"
              fill="white"/>
        <path d="M25.4396 12.3879C25.3033 12.3879 25.1772 12.3018 25.1317 12.1652L24.8542 11.3201C24.8239 11.224 24.8391 11.1126 24.8946 11.0317C24.9551 10.9457 25.046 10.895 25.1519 10.89L26.0502 10.8596C26.2319 10.8495 26.3833 10.9963 26.3883 11.1734C26.3934 11.3555 26.2521 11.5074 26.0754 11.5124L25.6112 11.5276L25.7525 11.9577C25.808 12.1298 25.7171 12.312 25.5456 12.3727C25.5052 12.3828 25.4699 12.3879 25.4396 12.3879Z"
              fill="white"/>
        <path d="M18.0262 12.3879C17.9909 12.3879 17.9556 12.3828 17.9253 12.3727C17.7537 12.317 17.6629 12.1298 17.7184 11.9577L17.8597 11.5276L17.3954 11.5124C17.2137 11.5074 17.0724 11.3556 17.0825 11.1734C17.0876 10.9912 17.239 10.8495 17.4206 10.8596L18.3189 10.89C18.4198 10.8951 18.5157 10.9457 18.5763 11.0317C18.6368 11.1177 18.652 11.224 18.6166 11.3201L18.3391 12.1652C18.2886 12.2968 18.1625 12.3879 18.0262 12.3879Z"
              fill="white"/>
        <path d="M21.2708 14.2705C21.2052 14.2705 21.1345 14.2503 21.079 14.2048C20.9327 14.0985 20.9024 13.891 21.0084 13.7493L21.5332 13.0307C21.5938 12.9498 21.6896 12.8992 21.7906 12.8992C21.8965 12.8992 21.9924 12.9447 22.053 13.0257L22.603 13.7443C22.7141 13.8859 22.6838 14.0934 22.5425 14.2048C22.4012 14.3161 22.1943 14.2857 22.0833 14.144L21.8007 13.7746L21.5332 14.139C21.4726 14.225 21.3717 14.2705 21.2708 14.2705Z"
              fill="white"/>
    </symbol>
    <symbol id="services10" viewBox="0 0 32 23">
        <path d="M21.0688 8.26374C20.8913 8.26374 20.7191 8.16978 20.6251 8.00273C20.4894 7.75738 20.5781 7.44939 20.8235 7.31366L23.2039 5.99294V3.02786L20.8704 1.99947C20.6147 1.88462 20.4998 1.58707 20.6094 1.33128C20.7243 1.07549 21.0218 0.960644 21.2776 1.07027L23.9138 2.22916C24.0965 2.30746 24.2166 2.49017 24.2166 2.69376V6.28528C24.2166 6.46799 24.1174 6.64025 23.9556 6.729L21.3142 8.19588C21.2359 8.24286 21.1523 8.26374 21.0688 8.26374Z"
              fill="white"/>
        <path d="M6.13868 22.6506C5.97163 22.6506 5.8098 22.6349 5.64275 22.5931L1.74846 21.7162C1.09593 21.57 0.547811 21.1471 0.239817 20.552C-0.0681763 19.9569 -0.0890572 19.2626 0.171954 18.6414L3.55466 10.691C2.52106 10.2943 1.63884 9.6 1.01241 8.68124C0.380763 7.75726 0.0414485 6.67145 0.0414485 5.54388V5.53866V5.53344V5.52822C0.0466687 4.0509 0.610453 2.66754 1.63362 1.62871C2.67244 0.579445 4.05058 0 5.52791 0H19.1736C20.7136 0 21.9194 1.21631 21.9194 2.76672V6.49918C21.9194 7.88776 20.9328 9.04144 19.5755 9.25024L14.2666 10.0594L13.045 13.8493C13.0033 13.9798 12.9093 14.0894 12.7788 14.152L8.71225 16.094L8.38859 20.5625C8.34161 21.215 8.01274 21.8153 7.48549 22.2069C7.08876 22.494 6.61894 22.6506 6.13868 22.6506ZM1.05417 5.53866C1.05417 7.44405 2.1974 9.10408 3.96706 9.76705L4.41078 9.9341C4.54129 9.98108 4.64569 10.0803 4.69789 10.2108C4.75009 10.3361 4.75009 10.4822 4.69789 10.6075L1.1116 19.0434C0.965429 19.3827 0.98109 19.7638 1.14814 20.0927C1.31518 20.4215 1.61796 20.6512 1.97293 20.7347L5.86722 21.6117C6.21698 21.6901 6.58762 21.6117 6.87473 21.3977C7.16184 21.1837 7.34455 20.8548 7.37065 20.4946L7.7204 15.7285C7.73607 15.5458 7.84569 15.3892 8.00752 15.3109L12.1419 13.3377L13.3948 9.45905C13.4522 9.27635 13.6088 9.14062 13.802 9.11452L19.4189 8.24796C20.2803 8.11746 20.9015 7.3814 20.9015 6.49918V2.76672C20.9015 1.7801 20.1393 1.01272 19.1684 1.01272H5.52791C4.32204 1.01272 3.19969 1.48254 2.35401 2.33866C1.51877 3.18956 1.05417 4.32757 1.05417 5.53866ZM8.37293 14.2669C8.26853 14.2669 8.16412 14.2356 8.07538 14.1677C7.93443 14.0633 7.85613 13.8962 7.87179 13.724L8.11714 10.3674C8.1328 10.1325 8.31029 9.93931 8.5452 9.90277L12.095 9.36509C12.2672 9.33899 12.4447 9.40685 12.5596 9.54258C12.6744 9.6783 12.7057 9.86101 12.6535 10.0281L11.7243 12.7791C11.6773 12.9201 11.5677 13.0297 11.432 13.0871L8.56608 14.2303C8.49822 14.2564 8.43558 14.2669 8.37293 14.2669ZM9.09332 10.8424L8.93672 12.9879L10.8317 12.231L11.4215 10.4874L9.09332 10.8424Z"
              fill="white"/>
        <path d="M7.87746 3.37736H4.56783C4.3799 3.37736 4.22852 3.22597 4.22852 3.03805C4.22852 2.85012 4.3799 2.69873 4.56783 2.69873H7.87746C8.06538 2.69873 8.21677 2.85012 8.21677 3.03805C8.21155 3.22597 8.06016 3.37736 7.87746 3.37736Z"
              fill="white"/>
        <path d="M7.87746 5.33488H4.56783C4.3799 5.33488 4.22852 5.18349 4.22852 4.99556C4.22852 4.80764 4.3799 4.65625 4.56783 4.65625H7.87746C8.06538 4.65625 8.21677 4.80764 8.21677 4.99556C8.21677 5.18349 8.06016 5.33488 7.87746 5.33488Z"
              fill="white"/>
        <path d="M7.87746 7.29289H4.56783C4.3799 7.29289 4.22852 7.1415 4.22852 6.95357C4.22852 6.76564 4.3799 6.61426 4.56783 6.61426H7.87746C8.06538 6.61426 8.21677 6.76564 8.21677 6.95357C8.21677 7.1415 8.06016 7.29289 7.87746 7.29289Z"
              fill="white"/>
        <path d="M31.6603 6.93247H28.9928C28.7004 6.93247 28.4237 6.82284 28.2097 6.62969L27.4423 5.92496C27.291 5.78924 27.0978 5.71093 26.889 5.71093H23.6577C23.4697 5.71093 23.3184 5.55955 23.3184 5.37162C23.3184 5.18369 23.4697 5.0323 23.6577 5.0323H26.889C27.2596 5.0323 27.6198 5.17325 27.8965 5.42382L28.6639 6.12855C28.7526 6.21207 28.8727 6.25384 28.9928 6.25384H31.3262V4.89136L29.1128 4.47374C28.9562 4.44242 28.8414 4.30669 28.8361 4.14486C28.8361 3.98304 28.9458 3.84209 29.1024 3.81077L31.321 3.34095V2.89201H29.0293C28.8936 2.89201 28.7631 2.94943 28.6691 3.04862L27.9278 3.85775C27.6459 4.16052 27.244 4.33801 26.8316 4.33801H23.6577C23.4697 4.33801 23.3184 4.18663 23.3184 3.9987C23.3184 3.81077 23.4697 3.65938 23.6577 3.65938H26.8316C27.0613 3.65938 27.2805 3.56542 27.4319 3.39837L28.1784 2.58924C28.3976 2.3491 28.7109 2.21338 29.0345 2.21338H31.6655C31.8534 2.21338 32.0048 2.36477 32.0048 2.55269V3.61762C32.0048 3.77945 31.8952 3.91517 31.7386 3.94649L30.9034 4.12398L31.7229 4.28059C31.8848 4.31191 31.9996 4.44764 31.9996 4.61468V6.59837C31.9996 6.78108 31.8482 6.93247 31.6603 6.93247Z"
              fill="white"/>
        <path d="M27.3228 22.3319H23.8618C23.6738 22.3319 23.5225 22.1806 23.5225 21.9926V20.9277C23.5225 20.7398 23.6738 20.5884 23.8618 20.5884H27.3228C27.5107 20.5884 27.6621 20.7398 27.6621 20.9277V21.9926C27.6621 22.1806 27.5107 22.3319 27.3228 22.3319ZM24.1959 21.6585H26.9835V21.267H24.1959V21.6585Z"
              fill="white"/>
        <path d="M26.122 21.2672H25.0571C24.8692 21.2672 24.7178 21.1159 24.7178 20.9279V16.2558C24.7178 16.0679 24.8692 15.9165 25.0571 15.9165H26.122C26.3099 15.9165 26.4613 16.0679 26.4613 16.2558V20.9279C26.4613 21.1159 26.3099 21.2672 26.122 21.2672ZM25.3964 20.5938H25.7879V16.6004H25.3964V20.5938Z"
              fill="white"/>
        <path d="M21.7314 22.1962C21.5852 22.1962 21.4495 22.1023 21.4078 21.9509L20.4525 18.6204C20.4264 18.5369 20.4368 18.4429 20.4838 18.3646C20.5255 18.2863 20.5986 18.2289 20.6874 18.2028L21.7105 17.9104C21.888 17.8582 22.0759 17.9626 22.1282 18.1401L23.0835 21.4706C23.1096 21.5542 23.0991 21.6481 23.0521 21.7264C23.0104 21.8047 22.9373 21.8621 22.8485 21.8882L21.8254 22.1806C21.7941 22.191 21.7627 22.1962 21.7314 22.1962ZM21.1937 18.7613L21.9611 21.4393L22.337 21.3297L21.5696 18.6517L21.1937 18.7613Z"
              fill="white"/>
        <path d="M16.9132 22.3318C16.767 22.3318 16.6313 22.2378 16.5895 22.0864L16.2972 21.0633C16.2711 20.9798 16.2815 20.8858 16.3285 20.8075C16.3703 20.7292 16.4434 20.6718 16.5321 20.6457L21.0215 19.3563C21.105 19.3302 21.199 19.3406 21.2773 19.3876C21.3556 19.4294 21.413 19.5024 21.4391 19.5912L21.7314 20.6143C21.7836 20.7918 21.6792 20.9798 21.5018 21.032L17.0124 22.3214C16.9758 22.3266 16.9445 22.3318 16.9132 22.3318ZM17.0385 21.2042L17.1481 21.5801L20.9902 20.4786L20.8805 20.1028L17.0385 21.2042Z"
              fill="white"/>
    </symbol>
</svg>