<svg xmlns="http://www.w3.org/2000/svg" xmlns:xlink="http://www.w3.org/1999/xlink">
    <symbol id="arrow-down" viewBox="0 0 15 14">
        <path d="M3.05273 5.25L7.13607 9.33333L11.2194 5.25" stroke-linecap="round"
              stroke-linejoin="round"/>
    </symbol>
    <symbol id="search" viewBox="0 0 24 24">
        <path d="M21.7104 20.2899L18.0004 16.6099C19.4405 14.8143 20.1379 12.5352 19.9492 10.2412C19.7605 7.94721 18.7001 5.81269 16.9859 4.27655C15.2718 2.74041 13.0342 1.91941 10.7333 1.98237C8.43243 2.04534 6.24311 2.98747 4.61553 4.61505C2.98795 6.24263 2.04582 8.43194 1.98286 10.7328C1.9199 13.0337 2.7409 15.2713 4.27704 16.9854C5.81318 18.6996 7.94769 19.76 10.2417 19.9487C12.5357 20.1374 14.8148 19.44 16.6104 17.9999L20.2904 21.6799C20.3834 21.7736 20.494 21.848 20.6158 21.8988C20.7377 21.9496 20.8684 21.9757 21.0004 21.9757C21.1324 21.9757 21.2631 21.9496 21.385 21.8988C21.5068 21.848 21.6174 21.7736 21.7104 21.6799C21.8906 21.4934 21.9914 21.2442 21.9914 20.9849C21.9914 20.7256 21.8906 20.4764 21.7104 20.2899ZM11.0004 17.9999C9.61592 17.9999 8.26255 17.5894 7.1114 16.8202C5.96026 16.051 5.06305 14.9578 4.53324 13.6787C4.00342 12.3996 3.8648 10.9921 4.1349 9.63427C4.40499 8.27641 5.07168 7.02912 6.05065 6.05016C7.02961 5.07119 8.27689 4.4045 9.63476 4.13441C10.9926 3.86431 12.4001 4.00293 13.6792 4.53275C14.9583 5.06256 16.0515 5.95977 16.8207 7.11091C17.5899 8.26206 18.0004 9.61544 18.0004 10.9999C18.0004 12.8564 17.2629 14.6369 15.9501 15.9497C14.6374 17.2624 12.8569 17.9999 11.0004 17.9999Z"/>
    </symbol>
    <symbol id="entrance" viewBox="0 0 25 24">
        <path d="M4.5 12C4.5 12.2652 4.60536 12.5196 4.79289 12.7071C4.98043 12.8946 5.23478 13 5.5 13H13.09L10.79 15.29C10.6963 15.383 10.6219 15.4936 10.5711 15.6154C10.5203 15.7373 10.4942 15.868 10.4942 16C10.4942 16.132 10.5203 16.2627 10.5711 16.3846C10.6219 16.5064 10.6963 16.617 10.79 16.71C10.883 16.8037 10.9936 16.8781 11.1154 16.9289C11.2373 16.9797 11.368 17.0058 11.5 17.0058C11.632 17.0058 11.7627 16.9797 11.8846 16.9289C12.0064 16.8781 12.117 16.8037 12.21 16.71L16.21 12.71C16.301 12.6149 16.3724 12.5028 16.42 12.38C16.52 12.1365 16.52 11.8635 16.42 11.62C16.3724 11.4972 16.301 11.3851 16.21 11.29L12.21 7.29C12.1168 7.19676 12.0061 7.1228 11.8842 7.07234C11.7624 7.02188 11.6319 6.99591 11.5 6.99591C11.3681 6.99591 11.2376 7.02188 11.1158 7.07234C10.9939 7.1228 10.8832 7.19676 10.79 7.29C10.6968 7.38324 10.6228 7.49393 10.5723 7.61575C10.5219 7.73757 10.4959 7.86814 10.4959 8C10.4959 8.13186 10.5219 8.26243 10.5723 8.38425C10.6228 8.50607 10.6968 8.61676 10.79 8.71L13.09 11H5.5C5.23478 11 4.98043 11.1054 4.79289 11.2929C4.60536 11.4804 4.5 11.7348 4.5 12ZM17.5 2H7.5C6.70435 2 5.94129 2.31607 5.37868 2.87868C4.81607 3.44129 4.5 4.20435 4.5 5V8C4.5 8.26522 4.60536 8.51957 4.79289 8.70711C4.98043 8.89464 5.23478 9 5.5 9C5.76522 9 6.01957 8.89464 6.20711 8.70711C6.39464 8.51957 6.5 8.26522 6.5 8V5C6.5 4.73478 6.60536 4.48043 6.79289 4.29289C6.98043 4.10536 7.23478 4 7.5 4H17.5C17.7652 4 18.0196 4.10536 18.2071 4.29289C18.3946 4.48043 18.5 4.73478 18.5 5V19C18.5 19.2652 18.3946 19.5196 18.2071 19.7071C18.0196 19.8946 17.7652 20 17.5 20H7.5C7.23478 20 6.98043 19.8946 6.79289 19.7071C6.60536 19.5196 6.5 19.2652 6.5 19V16C6.5 15.7348 6.39464 15.4804 6.20711 15.2929C6.01957 15.1054 5.76522 15 5.5 15C5.23478 15 4.98043 15.1054 4.79289 15.2929C4.60536 15.4804 4.5 15.7348 4.5 16V19C4.5 19.7956 4.81607 20.5587 5.37868 21.1213C5.94129 21.6839 6.70435 22 7.5 22H17.5C18.2956 22 19.0587 21.6839 19.6213 21.1213C20.1839 20.5587 20.5 19.7956 20.5 19V5C20.5 4.20435 20.1839 3.44129 19.6213 2.87868C19.0587 2.31607 18.2956 2 17.5 2Z"/>
    </symbol>
    <symbol id="burger" viewBox="0 0 36 36">
        <path d="M31.5 15H10.5" stroke-width="2" stroke-linecap="round" stroke-linejoin="round"/>
        <path d="M31.5 9H4.5" stroke-width="2" stroke-linecap="round" stroke-linejoin="round"/>
        <path d="M31.5 21H4.5" stroke-width="2" stroke-linecap="round" stroke-linejoin="round"/>
        <path d="M31.5 27H10.5" stroke-width="2" stroke-linecap="round" stroke-linejoin="round"/>
    </symbol>
    <symbol id="close" viewBox="0 0 24 24">
        <path d="M13.4099 11.9999L17.7099 7.70994C17.8982 7.52164 18.004 7.26624 18.004 6.99994C18.004 6.73364 17.8982 6.47825 17.7099 6.28994C17.5216 6.10164 17.2662 5.99585 16.9999 5.99585C16.7336 5.99585 16.4782 6.10164 16.2899 6.28994L11.9999 10.5899L7.70994 6.28994C7.52164 6.10164 7.26624 5.99585 6.99994 5.99585C6.73364 5.99585 6.47824 6.10164 6.28994 6.28994C6.10164 6.47825 5.99585 6.73364 5.99585 6.99994C5.99585 7.26624 6.10164 7.52164 6.28994 7.70994L10.5899 11.9999L6.28994 16.2899C6.19621 16.3829 6.12182 16.4935 6.07105 16.6154C6.02028 16.7372 5.99414 16.8679 5.99414 16.9999C5.99414 17.132 6.02028 17.2627 6.07105 17.3845C6.12182 17.5064 6.19621 17.617 6.28994 17.7099C6.3829 17.8037 6.4935 17.8781 6.61536 17.9288C6.73722 17.9796 6.86793 18.0057 6.99994 18.0057C7.13195 18.0057 7.26266 17.9796 7.38452 17.9288C7.50638 17.8781 7.61698 17.8037 7.70994 17.7099L11.9999 13.4099L16.2899 17.7099C16.3829 17.8037 16.4935 17.8781 16.6154 17.9288C16.7372 17.9796 16.8679 18.0057 16.9999 18.0057C17.132 18.0057 17.2627 17.9796 17.3845 17.9288C17.5064 17.8781 17.617 17.8037 17.7099 17.7099C17.8037 17.617 17.8781 17.5064 17.9288 17.3845C17.9796 17.2627 18.0057 17.132 18.0057 16.9999C18.0057 16.8679 17.9796 16.7372 17.9288 16.6154C17.8781 16.4935 17.8037 16.3829 17.7099 16.2899L13.4099 11.9999Z"/>
    </symbol>
    <symbol id="arrow-left" viewBox="0 0 20 20">
        <path d="M12.5 15L7.5 10L12.5 5" stroke-opacity="0.5" stroke-width="2" stroke-linecap="round" stroke-linejoin="round"/>
    </symbol>
    <symbol id="yandex" viewBox="0 0 24 24">
        <path fill-rule="evenodd" clip-rule="evenodd" d="M18.438 8.43775C18.438 8.52052 18.4362 8.60329 18.4334 8.6879C18.4297 8.78171 18.4242 8.87368 18.4168 8.96565C18.2053 11.629 16.4451 14.3642 14.8733 16.9761L12.0003 21.3868V14.8755C8.44477 14.8755 5.5625 11.9932 5.5625 8.43775C5.5625 4.88227 8.44477 2 12.0003 2C15.5557 2 18.438 4.88227 18.438 8.43775Z" fill="#FF3333"/>
        <path d="M11.9993 11.1968C13.523 11.1968 14.7583 9.96152 14.7583 8.43775C14.7583 6.91397 13.523 5.67871 11.9993 5.67871C10.4755 5.67871 9.24023 6.91397 9.24023 8.43775C9.24023 9.96152 10.4755 11.1968 11.9993 11.1968Z" fill="white"/>
    </symbol>
    <symbol id="2gis" viewBox="0 0 24 24">
        <path fill-rule="evenodd" clip-rule="evenodd" d="M12 22C17.5 22 22 17.52 22 12C22 6.48 17.5 2 12 2C6.48 2 2 6.48 2 12C2 17.52 6.48 22 12 22Z" fill="#299400"/>
        <path fill-rule="evenodd" clip-rule="evenodd" d="M12 5C15.574 5 18 7.69394 18 10.6C18 11.7667 17.7401 12.7848 17.1336 14.0576C13.5812 14.0576 12.9314 16.3697 12.7798 17.9182L12.6715 19H11.3285L11.2202 17.9182C11.0686 16.3697 10.4188 14.0576 6.86643 14.0576C6.25993 12.7848 6 11.7667 6 10.6C6 7.69394 8.42599 5 12 5Z" fill="white"/>
    </symbol>
    <symbol id="google" viewBox="0 0 20 20">
        <g clip-path="url(#clip0_2504_36182)">
            <path d="M9.58105 16.8191C10.1567 17.5915 10.7419 18.5596 11.049 19.1466C11.4231 19.9087 11.5766 20.4236 11.8549 21.3402C12.018 21.8449 12.1715 21.9993 12.4977 21.9993C12.8526 21.9993 13.0157 21.7419 13.1405 21.3402C13.3995 20.4751 13.601 19.816 13.9176 19.1878C14.5412 17.9829 15.3279 16.9118 16.0954 15.8819C16.3065 15.5936 17.6497 13.8943 18.2541 12.5452C18.2541 12.5452 18.9929 11.0725 18.9929 9.01272C18.9929 7.08687 18.2637 5.74805 18.2637 5.74805L16.153 6.35567L14.8674 9.9808L14.5508 10.4751L14.4836 10.5678L14.3973 10.6811L14.2534 10.8665L14.0423 11.0931L12.9006 12.092L10.0512 13.8634L9.58105 16.8191Z" fill="#34A853"/>
            <path d="M6.63574 12.2978C7.33611 14.0073 8.66969 15.5006 9.58113 16.8189L14.407 10.6809C14.407 10.6809 13.7258 11.6386 12.4977 11.6386C11.1258 11.6386 10.0129 10.4646 10.0129 8.98159C10.0129 7.96203 10.5789 7.26172 10.5789 7.26172L7.30733 8.1989L6.63574 12.2978Z" fill="#FBBC04"/>
            <path d="M14.4647 2.31836C16.0669 2.87449 17.4389 4.03824 18.264 5.75811L14.4071 10.6912C14.4071 10.6912 14.9732 9.98056 14.9732 8.97129C14.9732 7.45739 13.7835 6.31424 12.4979 6.31424C11.2795 6.31424 10.5791 7.26172 10.5791 7.26172V4.15152L14.4647 2.31836Z" fill="#4285F4"/>
            <path d="M7.51855 4.4913C8.47796 3.26576 10.1569 1.99902 12.4787 1.99902C13.6012 1.99902 14.4551 2.31828 14.4551 2.31828L10.5791 7.26164H7.83516L7.51855 4.4913Z" fill="#1A73E8"/>
            <path d="M6.63614 12.298C6.63614 12.298 6.00293 10.9489 6.00293 9.00247C6.00293 7.15901 6.67452 5.55242 7.52839 4.50195L10.5889 7.27229L6.63614 12.298Z" fill="#EA4335"/>
        </g>
        <defs>
            <clipPath id="clip0_2504_36182">
                <rect width="13" height="20" fill="white" transform="translate(6 2)"/>
            </clipPath>
        </defs>
    </symbol>
    <symbol id="phone-call" viewBox="0 0 24 24">
        <path d="M15.4396 6.56036H19.0196L18.2296 7.36036C18.0434 7.54772 17.9388 7.80117 17.9388 8.06536C17.9388 8.32954 18.0434 8.58299 18.2296 8.77036C18.417 8.95661 18.6704 9.06115 18.9346 9.06115C19.1988 9.06115 19.4522 8.95661 19.6396 8.77036L22.1396 6.27036C22.3259 6.08299 22.4304 5.82954 22.4304 5.56536C22.4304 5.30117 22.3259 5.04772 22.1396 4.86036L19.6396 2.36036C19.4483 2.19653 19.2022 2.11092 18.9506 2.12065C18.6989 2.13037 18.4601 2.2347 18.282 2.41279C18.104 2.59089 17.9996 2.82963 17.9899 3.0813C17.9802 3.33298 18.0658 3.57905 18.2296 3.77036L19.0196 4.56036H15.4396C15.1744 4.56036 14.92 4.66571 14.7325 4.85325C14.545 5.04079 14.4396 5.29514 14.4396 5.56036C14.4396 5.82557 14.545 6.07993 14.7325 6.26746C14.92 6.455 15.1744 6.56036 15.4396 6.56036ZM19.9396 13.0004C19.7196 13.0004 19.4896 12.9304 19.2696 12.8804C18.8241 12.7822 18.3863 12.6518 17.9596 12.4904C17.4957 12.3216 16.9858 12.3304 16.5279 12.515C16.0701 12.6996 15.6967 13.047 15.4796 13.4904L15.2596 13.9404C14.2856 13.3985 13.3906 12.7256 12.5996 11.9404C11.8144 11.1494 11.1414 10.2544 10.5996 9.28036L11.0196 9.00036C11.463 8.78327 11.8104 8.40989 11.995 7.95205C12.1796 7.49421 12.1884 6.98427 12.0196 6.52036C11.8608 6.09278 11.7305 5.65515 11.6296 5.21036C11.5796 4.99036 11.5396 4.76036 11.5096 4.53036C11.3882 3.82598 11.0192 3.1881 10.4692 2.7316C9.91923 2.27509 9.22431 2.02997 8.50961 2.04036H5.50961C5.07864 2.03631 4.65186 2.12517 4.25832 2.30089C3.86478 2.4766 3.51372 2.73505 3.22904 3.05864C2.94436 3.38222 2.73275 3.76335 2.6086 4.17607C2.48445 4.58879 2.45069 5.02342 2.50961 5.45036C3.04235 9.63974 4.95564 13.5322 7.94726 16.513C10.9389 19.4938 14.8383 21.3929 19.0296 21.9104H19.4096C20.147 21.9114 20.859 21.6409 21.4096 21.1504C21.726 20.8674 21.9787 20.5205 22.1511 20.1327C22.3235 19.7448 22.4116 19.3248 22.4096 18.9004V15.9004C22.3974 15.2057 22.1444 14.5369 21.694 14.008C21.2435 13.4791 20.6234 13.123 19.9396 13.0004ZM20.4396 19.0004C20.4394 19.1423 20.409 19.2827 20.3504 19.412C20.2918 19.5413 20.2063 19.6566 20.0996 19.7504C19.9879 19.8468 19.8572 19.9189 19.716 19.962C19.5748 20.005 19.4262 20.0181 19.2796 20.0004C15.5345 19.5202 12.0558 17.8068 9.39233 15.1306C6.72881 12.4545 5.03202 8.96769 4.56961 5.22036C4.5537 5.07387 4.56765 4.92569 4.61061 4.78475C4.65358 4.64381 4.72468 4.51304 4.81961 4.40036C4.91332 4.29369 5.02867 4.2082 5.15799 4.14957C5.28731 4.09095 5.42763 4.06054 5.56961 4.06036H8.56961C8.80216 4.05518 9.02924 4.13124 9.21176 4.27543C9.39428 4.41962 9.52082 4.62293 9.56961 4.85036C9.60961 5.12369 9.65961 5.39369 9.71961 5.66036C9.83513 6.1875 9.98887 6.70554 10.1796 7.21036L8.77961 7.86036C8.65991 7.91528 8.55223 7.9933 8.46277 8.08995C8.37331 8.1866 8.30381 8.29997 8.25828 8.42355C8.21275 8.54713 8.19208 8.67849 8.19746 8.81008C8.20284 8.94167 8.23415 9.0709 8.28961 9.19036C9.72881 12.2731 12.2069 14.7512 15.2896 16.1904C15.5331 16.2904 15.8062 16.2904 16.0496 16.1904C16.1743 16.1457 16.2889 16.0768 16.3868 15.9875C16.4846 15.8983 16.5638 15.7905 16.6196 15.6704L17.2396 14.2704C17.7566 14.4552 18.2842 14.6088 18.8196 14.7304C19.0863 14.7904 19.3563 14.8404 19.6296 14.8804C19.857 14.9291 20.0604 15.0557 20.2045 15.2382C20.3487 15.4207 20.4248 15.6478 20.4196 15.8804L20.4396 19.0004Z" fill="white"/>
    </symbol>
</svg>