<svg xmlns="http://www.w3.org/2000/svg" xmlns:xlink="http://www.w3.org/1999/xlink">
    <symbol id="arrow-down" viewBox="0 0 15 14">
        <path d="M3.05273 5.25L7.13607 9.33333L11.2194 5.25" stroke-linecap="round"
              stroke-linejoin="round"/>
    </symbol>
    <symbol id="search" viewBox="0 0 24 24">
        <path d="M21.7104 20.2899L18.0004 16.6099C19.4405 14.8143 20.1379 12.5352 19.9492 10.2412C19.7605 7.94721 18.7001 5.81269 16.9859 4.27655C15.2718 2.74041 13.0342 1.91941 10.7333 1.98237C8.43243 2.04534 6.24311 2.98747 4.61553 4.61505C2.98795 6.24263 2.04582 8.43194 1.98286 10.7328C1.9199 13.0337 2.7409 15.2713 4.27704 16.9854C5.81318 18.6996 7.94769 19.76 10.2417 19.9487C12.5357 20.1374 14.8148 19.44 16.6104 17.9999L20.2904 21.6799C20.3834 21.7736 20.494 21.848 20.6158 21.8988C20.7377 21.9496 20.8684 21.9757 21.0004 21.9757C21.1324 21.9757 21.2631 21.9496 21.385 21.8988C21.5068 21.848 21.6174 21.7736 21.7104 21.6799C21.8906 21.4934 21.9914 21.2442 21.9914 20.9849C21.9914 20.7256 21.8906 20.4764 21.7104 20.2899ZM11.0004 17.9999C9.61592 17.9999 8.26255 17.5894 7.1114 16.8202C5.96026 16.051 5.06305 14.9578 4.53324 13.6787C4.00342 12.3996 3.8648 10.9921 4.1349 9.63427C4.40499 8.27641 5.07168 7.02912 6.05065 6.05016C7.02961 5.07119 8.27689 4.4045 9.63476 4.13441C10.9926 3.86431 12.4001 4.00293 13.6792 4.53275C14.9583 5.06256 16.0515 5.95977 16.8207 7.11091C17.5899 8.26206 18.0004 9.61544 18.0004 10.9999C18.0004 12.8564 17.2629 14.6369 15.9501 15.9497C14.6374 17.2624 12.8569 17.9999 11.0004 17.9999Z"/>
    </symbol>
    <symbol id="entrance" viewBox="0 0 25 24">
        <path d="M4.5 12C4.5 12.2652 4.60536 12.5196 4.79289 12.7071C4.98043 12.8946 5.23478 13 5.5 13H13.09L10.79 15.29C10.6963 15.383 10.6219 15.4936 10.5711 15.6154C10.5203 15.7373 10.4942 15.868 10.4942 16C10.4942 16.132 10.5203 16.2627 10.5711 16.3846C10.6219 16.5064 10.6963 16.617 10.79 16.71C10.883 16.8037 10.9936 16.8781 11.1154 16.9289C11.2373 16.9797 11.368 17.0058 11.5 17.0058C11.632 17.0058 11.7627 16.9797 11.8846 16.9289C12.0064 16.8781 12.117 16.8037 12.21 16.71L16.21 12.71C16.301 12.6149 16.3724 12.5028 16.42 12.38C16.52 12.1365 16.52 11.8635 16.42 11.62C16.3724 11.4972 16.301 11.3851 16.21 11.29L12.21 7.29C12.1168 7.19676 12.0061 7.1228 11.8842 7.07234C11.7624 7.02188 11.6319 6.99591 11.5 6.99591C11.3681 6.99591 11.2376 7.02188 11.1158 7.07234C10.9939 7.1228 10.8832 7.19676 10.79 7.29C10.6968 7.38324 10.6228 7.49393 10.5723 7.61575C10.5219 7.73757 10.4959 7.86814 10.4959 8C10.4959 8.13186 10.5219 8.26243 10.5723 8.38425C10.6228 8.50607 10.6968 8.61676 10.79 8.71L13.09 11H5.5C5.23478 11 4.98043 11.1054 4.79289 11.2929C4.60536 11.4804 4.5 11.7348 4.5 12ZM17.5 2H7.5C6.70435 2 5.94129 2.31607 5.37868 2.87868C4.81607 3.44129 4.5 4.20435 4.5 5V8C4.5 8.26522 4.60536 8.51957 4.79289 8.70711C4.98043 8.89464 5.23478 9 5.5 9C5.76522 9 6.01957 8.89464 6.20711 8.70711C6.39464 8.51957 6.5 8.26522 6.5 8V5C6.5 4.73478 6.60536 4.48043 6.79289 4.29289C6.98043 4.10536 7.23478 4 7.5 4H17.5C17.7652 4 18.0196 4.10536 18.2071 4.29289C18.3946 4.48043 18.5 4.73478 18.5 5V19C18.5 19.2652 18.3946 19.5196 18.2071 19.7071C18.0196 19.8946 17.7652 20 17.5 20H7.5C7.23478 20 6.98043 19.8946 6.79289 19.7071C6.60536 19.5196 6.5 19.2652 6.5 19V16C6.5 15.7348 6.39464 15.4804 6.20711 15.2929C6.01957 15.1054 5.76522 15 5.5 15C5.23478 15 4.98043 15.1054 4.79289 15.2929C4.60536 15.4804 4.5 15.7348 4.5 16V19C4.5 19.7956 4.81607 20.5587 5.37868 21.1213C5.94129 21.6839 6.70435 22 7.5 22H17.5C18.2956 22 19.0587 21.6839 19.6213 21.1213C20.1839 20.5587 20.5 19.7956 20.5 19V5C20.5 4.20435 20.1839 3.44129 19.6213 2.87868C19.0587 2.31607 18.2956 2 17.5 2Z"/>
    </symbol>
    <symbol id="burger" viewBox="0 0 36 36">
        <path d="M31.5 15H10.5" stroke-width="2" stroke-linecap="round" stroke-linejoin="round"/>
        <path d="M31.5 9H4.5" stroke-width="2" stroke-linecap="round" stroke-linejoin="round"/>
        <path d="M31.5 21H4.5" stroke-width="2" stroke-linecap="round" stroke-linejoin="round"/>
        <path d="M31.5 27H10.5" stroke-width="2" stroke-linecap="round" stroke-linejoin="round"/>
    </symbol>
    <symbol id="close" viewBox="0 0 24 24">
        <path d="M13.4099 11.9999L17.7099 7.70994C17.8982 7.52164 18.004 7.26624 18.004 6.99994C18.004 6.73364 17.8982 6.47825 17.7099 6.28994C17.5216 6.10164 17.2662 5.99585 16.9999 5.99585C16.7336 5.99585 16.4782 6.10164 16.2899 6.28994L11.9999 10.5899L7.70994 6.28994C7.52164 6.10164 7.26624 5.99585 6.99994 5.99585C6.73364 5.99585 6.47824 6.10164 6.28994 6.28994C6.10164 6.47825 5.99585 6.73364 5.99585 6.99994C5.99585 7.26624 6.10164 7.52164 6.28994 7.70994L10.5899 11.9999L6.28994 16.2899C6.19621 16.3829 6.12182 16.4935 6.07105 16.6154C6.02028 16.7372 5.99414 16.8679 5.99414 16.9999C5.99414 17.132 6.02028 17.2627 6.07105 17.3845C6.12182 17.5064 6.19621 17.617 6.28994 17.7099C6.3829 17.8037 6.4935 17.8781 6.61536 17.9288C6.73722 17.9796 6.86793 18.0057 6.99994 18.0057C7.13195 18.0057 7.26266 17.9796 7.38452 17.9288C7.50638 17.8781 7.61698 17.8037 7.70994 17.7099L11.9999 13.4099L16.2899 17.7099C16.3829 17.8037 16.4935 17.8781 16.6154 17.9288C16.7372 17.9796 16.8679 18.0057 16.9999 18.0057C17.132 18.0057 17.2627 17.9796 17.3845 17.9288C17.5064 17.8781 17.617 17.8037 17.7099 17.7099C17.8037 17.617 17.8781 17.5064 17.9288 17.3845C17.9796 17.2627 18.0057 17.132 18.0057 16.9999C18.0057 16.8679 17.9796 16.7372 17.9288 16.6154C17.8781 16.4935 17.8037 16.3829 17.7099 16.2899L13.4099 11.9999Z"/>
    </symbol>
    <symbol id="arrow-left" viewBox="0 0 20 20">
        <path d="M12.5 15L7.5 10L12.5 5" stroke-opacity="0.5" stroke-width="2" stroke-linecap="round" stroke-linejoin="round"/>
    </symbol>
    <symbol id="yandex" viewBox="0 0 24 24">
        <path fill-rule="evenodd" clip-rule="evenodd" d="M18.438 8.43775C18.438 8.52052 18.4362 8.60329 18.4334 8.6879C18.4297 8.78171 18.4242 8.87368 18.4168 8.96565C18.2053 11.629 16.4451 14.3642 14.8733 16.9761L12.0003 21.3868V14.8755C8.44477 14.8755 5.5625 11.9932 5.5625 8.43775C5.5625 4.88227 8.44477 2 12.0003 2C15.5557 2 18.438 4.88227 18.438 8.43775Z" fill="#FF3333"/>
        <path d="M11.9993 11.1968C13.523 11.1968 14.7583 9.96152 14.7583 8.43775C14.7583 6.91397 13.523 5.67871 11.9993 5.67871C10.4755 5.67871 9.24023 6.91397 9.24023 8.43775C9.24023 9.96152 10.4755 11.1968 11.9993 11.1968Z" fill="white"/>
    </symbol>
    <symbol id="2gis" viewBox="0 0 24 24">
        <path fill-rule="evenodd" clip-rule="evenodd" d="M12 22C17.5 22 22 17.52 22 12C22 6.48 17.5 2 12 2C6.48 2 2 6.48 2 12C2 17.52 6.48 22 12 22Z" fill="#299400"/>
        <path fill-rule="evenodd" clip-rule="evenodd" d="M12 5C15.574 5 18 7.69394 18 10.6C18 11.7667 17.7401 12.7848 17.1336 14.0576C13.5812 14.0576 12.9314 16.3697 12.7798 17.9182L12.6715 19H11.3285L11.2202 17.9182C11.0686 16.3697 10.4188 14.0576 6.86643 14.0576C6.25993 12.7848 6 11.7667 6 10.6C6 7.69394 8.42599 5 12 5Z" fill="white"/>
    </symbol>
    <symbol id="google" viewBox="0 0 20 20">
        <g clip-path="url(#clip0_2504_36182)">
            <path d="M9.58105 16.8191C10.1567 17.5915 10.7419 18.5596 11.049 19.1466C11.4231 19.9087 11.5766 20.4236 11.8549 21.3402C12.018 21.8449 12.1715 21.9993 12.4977 21.9993C12.8526 21.9993 13.0157 21.7419 13.1405 21.3402C13.3995 20.4751 13.601 19.816 13.9176 19.1878C14.5412 17.9829 15.3279 16.9118 16.0954 15.8819C16.3065 15.5936 17.6497 13.8943 18.2541 12.5452C18.2541 12.5452 18.9929 11.0725 18.9929 9.01272C18.9929 7.08687 18.2637 5.74805 18.2637 5.74805L16.153 6.35567L14.8674 9.9808L14.5508 10.4751L14.4836 10.5678L14.3973 10.6811L14.2534 10.8665L14.0423 11.0931L12.9006 12.092L10.0512 13.8634L9.58105 16.8191Z" fill="#34A853"/>
            <path d="M6.63574 12.2978C7.33611 14.0073 8.66969 15.5006 9.58113 16.8189L14.407 10.6809C14.407 10.6809 13.7258 11.6386 12.4977 11.6386C11.1258 11.6386 10.0129 10.4646 10.0129 8.98159C10.0129 7.96203 10.5789 7.26172 10.5789 7.26172L7.30733 8.1989L6.63574 12.2978Z" fill="#FBBC04"/>
            <path d="M14.4647 2.31836C16.0669 2.87449 17.4389 4.03824 18.264 5.75811L14.4071 10.6912C14.4071 10.6912 14.9732 9.98056 14.9732 8.97129C14.9732 7.45739 13.7835 6.31424 12.4979 6.31424C11.2795 6.31424 10.5791 7.26172 10.5791 7.26172V4.15152L14.4647 2.31836Z" fill="#4285F4"/>
            <path d="M7.51855 4.4913C8.47796 3.26576 10.1569 1.99902 12.4787 1.99902C13.6012 1.99902 14.4551 2.31828 14.4551 2.31828L10.5791 7.26164H7.83516L7.51855 4.4913Z" fill="#1A73E8"/>
            <path d="M6.63614 12.298C6.63614 12.298 6.00293 10.9489 6.00293 9.00247C6.00293 7.15901 6.67452 5.55242 7.52839 4.50195L10.5889 7.27229L6.63614 12.298Z" fill="#EA4335"/>
        </g>
        <defs>
            <clipPath id="clip0_2504_36182">
                <rect width="13" height="20" fill="white" transform="translate(6 2)"/>
            </clipPath>
        </defs>
    </symbol>
    <symbol id="phone-call" viewBox="0 0 24 24">
        <path d="M15.4396 6.56036H19.0196L18.2296 7.36036C18.0434 7.54772 17.9388 7.80117 17.9388 8.06536C17.9388 8.32954 18.0434 8.58299 18.2296 8.77036C18.417 8.95661 18.6704 9.06115 18.9346 9.06115C19.1988 9.06115 19.4522 8.95661 19.6396 8.77036L22.1396 6.27036C22.3259 6.08299 22.4304 5.82954 22.4304 5.56536C22.4304 5.30117 22.3259 5.04772 22.1396 4.86036L19.6396 2.36036C19.4483 2.19653 19.2022 2.11092 18.9506 2.12065C18.6989 2.13037 18.4601 2.2347 18.282 2.41279C18.104 2.59089 17.9996 2.82963 17.9899 3.0813C17.9802 3.33298 18.0658 3.57905 18.2296 3.77036L19.0196 4.56036H15.4396C15.1744 4.56036 14.92 4.66571 14.7325 4.85325C14.545 5.04079 14.4396 5.29514 14.4396 5.56036C14.4396 5.82557 14.545 6.07993 14.7325 6.26746C14.92 6.455 15.1744 6.56036 15.4396 6.56036ZM19.9396 13.0004C19.7196 13.0004 19.4896 12.9304 19.2696 12.8804C18.8241 12.7822 18.3863 12.6518 17.9596 12.4904C17.4957 12.3216 16.9858 12.3304 16.5279 12.515C16.0701 12.6996 15.6967 13.047 15.4796 13.4904L15.2596 13.9404C14.2856 13.3985 13.3906 12.7256 12.5996 11.9404C11.8144 11.1494 11.1414 10.2544 10.5996 9.28036L11.0196 9.00036C11.463 8.78327 11.8104 8.40989 11.995 7.95205C12.1796 7.49421 12.1884 6.98427 12.0196 6.52036C11.8608 6.09278 11.7305 5.65515 11.6296 5.21036C11.5796 4.99036 11.5396 4.76036 11.5096 4.53036C11.3882 3.82598 11.0192 3.1881 10.4692 2.7316C9.91923 2.27509 9.22431 2.02997 8.50961 2.04036H5.50961C5.07864 2.03631 4.65186 2.12517 4.25832 2.30089C3.86478 2.4766 3.51372 2.73505 3.22904 3.05864C2.94436 3.38222 2.73275 3.76335 2.6086 4.17607C2.48445 4.58879 2.45069 5.02342 2.50961 5.45036C3.04235 9.63974 4.95564 13.5322 7.94726 16.513C10.9389 19.4938 14.8383 21.3929 19.0296 21.9104H19.4096C20.147 21.9114 20.859 21.6409 21.4096 21.1504C21.726 20.8674 21.9787 20.5205 22.1511 20.1327C22.3235 19.7448 22.4116 19.3248 22.4096 18.9004V15.9004C22.3974 15.2057 22.1444 14.5369 21.694 14.008C21.2435 13.4791 20.6234 13.123 19.9396 13.0004ZM20.4396 19.0004C20.4394 19.1423 20.409 19.2827 20.3504 19.412C20.2918 19.5413 20.2063 19.6566 20.0996 19.7504C19.9879 19.8468 19.8572 19.9189 19.716 19.962C19.5748 20.005 19.4262 20.0181 19.2796 20.0004C15.5345 19.5202 12.0558 17.8068 9.39233 15.1306C6.72881 12.4545 5.03202 8.96769 4.56961 5.22036C4.5537 5.07387 4.56765 4.92569 4.61061 4.78475C4.65358 4.64381 4.72468 4.51304 4.81961 4.40036C4.91332 4.29369 5.02867 4.2082 5.15799 4.14957C5.28731 4.09095 5.42763 4.06054 5.56961 4.06036H8.56961C8.80216 4.05518 9.02924 4.13124 9.21176 4.27543C9.39428 4.41962 9.52082 4.62293 9.56961 4.85036C9.60961 5.12369 9.65961 5.39369 9.71961 5.66036C9.83513 6.1875 9.98887 6.70554 10.1796 7.21036L8.77961 7.86036C8.65991 7.91528 8.55223 7.9933 8.46277 8.08995C8.37331 8.1866 8.30381 8.29997 8.25828 8.42355C8.21275 8.54713 8.19208 8.67849 8.19746 8.81008C8.20284 8.94167 8.23415 9.0709 8.28961 9.19036C9.72881 12.2731 12.2069 14.7512 15.2896 16.1904C15.5331 16.2904 15.8062 16.2904 16.0496 16.1904C16.1743 16.1457 16.2889 16.0768 16.3868 15.9875C16.4846 15.8983 16.5638 15.7905 16.6196 15.6704L17.2396 14.2704C17.7566 14.4552 18.2842 14.6088 18.8196 14.7304C19.0863 14.7904 19.3563 14.8404 19.6296 14.8804C19.857 14.9291 20.0604 15.0557 20.2045 15.2382C20.3487 15.4207 20.4248 15.6478 20.4196 15.8804L20.4396 19.0004Z" fill="white"/>
    </symbol>
    <symbol id="lk" viewBox="0 0 24 24">
        <path d="M12 2C10.0605 2.00369 8.16393 2.57131 6.54128 3.63374C4.91862 4.69617 3.63994 6.20754 2.86099 7.98377C2.08204 9.76 1.83643 11.7244 2.15408 13.6378C2.47173 15.5511 3.33893 17.3308 4.65005 18.76C5.58647 19.775 6.72299 20.5851 7.98799 21.1392C9.25298 21.6933 10.619 21.9793 12 21.9793C13.3811 21.9793 14.7471 21.6933 16.0121 21.1392C17.2771 20.5851 18.4136 19.775 19.35 18.76C20.6612 17.3308 21.5284 15.5511 21.846 13.6378C22.1637 11.7244 21.9181 9.76 21.1391 7.98377C20.3602 6.20754 19.0815 4.69617 17.4588 3.63374C15.8362 2.57131 13.9396 2.00369 12 2ZM12 20C9.92851 19.9969 7.93896 19.1903 6.45005 17.75C6.90209 16.6495 7.67108 15.7083 8.6593 15.0459C9.64752 14.3835 10.8104 14.0298 12 14.0298C13.1897 14.0298 14.3526 14.3835 15.3408 15.0459C16.329 15.7083 17.098 16.6495 17.55 17.75C16.0611 19.1903 14.0716 19.9969 12 20ZM10 10C10 9.60444 10.1173 9.21776 10.3371 8.88886C10.5569 8.55996 10.8692 8.30362 11.2347 8.15224C11.6001 8.00087 12.0023 7.96126 12.3902 8.03843C12.7782 8.1156 13.1346 8.30608 13.4143 8.58579C13.694 8.86549 13.8844 9.22186 13.9616 9.60982C14.0388 9.99778 13.9992 10.3999 13.8478 10.7654C13.6964 11.1308 13.4401 11.4432 13.1112 11.6629C12.7823 11.8827 12.3956 12 12 12C11.4696 12 10.9609 11.7893 10.5858 11.4142C10.2108 11.0391 10 10.5304 10 10ZM18.91 16C18.0166 14.4718 16.6415 13.283 15 12.62C15.5092 12.0427 15.841 11.3307 15.9555 10.5694C16.0701 9.80822 15.9625 9.03011 15.6458 8.3285C15.3291 7.62688 14.8166 7.03156 14.17 6.61397C13.5233 6.19637 12.7698 5.97425 12 5.97425C11.2303 5.97425 10.4768 6.19637 9.83014 6.61397C9.18346 7.03156 8.67102 7.62688 8.3543 8.3285C8.03758 9.03011 7.93004 9.80822 8.04458 10.5694C8.15912 11.3307 8.49088 12.0427 9.00005 12.62C7.35865 13.283 5.98352 14.4718 5.09005 16C4.37799 14.7871 4.00177 13.4065 4.00005 12C4.00005 9.87827 4.8429 7.84344 6.34319 6.34315C7.84349 4.84285 9.87832 4 12 4C14.1218 4 16.1566 4.84285 17.6569 6.34315C19.1572 7.84344 20 9.87827 20 12C19.9983 13.4065 19.6221 14.7871 18.91 16Z" fill="white"/>
    </symbol>
    <symbol id="mail" viewBox="0 0 24 24">
        <path d="M19 4H5C4.20435 4 3.44129 4.31607 2.87868 4.87868C2.31607 5.44129 2 6.20435 2 7V17C2 17.7956 2.31607 18.5587 2.87868 19.1213C3.44129 19.6839 4.20435 20 5 20H19C19.7956 20 20.5587 19.6839 21.1213 19.1213C21.6839 18.5587 22 17.7956 22 17V7C22 6.20435 21.6839 5.44129 21.1213 4.87868C20.5587 4.31607 19.7956 4 19 4ZM18.59 6L12.71 11.88C12.617 11.9737 12.5064 12.0481 12.3846 12.0989C12.2627 12.1497 12.132 12.1758 12 12.1758C11.868 12.1758 11.7373 12.1497 11.6154 12.0989C11.4936 12.0481 11.383 11.9737 11.29 11.88L5.41 6H18.59ZM20 17C20 17.2652 19.8946 17.5196 19.7071 17.7071C19.5196 17.8946 19.2652 18 19 18H5C4.73478 18 4.48043 17.8946 4.29289 17.7071C4.10536 17.5196 4 17.2652 4 17V7.41L9.88 13.29C10.4425 13.8518 11.205 14.1674 12 14.1674C12.795 14.1674 13.5575 13.8518 14.12 13.29L20 7.41V17Z" fill="white" fill-opacity="0.5"/>
    </symbol>
    <symbol id="instagram" viewBox="0 0 24 24">
        <path d="M17 2H7C4.23858 2 2 4.23858 2 7V17C2 19.7614 4.23858 22 7 22H17C19.7614 22 22 19.7614 22 17V7C22 4.23858 19.7614 2 17 2Z" stroke="white" stroke-linecap="round" stroke-linejoin="round" fill-opacity="0"/>
        <path d="M16.0002 11.3703C16.1236 12.2025 15.9815 13.0525 15.594 13.7993C15.2065 14.5461 14.5933 15.1517 13.8418 15.53C13.0903 15.9082 12.2386 16.0399 11.408 15.9062C10.5773 15.7726 9.80996 15.3804 9.21503 14.7855C8.62011 14.1905 8.22793 13.4232 8.09426 12.5925C7.9606 11.7619 8.09226 10.9102 8.47052 10.1587C8.84878 9.40716 9.45438 8.79404 10.2012 8.40654C10.948 8.01904 11.7979 7.87689 12.6302 8.0003C13.4791 8.12619 14.265 8.52177 14.8719 9.12861C15.4787 9.73545 15.8743 10.5214 16.0002 11.3703Z" stroke="white" stroke-linecap="round" stroke-linejoin="round" fill-opacity="0"/>
        <path d="M17.5 6.5H17.5119" stroke="white" stroke-linecap="round" stroke-linejoin="round" fill-opacity="0"/>
    </symbol>
    <symbol id="facebook" viewBox="0 0 24 24">
        <path d="M18.0005 2H15.0005C13.6744 2 12.4026 2.52678 11.465 3.46447C10.5273 4.40215 10.0005 5.67392 10.0005 7V10H7.00049V14H10.0005V22H14.0005V14H17.0005L18.0005 10H14.0005V7C14.0005 6.73478 14.1058 6.48043 14.2934 6.29289C14.4809 6.10536 14.7353 6 15.0005 6H18.0005V2Z" stroke="white" stroke-linecap="round" stroke-linejoin="round" fill-opacity="0"/>
    </symbol>
    <symbol id="vk" viewBox="0 0 24 24">
        <path d="M0.0703125 5.8125C0.0703125 5.01562 0.523437 4.58594 1.42969 4.52344L4.92188 4.54688C5.15625 4.54688 5.3125 4.66406 5.39062 4.89844C5.75 6.07031 6.15234 7.08203 6.59766 7.93359C7.04297 8.78516 7.625 9.76562 8.34375 10.875C8.40625 11.0156 8.50781 11.0859 8.64844 11.0859C8.75781 11.0859 8.84375 11.0312 8.90625 10.9219L8.97656 10.6641L9 6.60938C9 6.32812 8.93359 6.14062 8.80078 6.04688C8.66797 5.95312 8.42188 5.88281 8.0625 5.83594C7.78125 5.78906 7.64062 5.61719 7.64062 5.32031C7.64062 5.25781 7.64844 5.21094 7.66406 5.17969C7.99219 4.16406 8.92969 3.65625 10.4766 3.65625L11.7891 3.63281C12.3828 3.63281 12.875 3.78125 13.2656 4.07812C13.6562 4.375 13.8516 4.84375 13.8516 5.48438V10.8047C13.9609 10.8828 14.0625 10.9219 14.1562 10.9219C14.3906 10.9219 14.5938 10.7812 14.7656 10.5C16.4844 8.09375 17.4141 6.48438 17.5547 5.67188C17.5547 5.65625 17.5703 5.61719 17.6016 5.55469C17.7109 5.32031 17.8906 5.11719 18.1406 4.94531C18.3906 4.77344 18.6094 4.65625 18.7969 4.59375C18.8594 4.5625 18.9297 4.54688 19.0078 4.54688H22.6406L22.875 4.57031C23.1875 4.57031 23.4297 4.71875 23.6016 5.01562C23.6641 5.10938 23.707 5.21094 23.7305 5.32031C23.7539 5.42969 23.7695 5.53906 23.7773 5.64844C23.7852 5.75781 23.7891 5.82031 23.7891 5.83594V6C23.6797 6.64062 23.4023 7.32422 22.957 8.05078C22.5117 8.77734 21.9453 9.5625 21.2578 10.4062C20.5703 11.25 20.1406 11.8047 19.9688 12.0703C19.8281 12.2578 19.7578 12.4297 19.7578 12.5859C19.7578 12.7109 19.8203 12.8516 19.9453 13.0078L23.3672 17.3203C23.5547 17.5703 23.6484 17.8438 23.6484 18.1406C23.6484 18.5 23.5078 18.7969 23.2266 19.0312C22.9453 19.2656 22.6094 19.3984 22.2188 19.4297L21.8203 19.4531H18.2578C18.2422 19.4531 18.2109 19.457 18.1641 19.4648C18.1172 19.4727 18.0859 19.4766 18.0703 19.4766C17.7266 19.4766 17.4062 19.3281 17.1094 19.0312C17 18.9062 16.2656 17.9844 14.9062 16.2656C14.8281 16.1562 14.7188 16.0547 14.5781 15.9609C14.5156 16.2109 14.4336 16.5703 14.332 17.0391C14.2305 17.5078 14.1562 17.8438 14.1094 18.0469L14.0391 18.4453C13.8828 18.9922 13.5547 19.3203 13.0547 19.4297L12.7266 19.4531H10.4297C9.13281 19.4531 7.83984 18.8594 6.55078 17.6719C5.26172 16.4844 4.10156 14.9492 3.07031 13.0664C2.03906 11.1836 1.07812 8.99219 0.1875 6.49219C0.109375 6.28906 0.0703125 6.0625 0.0703125 5.8125ZM14.1562 11.8828C13.8281 11.8828 13.5312 11.793 13.2656 11.6133C13 11.4336 12.8672 11.1875 12.8672 10.875V5.48438C12.8672 5.17188 12.7891 4.94922 12.6328 4.81641C12.4766 4.68359 12.2031 4.61719 11.8125 4.61719L10.4766 4.66406C9.80469 4.66406 9.29688 4.78125 8.95312 5.01562C9.64062 5.34375 9.98438 5.875 9.98438 6.60938V10.7344C9.95312 11.125 9.79688 11.4492 9.51562 11.707C9.23438 11.9648 8.92188 12.0938 8.57812 12.0938C8.10938 12.0938 7.75 11.8672 7.5 11.4141C6.28125 9.57031 5.375 7.82031 4.78125 6.16406L4.57031 5.55469L1.45312 5.53125C1.25 5.53125 1.13672 5.54297 1.11328 5.56641C1.08984 5.58984 1.07812 5.65625 1.07812 5.76562C1.07812 5.90625 1.09375 6.05469 1.125 6.21094L1.61719 7.52344C2.92969 10.9141 4.35547 13.5859 5.89453 15.5391C7.43359 17.4922 8.94531 18.4688 10.4297 18.4688H12.7734C12.8672 18.4688 12.9375 18.4414 12.9844 18.3867C13.0312 18.332 13.0703 18.2266 13.1016 18.0703L13.1484 17.8359L13.5938 15.7734C13.7188 15.4922 13.8281 15.3047 13.9219 15.2109C14.0938 15.0391 14.2969 14.9531 14.5312 14.9531C14.9062 14.9531 15.2891 15.1797 15.6797 15.6328L17.6719 18.1641C17.7969 18.3672 17.9297 18.4688 18.0703 18.4688H21.9375C22.4062 18.4688 22.6406 18.3516 22.6406 18.1172C22.6406 18.0391 22.6172 17.9609 22.5703 17.8828L19.1719 13.6406C18.9062 13.3125 18.7734 12.9609 18.7734 12.5859C18.7734 12.2109 18.8984 11.8516 19.1484 11.5078C19.3516 11.1953 19.7461 10.6758 20.332 9.94922C20.918 9.22266 21.4297 8.54297 21.8672 7.91016C22.3047 7.27734 22.5938 6.70312 22.7344 6.1875L22.8047 5.88281C22.7891 5.85156 22.7812 5.80078 22.7812 5.73047C22.7812 5.66016 22.7734 5.60156 22.7578 5.55469H19.0781C18.8438 5.64844 18.6562 5.78906 18.5156 5.97656L18.375 6.42188C17.9844 7.5 16.9609 9.16406 15.3047 11.4141C14.9766 11.7266 14.5938 11.8828 14.1562 11.8828Z" fill="white"/>
    </symbol>
    <symbol id="youtube" viewBox="0 0 24 24">
        <g clip-path="url(#youtube)">
            <path d="M22.5396 6.42C22.4208 5.94541 22.1789 5.51057 21.8382 5.15941C21.4976 4.80824 21.0703 4.55318 20.5996 4.42C18.8796 4 11.9996 4 11.9996 4C11.9996 4 5.1196 4 3.3996 4.46C2.92884 4.59318 2.50157 4.84824 2.16094 5.19941C1.82031 5.55057 1.57838 5.98541 1.4596 6.46C1.14481 8.20556 0.990831 9.97631 0.999595 11.75C0.988374 13.537 1.14236 15.3213 1.4596 17.08C1.59055 17.5398 1.8379 17.9581 2.17774 18.2945C2.51758 18.6308 2.93842 18.8738 3.3996 19C5.1196 19.46 11.9996 19.46 11.9996 19.46C11.9996 19.46 18.8796 19.46 20.5996 19C21.0703 18.8668 21.4976 18.6118 21.8382 18.2606C22.1789 17.9094 22.4208 17.4746 22.5396 17C22.852 15.2676 23.0059 13.5103 22.9996 11.75C23.0108 9.96295 22.8568 8.1787 22.5396 6.42Z" stroke="white" stroke-linecap="round" stroke-linejoin="round" fill-opacity="0"/>
            <path d="M9.74951 15.02L15.4995 11.75L9.74951 8.47998V15.02Z" stroke="white" stroke-linecap="round" stroke-linejoin="round" fill-opacity="0"/>
        </g>
        <defs>
            <clipPath id="youtube">
                <rect width="24" height="24" fill="white" transform="translate(-0.000488281)"/>
            </clipPath>
        </defs>
    </symbol>
    <symbol id="filter" viewBox="0 0 24 24">
        <path d="M9.16699 15.5913L8.94339 15.7031L9.16699 16.1503H9.66699V15.9003L10.8337 15.317L9.16699 15.5913ZM9.16699 15.5913V11.667V15.5913ZM2.16699 5.14217V5.14199V4.16699C2.16699 3.63656 2.37771 3.12785 2.75278 2.75278C3.12785 2.37771 3.63656 2.16699 4.16699 2.16699H15.8337C16.3641 2.16699 16.8728 2.37771 17.2479 2.75278C17.6229 3.12785 17.8337 3.63656 17.8337 4.16699V5.1341C17.8245 5.40886 17.7587 5.6788 17.6405 5.92705L17.592 6.02904V6.0802C17.5033 6.25537 17.3872 6.41544 17.2477 6.5542L17.2468 6.55511L12.1468 11.6551L12.0003 11.8016V12.0087V15.8326C12 15.894 11.9828 15.9541 11.9506 16.0064C11.9183 16.0586 11.8722 16.1009 11.8175 16.1286C11.8173 16.1286 11.8172 16.1287 11.817 16.1288L8.48505 17.7948L8.48504 17.7948L8.48066 17.797C8.4344 17.8207 8.38323 17.8333 8.33126 17.8337C8.26945 17.8337 8.20885 17.8166 8.15623 17.7842C8.10853 17.7542 8.06921 17.7126 8.04195 17.6633C8.01454 17.6137 8.00021 17.558 8.00033 17.5013V17.5003V12.0087V11.8006L7.85273 11.654L2.71964 6.5542C2.7196 6.55416 2.71956 6.55412 2.71952 6.55408C2.58009 6.41534 2.46395 6.25532 2.37533 6.0802V6.03773L2.33366 5.94217C2.22364 5.68981 2.1669 5.41746 2.16699 5.14217ZM7.50033 12.0087V17.5003V12.0087ZM11.3337 11.667L11.3337 11.6641C11.3334 11.6202 11.3418 11.5767 11.3584 11.5361C11.3749 11.4958 11.3991 11.4591 11.4296 11.4281C11.4299 11.4279 11.4301 11.4277 11.4303 11.4274L15.8452 7.02088L16.7007 6.16699H15.492H4.50866H3.29994L4.15544 7.02088L8.57033 11.4274C8.57057 11.4277 8.5708 11.4279 8.57103 11.4281C8.60159 11.4591 8.62579 11.4958 8.64226 11.5361C8.65885 11.5767 8.66725 11.6202 8.667 11.6641H8.66699V11.667V16.1503V16.9593L9.3906 16.5975L11.0573 15.7642L11.3337 15.626V15.317L11.3337 11.667ZM16.667 5.50033H17.167V5.00033V4.16699C17.167 3.81337 17.0265 3.47423 16.7765 3.22418C16.5264 2.97413 16.1873 2.83366 15.8337 2.83366H4.16699C3.81337 2.83366 3.47423 2.97414 3.22418 3.22418C2.97414 3.47423 2.83366 3.81337 2.83366 4.16699V5.00033V5.50033H3.33366H16.667Z" fill="white" stroke="white"/>
    </symbol>
    <symbol id="menu-down" viewBox="0 0 24 24">
        <path d="M16.9997 9.1697C16.8123 8.98345 16.5589 8.87891 16.2947 8.87891C16.0305 8.87891 15.7771 8.98345 15.5897 9.1697L11.9997 12.7097L8.4597 9.1697C8.27234 8.98345 8.01889 8.87891 7.7547 8.87891C7.49052 8.87891 7.23707 8.98345 7.0497 9.1697C6.95598 9.26266 6.88158 9.37326 6.83081 9.49512C6.78004 9.61698 6.75391 9.74769 6.75391 9.8797C6.75391 10.0117 6.78004 10.1424 6.83081 10.2643C6.88158 10.3861 6.95598 10.4967 7.0497 10.5897L11.2897 14.8297C11.3827 14.9234 11.4933 14.9978 11.6151 15.0486C11.737 15.0994 11.8677 15.1255 11.9997 15.1255C12.1317 15.1255 12.2624 15.0994 12.3843 15.0486C12.5061 14.9978 12.6167 14.9234 12.7097 14.8297L16.9997 10.5897C17.0934 10.4967 17.1678 10.3861 17.2186 10.2643C17.2694 10.1424 17.2955 10.0117 17.2955 9.8797C17.2955 9.74769 17.2694 9.61698 17.2186 9.49512C17.1678 9.37326 17.0934 9.26266 16.9997 9.1697Z"/>
    </symbol>
</svg>