<svg xmlns="http://www.w3.org/2000/svg" xmlns:xlink="http://www.w3.org/1999/xlink">
    <symbol id="arrow-left" viewBox="0 0 24 24">
        <path d="M16.9999 11H9.4099L12.7099 7.71C12.8982 7.5217 13.004 7.2663 13.004 7C13.004 6.7337 12.8982 6.47831 12.7099 6.29C12.5216 6.1017 12.2662 5.99591 11.9999 5.99591C11.7336 5.99591 11.4782 6.1017 11.2899 6.29L6.2899 11.29C6.19886 11.3851 6.12749 11.4973 6.0799 11.62C5.97988 11.8635 5.97988 12.1365 6.0799 12.38C6.12749 12.5028 6.19886 12.6149 6.2899 12.71L11.2899 17.71C11.3829 17.8037 11.4935 17.8781 11.6153 17.9289C11.7372 17.9797 11.8679 18.0058 11.9999 18.0058C12.1319 18.0058 12.2626 17.9797 12.3845 17.9289C12.5063 17.8781 12.6169 17.8037 12.7099 17.71C12.8036 17.617 12.878 17.5064 12.9288 17.3846C12.9796 17.2627 13.0057 17.132 13.0057 17C13.0057 16.868 12.9796 16.7373 12.9288 16.6154C12.878 16.4936 12.8036 16.383 12.7099 16.29L9.4099 13H16.9999C17.2651 13 17.5195 12.8946 17.707 12.7071C17.8945 12.5196 17.9999 12.2652 17.9999 12C17.9999 11.7348 17.8945 11.4804 17.707 11.2929C17.5195 11.1054 17.2651 11 16.9999 11Z" fill="#617082" fill-opacity="0.7"/>
    </symbol>
    <symbol id="headphones" viewBox="0 0 30 30">
        <path d="M14.3557 25.7L14.3945 25.6669L14.3999 25.7668C14.3813 25.7678 14.364 25.7668 14.349 25.7652L14.3557 25.7ZM14.3557 25.7L14.3588 25.6656L14.3557 25.7ZM8.17033 23.5854L8.17034 23.5855C9.54258 24.7138 11.7645 25.5341 14.3475 25.765C14.6695 26.1237 15.1429 26.35 15.669 26.35C16.6347 26.35 17.4233 25.5879 17.4233 24.6429C17.4233 23.6978 16.6347 22.9357 15.669 22.9357C15.163 22.9357 14.7066 23.1447 14.3858 23.4788C12.5618 23.2863 11.0217 22.7859 10.0721 22.1182C9.48519 21.7053 9.15175 21.2557 9.15175 20.7857V13.0714C9.15175 12.632 8.87902 12.2571 8.49313 12.0944C8.59484 8.93804 11.4729 6.23371 15.0073 6.23371C18.5417 6.23371 21.4197 8.93804 21.5214 12.0944C21.1355 12.2571 20.8628 12.632 20.8628 13.0714V20.1429C20.8628 20.7331 21.355 21.2071 21.9554 21.2071H23.2788C23.8543 21.2071 24.3304 20.7716 24.3689 20.2157C26.1843 19.9859 27.6 18.3155 27.6 16.2857C27.6 14.2568 26.1854 12.5869 24.3711 12.356C24.3299 7.54201 20.1893 3.65 15.049 3.65C9.91056 3.65 5.68556 7.54149 5.64344 12.3559C3.82147 12.5859 2.4 14.2557 2.4 16.2857C2.4 18.3166 3.82262 19.9868 5.64564 20.2158C5.68265 20.7492 6.12248 21.1717 6.66643 21.205C6.79668 22.0797 7.33021 22.8945 8.17033 23.5854ZM8.72486 22.9398L8.66133 23.0171L8.72485 22.9398C8.08882 22.4167 7.67204 21.8291 7.54157 21.2071H8.34048C8.4811 21.7932 8.91136 22.3399 9.56927 22.8025C10.5667 23.5041 12.1234 24.0419 13.9552 24.2773C13.9287 24.3953 13.9147 24.5175 13.9147 24.6429C13.9147 24.7211 13.9201 24.7982 13.9306 24.8736C11.7441 24.6061 9.88725 23.8962 8.72486 22.9398ZM15.669 23.7786C16.1644 23.7786 16.5616 24.1685 16.5616 24.6429C16.5616 25.1172 16.1644 25.5071 15.669 25.5071C15.1736 25.5071 14.7764 25.1172 14.7764 24.6429C14.7764 24.1685 15.1736 23.7786 15.669 23.7786ZM6.50484 20.1429V12.85H8.05916C8.18931 12.85 8.29002 12.9519 8.29002 13.0714V20.3643H6.73571C6.60555 20.3643 6.50484 20.2624 6.50484 20.1429ZM23.5097 12.85V20.1429C23.5097 20.2624 23.409 20.3643 23.2788 20.3643H21.9554C21.8252 20.3643 21.7245 20.2624 21.7245 20.1429V13.0714C21.7245 12.9519 21.8252 12.85 21.9554 12.85H23.5097ZM3.26173 16.2857C3.26173 14.729 4.29456 13.4365 5.64312 13.2077V19.3637C4.29456 19.1349 3.26173 17.8425 3.26173 16.2857ZM24.3714 19.3635V13.2079C25.7117 13.4382 26.7383 14.7301 26.7383 16.2857C26.7383 17.8413 25.7117 19.1333 24.3714 19.3635ZM15.049 4.49286C19.5918 4.49286 23.2655 7.82545 23.4981 12.0071H22.3809C22.2293 8.4298 18.982 5.39086 15.0073 5.39086C11.0325 5.39086 7.78529 8.4298 7.63367 12.0071H6.51656C6.75429 7.82526 10.5043 4.49286 15.049 4.49286Z" fill="white" stroke="white" stroke-width="0.2"/>
    </symbol>
</svg>