<svg width="16" height="15" viewBox="0 0 16 15" fill="none" xmlns="http://www.w3.org/2000/svg">
<path fill-rule="evenodd" clip-rule="evenodd" d="M12.6737 0.0585938H3.26395V1.15024H-0.0078125V6.27071C-0.0078125 8.24965 2.20089 9.87812 4.3683 10.0475C5.07983 10.8099 6.33136 11.3637 7.44525 11.5998V12.9381C6.38007 13.2653 4.47736 14.034 4.3683 14.8715H11.6784C11.5683 14.034 9.47183 13.2642 8.40454 12.9381V11.5998C9.52266 11.3637 10.8303 10.8099 11.5429 10.0475C13.7092 9.87812 15.8205 8.24965 15.8205 6.27071V1.15024H12.6737V0.0585938ZM0.997011 2.12012H3.18772V6.53118C3.18772 7.40154 3.41219 8.22954 3.80713 8.97495C2.16807 8.45295 0.997011 7.10824 0.997011 5.53483V2.12012ZM9.57772 7.50001L7.94289 6.59895L6.30595 7.50001L6.6183 5.59412L5.29478 4.24518L7.12336 3.96671L7.94289 2.23448L8.7603 3.96671L10.5889 4.24518L9.26536 5.59412L9.57772 7.50001ZM12.0077 9.11577C12.4048 8.33648 12.6324 7.47459 12.6324 6.56295V2.14871H14.8284V5.52212C14.8284 7.16648 13.6521 8.57048 12.0077 9.11577Z" fill="white"/>
</svg>
