<svg width="24" height="24" viewBox="0 0 24 24" fill="none" xmlns="http://www.w3.org/2000/svg">
<path fill-rule="evenodd" clip-rule="evenodd" d="M12 22C17.5 22 22 17.52 22 12C22 6.48 17.5 2 12 2C6.48 2 2 6.48 2 12C2 17.52 6.48 22 12 22Z" fill="#299400"/>
<path fill-rule="evenodd" clip-rule="evenodd" d="M12 5C15.574 5 18 7.69394 18 10.6C18 11.7667 17.7401 12.7848 17.1336 14.0576C13.5812 14.0576 12.9314 16.3697 12.7798 17.9182L12.6715 19H11.3285L11.2202 17.9182C11.0686 16.3697 10.4188 14.0576 6.86643 14.0576C6.25993 12.7848 6 11.7667 6 10.6C6 7.69394 8.42599 5 12 5Z" fill="white"/>
</svg>
