<svg width="148" height="148" viewBox="0 0 148 148" fill="none" xmlns="http://www.w3.org/2000/svg">
<path d="M27.0562 88.3374C22.8937 88.3374 19.6562 91.5749 19.6562 95.7374C19.6562 99.8999 22.8937 103.137 27.0562 103.137C31.2187 103.137 34.4562 99.8999 34.4562 95.7374C34.4562 91.5749 31.2187 88.3374 27.0562 88.3374ZM27.0562 98.0499C25.6687 98.0499 24.7437 97.1249 24.7437 95.7374C24.7437 94.3499 25.6687 93.4249 27.0562 93.4249C28.4437 93.4249 29.3687 94.3499 29.3687 95.7374C29.3687 96.8937 28.4437 98.0499 27.0562 98.0499Z" fill="white" fill-opacity="0.5"/>
<path d="M111.694 88.3374C107.531 88.3374 104.294 91.5749 104.294 95.7374C104.294 99.8999 107.531 103.137 111.694 103.137C115.856 103.137 119.094 99.8999 119.094 95.7374C119.094 91.5749 115.856 88.3374 111.694 88.3374ZM111.694 98.0499C110.306 98.0499 109.381 97.1249 109.381 95.7374C109.381 94.3499 110.306 93.4249 111.694 93.4249C113.081 93.4249 114.006 94.3499 114.006 95.7374C114.006 96.8937 113.081 98.0499 111.694 98.0499Z" fill="white" fill-opacity="0.5"/>
<path d="M141.756 57.5813H140.369C138.75 47.8688 128.113 35.3813 112.619 35.3813H60.125C46.25 35.3813 34.225 56.4251 31.2188 62.2063H17.8062C7.8625 62.2063 0 70.3001 0 80.0126V92.9626C0 95.7376 2.3125 98.0501 5.0875 98.0501H10.4062C11.5625 106.144 18.7312 112.388 27.0562 112.388C35.3812 112.388 42.55 106.144 43.7062 98.0501H95.0437C96.2 106.144 103.369 112.388 111.694 112.388C120.019 112.388 127.188 106.144 128.344 98.0501H135.512C138.287 98.0501 140.6 95.7376 140.6 92.9626V80.9376H141.756C145.225 80.9376 148 78.1626 148 74.6939V63.8251C148 60.3563 145.225 57.5813 141.756 57.5813ZM27.0562 107.3C20.5812 107.3 15.2625 101.981 15.2625 95.5064C15.2625 89.0314 20.5812 83.7126 27.0562 83.7126C33.5312 83.7126 38.85 89.0314 38.85 95.5064C38.85 102.213 33.5312 107.3 27.0562 107.3ZM111.694 107.3C105.219 107.3 99.9 101.981 99.9 95.5064C99.9 89.0314 105.219 83.7126 111.694 83.7126C118.169 83.7126 123.488 89.0314 123.488 95.5064C123.488 102.213 118.169 107.3 111.694 107.3ZM135.512 93.1939H128.344C127.188 85.1001 120.019 78.8563 111.694 78.8563C103.369 78.8563 96.2 85.1001 95.0437 93.1939H43.7062C42.55 85.1001 35.3812 78.8563 27.0562 78.8563C18.7312 78.8563 11.5625 85.1001 10.4062 93.1939H5.0875V80.2439C5.0875 73.3064 10.8687 67.5251 17.8062 67.5251H32.6063C33.5312 67.5251 34.4562 67.0626 34.9188 66.1376C38.3875 58.9689 49.7188 40.7001 60.125 40.7001H112.387C126.725 40.7001 135.281 53.4188 135.281 60.3563V78.6251V93.1939H135.512ZM142.912 74.6939C142.912 75.3876 142.45 75.8501 141.756 75.8501H140.6V62.6689H141.756C142.45 62.6689 142.912 63.1314 142.912 63.8251V74.6939Z" fill="white" fill-opacity="0.5"/>
<path d="M83.0186 46.019H65.9061C59.1998 46.019 52.7248 49.2565 49.2561 54.8065L43.4748 63.594C43.0123 64.2878 43.0123 65.444 43.4748 66.1378C43.9373 67.0628 44.8623 67.5253 45.7873 67.5253H83.0186C84.4061 67.5253 85.5623 66.369 85.5623 64.9815V48.5628C85.5623 47.1753 84.4061 46.019 83.0186 46.019ZM80.4748 62.4378H50.4123L53.6498 57.5815C56.1936 53.6503 60.8186 51.1065 65.9061 51.1065H80.4748V62.4378Z" fill="white" fill-opacity="0.5"/>
<path d="M108.225 46.019H93.6561C92.2686 46.019 91.1123 47.1753 91.1123 48.5628V64.9815C91.1123 66.369 92.2686 67.5253 93.6561 67.5253H125.8C127.187 67.5253 128.344 66.369 128.344 64.9815C128.575 54.5753 119.556 46.019 108.225 46.019ZM96.4311 62.4378V51.1065H108.456C115.856 51.1065 122.1 55.9628 123.256 62.4378H96.4311Z" fill="white" fill-opacity="0.5"/>
</svg>
