<svg width="24" height="24" viewBox="0 0 24 24" fill="none" xmlns="http://www.w3.org/2000/svg">
<path d="M5 9.50001H5.32L6.57 6.38001C6.79325 5.82527 7.17718 5.3499 7.67253 5.01492C8.16787 4.67993 8.75202 4.50063 9.35 4.50001H15.35C16.0447 4.49802 16.7186 4.7372 17.2566 5.17673C17.7946 5.61625 18.1634 6.22886 18.3 6.91001L18.82 9.50001H19C19.7956 9.50001 20.5587 9.81608 21.1213 10.3787C21.6839 10.9413 22 11.7044 22 12.5V15.5C22 15.7652 21.8946 16.0196 21.7071 16.2071C21.5196 16.3947 21.2652 16.5 21 16.5H20C20 17.2957 19.6839 18.0587 19.1213 18.6213C18.5587 19.1839 17.7956 19.5 17 19.5C16.2044 19.5 15.4413 19.1839 14.8787 18.6213C14.3161 18.0587 14 17.2957 14 16.5H10C10 17.2957 9.68393 18.0587 9.12132 18.6213C8.55871 19.1839 7.79565 19.5 7 19.5C6.20435 19.5 5.44129 19.1839 4.87868 18.6213C4.31607 18.0587 4 17.2957 4 16.5H3C2.73478 16.5 2.48043 16.3947 2.29289 16.2071C2.10536 16.0196 2 15.7652 2 15.5V12.5C2 11.7044 2.31607 10.9413 2.87868 10.3787C3.44129 9.81608 4.20435 9.50001 5 9.50001ZM11 6.50001H9.35C9.15143 6.50181 8.95789 6.56269 8.79404 6.67488C8.6302 6.78708 8.50347 6.94552 8.43 7.13001L7.48 9.50001H11V6.50001ZM16.34 7.30001C16.2932 7.07074 16.1676 6.86511 15.9849 6.71894C15.8021 6.57277 15.5739 6.49529 15.34 6.50001H13V9.50001H16.78L16.34 7.30001ZM17 17.5C17.1978 17.5 17.3911 17.4414 17.5556 17.3315C17.72 17.2216 17.8482 17.0654 17.9239 16.8827C17.9996 16.7 18.0194 16.4989 17.9808 16.3049C17.9422 16.1109 17.847 15.9328 17.7071 15.7929C17.5673 15.6531 17.3891 15.5578 17.1951 15.5192C17.0011 15.4806 16.8 15.5004 16.6173 15.5761C16.4346 15.6518 16.2784 15.78 16.1685 15.9444C16.0586 16.1089 16 16.3022 16 16.5C16 16.7652 16.1054 17.0196 16.2929 17.2071C16.4804 17.3947 16.7348 17.5 17 17.5ZM7 17.5C7.19778 17.5 7.39112 17.4414 7.55557 17.3315C7.72002 17.2216 7.84819 17.0654 7.92388 16.8827C7.99957 16.7 8.01937 16.4989 7.98079 16.3049C7.9422 16.1109 7.84696 15.9328 7.70711 15.7929C7.56726 15.6531 7.38907 15.5578 7.19509 15.5192C7.00111 15.4806 6.80004 15.5004 6.61732 15.5761C6.43459 15.6518 6.27841 15.78 6.16853 15.9444C6.05865 16.1089 6 16.3022 6 16.5C6 16.7652 6.10536 17.0196 6.29289 17.2071C6.48043 17.3947 6.73478 17.5 7 17.5ZM4 14.5H4.78C5.06118 14.1907 5.40391 13.9435 5.78622 13.7743C6.16852 13.6052 6.58195 13.5178 7 13.5178C7.41805 13.5178 7.83148 13.6052 8.21378 13.7743C8.59609 13.9435 8.93882 14.1907 9.22 14.5H14.78C15.0612 14.1907 15.4039 13.9435 15.7862 13.7743C16.1685 13.6052 16.582 13.5178 17 13.5178C17.418 13.5178 17.8315 13.6052 18.2138 13.7743C18.5961 13.9435 18.9388 14.1907 19.22 14.5H20V12.5C20 12.2348 19.8946 11.9804 19.7071 11.7929C19.5196 11.6054 19.2652 11.5 19 11.5H5C4.73478 11.5 4.48043 11.6054 4.29289 11.7929C4.10536 11.9804 4 12.2348 4 12.5V14.5Z" fill="#F2F2F2"/>
</svg>
