<svg width="24" height="24" viewBox="0 0 24 24" fill="none" xmlns="http://www.w3.org/2000/svg">
<path d="M18.7085 7.2101C18.6155 7.11638 18.5049 7.04198 18.3831 6.99121C18.2612 6.94044 18.1305 6.91431 17.9985 6.91431C17.8665 6.91431 17.7358 6.94044 17.6139 6.99121C17.492 7.04198 17.3814 7.11638 17.2885 7.2101L9.83849 14.6701L6.70849 11.5301C6.61196 11.4369 6.49802 11.3636 6.37317 11.3143C6.24831 11.2651 6.11499 11.241 5.98081 11.2433C5.84663 11.2457 5.71422 11.2744 5.59114 11.3279C5.46806 11.3814 5.35672 11.4586 5.26348 11.5551C5.17025 11.6516 5.09693 11.7656 5.04773 11.8904C4.99852 12.0153 4.97439 12.1486 4.97672 12.2828C4.97904 12.417 5.00776 12.5494 5.06126 12.6725C5.11475 12.7955 5.19196 12.9069 5.28848 13.0001L9.12849 16.8401C9.22145 16.9338 9.33205 17.0082 9.45391 17.059C9.57577 17.1098 9.70647 17.1359 9.83849 17.1359C9.9705 17.1359 10.1012 17.1098 10.2231 17.059C10.3449 17.0082 10.4555 16.9338 10.5485 16.8401L18.7085 8.68011C18.81 8.58646 18.891 8.47281 18.9464 8.34631C19.0018 8.21981 19.0304 8.08321 19.0304 7.94511C19.0304 7.807 19.0018 7.6704 18.9464 7.5439C18.891 7.4174 18.81 7.30375 18.7085 7.2101Z" fill="#27AE60"/>
</svg>
