<svg width="21" height="20" viewBox="0 0 21 20" fill="none" xmlns="http://www.w3.org/2000/svg">
<path d="M3.23505 12.2646L3.5886 11.9111L3.23505 12.2646C3.29756 12.3271 3.33268 12.4119 3.33268 12.5003L3.33268 15.8337C3.33268 16.1873 3.47316 16.5264 3.72321 16.7765C3.97326 17.0265 4.31239 17.167 4.66602 17.167H16.3327C16.6863 17.167 17.0254 17.0265 17.2755 16.7765C17.5255 16.5264 17.666 16.1873 17.666 15.8337V12.5003C17.666 12.4119 17.7011 12.3271 17.7636 12.2646C17.8262 12.2021 17.9109 12.167 17.9993 12.167C18.0878 12.167 18.1725 12.2021 18.2351 12.2646C18.2976 12.3271 18.3327 12.4119 18.3327 12.5003V15.8337C18.3327 16.3641 18.122 16.8728 17.7469 17.2479C17.3718 17.6229 16.8631 17.8337 16.3327 17.8337H4.66602C4.13558 17.8337 3.62687 17.6229 3.2518 17.2479C2.87673 16.8728 2.66602 16.3641 2.66602 15.8337L2.66602 12.5003C2.66602 12.4119 2.70113 12.3271 2.76365 12.2646C2.82616 12.2021 2.91094 12.167 2.99935 12.167C3.08775 12.167 3.17254 12.2021 3.23505 12.2646ZM10.3848 12.8097L10.3742 12.805L10.3634 12.8008C10.3238 12.7855 10.2875 12.7627 10.2565 12.7337L6.9279 9.40511C6.89663 9.37384 6.87183 9.33672 6.85491 9.29586C6.83798 9.255 6.82927 9.21121 6.82927 9.16699C6.82927 9.12277 6.83798 9.07898 6.85491 9.03813L6.39297 8.84678L6.85491 9.03813C6.87183 8.99727 6.89663 8.96015 6.9279 8.92888C6.95917 8.89761 6.9963 8.8728 7.03715 8.85588C7.078 8.83896 7.12179 8.83025 7.16602 8.83025C7.21024 8.83025 7.25403 8.83896 7.29488 8.85588C7.33559 8.87274 7.37259 8.89743 7.4038 8.92855C7.40391 8.92866 7.40402 8.92877 7.40413 8.92888L9.31169 10.8448L10.166 11.7028V10.492L10.166 2.50033C10.166 2.41192 10.2011 2.32714 10.2636 2.26462C10.3262 2.20211 10.4109 2.16699 10.4993 2.16699C10.5878 2.16699 10.6725 2.20211 10.7351 2.26462C10.7976 2.32714 10.8327 2.41192 10.8327 2.50033L10.8327 10.492V11.7028L11.687 10.8448L13.5946 8.92888C13.5947 8.92879 13.5947 8.9287 13.5948 8.92861C13.658 8.86563 13.7435 8.83025 13.8327 8.83025C13.922 8.83025 14.0076 8.86573 14.0708 8.92888C14.1339 8.99203 14.1694 9.07768 14.1694 9.16699C14.1694 9.2563 14.1339 9.34195 14.0708 9.40511L10.7422 12.7337C10.7111 12.7627 10.6749 12.7855 10.6353 12.8008L10.6245 12.805L10.6139 12.8097C10.5778 12.8256 10.5388 12.8339 10.4993 12.8339C10.4599 12.8339 10.4209 12.8256 10.3848 12.8097Z" fill="white" stroke="white"/>
</svg>
