<svg width="24" height="24" viewBox="0 0 24 24" fill="none" xmlns="http://www.w3.org/2000/svg">
<path d="M8.14412 6.30698C8.57812 6.07498 9.04511 6.00098 9.50011 6.00098C10.0261 6.00098 10.6381 6.17398 11.1321 6.57798C11.6491 7.00198 12.0001 7.65198 12.0001 8.49998C12.0001 9.47498 11.3111 10.004 10.9231 10.302L10.8381 10.368C10.4141 10.701 10.2501 10.879 10.2501 11.25C10.2501 11.4489 10.1711 11.6397 10.0304 11.7803C9.88979 11.921 9.69903 12 9.50011 12C9.3012 12 9.11044 11.921 8.96979 11.7803C8.82913 11.6397 8.75012 11.4489 8.75012 11.25C8.75012 10.116 9.46111 9.54198 9.91211 9.18798C10.4251 8.78498 10.5001 8.69498 10.5001 8.49998C10.5001 8.10298 10.3511 7.87798 10.1801 7.73898C9.98616 7.58622 9.74699 7.50216 9.50011 7.49998C9.20512 7.49998 9.00212 7.54898 8.85012 7.62998C8.70712 7.70598 8.55612 7.83998 8.41012 8.10998C8.36317 8.19665 8.29961 8.27323 8.22307 8.33533C8.14652 8.39744 8.0585 8.44387 7.96401 8.47196C7.86953 8.50005 7.77044 8.50925 7.6724 8.49905C7.57436 8.48884 7.47929 8.45942 7.39262 8.41248C7.30594 8.36553 7.22937 8.30197 7.16726 8.22543C7.10515 8.14889 7.05872 8.06086 7.03063 7.96638C7.00254 7.87189 6.99334 7.7728 7.00355 7.67476C7.01375 7.57672 7.04317 7.48165 7.09012 7.39498C7.35412 6.90898 7.70212 6.54198 8.14412 6.30598V6.30698Z" fill="white" fill-opacity="0.5"/>
<path d="M9.5 15C9.76522 15 10.0196 14.8946 10.2071 14.7071C10.3946 14.5196 10.5 14.2652 10.5 14C10.5 13.7348 10.3946 13.4804 10.2071 13.2929C10.0196 13.1054 9.76522 13 9.5 13C9.23478 13 8.98043 13.1054 8.79289 13.2929C8.60536 13.4804 8.5 13.7348 8.5 14C8.5 14.2652 8.60536 14.5196 8.79289 14.7071C8.98043 14.8946 9.23478 15 9.5 15Z" fill="white" fill-opacity="0.5"/>
<path d="M9.50019 3C8.23869 2.99979 6.99752 3.31778 5.89153 3.92454C4.78553 4.5313 3.85046 5.40724 3.17283 6.47129C2.4952 7.53533 2.09691 8.75312 2.01482 10.0119C1.93273 11.2708 2.16949 12.53 2.70319 13.673L1.97819 16.515C1.92497 16.7238 1.92662 16.9427 1.98296 17.1507C2.0393 17.3586 2.14843 17.5484 2.29975 17.7018C2.45108 17.8551 2.63947 17.9668 2.84664 18.0258C3.05381 18.0849 3.27274 18.0895 3.48219 18.039C4.23219 17.859 5.38519 17.582 6.41219 17.337C7.43187 17.7968 8.54148 18.0227 9.65977 17.9982C10.7781 17.9737 11.8767 17.6993 12.8752 17.1952C13.8738 16.6911 14.7469 15.9701 15.4307 15.0848C16.1145 14.1996 16.5916 13.1727 16.8271 12.0792C17.0627 10.9857 17.0506 9.85338 16.7919 8.76516C16.5331 7.67694 16.0343 6.66037 15.3318 5.7899C14.6293 4.91943 13.741 4.21712 12.732 3.73439C11.723 3.25165 10.6187 3.00073 9.50019 3ZM3.50019 10.5C3.50058 9.1953 3.92624 7.92628 4.71267 6.88523C5.49909 5.84419 6.60343 5.08785 7.85833 4.73083C9.11323 4.37381 10.4503 4.43556 11.667 4.90672C12.8836 5.37789 13.9135 6.23279 14.6007 7.34189C15.2878 8.45099 15.5947 9.75384 15.4748 11.053C15.355 12.3522 14.8149 13.5769 13.9364 14.5416C13.058 15.5062 11.889 16.1583 10.6067 16.3989C9.32439 16.6395 7.99859 16.4556 6.83019 15.875L6.58719 15.754L6.32219 15.817L3.53419 16.484C3.73419 15.704 3.99619 14.672 4.22419 13.776L4.29419 13.5L4.16419 13.247C3.72622 12.3977 3.49851 11.4556 3.50019 10.5Z" fill="white" fill-opacity="0.5"/>
<path d="M14.5004 21.0001C12.5304 21.0001 10.7394 20.2411 9.40039 19.0001H9.50039C10.2184 19.0001 10.9154 18.9111 11.5814 18.7431C12.4454 19.2251 13.4414 19.5001 14.5014 19.5001C15.4614 19.5001 16.3674 19.2751 17.1704 18.8751L17.4134 18.7541L17.6784 18.8171C18.5994 19.0371 19.6434 19.2621 20.4184 19.4271C20.2424 18.6761 20.0034 17.6711 19.7764 16.7761L19.7064 16.5001L19.8364 16.2471C20.2744 15.3978 20.5021 14.4557 20.5004 13.5001C20.5009 12.497 20.2497 11.5098 19.7698 10.6289C19.2898 9.74799 18.5965 9.00162 17.7534 8.45813C17.5771 7.74386 17.3081 7.0557 16.9534 6.41113C17.9461 6.75489 18.8556 7.30328 19.6229 8.02082C20.3903 8.73837 20.9984 9.60905 21.4079 10.5765C21.8174 11.544 22.0192 12.5867 22.0001 13.6371C21.9811 14.6875 21.7417 15.7221 21.2974 16.6741C21.5504 17.6821 21.8074 18.7741 21.9694 19.4771C22.0169 19.6809 22.0123 19.8934 21.956 20.0949C21.8996 20.2964 21.7934 20.4804 21.647 20.63C21.5007 20.7795 21.319 20.8897 21.1187 20.9504C20.9185 21.0111 20.7061 21.0203 20.5014 20.9771C19.7744 20.8251 18.6314 20.5811 17.5884 20.3371C16.618 20.7755 15.5652 21.0016 14.5004 21.0001Z" fill="white" fill-opacity="0.5"/>
</svg>
