<svg width="20" height="20" viewBox="0 0 20 20" fill="none" xmlns="http://www.w3.org/2000/svg">
<path d="M9.16699 15.5913L8.94339 15.7031L9.16699 16.1503H9.66699V15.9003L10.8337 15.317L9.16699 15.5913ZM9.16699 15.5913V11.667V15.5913ZM2.16699 5.14217V5.14199V4.16699C2.16699 3.63656 2.37771 3.12785 2.75278 2.75278C3.12785 2.37771 3.63656 2.16699 4.16699 2.16699H15.8337C16.3641 2.16699 16.8728 2.37771 17.2479 2.75278C17.6229 3.12785 17.8337 3.63656 17.8337 4.16699V5.1341C17.8245 5.40886 17.7587 5.6788 17.6405 5.92705L17.592 6.02904V6.0802C17.5033 6.25537 17.3872 6.41544 17.2477 6.5542L17.2468 6.55511L12.1468 11.6551L12.0003 11.8016V12.0087V15.8326C12 15.894 11.9828 15.9541 11.9506 16.0064C11.9183 16.0586 11.8722 16.1009 11.8175 16.1286C11.8173 16.1286 11.8172 16.1287 11.817 16.1288L8.48505 17.7948L8.48504 17.7948L8.48066 17.797C8.4344 17.8207 8.38323 17.8333 8.33126 17.8337C8.26945 17.8337 8.20885 17.8166 8.15623 17.7842C8.10853 17.7542 8.06921 17.7126 8.04195 17.6633C8.01454 17.6137 8.00021 17.558 8.00033 17.5013V17.5003V12.0087V11.8006L7.85273 11.654L2.71964 6.5542C2.7196 6.55416 2.71956 6.55412 2.71952 6.55408C2.58009 6.41534 2.46395 6.25532 2.37533 6.0802V6.03773L2.33366 5.94217C2.22364 5.68981 2.1669 5.41746 2.16699 5.14217ZM7.50033 12.0087V17.5003V12.0087ZM11.3337 11.667L11.3337 11.6641C11.3334 11.6202 11.3418 11.5767 11.3584 11.5361C11.3749 11.4958 11.3991 11.4591 11.4296 11.4281C11.4299 11.4279 11.4301 11.4277 11.4303 11.4274L15.8452 7.02088L16.7007 6.16699H15.492H4.50866H3.29994L4.15544 7.02088L8.57033 11.4274C8.57057 11.4277 8.5708 11.4279 8.57103 11.4281C8.60159 11.4591 8.62579 11.4958 8.64226 11.5361C8.65885 11.5767 8.66725 11.6202 8.667 11.6641H8.66699V11.667V16.1503V16.9593L9.3906 16.5975L11.0573 15.7642L11.3337 15.626V15.317L11.3337 11.667ZM16.667 5.50033H17.167V5.00033V4.16699C17.167 3.81337 17.0265 3.47423 16.7765 3.22418C16.5264 2.97413 16.1873 2.83366 15.8337 2.83366H4.16699C3.81337 2.83366 3.47423 2.97414 3.22418 3.22418C2.97414 3.47423 2.83366 3.81337 2.83366 4.16699V5.00033V5.50033H3.33366H16.667Z" fill="white" stroke="white"/>
</svg>
