<svg width="24" height="24" viewBox="0 0 24 24" fill="none" xmlns="http://www.w3.org/2000/svg">
<path fill-rule="evenodd" clip-rule="evenodd" d="M9.80245 7.11851C9.80245 11.0441 12.9866 14.237 16.9013 14.237C20.816 14.237 24.0001 11.0441 24.0001 7.11851C24.0001 3.19295 20.816 0 16.9013 0C12.9866 0 9.80245 3.19295 9.80245 7.11851ZM10.5604 7.11851C10.5604 3.61215 13.4046 0.760039 16.9013 0.760039C20.3979 0.760039 23.2421 3.61215 23.2421 7.11851C23.2421 10.6249 20.3979 13.477 16.9013 13.477C13.4046 13.477 10.5604 10.6249 10.5604 7.11851ZM0 13.9392C0 19.4867 4.50073 23.9999 10.0329 23.9999C15.0923 23.9999 19.3742 20.2037 19.9876 15.1772C20.015 14.9696 19.8665 14.7815 19.6595 14.7541C19.4524 14.7267 19.2649 14.8756 19.2375 15.0832C19.2223 15.2083 19.2046 15.3325 19.1845 15.4559L18.6008 14.9383C18.4992 14.8482 18.339 14.856 18.2452 14.9618C18.1554 15.0637 18.1632 15.2243 18.2687 15.3183L19.0722 16.0308C18.925 16.6756 18.7114 17.2934 18.4393 17.8771L18.0109 17.2145C17.9367 17.0969 17.7804 17.0656 17.6632 17.14C17.546 17.2145 17.5148 17.3712 17.589 17.4887L18.1765 18.3974C17.8421 19.0105 17.4411 19.5806 16.9837 20.0984L16.7604 19.3418C16.7213 19.2047 16.5806 19.1303 16.4478 19.1695C16.3111 19.2086 16.2368 19.3497 16.2759 19.4829L16.5833 20.524C16.123 20.9838 15.6151 21.3948 15.0685 21.7494L15.0569 20.9519C15.053 20.8109 14.9358 20.6973 14.7991 20.7012C14.6584 20.7012 14.5451 20.8148 14.549 20.9559L14.5649 22.054C13.9148 22.4195 13.2175 22.7086 12.4858 22.9098L12.7169 22.135C12.7599 22.0018 12.6817 21.8608 12.5489 21.8216C12.4161 21.7785 12.2754 21.8569 12.2364 21.9901L11.9214 23.046C11.3103 23.1732 10.6785 23.2399 10.0329 23.2399L9.97724 23.2397L10.408 22.5543C10.4822 22.4367 10.4471 22.28 10.3299 22.2056C10.2127 22.1311 10.0564 22.1664 9.98215 22.2839L9.39509 23.2181C8.62376 23.1654 7.87802 23.0176 7.16945 22.7864L7.79043 22.2604C7.89983 22.1703 7.91155 22.0097 7.82169 21.9039C7.73183 21.7942 7.57165 21.7824 7.46616 21.8726L6.62136 22.5881C5.91938 22.3087 5.25922 21.9457 4.65313 21.5115L5.39557 21.1987C5.5245 21.1439 5.58701 20.995 5.53231 20.8657C5.47762 20.7365 5.32916 20.6738 5.20023 20.7286L4.18491 21.1531C3.68091 20.7415 3.22069 20.2779 2.81245 19.7706L3.60593 19.6709C3.74267 19.6552 3.84034 19.5259 3.82471 19.3888C3.80908 19.2517 3.68016 19.1537 3.54342 19.1694L2.46137 19.3054C2.09094 18.7814 1.77318 18.2175 1.51591 17.6214L2.30494 17.7393C2.32057 17.7433 2.33229 17.7433 2.34401 17.7433C2.46512 17.7433 2.57452 17.6532 2.59405 17.5239C2.61358 17.3867 2.51591 17.2575 2.37917 17.2379L1.30116 17.0771C1.08407 16.4716 0.927962 15.8371 0.840294 15.1812L1.56671 15.5062C1.59797 15.5219 1.63313 15.5297 1.66829 15.5297C1.76206 15.5297 1.85582 15.4749 1.8988 15.3808C1.95349 15.2555 1.8988 15.1066 1.76987 15.0478L0.781492 14.6056C0.765877 14.3855 0.757936 14.1633 0.757936 13.9392C0.757936 13.4079 0.802749 12.8818 0.890553 12.3658L1.47667 12.8854C1.52356 12.9285 1.58607 12.9481 1.64467 12.9481C1.71499 12.9481 1.78141 12.9207 1.8322 12.8619C1.92206 12.7601 1.91425 12.5994 1.80876 12.5054L1.00637 11.794C1.15567 11.1598 1.37096 10.5442 1.64868 9.95647L2.07062 10.6091C2.11751 10.6875 2.19955 10.7267 2.2816 10.7267C2.32848 10.7267 2.37536 10.711 2.41834 10.6836C2.53554 10.6091 2.5668 10.4524 2.49257 10.3349L1.91338 9.43901C2.24389 8.84 2.64215 8.27496 3.10402 7.75485L3.32096 8.48959C3.35221 8.59929 3.45379 8.6698 3.56319 8.6698C3.58663 8.6698 3.61007 8.66589 3.63351 8.66197C3.77025 8.62279 3.84448 8.48175 3.80541 8.34855L3.50485 7.33057C3.9677 6.87005 4.47345 6.46287 5.01323 6.11352L5.02429 6.88334C5.0282 7.02438 5.1415 7.14583 5.27824 7.14583C5.4228 7.0949 5.5361 7.02046 5.53219 6.87551L5.51692 5.80983C6.16844 5.44478 6.8624 5.15995 7.58483 4.96239L7.36828 5.6884C7.32531 5.8216 7.40345 5.96264 7.53628 6.00181C7.55972 6.00965 7.58316 6.01357 7.6066 6.01357C7.716 6.01357 7.81367 5.94305 7.84883 5.83335L8.14895 4.82713C8.50468 4.75364 8.86621 4.70095 9.23197 4.66987C9.43904 4.65028 9.59531 4.46615 9.57578 4.25851C9.55624 4.05087 9.37262 3.89808 9.16556 3.91375C6.67296 4.12922 4.36009 5.26537 2.65668 7.11845C0.945467 8.98329 0 11.4044 0 13.9392ZM10.3884 13.4692C10.4314 13.4966 10.4783 13.5083 10.5252 13.5083C10.572 13.5083 10.6228 13.4927 10.6658 13.4731L11.4472 12.9481C11.5644 12.8698 11.5956 12.713 11.5175 12.5955C11.4394 12.478 11.2831 12.4466 11.1659 12.525L10.8729 12.7209L10.9901 12.0314C11.0135 11.8903 10.9198 11.761 10.783 11.7375C10.6424 11.714 10.5134 11.8081 10.49 11.9452L10.2751 13.2145C10.2595 13.3125 10.3025 13.4143 10.3884 13.4692ZM13.5219 16.5092C13.4672 16.5092 13.4125 16.4935 13.3656 16.4543L10.7324 14.3975C10.6582 14.3388 10.6191 14.2408 10.6386 14.1468C10.6582 14.0528 10.7285 13.9783 10.8223 13.9509L12.4944 13.4965C12.6272 13.4612 12.7679 13.5395 12.803 13.6767C12.8382 13.8099 12.7601 13.9509 12.6233 13.9862L11.4395 14.3074L13.6743 16.0508C13.7837 16.137 13.8032 16.2976 13.7173 16.4073C13.6743 16.4778 13.6001 16.5092 13.5219 16.5092ZM7.91147 17.8255C7.95445 17.8569 8.00524 17.8726 8.05603 17.8726C8.13807 17.8726 8.21621 17.8334 8.26309 17.7629L10.0407 15.2007L11.8105 17.755C11.8887 17.8686 12.0489 17.8961 12.1622 17.8177C12.2755 17.7393 12.3028 17.5787 12.2247 17.4651L10.2478 14.6091C10.2009 14.5386 10.1228 14.4994 10.0407 14.4994C9.95868 14.4994 9.88054 14.5425 9.83366 14.6091L7.84896 17.4729C7.76692 17.5866 7.79817 17.7472 7.91147 17.8255ZM6.544 16.5172C6.46977 16.5172 6.39553 16.4819 6.34474 16.4192C6.25879 16.3095 6.27833 16.1489 6.38772 16.0627L8.63809 14.3076L5.78215 13.5318C5.64932 13.4966 5.56727 13.3555 5.60244 13.2223C5.6376 13.0891 5.77825 13.0069 5.91108 13.0421L9.25537 13.951C9.34914 13.9745 9.41946 14.0529 9.439 14.1469C9.45853 14.241 9.42337 14.3389 9.34523 14.3977L6.69246 16.4662C6.65339 16.5015 6.59869 16.5172 6.544 16.5172ZM9.40376 13.4416C9.44674 13.469 9.49362 13.4847 9.54441 13.4847C9.59129 13.4847 9.63817 13.469 9.68115 13.4455C9.7671 13.3907 9.81008 13.2888 9.79445 13.1909L9.20842 9.74328C9.18497 9.60616 9.05214 9.51213 8.9154 9.53564C8.77866 9.55914 8.68489 9.69234 8.70833 9.82946L9.1967 12.6933L6.82131 11.0949C6.7041 11.0165 6.54783 11.0479 6.46969 11.1654C6.39155 11.2829 6.42281 11.4397 6.54001 11.518L9.40376 13.4416ZM10.0328 19.8902C6.75884 19.8902 4.09825 17.2222 4.09825 13.9392C4.09825 12.5758 4.54364 11.2947 5.39143 10.233C6.21188 9.20263 7.36441 8.46218 8.63415 8.1566C8.77089 8.12526 8.90763 8.20753 8.93889 8.34465C8.97014 8.48177 8.8881 8.61889 8.75136 8.65023C7.5871 8.93231 6.53615 9.60616 5.78603 10.5503C5.01247 11.5219 4.60615 12.6972 4.60615 13.9431C4.60615 16.9441 7.04014 19.3887 10.0367 19.3887C11.2869 19.3887 12.5098 18.9499 13.4748 18.1586C14.4281 17.375 15.0922 16.282 15.3462 15.0792C15.3735 14.9421 15.5103 14.8559 15.647 14.8833C15.7837 14.9108 15.8697 15.0479 15.8424 15.185C15.565 16.4974 14.8383 17.6923 13.7951 18.5503C12.7325 19.4122 11.4002 19.8902 10.0328 19.8902ZM17.1589 8.7926V9.10561L17.882 9.56323C17.9992 9.63767 18.0344 9.79438 17.9601 9.91191C17.9094 9.99418 17.8273 10.0373 17.7453 10.0373C17.6984 10.0373 17.6515 10.0255 17.6124 9.9981L17.1589 9.71087V10.1861C17.1589 10.1895 17.1588 10.1929 17.1587 10.1962L17.4989 10.6406C17.5849 10.7503 17.5614 10.911 17.452 10.9972C17.3427 11.0833 17.1825 11.0598 17.0965 10.9501L16.8777 10.6642L16.6707 10.9462C16.6238 11.0128 16.5457 11.0481 16.4675 11.0481C16.4167 11.0481 16.362 11.0324 16.3191 10.9972C16.2058 10.9149 16.1823 10.7543 16.2644 10.6446L16.651 10.1152V9.67242L16.163 9.99418C16.0458 10.0725 15.8895 10.0373 15.8114 9.91974C15.7332 9.80221 15.7684 9.6455 15.8856 9.56715L16.651 9.06255V8.80987L15.5815 8.1253L15.4281 8.22334L15.4051 8.99898C15.4051 9.13218 15.2918 9.24188 15.155 9.24188H15.1472C15.0066 9.23796 14.8972 9.12043 14.9011 8.98331L14.9125 8.55291L14.3675 8.90125L14.1977 9.41821C14.1587 9.52008 14.061 9.5906 13.9555 9.5906C13.9281 9.5906 13.9008 9.58668 13.8774 9.57884C13.7445 9.53575 13.6742 9.39079 13.7172 9.25759L13.8266 8.92458L13.4671 8.91283C13.3265 8.90891 13.2171 8.79138 13.2249 8.65034C13.2288 8.5093 13.346 8.3996 13.4867 8.40744L14.1665 8.43042L14.6152 8.14359L14.2017 8.00388C14.0689 7.96079 13.9986 7.81583 14.0455 7.68263C14.0884 7.54942 14.233 7.4789 14.3658 7.52592L15.1582 7.79654L15.3541 7.67129V6.32681L15.1164 6.17253L14.3656 6.42896C14.3382 6.44072 14.3109 6.44464 14.2875 6.44464C14.182 6.44464 14.0843 6.37803 14.0491 6.27226C14.0062 6.13905 14.0765 5.9941 14.2054 5.951L14.58 5.82444L14.1811 5.56557L13.5571 5.58667H13.5493C13.4125 5.58667 13.3031 5.48089 13.2953 5.34377C13.2914 5.20273 13.4008 5.0852 13.5375 5.08128L13.897 5.06953L13.7876 4.73652C13.7446 4.60332 13.8149 4.46228 13.9478 4.41527C14.0806 4.37217 14.2212 4.44269 14.2681 4.57589L14.4541 5.14217L14.9172 5.44272L14.9047 4.97157C14.9008 4.83053 15.0102 4.71692 15.1509 4.713C15.2876 4.70908 15.4048 4.81878 15.4087 4.95982L15.4296 5.7752L15.6079 5.89094L16.651 5.22329V4.99134L15.8894 4.50931C15.7722 4.43488 15.737 4.27817 15.8112 4.16064C15.8855 4.0431 16.0417 4.00784 16.1589 4.08228L16.651 4.39393V3.89644L16.2685 3.39668C16.1825 3.28698 16.206 3.12635 16.3153 3.04016C16.4247 2.95397 16.5849 2.97748 16.6709 3.08718L16.8897 3.37317L17.0967 3.09109C17.1788 2.97748 17.3389 2.95397 17.4483 3.03625C17.5616 3.11852 17.5851 3.27914 17.503 3.38884L17.1589 3.86V4.38253L17.6084 4.0862C17.7256 4.00784 17.8819 4.0431 17.96 4.16064C18.0381 4.27817 18.003 4.43488 17.8858 4.51323L17.1589 4.9924V5.24057L18.1573 5.87958L18.4143 5.71531L18.4367 4.95982C18.4406 4.81878 18.5578 4.70908 18.6946 4.713C18.8352 4.71692 18.9446 4.83445 18.9407 4.97157L18.9297 5.38585L19.3587 5.11167L19.5346 4.57589C19.5776 4.44269 19.7222 4.37217 19.855 4.41527C19.9878 4.45836 20.0582 4.60332 20.0152 4.73652L19.9058 5.06953L20.2652 5.08128C20.4059 5.0852 20.5153 5.20273 20.5074 5.34377C20.4996 5.48089 20.3863 5.58667 20.2535 5.58667H20.2457L19.588 5.56444L19.2103 5.80581L19.64 5.951C19.7729 5.9941 19.8432 6.13905 19.7963 6.27226C19.7612 6.37803 19.6635 6.44464 19.558 6.44464C19.5306 6.44464 19.5033 6.44072 19.4759 6.43288L18.6635 6.15537L18.4288 6.30534V7.72154L18.6676 7.87648L19.4759 7.60039C19.6088 7.55729 19.7533 7.62781 19.7963 7.7571C19.8393 7.8903 19.769 8.03526 19.64 8.07835L19.2051 8.2253L19.5195 8.42935L20.1672 8.40745C20.3079 8.39962 20.4251 8.51323 20.429 8.65035C20.4329 8.79139 20.3235 8.90892 20.1868 8.91284L19.8273 8.92459L19.9367 9.2576C19.9797 9.3908 19.9094 9.53184 19.7765 9.57885C19.7453 9.58669 19.7179 9.59061 19.6945 9.59061C19.589 9.59061 19.4913 9.524 19.4562 9.41823L19.2769 8.8725L18.9298 8.64723L18.9407 9.05778C18.9446 9.19882 18.8352 9.31244 18.6946 9.31635C18.6946 9.32027 18.6907 9.32027 18.6907 9.32027C18.5539 9.32027 18.4406 9.21057 18.4367 9.07345L18.4141 8.31257L18.1632 8.14976L17.1589 8.7926ZM17.6869 6.18023L17.1589 5.84258V6.5177L17.6869 6.18023ZM17.3294 7.00807L17.9288 6.62498V7.39701L17.3294 7.00807ZM16.3979 7.00415L15.8581 6.65387V7.34916L16.3979 7.00415ZM16.0507 7.82537L16.651 7.44168V8.20926L16.0507 7.82537ZM17.1589 8.1945V7.49802L17.6995 7.84881L17.1589 8.1945ZM16.0767 6.19512L16.651 6.56784V5.82782L16.0767 6.19512Z" fill="white" fill-opacity="0.5"/>
</svg>
