<svg width="148" height="139" viewBox="0 0 148 139" fill="none" xmlns="http://www.w3.org/2000/svg">
<g clip-path="url(#clip0_1423_32347)">
<path fill-rule="evenodd" clip-rule="evenodd" d="M19.45 4.11365L18.8107 2.49765C18.0238 0.465417 15.7125 -0.513974 13.6716 0.269538C11.6307 1.07754 10.6472 3.35462 11.434 5.38685L12.0733 7.00285C12.573 8.25439 13.6323 9.11591 14.8491 9.4044C14.8752 9.62557 14.9326 9.84718 15.0239 10.0635L22.3445 27.1958L7.49015 33.48C6.49442 32.9378 5.27055 32.8241 4.131 33.2752L2.50814 33.9118C0.467269 34.6953 -0.540872 36.9969 0.270559 39.0291C1.0574 41.0614 3.36875 42.0653 5.40962 41.2573L7.03248 40.6207C8.31259 40.1292 9.1864 39.0405 9.45973 37.7957L24.2078 31.5564L30.8441 47.0871C29.3812 48.2617 28.2333 49.8563 27.6135 51.7613C26.8021 54.2833 27.0234 56.9766 28.2282 59.3516C29.4331 61.7266 31.5231 63.4895 34.0558 64.2975L58.4971 72.1571C59.4806 72.4754 60.5133 72.6468 61.5707 72.6468C62.6172 72.6468 63.3024 72.4549 64.0793 72.2373L64.1033 72.2306L76.9141 68.411V136.234C76.9141 137.556 77.9714 138.609 79.2992 138.609C80.627 138.609 81.6843 137.556 81.6843 136.234V65.2279C81.6843 64.4689 81.34 63.7589 80.7253 63.3181C80.1106 62.8774 79.3238 62.7305 78.6107 62.9509L62.7263 67.6764C62.1116 67.8723 61.9395 67.8968 61.5461 67.8968C61.0051 67.8968 60.4641 67.8233 59.9478 67.6519L35.5065 59.7923C34.1787 59.3516 33.0968 58.4457 32.4575 57.1969C31.8182 55.9727 31.7198 54.5526 32.1379 53.2304C33.023 50.4881 35.9737 48.9945 38.7277 49.876L60.9313 57.0256C61.3739 57.1725 61.8657 57.1969 62.3329 57.05L87.143 49.7781C87.2168 49.7536 87.2905 49.7291 87.3397 49.7046L89.5773 48.8476C95.7737 46.4971 102.659 46.4481 108.953 48.7497C109.568 48.9701 110.207 49.2884 110.896 49.7046C110.933 49.7168 110.963 49.7352 110.994 49.7536C111.025 49.7719 111.056 49.7903 111.092 49.8025C111.437 49.9739 111.756 50.1943 112.101 50.4636L141.263 73.969C143.353 75.6585 143.82 78.6456 142.32 80.8982L127.837 102.69C126.879 104.159 125.231 105.04 123.436 105.04C122.535 105.04 121.596 104.798 120.816 104.378C120.758 104.327 120.697 104.278 120.633 104.232C118.248 102.518 117.633 99.2374 119.231 96.7644L125.625 86.946C125.743 86.7627 125.833 86.5693 125.896 86.3708L129.51 80.9227C130.173 79.8943 129.977 78.5232 129.018 77.7641L120.264 70.7125C119.551 70.1494 118.567 70.027 117.731 70.4187C116.895 70.835 116.379 71.6674 116.379 72.5734V92.4188L115.223 94.1935C112.582 98.2475 113.163 103.46 116.379 106.837V136.307C116.379 137.629 117.436 138.682 118.764 138.682C120.067 138.682 121.149 137.605 121.125 136.258V109.496C121.887 109.668 122.649 109.766 123.436 109.766C126.829 109.766 129.977 108.076 131.821 105.285L146.304 83.4936C149.156 79.2087 148.271 73.5038 144.263 70.2718L115.1 46.7664C114.535 46.3012 113.92 45.9095 113.281 45.5912C112.371 45.0525 111.511 44.6118 110.625 44.2935C103.224 41.6001 95.159 41.6491 87.8807 44.4159L85.7169 45.2484L61.6936 52.2755L40.203 45.3463C38.5142 44.8016 36.7819 44.7329 35.1529 45.0647L28.5971 29.6994L44.9514 22.7806C45.9769 23.4103 47.2805 23.5673 48.4892 23.0888L50.1121 22.4522C52.1529 21.6442 53.1611 19.3671 52.3497 17.3349C51.5628 15.3027 49.2515 14.2988 47.2106 15.1068L45.5877 15.7434C44.3766 16.2083 43.5292 17.2079 43.2099 18.3684L26.7362 25.3378L19.4253 8.20261C19.3421 8.00932 19.2359 7.83192 19.1112 7.67245C19.7679 6.64605 19.9379 5.33559 19.45 4.11365ZM82.4709 22.0858C82.4709 31.3166 90.0197 38.8089 99.2651 38.8089C108.51 38.8089 116.059 31.3411 116.059 22.1103C116.059 12.8795 108.535 5.38721 99.2651 5.38721C89.9951 5.38721 82.4709 12.8551 82.4709 22.0858ZM87.2412 22.1103C87.2412 15.4994 92.6507 10.1372 99.2651 10.1372C105.879 10.1372 111.289 15.4994 111.289 22.1103C111.289 28.7212 105.904 34.0833 99.2651 34.0833C92.6261 34.0833 87.2412 28.7212 87.2412 22.1103ZM121.149 84.9137V77.5438L124.321 80.1147L121.149 84.9137Z" fill="white" fill-opacity="0.5"/>
<path d="M99.3631 138.682C98.0353 138.682 96.978 137.629 96.978 136.307V111.92C96.978 110.598 98.0353 109.545 99.3631 109.545C100.691 109.545 101.748 110.598 101.748 111.92V136.307C101.748 137.605 100.666 138.682 99.3631 138.682Z" fill="white" fill-opacity="0.5"/>
<path fill-rule="evenodd" clip-rule="evenodd" d="M18.714 103.081H18.0975C13.819 103.081 10.3274 99.6041 10.3274 95.3438V88.1942C10.3274 83.9339 13.819 80.457 18.0975 80.457H69.4143C70.7421 80.457 71.7994 81.5099 71.7994 82.8321C71.7994 84.1542 70.7421 85.2071 69.4143 85.2071H18.0975C16.45 85.2071 15.0976 86.5537 15.0976 88.1942V95.3438C15.0976 96.9842 16.45 98.3309 18.0975 98.3309H69.4143C70.4846 98.3309 71.3792 99.0151 71.6859 99.9729C71.7755 100.224 71.8242 100.496 71.8242 100.779C71.8242 102.101 70.7669 103.154 69.4391 103.154H26.4825C24.4416 103.154 22.7942 104.501 22.7942 106.141V113.291C22.7942 114.932 24.4416 116.278 26.4825 116.278H69.4391C70.7669 116.278 71.8242 117.331 71.8242 118.653C71.8242 118.863 71.797 119.066 71.7458 119.259C71.5152 120.333 70.5666 121.126 69.4144 121.126H15.7862C14.1387 121.126 12.7863 122.473 12.7863 124.113V131.263C12.7863 132.903 14.1387 134.25 15.7862 134.25H69.4144C70.7422 134.25 71.7995 135.303 71.7995 136.625C71.8241 137.923 70.7422 139 69.4389 139H15.7862C11.5077 139 8.01611 135.523 8.01611 131.263V124.113C8.01611 119.853 11.5077 116.376 15.7862 116.376H18.7256C18.2742 115.43 18.0239 114.386 18.0239 113.291V106.141C18.0239 105.056 18.27 104.02 18.714 103.081Z" fill="white" fill-opacity="0.5"/>
</g>
<defs>
<clipPath id="clip0_1423_32347">
<rect width="148" height="139" fill="white"/>
</clipPath>
</defs>
</svg>
