<svg width="24" height="29" viewBox="0 0 24 29" fill="none" xmlns="http://www.w3.org/2000/svg">
<path d="M15.5397 13.2543L9.87974 6.64671C9.78677 6.5371 9.67617 6.4501 9.55431 6.39072C9.43246 6.33135 9.30175 6.30078 9.16974 6.30078C9.03773 6.30078 8.90702 6.33135 8.78516 6.39072C8.6633 6.4501 8.5527 6.5371 8.45974 6.64671C8.27349 6.86583 8.16895 7.16224 8.16895 7.47121C8.16895 7.78017 8.27349 8.07658 8.45974 8.2957L13.4097 14.1432L8.45974 19.9321C8.27349 20.1513 8.16895 20.4477 8.16895 20.7566C8.16895 21.0656 8.27349 21.362 8.45974 21.5811C8.55235 21.6916 8.6628 21.7795 8.78467 21.8398C8.90655 21.9 9.03743 21.9313 9.16974 21.932C9.30204 21.9313 9.43293 21.9 9.5548 21.8398C9.67668 21.7795 9.78712 21.6916 9.87974 21.5811L15.5397 14.9735C15.6412 14.864 15.7223 14.7311 15.7777 14.5831C15.8331 14.4352 15.8617 14.2754 15.8617 14.1139C15.8617 13.9524 15.8331 13.7927 15.7777 13.6447C15.7223 13.4968 15.6412 13.3639 15.5397 13.2543Z" fill="white"/>
</svg>
