<svg width="24" height="24" viewBox="0 0 24 24" fill="none" xmlns="http://www.w3.org/2000/svg">
<path d="M12 15C13.6569 15 15 13.6569 15 12C15 10.3431 13.6569 9 12 9C10.3431 9 9 10.3431 9 12C9 13.6569 10.3431 15 12 15Z" fill="white" fill-opacity="0.5"/>
<path d="M23.0076 11.1844C21.7673 9.26625 20.1581 7.63688 18.3543 6.47203C16.3588 5.18203 14.1557 4.5 11.9835 4.5C9.99041 4.5 8.03056 5.06953 6.15838 6.19266C4.24916 7.33781 2.51947 9.01078 1.01713 11.1647C0.847525 11.4081 0.75412 11.6965 0.748778 11.9931C0.743436 12.2897 0.8264 12.5813 0.987126 12.8306C2.22509 14.768 3.81838 16.3997 5.594 17.5486C7.59322 18.8437 9.74478 19.5 11.9835 19.5C14.1731 19.5 16.3809 18.8236 18.3679 17.5444C20.1707 16.3833 21.7767 14.7478 23.0123 12.8137C23.1675 12.5702 23.2495 12.2872 23.2487 11.9984C23.2479 11.7096 23.1642 11.4271 23.0076 11.1844V11.1844ZM11.9995 16.5C11.1095 16.5 10.2394 16.2361 9.4994 15.7416C8.75938 15.2471 8.18261 14.5443 7.84201 13.7221C7.50142 12.8998 7.4123 11.995 7.58594 11.1221C7.75957 10.2492 8.18815 9.44736 8.81749 8.81802C9.44683 8.18868 10.2486 7.7601 11.1216 7.58647C11.9945 7.41283 12.8993 7.50195 13.7215 7.84254C14.5438 8.18314 15.2466 8.75991 15.7411 9.49993C16.2355 10.24 16.4995 11.11 16.4995 12C16.4981 13.1931 16.0236 14.3369 15.1799 15.1805C14.3363 16.0241 13.1925 16.4986 11.9995 16.5V16.5Z" fill="white" fill-opacity="0.5"/>
</svg>
