<svg width="24" height="29" viewBox="0 0 24 29" fill="none" xmlns="http://www.w3.org/2000/svg">
<path d="M11.2898 14.424L14.8298 10.284C15.0161 10.0649 15.1206 9.76845 15.1206 9.45949C15.1206 9.15052 15.0161 8.85411 14.8298 8.635C14.7369 8.52538 14.6263 8.43838 14.5044 8.379C14.3825 8.31963 14.2518 8.28906 14.1198 8.28906C13.9878 8.28906 13.8571 8.31963 13.7352 8.379C13.6134 8.43838 13.5028 8.52538 13.4098 8.635L9.16982 13.5936C9.07609 13.7024 9.0017 13.8317 8.95093 13.9742C8.90016 14.1167 8.87402 14.2696 8.87402 14.424C8.87402 14.5784 8.90016 14.7312 8.95093 14.8737C9.0017 15.0163 9.07609 15.1456 9.16982 15.2543L13.4098 20.2714C13.5033 20.3798 13.6141 20.4656 13.7359 20.5238C13.8578 20.582 13.9882 20.6115 14.1198 20.6106C14.2514 20.6115 14.3819 20.582 14.5037 20.5238C14.6256 20.4656 14.7364 20.3798 14.8298 20.2714C15.0161 20.0523 15.1206 19.7559 15.1206 19.4469C15.1206 19.138 15.0161 18.8416 14.8298 18.6225L11.2898 14.424Z" fill="white"/>
</svg>
