<svg width="24" height="24" viewBox="0 0 24 24" fill="none" xmlns="http://www.w3.org/2000/svg">
<path d="M1.86698 19.2721H5.60039V22.1816C5.60039 22.3231 5.65021 22.439 5.75045 22.5296C5.85041 22.6208 5.97821 22.6663 6.13388 22.6663H8.91708C9.06152 22.6663 9.18651 22.6208 9.29208 22.5296C9.39766 22.439 9.45028 22.3231 9.45028 22.1816V19.2721H17.867C18.0223 19.2721 18.1501 19.2271 18.2503 19.1359C18.3506 19.0448 18.4004 18.9289 18.4004 18.7873V16.8478C18.4004 16.7071 18.3506 16.5904 18.2503 16.4998C18.1504 16.4087 18.0223 16.3631 17.867 16.3631H9.45001V14.5751H15.1167C17.3388 14.5751 19.1524 13.9596 20.5584 12.7267C21.9638 11.4952 22.6668 9.90432 22.6668 7.95406C22.6668 6.0051 21.9638 4.4142 20.5584 3.18139C19.1527 1.94981 17.3388 1.33301 15.1167 1.33301H6.1336C5.97788 1.33301 5.85037 1.37855 5.75017 1.46917C5.65021 1.5603 5.60012 1.67697 5.60012 1.81774V11.3483H1.86698C1.71131 11.3483 1.58375 11.3962 1.48355 11.4921C1.38364 11.5881 1.3335 11.7017 1.3335 11.833V14.0903C1.3335 14.2319 1.38332 14.3478 1.48355 14.4389C1.58379 14.5301 1.71103 14.5751 1.86698 14.5751H5.60039V16.363H1.86698C1.71131 16.363 1.58375 16.4086 1.48355 16.4998C1.38364 16.5904 1.3335 16.7068 1.3335 16.8478V18.7873C1.3335 18.9288 1.38332 19.0448 1.48355 19.1359C1.58375 19.2271 1.71126 19.2721 1.86698 19.2721ZM9.45001 4.56061H14.7834C15.961 4.56061 16.9109 4.87363 17.6333 5.49988C18.3554 6.12617 18.7166 6.94462 18.7166 7.95431C18.7166 8.96451 18.3554 9.78321 17.6333 10.4087C16.9109 11.0355 15.961 11.3486 14.7834 11.3486H9.45001V4.56061Z" fill="white"/>
</svg>
