<svg width="44" height="31" viewBox="0 0 44 31" fill="none" xmlns="http://www.w3.org/2000/svg">
<g clip-path="url(#clip0_1423_29362)">
<path d="M15.0184 25.8573C10.9602 25.8573 7.77832 20.1543 7.77832 12.8712C7.77832 9.45945 8.4894 6.27039 9.77508 3.88577C11.1398 1.37905 13.0001 0 15.0184 0H21.0086C25.0668 0 28.2487 5.66705 28.2487 12.9071C28.2487 20.1471 25.0668 25.807 21.0086 25.807C20.4699 25.807 19.2273 25.8214 18.0207 25.8357C16.814 25.8501 15.5642 25.8573 15.0184 25.8573ZM15.0184 1.4006C13.5316 1.4006 12.1094 2.52108 11.0105 4.55375C9.83254 6.73726 9.17892 9.69648 9.17892 12.8784C9.17892 16.0674 9.83254 19.0482 11.0105 21.2604C12.1166 23.329 13.5387 24.4639 15.0184 24.4639C15.5571 24.4639 16.7996 24.4495 18.0063 24.4351C19.213 24.4208 20.4628 24.4064 21.0086 24.4064C22.4954 24.4064 23.9176 23.2787 25.0165 21.2389C26.1944 19.0482 26.8481 16.089 26.8481 12.8999C26.8481 9.71084 26.1944 6.75162 25.0165 4.56094C23.9176 2.52108 22.4954 1.39342 21.0086 1.39342H15.0184V1.4006Z" fill="white"/>
<path d="M16.8352 25.5341C14.9246 25.5341 13.1505 24.1694 11.8433 21.6986C10.5864 19.3139 9.88965 16.1608 9.88965 12.8065C9.88965 9.45226 10.5792 6.29911 11.8433 3.92168C13.1505 1.45087 14.9246 0.0861816 16.8352 0.0861816C17.0938 0.0861816 17.3021 0.294476 17.3021 0.553049C17.3021 0.811622 17.0938 1.01992 16.8352 1.01992C15.2838 1.01992 13.8042 2.20504 12.6693 4.35263C11.4842 6.60078 10.8234 9.6031 10.8234 12.8065C10.8234 16.01 11.477 19.0123 12.6693 21.2604C13.8042 23.4152 15.2909 24.6003 16.8352 24.6003C17.0938 24.6003 17.3021 24.8086 17.3021 25.0672C17.3021 25.3258 17.0866 25.5341 16.8352 25.5341Z" fill="white"/>
<path d="M21.1527 25.5341C17.6763 25.5341 14.9541 19.9388 14.9541 12.8065C14.9541 5.67423 17.6763 0.0861816 21.1527 0.0861816C21.4112 0.0861816 21.6195 0.294476 21.6195 0.553049C21.6195 0.811622 21.4112 1.01992 21.1527 1.01992C19.8311 1.01992 18.5095 2.22659 17.5183 4.33827C16.4624 6.5936 15.8807 9.59591 15.8807 12.8065C15.8807 19.199 18.294 24.6075 21.1455 24.6075C21.4041 24.6075 21.6123 24.8158 21.6123 25.0744C21.6195 25.3258 21.4112 25.5341 21.1527 25.5341Z" fill="white"/>
<path d="M18.7601 25.5341C15.2837 25.5341 12.5615 19.9388 12.5615 12.8065C12.5615 5.67423 15.2837 0.0861816 18.7601 0.0861816C19.0187 0.0861816 19.227 0.294476 19.227 0.553049C19.227 0.811622 19.0187 1.01992 18.7601 1.01992C17.4385 1.01992 16.1169 2.22659 15.1257 4.33827C14.0699 6.5936 13.4881 9.59591 13.4881 12.8065C13.4881 19.199 15.9014 24.6075 18.7529 24.6075C19.0115 24.6075 19.2198 24.8158 19.2198 25.0744C19.2198 25.3258 19.0115 25.5341 18.7601 25.5341Z" fill="white"/>
<path d="M22.0286 17.5541C21.5904 17.5541 20.9799 17.274 20.5274 15.9236C20.2257 15.033 20.0605 13.8551 20.0605 12.6053C20.0605 11.3555 20.2257 10.1776 20.5274 9.28694C20.9799 7.93661 21.5976 7.65649 22.0286 7.65649C22.4667 7.65649 23.0772 7.93661 23.5297 9.28694C23.8314 10.1776 23.9966 11.3555 23.9966 12.6053C23.9966 13.8551 23.8314 15.033 23.5297 15.9236C23.0844 17.274 22.4667 17.5541 22.0286 17.5541ZM22.0286 8.59023C21.7269 8.59023 20.9943 9.99801 20.9943 12.6053C20.9943 15.2126 21.7269 16.6203 22.0286 16.6203C22.3302 16.6203 23.0629 15.2126 23.0629 12.6053C23.0629 9.99801 22.3302 8.59023 22.0286 8.59023Z" fill="white"/>
<path d="M28.2203 31.0001C28.1916 31.0001 28.1628 31.0001 28.1341 30.9929L0.632036 28.1917C0.423742 28.1702 0.229812 28.0553 0.114891 27.8757C-3.03308e-05 27.6961 -0.0287606 27.4735 0.0430651 27.2724L6.50738 8.10924C7.03171 6.36388 8.02291 5.10693 9.45942 4.38149C9.80419 4.2091 10.228 4.34557 10.4003 4.69034C10.5727 5.0351 10.4363 5.45887 10.0915 5.63125C9.00692 6.17713 8.25275 7.14678 7.84334 8.51865C7.84334 8.52583 7.83616 8.53301 7.83616 8.5402L1.64478 26.8917L27.7175 29.5421L34.462 7.44845C35.1443 5.19312 37.1842 3.67041 39.5472 3.67041H42.9733C43.3612 3.67041 43.67 3.98644 43.67 4.36712V25.6275C43.67 25.9292 43.4689 26.2022 43.1816 26.2955L28.443 30.957C28.4071 30.9714 28.3783 30.9786 28.3424 30.9857C28.2993 30.9929 28.2562 31.0001 28.2203 31.0001ZM39.5472 5.07101C37.8091 5.07101 36.3079 6.19149 35.8051 7.85067L29.2833 29.226L42.2766 25.1176V5.07101H39.5472Z" fill="white"/>
<path d="M0.696358 28.1987C0.387507 28.1987 0.100204 27.9904 0.0211955 27.6744C-0.0793605 27.3009 0.143299 26.9202 0.523976 26.8197L12.3249 23.7312C12.6984 23.6306 13.0791 23.8533 13.1797 24.2339C13.2802 24.6074 13.0576 24.9881 12.6769 25.0887L0.875922 28.1772C0.818462 28.1915 0.761001 28.1987 0.696358 28.1987Z" fill="white"/>
<path d="M42.9731 26.3313C42.9587 26.3313 42.9444 26.3313 42.93 26.3313L23.4868 25.1031C23.0989 25.0815 22.8116 24.7439 22.8332 24.3632C22.8547 23.9754 23.1923 23.6881 23.573 23.7096L43.009 24.9379C43.3969 24.9594 43.6842 25.297 43.6626 25.6777C43.6411 26.044 43.3394 26.3313 42.9731 26.3313Z" fill="white"/>
</g>
<defs>
<clipPath id="clip0_1423_29362">
<rect width="43.6701" height="31" fill="white"/>
</clipPath>
</defs>
</svg>
