<svg width="31" height="31" viewBox="0 0 31 31" fill="none" xmlns="http://www.w3.org/2000/svg">
<g clip-path="url(#clip0_1423_29332)">
<path d="M15.39 31C13.084 31 10.9446 29.342 9.35884 26.3369C7.83222 23.4354 6.98828 19.5904 6.98828 15.5055C6.98828 13.6184 7.14417 11.9059 7.44519 10.417L7.95586 10.526L7.44519 10.417C8.09562 7.23733 9.2137 4.94669 9.26208 4.84852C10.864 1.71798 13.0356 0 15.39 0H22.6039C24.9099 0 27.0493 1.65799 28.6351 4.66309C30.1617 7.56457 31.0056 11.415 31.0056 15.5C31.0056 16.0836 30.9841 16.678 30.925 17.6325C30.8712 18.5487 30.6401 20.0649 30.6293 20.1304V20.1358C29.5435 26.6314 26.3183 31 22.6092 31H15.39ZM10.1974 5.32301C10.1544 5.41027 9.07932 7.63547 8.4719 10.6297C8.18162 12.0477 8.03649 13.6893 8.03649 15.5055C8.03649 19.4159 8.83205 23.0864 10.2834 25.8406C11.6756 28.4857 13.4925 29.9419 15.39 29.9419H22.6039C23.6736 29.9419 25.2808 29.4675 26.8719 27.2204C28.1459 25.4261 29.1135 22.8464 29.5919 19.9667C29.6026 19.8849 29.823 18.4124 29.8768 17.567C29.9305 16.6399 29.952 16.0618 29.952 15.5C29.952 11.5895 29.1565 7.91362 27.7051 5.16485C26.3129 2.5197 24.496 1.05806 22.5985 1.05806H15.39C13.4495 1.05806 11.6058 2.57424 10.1974 5.32301Z" fill="white"/>
<path d="M17.6687 30.8309C15.4325 30.8309 13.3415 29.211 11.7934 26.2659C10.2775 23.3917 9.44434 19.574 9.44434 15.5217C9.44434 15.3254 9.60022 15.1672 9.79374 15.1672C9.98725 15.1672 10.1431 15.3254 10.1431 15.5217C10.1431 19.4649 10.9495 23.1627 12.4062 25.9332C13.8307 28.6384 15.7013 30.1218 17.6687 30.1218C17.8622 30.1218 18.0181 30.28 18.0181 30.4763C18.0181 30.6727 17.8569 30.8309 17.6687 30.8309Z" fill="white"/>
<path d="M11.0627 7.72812C11.0251 7.72812 10.9875 7.72267 10.9499 7.70631C10.7671 7.64086 10.6703 7.43907 10.7348 7.25909C12.2453 2.85779 14.8363 0.229004 17.6691 0.229004C17.8626 0.229004 18.0185 0.387167 18.0185 0.583508C18.0185 0.779848 17.8626 0.938012 17.6691 0.938012C15.1481 0.938012 12.8044 3.38681 11.396 7.49361C11.3423 7.63541 11.2079 7.72812 11.0627 7.72812Z" fill="white"/>
<path d="M22.9155 30.8309C20.9105 30.8309 19.0506 29.2056 17.6745 26.2496C16.336 23.3808 15.5996 19.5686 15.5996 15.5218C15.5996 11.475 16.336 7.66813 17.6745 4.79938C19.0506 1.84881 20.9105 0.229004 22.9155 0.229004C23.1091 0.229004 23.2649 0.387167 23.2649 0.583508C23.2649 0.779848 23.1091 0.938012 22.9155 0.938012C21.1954 0.938012 19.5559 2.41602 18.3034 5.1048C17.008 7.88083 16.293 11.5786 16.293 15.5272C16.293 19.4758 17.008 23.179 18.3034 25.9551C19.5613 28.6493 21.1954 30.1328 22.9155 30.1328C23.1091 30.1328 23.2649 30.2909 23.2649 30.4873C23.2649 30.6836 23.1091 30.8309 22.9155 30.8309Z" fill="white"/>
<path d="M20.0073 30.8309C18.0023 30.8309 16.1424 29.2056 14.7663 26.2496C13.4278 23.3808 12.6914 19.5686 12.6914 15.5218C12.6914 11.475 13.4278 7.66813 14.7663 4.79938C16.1424 1.84881 18.0023 0.229004 20.0073 0.229004C20.2009 0.229004 20.3567 0.387167 20.3567 0.583508C20.3567 0.779848 20.2009 0.938012 20.0073 0.938012C18.2872 0.938012 16.6477 2.41602 15.3952 5.1048C14.0998 7.88083 13.3848 11.5786 13.3848 15.5272C13.3848 19.4758 14.0998 23.179 15.3952 25.9551C16.6531 28.6493 18.2872 30.1328 20.0073 30.1328C20.2009 30.1328 20.3567 30.2909 20.3567 30.4873C20.3567 30.6836 20.2009 30.8309 20.0073 30.8309Z" fill="white"/>
<path d="M23.9849 23.37C23.3398 23.37 22.426 22.9228 21.7164 20.8013C21.2273 19.3232 20.9531 17.3653 20.9531 15.2928C20.9531 13.2203 21.2219 11.2624 21.7164 9.78437C22.4206 7.65734 23.3398 7.21558 23.9849 7.21558C24.6299 7.21558 25.5437 7.6628 26.2533 9.78437C26.7424 11.2624 27.0166 13.2203 27.0166 15.2928C27.0166 17.3653 26.7478 19.3232 26.2533 20.8013C25.5491 22.9228 24.6299 23.37 23.9849 23.37ZM23.9849 8.26818C23.6785 8.26818 23.157 8.75358 22.7055 10.1171C22.2486 11.4914 21.996 13.324 21.996 15.2874C21.996 17.2508 22.2486 19.0833 22.7055 20.4577C23.157 21.8211 23.6785 22.3065 23.9849 22.3065C24.2913 22.3065 24.8127 21.8211 25.2642 20.4577C25.7211 19.0833 25.9738 17.2508 25.9738 15.2874C25.9738 13.324 25.7211 11.4914 25.2642 10.1171C24.8127 8.75358 24.2913 8.26818 23.9849 8.26818Z" fill="white"/>
<path d="M10.5949 15.6908C9.59511 15.6908 8.42864 15.6036 7.37506 15.2981C7.09554 15.2163 6.93428 14.9273 7.01491 14.6437C7.09554 14.3601 7.38044 14.1965 7.65996 14.2783C9.41772 14.78 11.5948 14.6219 12.514 14.5182C12.5301 12.2712 13.0945 9.55518 13.3848 8.29533C12.4011 8.3226 10.5788 8.30078 8.96081 7.88083C8.68129 7.80993 8.51465 7.52087 8.58453 7.23727C8.65441 6.95367 8.93931 6.7846 9.21883 6.8555C11.3529 7.41179 13.9868 7.21 14.0137 7.21C14.1803 7.19909 14.347 7.26454 14.4545 7.40089C14.562 7.53178 14.5996 7.71176 14.5566 7.87538C14.5459 7.91901 13.4654 12.1076 13.5568 14.9709C13.5675 15.2381 13.374 15.4672 13.116 15.5108C13.0407 15.5218 11.971 15.6908 10.5949 15.6908Z" fill="white"/>
<path d="M6.0902 7.41178C5.98807 7.41178 5.89131 7.36815 5.82143 7.28089L3.467 4.35214C3.34337 4.20488 3.36487 3.98127 3.51538 3.85583C3.66589 3.73039 3.88091 3.75766 4.00454 3.90492L6.35897 6.82821C6.48261 6.98092 6.45573 7.19908 6.31059 7.32452C6.24609 7.38451 6.16546 7.41178 6.0902 7.41178Z" fill="white"/>
<path d="M2.64519 16.0564C2.54305 16.0564 2.4463 16.0128 2.37642 15.9255C2.25278 15.7728 2.27966 15.5547 2.42479 15.4292L5.30602 13.0404C5.45653 12.915 5.67154 12.9422 5.79518 13.0895C5.91881 13.2422 5.89193 13.4604 5.7468 13.5858L2.86558 15.9801C2.80107 16.0346 2.72044 16.0564 2.64519 16.0564Z" fill="white"/>
<path d="M4.2412 10.6514H0.349402C0.155887 10.6514 0 10.4932 0 10.2969C0 10.1005 0.155887 9.94238 0.349402 9.94238H4.2412C4.43471 9.94238 4.5906 10.1005 4.5906 10.2969C4.5906 10.4932 4.43471 10.6514 4.2412 10.6514Z" fill="white"/>
</g>
<defs>
<clipPath id="clip0_1423_29332">
<rect width="31" height="31" fill="white"/>
</clipPath>
</defs>
</svg>
