<svg width="32" height="23" viewBox="0 0 32 23" fill="none" xmlns="http://www.w3.org/2000/svg">
<g clip-path="url(#clip0_1423_29427)">
<path d="M21.0688 8.26374C20.8913 8.26374 20.7191 8.16978 20.6251 8.00273C20.4894 7.75738 20.5781 7.44939 20.8235 7.31366L23.2039 5.99294V3.02786L20.8704 1.99947C20.6147 1.88462 20.4998 1.58707 20.6094 1.33128C20.7243 1.07549 21.0218 0.960644 21.2776 1.07027L23.9138 2.22916C24.0965 2.30746 24.2166 2.49017 24.2166 2.69376V6.28528C24.2166 6.46799 24.1174 6.64025 23.9556 6.729L21.3142 8.19588C21.2359 8.24286 21.1523 8.26374 21.0688 8.26374Z" fill="white"/>
<path d="M6.13868 22.6506C5.97163 22.6506 5.8098 22.6349 5.64275 22.5931L1.74846 21.7162C1.09593 21.57 0.547811 21.1471 0.239817 20.552C-0.0681763 19.9569 -0.0890572 19.2626 0.171954 18.6414L3.55466 10.691C2.52106 10.2943 1.63884 9.6 1.01241 8.68124C0.380763 7.75726 0.0414485 6.67145 0.0414485 5.54388V5.53866V5.53344V5.52822C0.0466687 4.0509 0.610453 2.66754 1.63362 1.62871C2.67244 0.579445 4.05058 0 5.52791 0H19.1736C20.7136 0 21.9194 1.21631 21.9194 2.76672V6.49918C21.9194 7.88776 20.9328 9.04144 19.5755 9.25024L14.2666 10.0594L13.045 13.8493C13.0033 13.9798 12.9093 14.0894 12.7788 14.152L8.71225 16.094L8.38859 20.5625C8.34161 21.215 8.01274 21.8153 7.48549 22.2069C7.08876 22.494 6.61894 22.6506 6.13868 22.6506ZM1.05417 5.53866C1.05417 7.44405 2.1974 9.10408 3.96706 9.76705L4.41078 9.9341C4.54129 9.98108 4.64569 10.0803 4.69789 10.2108C4.75009 10.3361 4.75009 10.4822 4.69789 10.6075L1.1116 19.0434C0.965429 19.3827 0.98109 19.7638 1.14814 20.0927C1.31518 20.4215 1.61796 20.6512 1.97293 20.7347L5.86722 21.6117C6.21698 21.6901 6.58762 21.6117 6.87473 21.3977C7.16184 21.1837 7.34455 20.8548 7.37065 20.4946L7.7204 15.7285C7.73607 15.5458 7.84569 15.3892 8.00752 15.3109L12.1419 13.3377L13.3948 9.45905C13.4522 9.27635 13.6088 9.14062 13.802 9.11452L19.4189 8.24796C20.2803 8.11746 20.9015 7.3814 20.9015 6.49918V2.76672C20.9015 1.7801 20.1393 1.01272 19.1684 1.01272H5.52791C4.32204 1.01272 3.19969 1.48254 2.35401 2.33866C1.51877 3.18956 1.05417 4.32757 1.05417 5.53866ZM8.37293 14.2669C8.26853 14.2669 8.16412 14.2356 8.07538 14.1677C7.93443 14.0633 7.85613 13.8962 7.87179 13.724L8.11714 10.3674C8.1328 10.1325 8.31029 9.93931 8.5452 9.90277L12.095 9.36509C12.2672 9.33899 12.4447 9.40685 12.5596 9.54258C12.6744 9.6783 12.7057 9.86101 12.6535 10.0281L11.7243 12.7791C11.6773 12.9201 11.5677 13.0297 11.432 13.0871L8.56608 14.2303C8.49822 14.2564 8.43558 14.2669 8.37293 14.2669ZM9.09332 10.8424L8.93672 12.9879L10.8317 12.231L11.4215 10.4874L9.09332 10.8424Z" fill="white"/>
<path d="M7.87746 3.37736H4.56783C4.3799 3.37736 4.22852 3.22597 4.22852 3.03805C4.22852 2.85012 4.3799 2.69873 4.56783 2.69873H7.87746C8.06538 2.69873 8.21677 2.85012 8.21677 3.03805C8.21155 3.22597 8.06016 3.37736 7.87746 3.37736Z" fill="white"/>
<path d="M7.87746 5.33488H4.56783C4.3799 5.33488 4.22852 5.18349 4.22852 4.99556C4.22852 4.80764 4.3799 4.65625 4.56783 4.65625H7.87746C8.06538 4.65625 8.21677 4.80764 8.21677 4.99556C8.21677 5.18349 8.06016 5.33488 7.87746 5.33488Z" fill="white"/>
<path d="M7.87746 7.29289H4.56783C4.3799 7.29289 4.22852 7.1415 4.22852 6.95357C4.22852 6.76564 4.3799 6.61426 4.56783 6.61426H7.87746C8.06538 6.61426 8.21677 6.76564 8.21677 6.95357C8.21677 7.1415 8.06016 7.29289 7.87746 7.29289Z" fill="white"/>
<path d="M31.6603 6.93247H28.9928C28.7004 6.93247 28.4237 6.82284 28.2097 6.62969L27.4423 5.92496C27.291 5.78924 27.0978 5.71093 26.889 5.71093H23.6577C23.4697 5.71093 23.3184 5.55955 23.3184 5.37162C23.3184 5.18369 23.4697 5.0323 23.6577 5.0323H26.889C27.2596 5.0323 27.6198 5.17325 27.8965 5.42382L28.6639 6.12855C28.7526 6.21207 28.8727 6.25384 28.9928 6.25384H31.3262V4.89136L29.1128 4.47374C28.9562 4.44242 28.8414 4.30669 28.8361 4.14486C28.8361 3.98304 28.9458 3.84209 29.1024 3.81077L31.321 3.34095V2.89201H29.0293C28.8936 2.89201 28.7631 2.94943 28.6691 3.04862L27.9278 3.85775C27.6459 4.16052 27.244 4.33801 26.8316 4.33801H23.6577C23.4697 4.33801 23.3184 4.18663 23.3184 3.9987C23.3184 3.81077 23.4697 3.65938 23.6577 3.65938H26.8316C27.0613 3.65938 27.2805 3.56542 27.4319 3.39837L28.1784 2.58924C28.3976 2.3491 28.7109 2.21338 29.0345 2.21338H31.6655C31.8534 2.21338 32.0048 2.36477 32.0048 2.55269V3.61762C32.0048 3.77945 31.8952 3.91517 31.7386 3.94649L30.9034 4.12398L31.7229 4.28059C31.8848 4.31191 31.9996 4.44764 31.9996 4.61468V6.59837C31.9996 6.78108 31.8482 6.93247 31.6603 6.93247Z" fill="white"/>
<path d="M27.3228 22.3319H23.8618C23.6738 22.3319 23.5225 22.1806 23.5225 21.9926V20.9277C23.5225 20.7398 23.6738 20.5884 23.8618 20.5884H27.3228C27.5107 20.5884 27.6621 20.7398 27.6621 20.9277V21.9926C27.6621 22.1806 27.5107 22.3319 27.3228 22.3319ZM24.1959 21.6585H26.9835V21.267H24.1959V21.6585Z" fill="white"/>
<path d="M26.122 21.2672H25.0571C24.8692 21.2672 24.7178 21.1159 24.7178 20.9279V16.2558C24.7178 16.0679 24.8692 15.9165 25.0571 15.9165H26.122C26.3099 15.9165 26.4613 16.0679 26.4613 16.2558V20.9279C26.4613 21.1159 26.3099 21.2672 26.122 21.2672ZM25.3964 20.5938H25.7879V16.6004H25.3964V20.5938Z" fill="white"/>
<path d="M21.7314 22.1962C21.5852 22.1962 21.4495 22.1023 21.4078 21.9509L20.4525 18.6204C20.4264 18.5369 20.4368 18.4429 20.4838 18.3646C20.5255 18.2863 20.5986 18.2289 20.6874 18.2028L21.7105 17.9104C21.888 17.8582 22.0759 17.9626 22.1282 18.1401L23.0835 21.4706C23.1096 21.5542 23.0991 21.6481 23.0521 21.7264C23.0104 21.8047 22.9373 21.8621 22.8485 21.8882L21.8254 22.1806C21.7941 22.191 21.7627 22.1962 21.7314 22.1962ZM21.1937 18.7613L21.9611 21.4393L22.337 21.3297L21.5696 18.6517L21.1937 18.7613Z" fill="white"/>
<path d="M16.9132 22.3318C16.767 22.3318 16.6313 22.2378 16.5895 22.0864L16.2972 21.0633C16.2711 20.9798 16.2815 20.8858 16.3285 20.8075C16.3703 20.7292 16.4434 20.6718 16.5321 20.6457L21.0215 19.3563C21.105 19.3302 21.199 19.3406 21.2773 19.3876C21.3556 19.4294 21.413 19.5024 21.4391 19.5912L21.7314 20.6143C21.7836 20.7918 21.6792 20.9798 21.5018 21.032L17.0124 22.3214C16.9758 22.3266 16.9445 22.3318 16.9132 22.3318ZM17.0385 21.2042L17.1481 21.5801L20.9902 20.4786L20.8805 20.1028L17.0385 21.2042Z" fill="white"/>
</g>
<defs>
<clipPath id="clip0_1423_29427">
<rect width="32" height="22.6506" fill="white"/>
</clipPath>
</defs>
</svg>
