<svg width="31" height="31" viewBox="0 0 31 31" fill="none" xmlns="http://www.w3.org/2000/svg">

<path d="M5.57701 27.0112C5.44899 27.0112 5.32098 26.9599 5.22369 26.8627L4.13812 25.7771C3.94354 25.5825 3.94354 25.265 4.13812 25.0705L25.0711 4.13751C25.1632 4.04534 25.2912 3.98901 25.4244 3.98901C25.5575 3.98901 25.6855 4.04022 25.7777 4.13751L26.8633 5.22307C27.0578 5.41766 27.0578 5.73513 26.8633 5.92971L5.93033 26.8627C5.83304 26.9599 5.70502 27.0112 5.57701 27.0112ZM5.19808 25.4238L5.58213 25.8078L25.8084 5.58151L25.4244 5.19747L5.19808 25.4238Z" fill="white"/>
<path d="M2.68379 30.9997C2.55578 30.9997 2.42776 30.9485 2.33047 30.8512L0.143983 28.6647C-0.0505986 28.4701 -0.0505986 28.1526 0.143983 27.9581L3.58501 24.517C3.7796 24.3224 4.09707 24.3224 4.29165 24.517L6.47814 26.7035C6.67272 26.8981 6.67272 27.2156 6.47814 27.4102L3.03711 30.8512C2.93982 30.9536 2.81181 30.9997 2.68379 30.9997ZM1.20394 28.3165L2.68379 29.7963L5.4233 27.0568L3.94345 25.577L1.20394 28.3165Z" fill="white"/>
<path d="M27.0578 6.62639C26.9298 6.62639 26.8018 6.57519 26.7045 6.4779L24.518 4.29141C24.3234 4.09683 24.3234 3.77935 24.518 3.58477L27.959 0.143739C28.1536 -0.0508428 28.4711 -0.0508428 28.6657 0.143739L30.8522 2.33023C31.0468 2.52481 31.0468 2.84229 30.8522 3.03687L27.4111 6.4779C27.3138 6.57519 27.1858 6.62639 27.0578 6.62639ZM25.578 3.94321L27.0578 5.42306L29.7973 2.68355L28.3175 1.2037L25.578 3.94321Z" fill="white"/>
<path d="M14.2769 15.8585C14.1489 15.8585 14.0208 15.8073 13.9236 15.71L4.13812 5.92971C3.94354 5.73513 3.94354 5.41766 4.13812 5.22307L5.22369 4.13751C5.31586 4.04534 5.44387 3.98901 5.57701 3.98901C5.71014 3.98901 5.83816 4.04022 5.93033 4.13751L15.6492 13.8564C15.8438 14.051 15.8438 14.3684 15.6492 14.563C15.4546 14.7576 15.1371 14.7576 14.9425 14.563L5.57701 5.19747L5.19296 5.58151L14.6251 15.0136C14.8197 15.2082 14.8197 15.5257 14.6251 15.7203C14.5278 15.8124 14.4049 15.8585 14.2769 15.8585Z" fill="white"/>
<path d="M25.4235 27.0111C25.2955 27.0111 25.1675 26.9599 25.0702 26.8626L15.2182 17.0106C15.0236 16.816 15.0236 16.4986 15.2182 16.304C15.4128 16.1094 15.7303 16.1094 15.9248 16.304L25.4235 25.8027L25.8076 25.4186L16.2833 15.8943C16.0887 15.6997 16.0887 15.3823 16.2833 15.1877C16.4779 14.9931 16.7953 14.9931 16.9899 15.1877L26.8675 25.0653C27.0621 25.2599 27.0621 25.5773 26.8675 25.7719L25.782 26.8575C25.6796 26.9599 25.5515 27.0111 25.4235 27.0111Z" fill="white"/>
<path d="M28.3163 30.9997C28.1883 30.9997 28.0602 30.9485 27.9629 30.8512L24.5219 27.4102C24.3273 27.2156 24.3273 26.8981 24.5219 26.7035L26.7084 24.517C26.903 24.3224 27.2205 24.3224 27.415 24.517L30.8561 27.9581C31.0507 28.1526 31.0507 28.4701 30.8561 28.6647L28.6696 30.8512C28.5723 30.9536 28.4443 30.9997 28.3163 30.9997ZM25.5768 27.0568L28.3163 29.7963L29.7961 28.3165L27.0566 25.577L25.5768 27.0568Z" fill="white"/>
<path d="M3.94322 6.62591C3.8152 6.62591 3.68719 6.5747 3.5899 6.47741L0.148866 3.03638C-0.0457158 2.8418 -0.0457158 2.52432 0.148866 2.32974L2.33535 0.143251C2.52994 -0.0513311 2.84741 -0.0513311 3.04199 0.143251L6.48303 3.58428C6.67761 3.77886 6.67761 4.09634 6.48303 4.29092L4.29654 6.47741C4.19925 6.5747 4.07123 6.62591 3.94322 6.62591ZM1.20371 2.68306L3.94322 5.42257L5.42307 3.94272L2.68355 1.20321L1.20371 2.68306Z" fill="white"/>


</svg>
