<svg width="27" height="37" viewBox="0 0 27 37" fill="none" xmlns="http://www.w3.org/2000/svg">
<path d="M21.8846 23.836H5.11541C2.29353 23.836 0 21.5197 0 18.6698V0.588168C0 0.266798 0.264176 0 0.582388 0C0.9006 0 1.16478 0.266798 1.16478 0.588168V18.6637C1.16478 20.8587 2.93596 22.6475 5.10941 22.6475H21.8786C24.052 22.6475 25.8232 20.8587 25.8232 18.6637V0.588168C25.8292 0.266798 26.0934 0 26.4176 0C26.7418 0 27 0.266798 27 0.588168V18.6637C27 21.5197 24.7065 23.836 21.8846 23.836Z" fill="white"/>
<path d="M20.9904 20.8952H6.03448C4.30533 20.8952 2.90039 19.5005 2.90039 17.7846V0.588225C2.90039 0.369936 3.07451 0.194092 3.29065 0.194092C3.50679 0.194092 3.68091 0.369936 3.68091 0.588225V17.7846C3.68091 19.064 4.73762 20.1069 6.03448 20.1069H20.9965C22.2933 20.1069 23.35 19.064 23.35 17.7846V0.588225C23.35 0.369936 23.5241 0.194092 23.7403 0.194092C23.9564 0.194092 24.1305 0.369936 24.1305 0.588225V17.7846C24.1305 19.5005 22.7256 20.8952 20.9904 20.8952Z" fill="white"/>
<path d="M22.9712 32.4402H4.03454C3.71032 32.4402 3.45215 32.1734 3.45215 31.852V25.4973C3.45215 25.1699 3.71632 24.9092 4.03454 24.9092H22.9712C23.2954 24.9092 23.5535 25.176 23.5535 25.4973V31.852C23.5535 32.1794 23.2894 32.4402 22.9712 32.4402ZM4.61693 31.2638H22.3828V26.0916H4.61693V31.2638Z" fill="white"/>
<path d="M22.7854 34.7203H4.22106C3.89684 34.7203 3.63867 34.4535 3.63867 34.1321C3.63867 33.8047 3.90285 33.5439 4.22106 33.5439H22.7854C23.1097 33.5439 23.3678 33.8107 23.3678 34.1321C23.3678 34.4535 23.1097 34.7203 22.7854 34.7203Z" fill="white"/>
<path d="M22.7854 36.9998H4.22106C3.89684 36.9998 3.63867 36.733 3.63867 36.4117C3.63867 36.0842 3.90285 35.8235 4.22106 35.8235H22.7854C23.1097 35.8235 23.3678 36.0903 23.3678 36.4117C23.3678 36.7391 23.1097 36.9998 22.7854 36.9998Z" fill="white"/>
</svg>
