<svg width="31" height="31" viewBox="0 0 31 31" fill="none" xmlns="http://www.w3.org/2000/svg">
<path d="M12.9591 31C5.81345 31 0 25.1705 0 18.0049C0 14.7309 1.22123 11.6035 3.43155 9.19479C5.63178 6.80122 8.61924 5.3337 11.8388 5.05538C12.1063 5.03514 12.3435 5.2325 12.3687 5.5007C12.3939 5.7689 12.1921 6.00674 11.9246 6.03204C8.94726 6.28506 6.18688 7.64631 4.15318 9.8577C2.10435 12.0843 0.979001 14.9788 0.979001 18.0049C0.979001 24.629 6.35341 30.0183 12.9591 30.0183C19.0047 30.0183 24.1167 25.4893 24.8484 19.4826C24.8838 19.2144 25.126 19.0221 25.3935 19.0575C25.6609 19.0929 25.8527 19.3358 25.8174 19.604C25.0251 26.0965 19.4942 31 12.9591 31Z" fill="white"/>
<path d="M13.5946 17.4484C13.5341 17.4484 13.4735 17.4333 13.418 17.3978C13.307 17.327 13.2515 17.1954 13.2717 17.0689L13.5492 15.4294C13.5795 15.2522 13.746 15.1308 13.9277 15.1611C14.1043 15.1915 14.2254 15.3585 14.1952 15.5407L14.0438 16.4313L14.4222 16.1783C14.5736 16.0771 14.7755 16.1176 14.8764 16.2694C14.9773 16.4212 14.937 16.6236 14.7856 16.7248L13.7763 17.4029C13.7208 17.4282 13.6552 17.4484 13.5946 17.4484Z" fill="white"/>
<path d="M17.466 21.3244C17.3954 21.3244 17.3247 21.3042 17.2642 21.2536L13.8629 18.5969C13.767 18.521 13.7166 18.3945 13.7418 18.273C13.767 18.1516 13.8579 18.0554 13.979 18.02L16.1388 17.433C16.3104 17.3875 16.4921 17.4887 16.5375 17.6658C16.5829 17.8378 16.482 18.02 16.3054 18.0656L14.7763 18.4805L17.6629 20.7324C17.8042 20.8437 17.8294 21.0512 17.7184 21.1929C17.6629 21.284 17.567 21.3244 17.466 21.3244Z" fill="white"/>
<path d="M10.4062 23.0855C10.3406 23.0855 10.275 23.0653 10.2195 23.0248C10.0731 22.9236 10.0328 22.7161 10.1387 22.5694L12.7023 18.8702C12.7629 18.7842 12.8638 18.7285 12.9698 18.7285C13.0757 18.7285 13.1767 18.7791 13.2372 18.8702L15.7907 22.5592C15.8916 22.706 15.8563 22.9135 15.71 23.0147C15.5636 23.1159 15.3567 23.0805 15.2558 22.9337L12.9698 19.6343L10.6737 22.9438C10.6131 23.0349 10.5122 23.0855 10.4062 23.0855Z" fill="white"/>
<path d="M8.4523 21.3348C8.35641 21.3348 8.26053 21.2893 8.19493 21.2083C8.08391 21.0666 8.10914 20.8591 8.25044 20.7478L11.1572 18.4808L7.46825 17.4788C7.29667 17.4333 7.1907 17.2511 7.23611 17.079C7.28153 16.907 7.4632 16.8007 7.63478 16.8463L11.9545 18.0203C12.0756 18.0506 12.1664 18.1518 12.1917 18.2733C12.2169 18.3947 12.1715 18.5212 12.0706 18.5971L8.64406 21.269C8.59359 21.3146 8.52294 21.3348 8.4523 21.3348Z" fill="white"/>
<path d="M12.3278 17.4178C12.2622 17.4178 12.2017 17.3975 12.1462 17.3621L8.44715 14.8775C8.29576 14.7763 8.25539 14.5738 8.35631 14.422C8.45724 14.2702 8.6591 14.2297 8.81049 14.3309L11.8787 16.3956L11.2479 12.6964C11.2176 12.5193 11.3387 12.3473 11.5154 12.3169C11.692 12.2865 11.8636 12.408 11.8938 12.5851L12.6508 17.0383C12.671 17.1648 12.6155 17.2963 12.5045 17.3672C12.4489 17.3975 12.3884 17.4178 12.3278 17.4178Z" fill="white"/>
<path d="M12.9594 25.6916C8.73054 25.6916 5.29395 22.2454 5.29395 18.0048C5.29395 16.2438 5.86923 14.5891 6.9643 13.2177C8.02404 11.8868 9.51273 10.9304 11.1528 10.5357C11.3294 10.4952 11.5061 10.6015 11.5464 10.7786C11.5868 10.9557 11.4808 11.1328 11.3042 11.1733C9.80037 11.5376 8.4429 12.408 7.47399 13.6276C6.4748 14.8826 5.94998 16.4007 5.94998 18.0099C5.94998 21.8862 9.09388 25.0438 12.9645 25.0438C14.5793 25.0438 16.1588 24.4771 17.4053 23.4549C18.6366 22.4428 19.4945 21.031 19.8225 19.4774C19.8578 19.3003 20.0345 19.189 20.2111 19.2244C20.3877 19.2598 20.4987 19.4369 20.4634 19.614C20.1051 21.3093 19.1665 22.8527 17.8191 23.9609C16.4465 25.0742 14.7257 25.6916 12.9594 25.6916Z" fill="white"/>
<path d="M12.2378 30.7621C12.1773 30.7621 12.1167 30.7469 12.0662 30.7115C11.9148 30.6153 11.8694 30.4129 11.9653 30.2611L12.8938 28.7835C12.9897 28.6316 13.1916 28.5861 13.343 28.6822C13.4944 28.7784 13.5398 28.9808 13.4439 29.1326L12.5154 30.6103C12.4548 30.7115 12.3488 30.7621 12.2378 30.7621Z" fill="white"/>
<path d="M9.82507 7.76763C9.7948 7.76763 9.76452 7.76257 9.73424 7.75245C9.56266 7.70185 9.46173 7.51967 9.51724 7.34762L10.0168 5.67263C10.0673 5.50057 10.249 5.39937 10.4205 5.45503C10.5921 5.50563 10.6931 5.68781 10.6375 5.85986L10.138 7.53485C10.0925 7.67655 9.96637 7.76763 9.82507 7.76763Z" fill="white"/>
<path d="M15.6132 30.4991C15.5829 30.4991 15.5526 30.494 15.5223 30.4839C15.3507 30.4333 15.2498 30.2511 15.3053 30.0791L15.8049 28.4041C15.8554 28.232 16.0371 28.1308 16.2086 28.1865C16.3802 28.2371 16.4811 28.4193 16.4256 28.5913L15.926 30.2663C15.8857 30.408 15.7545 30.4991 15.6132 30.4991Z" fill="white"/>
<path d="M6.81822 9.23014C6.64159 9.23014 6.49525 9.07327 6.4902 8.8911L6.46497 7.13514C6.45992 6.95296 6.60627 6.80115 6.78794 6.80115C6.96456 6.79609 7.11596 6.94284 7.121 7.11996L7.14623 8.88098C7.15128 9.06821 7.00493 9.16436 6.81822 9.23014C6.82326 9.23014 6.82326 9.23014 6.81822 9.23014Z" fill="white"/>
<path d="M19.1454 29.1277C18.9687 29.1277 18.8224 28.991 18.8174 28.8139L18.7921 27.0681C18.7871 26.8859 18.9334 26.7391 19.1151 26.7391C19.2917 26.7341 19.4431 26.8808 19.4481 27.063L19.4734 28.8038C19.4734 28.9809 19.327 29.1277 19.1454 29.1277Z" fill="white"/>
<path d="M2.88661 25.6311C2.72513 25.6311 2.58383 25.5096 2.56364 25.3426C2.54346 25.1655 2.66962 24.9985 2.84624 24.9783L4.57716 24.7607C4.75378 24.7404 4.92031 24.8669 4.9405 25.0441C4.96068 25.2212 4.83452 25.3882 4.6579 25.4084L2.92698 25.626C2.91689 25.6311 2.90175 25.6311 2.88661 25.6311Z" fill="white"/>
<path d="M5.23369 28.0801C5.10753 28.0801 4.98641 28.0042 4.9309 27.8777C4.86026 27.7107 4.941 27.5184 5.10753 27.4475L6.71733 26.7745C6.88386 26.7036 7.07562 26.7846 7.14627 26.9516C7.21692 27.1186 7.13618 27.3109 6.96965 27.3817L5.35985 28.0598C5.31948 28.075 5.27406 28.0801 5.23369 28.0801Z" fill="white"/>
<path d="M8.51808 29.9576C8.42725 29.9576 8.33136 29.9171 8.27081 29.8412C8.15474 29.7046 8.16988 29.4971 8.31118 29.3807L9.64343 28.2522C9.77968 28.1358 9.98658 28.151 10.1026 28.2927C10.2187 28.4293 10.2036 28.6368 10.0623 28.7532L8.73003 29.8817C8.66443 29.9323 8.58873 29.9576 8.51808 29.9576Z" fill="white"/>
<path d="M4.60208 11.1986C4.46078 11.1986 4.32958 11.1075 4.28921 10.9658L3.79466 9.29084C3.74419 9.11878 3.84008 8.93661 4.0167 8.886C4.18828 8.8354 4.36995 8.93155 4.42041 9.10866L4.91496 10.7837C4.96542 10.9557 4.86954 11.1379 4.69292 11.1885C4.66264 11.1935 4.63236 11.1986 4.60208 11.1986Z" fill="white"/>
<path d="M21.8306 27.0734C21.6893 27.0734 21.5581 26.9823 21.5177 26.8406L21.0232 25.1656C20.9727 24.9935 21.0686 24.8114 21.2452 24.7608C21.4168 24.7102 21.5985 24.8063 21.6489 24.9834L22.1435 26.6584C22.1939 26.8305 22.0981 27.0126 21.9214 27.0632C21.8912 27.0683 21.8609 27.0734 21.8306 27.0734Z" fill="white"/>
<path d="M2.94682 13.8555C2.84084 13.8555 2.73487 13.8049 2.67431 13.7037L1.72559 12.2362C1.62971 12.0844 1.67008 11.8819 1.82147 11.7858C1.97286 11.6896 2.17472 11.7301 2.2706 11.8819L3.21932 13.3495C3.3152 13.5013 3.27483 13.7037 3.12344 13.7998C3.06793 13.8353 3.00737 13.8555 2.94682 13.8555Z" fill="white"/>
<path d="M23.94 24.209C23.834 24.209 23.728 24.1584 23.6675 24.0572L22.7188 22.5897C22.6229 22.4379 22.6632 22.2355 22.8146 22.1393C22.966 22.0432 23.1679 22.0836 23.2638 22.2355L24.2125 23.703C24.3084 23.8548 24.268 24.0572 24.1166 24.1533C24.0611 24.1938 24.0005 24.209 23.94 24.209Z" fill="white"/>
<path d="M2.12461 16.7248C2.04891 16.7248 1.96817 16.6995 1.90762 16.6438L0.600599 15.485C0.464346 15.3635 0.454254 15.1561 0.570321 15.0245C0.691434 14.8879 0.898336 14.8777 1.02954 14.9941L2.33656 16.153C2.47281 16.2744 2.4829 16.4819 2.36684 16.6135C2.30123 16.6894 2.21545 16.7248 2.12461 16.7248Z" fill="white"/>
<path d="M25.1207 21.0261C25.045 21.0261 24.9643 21.0008 24.9037 20.9451L23.5967 19.7863C23.4604 19.6648 23.4503 19.4573 23.5664 19.3258C23.6875 19.1891 23.8944 19.179 24.0256 19.2954L25.3327 20.4542C25.4689 20.5757 25.479 20.7832 25.3629 20.9147C25.3024 20.9906 25.2115 21.0261 25.1207 21.0261Z" fill="white"/>
<path d="M2.155 20.0594C2.10958 20.0594 2.06416 20.0493 2.02379 20.029L0.429132 19.3155C0.262601 19.2396 0.191952 19.0473 0.262601 18.8854C0.333251 18.7234 0.53006 18.6475 0.691545 18.7234L2.28621 19.437C2.45274 19.5129 2.52339 19.7052 2.45274 19.8671C2.39723 19.9885 2.27611 20.0594 2.155 20.0594Z" fill="white"/>
<path d="M3.0278 22.9185C3.01266 22.9185 2.99752 22.9185 2.97734 22.9134L1.25147 22.6553C1.07485 22.63 0.948686 22.4631 0.973918 22.2859C0.99915 22.1088 1.16568 21.9823 1.3423 22.0076L3.07322 22.2657C3.24984 22.291 3.376 22.458 3.35077 22.6351C3.32554 22.8021 3.18424 22.9185 3.0278 22.9185Z" fill="white"/>
<path d="M21.8304 18.3895C16.7739 18.3895 12.6611 14.2653 12.6611 9.19474C12.6611 4.12422 16.7739 0 21.8304 0C26.8869 0 30.9997 4.12422 30.9997 9.19474C30.9997 14.2653 26.8869 18.3895 21.8304 18.3895ZM21.8304 0.981717C17.3139 0.981717 13.6401 4.66569 13.6401 9.19474C13.6401 13.7238 17.3139 17.4078 21.8304 17.4078C26.347 17.4078 30.0207 13.7238 30.0207 9.19474C30.0207 4.66569 26.347 0.981717 21.8304 0.981717Z" fill="white"/>
<path d="M21.8213 11.5173C21.7607 11.5173 21.7002 11.5021 21.6447 11.4667L19.9844 10.404C19.8885 10.3433 19.833 10.2421 19.833 10.1257V8.00034C19.833 7.88901 19.8885 7.78274 19.9844 7.72202L21.6447 6.65934C21.7506 6.58849 21.8869 6.58849 21.9929 6.65934L23.6531 7.72202C23.749 7.78274 23.8045 7.88395 23.8045 8.00034V10.1257C23.8045 10.237 23.749 10.3433 23.6531 10.404L21.9929 11.4667C21.9424 11.5021 21.8818 11.5173 21.8213 11.5173ZM20.484 9.94859L21.8213 10.8038L23.1586 9.94859V8.18252L21.8213 7.32731L20.484 8.18252V9.94859Z" fill="white"/>
<path d="M21.8358 13.4861C21.6542 13.4861 21.5078 13.3393 21.5078 13.1572V4.97956C21.5078 4.79739 21.6542 4.65063 21.8358 4.65063C22.0175 4.65063 22.1638 4.79739 22.1638 4.97956V13.1572C22.1638 13.3393 22.0175 13.4861 21.8358 13.4861Z" fill="white"/>
<path d="M25.0862 11.5175C25.0257 11.5175 24.9651 11.5023 24.9096 11.4669L18.102 7.04915C17.9506 6.953 17.9052 6.75059 18.0061 6.59877C18.102 6.44696 18.3039 6.40142 18.4553 6.50263L25.2629 10.9204C25.4142 11.0165 25.4597 11.2189 25.3587 11.3707C25.2982 11.4618 25.1922 11.5175 25.0862 11.5175Z" fill="white"/>
<path d="M18.3239 11.5883C18.2179 11.5883 18.112 11.5326 18.0464 11.4364C17.9505 11.2846 17.9959 11.0822 18.1473 10.9861L25.1618 6.50256C25.3132 6.40641 25.515 6.45196 25.6109 6.60377C25.7068 6.75558 25.6614 6.958 25.51 7.05414L18.4955 11.5377C18.445 11.5731 18.3845 11.5883 18.3239 11.5883Z" fill="white"/>
<path d="M21.8211 5.23758C21.7202 5.23758 21.6243 5.18698 21.5637 5.10601L21.0137 4.38743C20.9027 4.24574 20.9329 4.03827 21.0742 3.92694C21.2155 3.81561 21.4224 3.84597 21.5335 3.98766L21.8161 4.35707L22.0835 3.99272C22.1895 3.84597 22.3964 3.81561 22.5377 3.92188C22.684 4.02815 22.7143 4.23562 22.6083 4.37731L22.0835 5.09589C22.023 5.18698 21.9271 5.23758 21.8211 5.23758Z" fill="white"/>
<path d="M21.8313 6.59383C21.7707 6.59383 21.7101 6.57865 21.6597 6.54323L20.5242 5.82465C20.3729 5.7285 20.3274 5.52609 20.4233 5.37428C20.5192 5.22246 20.7211 5.17692 20.8724 5.27307L21.8313 5.88032L22.7447 5.27813C22.8961 5.17692 23.0979 5.22246 23.1988 5.37428C23.2998 5.52609 23.2543 5.7285 23.103 5.82971L22.0129 6.54829C21.9574 6.57359 21.8918 6.59383 21.8313 6.59383Z" fill="white"/>
<path d="M22.9211 12.9648C22.8605 12.9648 22.8 12.9496 22.7495 12.9142L21.7907 12.307L20.8773 12.9092C20.7259 13.0104 20.5241 12.9648 20.4231 12.813C20.3222 12.6612 20.3676 12.4588 20.519 12.3576L21.609 11.639C21.715 11.5681 21.8563 11.5681 21.9623 11.6339L23.0977 12.3525C23.2491 12.4487 23.2945 12.6511 23.1986 12.8029C23.133 12.9091 23.0271 12.9648 22.9211 12.9648Z" fill="white"/>
<path d="M17.501 7.21614C17.3244 7.21614 17.1831 7.07951 17.173 6.9024C17.1679 6.72022 17.3092 6.56841 17.4859 6.56335L17.9501 6.54817L17.8088 6.11804C17.7533 5.94598 17.8442 5.76381 18.0157 5.70308C18.1873 5.64742 18.369 5.73851 18.4295 5.91056L18.7071 6.75565C18.7374 6.85179 18.7222 6.96312 18.6667 7.04409C18.6062 7.13011 18.5153 7.18072 18.4093 7.18578L17.5111 7.21614C17.5111 7.21614 17.506 7.21614 17.501 7.21614Z" fill="white"/>
<path d="M18.455 8.32447C18.3187 8.32447 18.1926 8.23845 18.1472 8.10182C18.0917 7.92976 18.1825 7.74253 18.349 7.68686L19.2776 7.37312L19.2523 6.42176C19.2473 6.23959 19.3886 6.09284 19.5703 6.08778C19.7469 6.08272 19.8983 6.22441 19.9033 6.40658L19.9336 7.59072C19.9386 7.73241 19.8478 7.86398 19.7116 7.90952L18.5559 8.30423C18.5206 8.31941 18.4853 8.32447 18.455 8.32447Z" fill="white"/>
<path d="M25.2631 8.32447C25.2278 8.32447 25.1925 8.31941 25.1572 8.30929L24.0015 7.91458C23.8653 7.86904 23.7745 7.73747 23.7795 7.59578L23.8148 6.40658C23.8199 6.22441 23.9713 6.08272 24.1479 6.08778C24.3296 6.09284 24.4709 6.24465 24.4658 6.42176L24.4406 7.37312L25.3691 7.68686C25.5407 7.74253 25.6315 7.92976 25.571 8.10182C25.5256 8.23845 25.3994 8.32447 25.2631 8.32447Z" fill="white"/>
<path d="M24.1428 12.0387C23.9662 12.0387 23.8199 11.897 23.8148 11.7198L23.7795 10.5307C23.7745 10.389 23.8653 10.2574 24.0015 10.2118L25.1572 9.81714C25.3287 9.76147 25.5155 9.85256 25.571 10.0196C25.6265 10.1916 25.5356 10.3788 25.3691 10.4345L24.4406 10.7483L24.4658 11.6996C24.4709 11.8818 24.3296 12.0285 24.1479 12.0336C24.1479 12.0387 24.1428 12.0387 24.1428 12.0387Z" fill="white"/>
<path d="M19.576 11.9374C19.5709 11.9374 19.5709 11.9374 19.5659 11.9374C19.3842 11.9324 19.2429 11.7806 19.248 11.6034L19.2732 10.6521L18.3447 10.3383C18.1731 10.2827 18.0822 10.0954 18.1428 9.92339C18.1983 9.75134 18.385 9.66025 18.5566 9.72098L19.7122 10.1157C19.8485 10.1612 19.9393 10.2928 19.9343 10.4345L19.8989 11.6237C19.8989 11.7957 19.7526 11.9374 19.576 11.9374Z" fill="white"/>
<path d="M26.1614 7.21614C26.1563 7.21614 26.1513 7.21614 26.1513 7.21614L25.253 7.18578C25.1521 7.18072 25.0562 7.13011 24.9957 7.04409C24.9351 6.95806 24.92 6.85179 24.9553 6.75565L25.2328 5.91056C25.2884 5.73851 25.4751 5.64742 25.6466 5.70308C25.8182 5.75875 25.9091 5.94598 25.8535 6.11804L25.7123 6.54817L26.1765 6.56335C26.3582 6.56841 26.4995 6.72022 26.4894 6.9024C26.4793 7.07951 26.333 7.21614 26.1614 7.21614Z" fill="white"/>
<path d="M25.4396 12.3879C25.3033 12.3879 25.1772 12.3018 25.1317 12.1652L24.8542 11.3201C24.8239 11.224 24.8391 11.1126 24.8946 11.0317C24.9551 10.9457 25.046 10.895 25.1519 10.89L26.0502 10.8596C26.2319 10.8495 26.3833 10.9963 26.3883 11.1734C26.3934 11.3555 26.2521 11.5074 26.0754 11.5124L25.6112 11.5276L25.7525 11.9577C25.808 12.1298 25.7171 12.312 25.5456 12.3727C25.5052 12.3828 25.4699 12.3879 25.4396 12.3879Z" fill="white"/>
<path d="M18.0262 12.3879C17.9909 12.3879 17.9556 12.3828 17.9253 12.3727C17.7537 12.317 17.6629 12.1298 17.7184 11.9577L17.8597 11.5276L17.3954 11.5124C17.2137 11.5074 17.0724 11.3556 17.0825 11.1734C17.0876 10.9912 17.239 10.8495 17.4206 10.8596L18.3189 10.89C18.4198 10.8951 18.5157 10.9457 18.5763 11.0317C18.6368 11.1177 18.652 11.224 18.6166 11.3201L18.3391 12.1652C18.2886 12.2968 18.1625 12.3879 18.0262 12.3879Z" fill="white"/>
<path d="M21.2708 14.2705C21.2052 14.2705 21.1345 14.2503 21.079 14.2048C20.9327 14.0985 20.9024 13.891 21.0084 13.7493L21.5332 13.0307C21.5938 12.9498 21.6896 12.8992 21.7906 12.8992C21.8965 12.8992 21.9924 12.9447 22.053 13.0257L22.603 13.7443C22.7141 13.8859 22.6838 14.0934 22.5425 14.2048C22.4012 14.3161 22.1943 14.2857 22.0833 14.144L21.8007 13.7746L21.5332 14.139C21.4726 14.225 21.3717 14.2705 21.2708 14.2705Z" fill="white"/>
</svg>
