<svg width="31" height="31" viewBox="0 0 31 31" fill="none" xmlns="http://www.w3.org/2000/svg">
<g clip-path="url(#clip0_1423_29351)">
<path d="M11.2212 31C8.20095 31 5.36942 29.3684 3.25101 26.4152C1.15359 23.4912 0 19.614 0 15.4971C0 11.3801 1.15359 7.50877 3.25101 4.5848C5.36942 1.63158 8.20095 0 11.2212 0C12.7524 0 14.2363 0.415205 15.6311 1.23977C15.8828 1.38596 15.9772 1.73099 15.8461 2.0117C15.715 2.2924 15.4056 2.39766 15.1539 2.25146C13.906 1.51462 12.5846 1.1462 11.2265 1.1462C5.59489 1.14035 1.0225 7.57895 1.0225 15.4971C1.0225 23.4152 5.59489 29.8538 11.2212 29.8538C12.6213 29.8538 13.9794 29.462 15.2588 28.6842C15.5052 28.5322 15.8146 28.6374 15.9509 28.9123C16.0873 29.1871 15.9929 29.5322 15.7464 29.6842C14.315 30.5556 12.7943 31 11.2212 31Z" fill="white"/>
<path d="M11.9607 27.6316C9.78984 27.6316 7.76057 26.345 6.25043 24.0117C4.77174 21.731 3.95898 18.7076 3.95898 15.5029C3.95898 12.2982 4.77174 9.27485 6.25043 6.99415C7.76582 4.66082 9.78984 3.37427 11.9607 3.37427C12.2229 3.37427 12.485 3.39181 12.742 3.43275C13.0199 3.47368 13.2191 3.76023 13.1824 4.07017C13.1457 4.38012 12.8888 4.60234 12.6109 4.5614C12.3959 4.53216 12.1809 4.51462 11.9659 4.51462C8.11189 4.50292 4.98148 9.43859 4.98148 15.4971C4.98148 21.5556 8.11189 26.4912 11.9607 26.4912C12.2543 26.4912 12.548 26.462 12.8364 26.4035C13.1143 26.3509 13.3817 26.5556 13.4289 26.8655C13.4761 27.1754 13.2925 27.4737 13.0146 27.5263C12.6686 27.5965 12.312 27.6316 11.9607 27.6316Z" fill="white"/>
<path d="M12.7941 27.2749C12.7679 27.2749 12.7469 27.2749 12.7207 27.2691C10.7649 26.7954 8.97681 25.351 7.69214 23.2048C6.40222 21.0586 5.69434 18.3217 5.69434 15.4972C5.69434 12.7428 6.37076 10.0586 7.60824 7.93577C8.83524 5.81881 10.5551 4.35097 12.4428 3.80126C12.6263 3.74863 12.8099 3.87144 12.8571 4.07027C12.9042 4.27495 12.7941 4.47963 12.6159 4.53226C8.99779 5.58489 6.376 10.1931 6.376 15.4913C6.376 18.1638 7.04193 20.7486 8.25844 22.7779C9.44349 24.7603 11.0795 26.0878 12.8623 26.5206C13.0458 26.5673 13.1612 26.7662 13.1245 26.9709C13.0878 27.158 12.9514 27.2749 12.7941 27.2749Z" fill="white"/>
<path d="M19.7837 31C16.7634 31 13.9319 29.3684 11.8135 26.4152C9.71609 23.4971 8.5625 19.6199 8.5625 15.5029C8.5625 11.386 9.71609 7.50877 11.8135 4.59064C13.9319 1.63158 16.7634 0 19.7837 0C22.804 0 25.6356 1.63158 27.754 4.5848C29.8514 7.50292 31.005 11.3801 31.005 15.4971C31.005 19.614 29.8514 23.4912 27.754 26.4094C25.6303 29.3684 22.7988 31 19.7837 31ZM19.7837 1.14035C14.1574 1.14035 9.585 7.57895 9.585 15.4971C9.585 23.4152 14.1574 29.8597 19.7837 29.8597C25.4101 29.8597 29.9772 23.4152 29.9772 15.4971C29.9772 7.57895 25.4049 1.14035 19.7837 1.14035ZM20.1193 27.0292C20.0407 27.0292 19.9568 27.0292 19.8519 27.0234C19.6422 27.0117 19.4586 26.8597 19.3905 26.6316C18.9605 25.1813 18.8766 23.4795 19.1545 21.5789C19.401 19.8655 19.8624 18.538 20.0459 18.0409C20.156 17.7485 20.4549 17.614 20.7171 17.7368C20.9793 17.8596 21.0999 18.193 20.9898 18.4854C20.8272 18.9181 19.4796 22.6491 20.2557 25.8889C22.652 25.807 24.8228 23.6725 25.924 20.345C23.7951 19.9357 21.9651 18.3099 21.2362 17.5789C21.0265 17.3684 21.0107 17.0117 21.1943 16.7719C21.383 16.538 21.7029 16.5205 21.9179 16.7251C24.0992 18.9006 25.9449 19.2456 26.6423 19.2924C26.7996 19.3041 26.9412 19.3918 27.0304 19.538C27.1195 19.6842 27.1457 19.8655 27.0985 20.0292C25.924 24.2807 23.1868 27.0292 20.1193 27.0292ZM15.3687 24.2047C15.2166 24.2047 15.0698 24.1287 14.9701 23.9883C13.4338 21.8363 12.5529 18.7895 12.5529 15.6199C12.5529 15.1053 12.5738 14.5848 12.621 14.076C12.642 13.848 12.7783 13.6608 12.9723 13.5906C15.2271 12.7836 17.6339 14.0585 18.562 14.6433C18.8084 14.7953 18.8923 15.1462 18.756 15.4211C18.6197 15.6959 18.3051 15.7895 18.0586 15.6374C17.293 15.1579 15.3896 14.1345 13.6068 14.5789C13.5858 14.9298 13.5754 15.2749 13.5754 15.6257C13.5754 18.0819 14.1417 20.4503 15.1589 22.3041C16.0241 19.4327 17.9432 17.386 18.368 16.9591C18.5777 16.7485 18.9028 16.7661 19.0916 17C19.2804 17.2339 19.2646 17.5965 19.0549 17.807C18.7875 18.076 16.4226 20.5322 15.8773 23.7427C15.8406 23.9591 15.6938 24.1345 15.4997 24.1871C15.4526 24.1988 15.4106 24.2047 15.3687 24.2047ZM25.0798 15.8538C23.4071 15.8538 21.9756 15.3626 21.6138 15.2222C21.3463 15.1228 21.2048 14.8012 21.2939 14.5029C21.3044 14.462 21.3201 14.4269 21.3411 14.3918C21.2467 14.3567 21.1576 14.2982 21.0946 14.2047C20.9164 13.9591 20.9531 13.6023 21.1733 13.4035C21.1995 13.3801 23.8003 11.0175 24.5764 7.75439C24.6288 7.54386 24.7809 7.38012 24.9749 7.33918C25.1689 7.29825 25.3629 7.38597 25.4835 7.5614C26.7892 9.53801 27.5652 12.1579 27.6753 14.9415C27.6858 15.2047 27.5337 15.4386 27.3135 15.5088C26.5637 15.7602 25.7981 15.8538 25.0798 15.8538ZM21.9598 14.152C23.1501 14.5965 25.0221 14.9357 26.6266 14.538C26.4955 12.5789 26.0026 10.731 25.2161 9.19883C24.2722 11.7953 22.4894 13.6374 21.9598 14.152ZM19.1702 13.9006C19.0025 13.9006 18.8399 13.807 18.7403 13.6433C18.2631 12.8304 16.5432 10.1404 14.3671 9.73099C14.2046 9.70175 14.063 9.5848 13.9948 9.42105C13.9214 9.25731 13.9267 9.06433 14.0053 8.90059C14.687 7.49123 15.5836 6.32164 16.6061 5.51462C17.6811 4.66667 18.8976 4.21637 20.1246 4.21637C20.3605 4.21637 20.6017 4.23392 20.8377 4.26901C21.0422 4.29825 21.21 4.46199 21.2677 4.67836C22.2115 8.4269 20.5913 12.6842 20.4077 13.1579C20.2924 13.4444 19.9935 13.5731 19.7313 13.4503C19.7156 13.4444 19.6946 13.4327 19.6789 13.4211C19.6579 13.5789 19.5792 13.7251 19.4534 13.8187C19.3643 13.8713 19.2646 13.9006 19.1702 13.9006ZM15.2323 8.80117C17.2668 9.55556 18.8137 11.7485 19.4429 12.7602C19.4482 12.7368 19.4586 12.7135 19.4639 12.6901C19.6317 12.269 21.016 8.63158 20.3605 5.35673C20.2766 5.35088 20.198 5.35088 20.1141 5.35088C18.2316 5.35088 16.4803 6.59649 15.2323 8.80117Z" fill="white"/>
<path d="M20.052 18.7954C18.804 18.7954 17.792 17.3919 17.792 15.6667C17.792 13.9416 18.804 12.5381 20.052 12.5381C21.2999 12.5381 22.312 13.9416 22.312 15.6667C22.312 17.3919 21.2999 18.7954 20.052 18.7954ZM20.052 13.6726C19.3808 13.6726 18.8145 14.5849 18.8145 15.6609C18.8145 16.7428 19.3808 17.6492 20.052 17.6492C20.7231 17.6492 21.2895 16.7369 21.2895 15.6609C21.2895 14.5849 20.7231 13.6726 20.052 13.6726Z" fill="white"/>
</g>
<defs>
<clipPath id="clip0_1423_29351">
<rect width="31" height="31" fill="white"/>
</clipPath>
</defs>
</svg>
