<svg width="31" height="31" viewBox="0 0 31 31" fill="none" xmlns="http://www.w3.org/2000/svg">
<path d="M15.4975 31C11.3576 31 7.4647 29.3895 4.54008 26.4599C1.61052 23.5304 0 19.6375 0 15.4975C0 11.3576 1.61052 7.4647 4.54008 4.54008C7.4647 1.61052 11.3576 0 15.4975 0C19.6374 0 23.5304 1.61052 26.455 4.54008C29.3845 7.46964 30.9951 11.3576 30.9951 15.4975C30.9951 19.6375 29.3845 23.5304 26.455 26.455C23.5304 29.3845 19.6374 31 15.4975 31ZM15.4975 0.958406C11.6145 0.958406 7.96367 2.47012 5.21689 5.21689C2.47012 7.96367 0.958406 11.6145 0.958406 15.4975C0.958406 19.3806 2.47012 23.0363 5.21689 25.7782C7.96367 28.52 11.6145 30.0367 15.4975 30.0367C19.3806 30.0367 23.0314 28.5249 25.7782 25.7782C28.5249 23.0314 30.0367 19.3806 30.0367 15.4975C30.0367 11.6145 28.5249 7.96367 25.7782 5.21689C23.0314 2.47012 19.3806 0.958406 15.4975 0.958406Z" fill="white"/>
<path d="M16.2675 14.9146C16.1786 14.9146 16.0847 14.8899 16.0057 14.8356C15.8426 14.7318 15.7636 14.5441 15.7932 14.3514L16.7072 8.96658C16.7516 8.70475 16.9987 8.53184 17.2605 8.5763C17.5223 8.62076 17.6952 8.86777 17.6508 9.12961L16.9196 13.4128L20.4618 11.0365C20.6791 10.8883 20.9805 10.9476 21.1287 11.1699C21.2769 11.3873 21.2176 11.6887 20.9953 11.8369L16.5244 14.8356C16.4503 14.8899 16.3564 14.9146 16.2675 14.9146Z" fill="white"/>
<path d="M20.9321 19.5733C20.8283 19.5733 20.7246 19.5387 20.6357 19.4745L16.5353 16.288C16.392 16.1744 16.3228 15.9916 16.3574 15.8137C16.392 15.6359 16.5254 15.4926 16.7032 15.4482L21.8757 14.0501C22.1326 13.9809 22.3944 14.1341 22.4636 14.386C22.5327 14.6429 22.3796 14.9047 22.1276 14.9739L17.884 16.12L21.2236 18.7186C21.431 18.8816 21.4706 19.183 21.3075 19.3905C21.2186 19.509 21.0754 19.5733 20.9321 19.5733Z" fill="white"/>
<path d="M12.4247 21.6875C12.3308 21.6875 12.237 21.6579 12.153 21.6035C11.9356 21.4504 11.8813 21.154 12.0344 20.9366L15.1221 16.4953C15.211 16.3669 15.3592 16.2878 15.5173 16.2878C15.6754 16.2878 15.8236 16.3669 15.9125 16.4953L18.9903 20.9267C19.1434 21.1441 19.0891 21.4405 18.8717 21.5937C18.6543 21.7468 18.3579 21.6925 18.2048 21.4751L15.5173 17.6069L12.8249 21.485C12.7261 21.6184 12.5778 21.6875 12.4247 21.6875Z" fill="white"/>
<path d="M10.074 19.5881C9.93068 19.5881 9.78742 19.5239 9.69355 19.4053C9.53052 19.1978 9.57005 18.8965 9.77754 18.7335L13.1468 16.1151L8.86853 14.9591C8.61164 14.8899 8.46343 14.6281 8.5326 14.3712C8.60176 14.1143 8.86359 13.9661 9.12048 14.0353L14.3275 15.4383C14.5004 15.4877 14.6387 15.626 14.6733 15.8088C14.7079 15.9867 14.6387 16.1695 14.4955 16.2831L10.3704 19.4893C10.2814 19.5535 10.1777 19.5881 10.074 19.5881Z" fill="white"/>
<path d="M14.7371 14.8799C14.6432 14.8799 14.5494 14.8552 14.4703 14.8009L10.0142 11.812C9.79684 11.6638 9.73756 11.3674 9.88083 11.1451C10.029 10.9277 10.3254 10.8684 10.5478 11.0117L14.0751 13.3781L13.3538 9.12946C13.3094 8.86763 13.4872 8.62062 13.7441 8.57616C14.0059 8.53169 14.2529 8.70954 14.2974 8.96643L15.2064 14.3167C15.241 14.5044 15.157 14.6971 14.994 14.8009C14.9199 14.8503 14.8309 14.8799 14.7371 14.8799Z" fill="white"/>
<path d="M15.498 24.8198C10.3602 24.8198 6.17578 20.6403 6.17578 15.4975C6.17578 10.3547 10.3602 6.17529 15.498 6.17529C20.6359 6.17529 24.8202 10.3547 24.8202 15.4975C24.8202 20.6403 20.6408 24.8198 15.498 24.8198ZM15.498 7.1337C10.8888 7.1337 7.13419 10.8833 7.13419 15.4975C7.13419 20.1117 10.8888 23.8613 15.498 23.8613C20.1073 23.8613 23.8618 20.1117 23.8618 15.4975C23.8618 10.8833 20.1122 7.1337 15.498 7.1337Z" fill="white"/>
<path d="M15.2701 2.57404C15.2108 2.57404 15.1515 2.55922 15.1021 2.52463C14.9539 2.43077 14.9095 2.23316 15.0033 2.08495L16.1248 0.306467C16.2186 0.15826 16.4162 0.113798 16.5644 0.207662C16.7126 0.301527 16.7571 0.499136 16.6632 0.647344L15.5418 2.42583C15.4825 2.52463 15.3788 2.57404 15.2701 2.57404Z" fill="white"/>
<path d="M14.6324 30.753C14.5731 30.753 14.5138 30.7382 14.4644 30.7036C14.3162 30.6097 14.2718 30.4121 14.3656 30.2639L15.4871 28.4854C15.5809 28.3372 15.7785 28.2928 15.9267 28.3866C16.0749 28.4805 16.1194 28.6781 16.0255 28.8263L14.9041 30.6048C14.8448 30.6987 14.7411 30.753 14.6324 30.753Z" fill="white"/>
<path d="M11.7226 3.12742C11.693 3.12742 11.6633 3.12248 11.6288 3.1126C11.4608 3.0632 11.362 2.88535 11.4163 2.71738L12.019 0.701765C12.0684 0.533797 12.2463 0.434992 12.4143 0.489334C12.5822 0.538737 12.681 0.716585 12.6267 0.884553L12.024 2.90017C11.9894 3.0385 11.861 3.12742 11.7226 3.12742Z" fill="white"/>
<path d="M18.7031 30.4367C18.6735 30.4367 18.6438 30.4318 18.6092 30.4219C18.4413 30.3725 18.3425 30.1947 18.3968 30.0267L18.9995 28.0111C19.0489 27.8431 19.2268 27.7443 19.3947 27.7987C19.5627 27.8481 19.6615 28.0259 19.6072 28.1939L19.0045 30.2095C18.9649 30.3478 18.8414 30.4367 18.7031 30.4367Z" fill="white"/>
<path d="M8.10674 4.82669C7.93383 4.82669 7.79057 4.69824 7.78563 4.52039L7.75598 2.42573C7.75104 2.24788 7.89431 2.10462 8.07216 2.10462C8.25001 2.09968 8.39328 2.24294 8.39822 2.42079L8.42786 4.51051C8.42786 4.68836 8.28459 4.82669 8.10674 4.82669Z" fill="white"/>
<path d="M22.9524 28.7869C22.7795 28.7869 22.6363 28.6535 22.6313 28.4806L22.6017 26.3859C22.5967 26.2081 22.74 26.0648 22.9179 26.0648C23.0908 26.0599 23.239 26.2031 23.2439 26.381L23.2736 28.4757C23.2736 28.6486 23.1352 28.7869 22.9524 28.7869C22.9574 28.7869 22.9524 28.7869 22.9524 28.7869Z" fill="white"/>
<path d="M3.36903 24.5877C3.21095 24.5877 3.07262 24.4691 3.05286 24.3061C3.0331 24.1332 3.1566 23.9701 3.32951 23.9504L5.41429 23.6935C5.5872 23.6737 5.75023 23.7972 5.76999 23.9701C5.78975 24.143 5.66624 24.3061 5.49334 24.3258L3.40855 24.5827C3.39373 24.5827 3.38385 24.5877 3.36903 24.5877Z" fill="white"/>
<path d="M25.5702 7.22731C25.4121 7.22731 25.2738 7.10875 25.254 6.94572C25.2343 6.77281 25.3578 6.60978 25.5307 6.59002L27.6155 6.33313C27.7884 6.31337 27.9514 6.43688 27.9712 6.60978C27.9909 6.78269 27.8674 6.94572 27.6945 6.96548L25.6097 7.22237C25.5998 7.22237 25.585 7.22731 25.5702 7.22731Z" fill="white"/>
<path d="M6.19455 27.5322C6.07105 27.5322 5.95248 27.4581 5.89814 27.3346C5.82898 27.1715 5.90802 26.9838 6.07105 26.9146L8.00762 26.1044C8.17065 26.0353 8.35838 26.1143 8.42754 26.2773C8.4967 26.4404 8.41766 26.6281 8.25463 26.6973L6.31806 27.5075C6.2736 27.5223 6.23408 27.5322 6.19455 27.5322Z" fill="white"/>
<path d="M22.8977 4.83148C22.7742 4.83148 22.6556 4.75738 22.6013 4.63387C22.5321 4.47085 22.6111 4.28312 22.7742 4.21395L24.7107 3.40375C24.8738 3.33459 25.0615 3.41363 25.1307 3.57666C25.1998 3.73969 25.1208 3.92742 24.9578 3.99658L23.0212 4.80678C22.9817 4.8216 22.9372 4.83148 22.8977 4.83148Z" fill="white"/>
<path d="M10.147 29.7849C10.0581 29.7849 9.9642 29.7453 9.90492 29.6712C9.7913 29.5379 9.80612 29.3353 9.94444 29.2217L11.55 27.8681C11.6834 27.7544 11.886 27.7693 11.9996 27.9076C12.1132 28.041 12.0984 28.2435 11.9601 28.3571L10.3545 29.7108C10.2952 29.7602 10.2211 29.7849 10.147 29.7849Z" fill="white"/>
<path d="M19.272 3.12227C19.1831 3.12227 19.0892 3.08275 19.0299 3.00865C18.9163 2.87526 18.9311 2.67271 19.0694 2.55908L20.675 1.20546C20.8084 1.09183 21.011 1.10665 21.1246 1.24498C21.2382 1.37837 21.2234 1.58092 21.0851 1.69454L19.4795 3.04817C19.4202 3.09757 19.3461 3.12227 19.272 3.12227Z" fill="white"/>
<path d="M5.43379 7.24741C5.29547 7.24741 5.16702 7.15848 5.1275 7.02015L4.52973 5.00454C4.48033 4.83657 4.57419 4.65872 4.7471 4.60932C4.91507 4.55992 5.09292 4.65378 5.14232 4.82669L5.74009 6.84231C5.78949 7.01027 5.69563 7.18812 5.52272 7.23752C5.49308 7.24247 5.46343 7.24741 5.43379 7.24741Z" fill="white"/>
<path d="M26.1887 26.3167C26.0503 26.3167 25.9219 26.2278 25.8824 26.0895L25.2846 24.0739C25.2352 23.9059 25.3291 23.7281 25.502 23.6787C25.6699 23.6293 25.8478 23.7231 25.8972 23.896L26.495 25.9116C26.5444 26.0796 26.4505 26.2575 26.2776 26.3069C26.248 26.3118 26.2183 26.3167 26.1887 26.3167Z" fill="white"/>
<path d="M3.43813 10.4386C3.33439 10.4386 3.23064 10.3892 3.17136 10.2904L2.03016 8.52673C1.9363 8.37852 1.97582 8.18091 2.12403 8.08705C2.27224 7.99318 2.46985 8.03271 2.56371 8.18091L3.7049 9.94458C3.79877 10.0928 3.75925 10.2904 3.61104 10.3843C3.5567 10.4188 3.49741 10.4386 3.43813 10.4386Z" fill="white"/>
<path d="M28.7272 22.8783C28.6234 22.8783 28.5197 22.8289 28.4604 22.7301L27.3192 20.9664C27.2254 20.8182 27.2649 20.6206 27.4131 20.5267C27.5613 20.4329 27.7589 20.4724 27.8528 20.6206L28.994 22.3843C29.0878 22.5325 29.0483 22.7301 28.9001 22.824C28.8507 22.8635 28.7865 22.8783 28.7272 22.8783Z" fill="white"/>
<path d="M2.44524 13.887C2.37113 13.887 2.29209 13.8623 2.23281 13.8079L0.656871 12.4148C0.523485 12.2962 0.513604 12.0937 0.62723 11.9652C0.745795 11.8318 0.948345 11.822 1.07679 11.9356L2.65273 13.3287C2.78611 13.4473 2.79599 13.6498 2.68237 13.7783C2.62309 13.8524 2.53416 13.887 2.44524 13.887Z" fill="white"/>
<path d="M30.1552 19.0542C30.0811 19.0542 30.0021 19.0295 29.9428 18.9752L28.3668 17.582C28.2334 17.4635 28.2236 17.2609 28.3372 17.1325C28.4558 16.9991 28.6583 16.9892 28.7868 17.1028L30.3627 18.496C30.4961 18.6145 30.506 18.8171 30.3923 18.9455C30.3281 19.0196 30.2441 19.0542 30.1552 19.0542Z" fill="white"/>
<path d="M2.48496 17.8938C2.4405 17.8938 2.39604 17.8839 2.35652 17.8642L0.439704 17.0095C0.276677 16.9354 0.207513 16.7477 0.276677 16.5896C0.35078 16.4266 0.538509 16.3574 0.696597 16.4266L2.61341 17.2812C2.77644 17.3553 2.8456 17.5431 2.77644 17.7012C2.7221 17.8247 2.60353 17.8938 2.48496 17.8938Z" fill="white"/>
<path d="M30.4615 14.5093C30.4171 14.5093 30.3726 14.4994 30.3331 14.4797L28.4163 13.625C28.2532 13.5509 28.1841 13.3632 28.2532 13.2051C28.3273 13.0421 28.5151 12.9729 28.6732 13.0421L30.59 13.8967C30.753 13.9708 30.8222 14.1586 30.753 14.3166C30.7036 14.4401 30.585 14.5093 30.4615 14.5093Z" fill="white"/>
<path d="M3.53692 21.3271C3.5221 21.3271 3.50727 21.3271 3.48751 21.3222L1.40767 21.0159C1.23476 20.9912 1.11126 20.8281 1.13596 20.6552C1.16066 20.4823 1.32369 20.3588 1.4966 20.3835L3.57644 20.6898C3.74935 20.7145 3.87285 20.8775 3.84815 21.0505C3.82839 21.2135 3.69006 21.3271 3.53692 21.3271Z" fill="white"/>
<path d="M29.573 10.5327C29.5582 10.5327 29.5434 10.5327 29.5236 10.5277L27.4438 10.2214C27.2709 10.1967 27.1474 10.0337 27.1721 9.8608C27.1968 9.68789 27.3598 9.56438 27.5327 9.58908L29.6126 9.89538C29.7855 9.92008 29.909 10.0831 29.8843 10.256C29.8645 10.4141 29.7262 10.5327 29.573 10.5327Z" fill="white"/>
</svg>
