<svg width="24" height="24" viewBox="0 0 24 24" fill="none" xmlns="http://www.w3.org/2000/svg">
<path d="M0.0703125 5.8125C0.0703125 5.01562 0.523437 4.58594 1.42969 4.52344L4.92188 4.54688C5.15625 4.54688 5.3125 4.66406 5.39062 4.89844C5.75 6.07031 6.15234 7.08203 6.59766 7.93359C7.04297 8.78516 7.625 9.76562 8.34375 10.875C8.40625 11.0156 8.50781 11.0859 8.64844 11.0859C8.75781 11.0859 8.84375 11.0312 8.90625 10.9219L8.97656 10.6641L9 6.60938C9 6.32812 8.93359 6.14062 8.80078 6.04688C8.66797 5.95312 8.42188 5.88281 8.0625 5.83594C7.78125 5.78906 7.64062 5.61719 7.64062 5.32031C7.64062 5.25781 7.64844 5.21094 7.66406 5.17969C7.99219 4.16406 8.92969 3.65625 10.4766 3.65625L11.7891 3.63281C12.3828 3.63281 12.875 3.78125 13.2656 4.07812C13.6562 4.375 13.8516 4.84375 13.8516 5.48438V10.8047C13.9609 10.8828 14.0625 10.9219 14.1562 10.9219C14.3906 10.9219 14.5938 10.7812 14.7656 10.5C16.4844 8.09375 17.4141 6.48438 17.5547 5.67188C17.5547 5.65625 17.5703 5.61719 17.6016 5.55469C17.7109 5.32031 17.8906 5.11719 18.1406 4.94531C18.3906 4.77344 18.6094 4.65625 18.7969 4.59375C18.8594 4.5625 18.9297 4.54688 19.0078 4.54688H22.6406L22.875 4.57031C23.1875 4.57031 23.4297 4.71875 23.6016 5.01562C23.6641 5.10938 23.707 5.21094 23.7305 5.32031C23.7539 5.42969 23.7695 5.53906 23.7773 5.64844C23.7852 5.75781 23.7891 5.82031 23.7891 5.83594V6C23.6797 6.64062 23.4023 7.32422 22.957 8.05078C22.5117 8.77734 21.9453 9.5625 21.2578 10.4062C20.5703 11.25 20.1406 11.8047 19.9688 12.0703C19.8281 12.2578 19.7578 12.4297 19.7578 12.5859C19.7578 12.7109 19.8203 12.8516 19.9453 13.0078L23.3672 17.3203C23.5547 17.5703 23.6484 17.8438 23.6484 18.1406C23.6484 18.5 23.5078 18.7969 23.2266 19.0312C22.9453 19.2656 22.6094 19.3984 22.2188 19.4297L21.8203 19.4531H18.2578C18.2422 19.4531 18.2109 19.457 18.1641 19.4648C18.1172 19.4727 18.0859 19.4766 18.0703 19.4766C17.7266 19.4766 17.4062 19.3281 17.1094 19.0312C17 18.9062 16.2656 17.9844 14.9062 16.2656C14.8281 16.1562 14.7188 16.0547 14.5781 15.9609C14.5156 16.2109 14.4336 16.5703 14.332 17.0391C14.2305 17.5078 14.1562 17.8438 14.1094 18.0469L14.0391 18.4453C13.8828 18.9922 13.5547 19.3203 13.0547 19.4297L12.7266 19.4531H10.4297C9.13281 19.4531 7.83984 18.8594 6.55078 17.6719C5.26172 16.4844 4.10156 14.9492 3.07031 13.0664C2.03906 11.1836 1.07812 8.99219 0.1875 6.49219C0.109375 6.28906 0.0703125 6.0625 0.0703125 5.8125ZM14.1562 11.8828C13.8281 11.8828 13.5312 11.793 13.2656 11.6133C13 11.4336 12.8672 11.1875 12.8672 10.875V5.48438C12.8672 5.17188 12.7891 4.94922 12.6328 4.81641C12.4766 4.68359 12.2031 4.61719 11.8125 4.61719L10.4766 4.66406C9.80469 4.66406 9.29688 4.78125 8.95312 5.01562C9.64062 5.34375 9.98438 5.875 9.98438 6.60938V10.7344C9.95312 11.125 9.79688 11.4492 9.51562 11.707C9.23438 11.9648 8.92188 12.0938 8.57812 12.0938C8.10938 12.0938 7.75 11.8672 7.5 11.4141C6.28125 9.57031 5.375 7.82031 4.78125 6.16406L4.57031 5.55469L1.45312 5.53125C1.25 5.53125 1.13672 5.54297 1.11328 5.56641C1.08984 5.58984 1.07812 5.65625 1.07812 5.76562C1.07812 5.90625 1.09375 6.05469 1.125 6.21094L1.61719 7.52344C2.92969 10.9141 4.35547 13.5859 5.89453 15.5391C7.43359 17.4922 8.94531 18.4688 10.4297 18.4688H12.7734C12.8672 18.4688 12.9375 18.4414 12.9844 18.3867C13.0312 18.332 13.0703 18.2266 13.1016 18.0703L13.1484 17.8359L13.5938 15.7734C13.7188 15.4922 13.8281 15.3047 13.9219 15.2109C14.0938 15.0391 14.2969 14.9531 14.5312 14.9531C14.9062 14.9531 15.2891 15.1797 15.6797 15.6328L17.6719 18.1641C17.7969 18.3672 17.9297 18.4688 18.0703 18.4688H21.9375C22.4062 18.4688 22.6406 18.3516 22.6406 18.1172C22.6406 18.0391 22.6172 17.9609 22.5703 17.8828L19.1719 13.6406C18.9062 13.3125 18.7734 12.9609 18.7734 12.5859C18.7734 12.2109 18.8984 11.8516 19.1484 11.5078C19.3516 11.1953 19.7461 10.6758 20.332 9.94922C20.918 9.22266 21.4297 8.54297 21.8672 7.91016C22.3047 7.27734 22.5938 6.70312 22.7344 6.1875L22.8047 5.88281C22.7891 5.85156 22.7812 5.80078 22.7812 5.73047C22.7812 5.66016 22.7734 5.60156 22.7578 5.55469H19.0781C18.8438 5.64844 18.6562 5.78906 18.5156 5.97656L18.375 6.42188C17.9844 7.5 16.9609 9.16406 15.3047 11.4141C14.9766 11.7266 14.5938 11.8828 14.1562 11.8828Z" fill="white"/>
</svg>
