<svg width="24" height="24" viewBox="0 0 24 24" fill="none" xmlns="http://www.w3.org/2000/svg">
<path fill-rule="evenodd" clip-rule="evenodd" d="M18.438 8.43775C18.438 8.52052 18.4362 8.60329 18.4334 8.6879C18.4297 8.78171 18.4242 8.87368 18.4168 8.96565C18.2053 11.629 16.4451 14.3642 14.8733 16.9761L12.0003 21.3868V14.8755C8.44477 14.8755 5.5625 11.9932 5.5625 8.43775C5.5625 4.88227 8.44477 2 12.0003 2C15.5557 2 18.438 4.88227 18.438 8.43775Z" fill="#FF3333"/>
<path d="M11.9993 11.1968C13.523 11.1968 14.7583 9.96152 14.7583 8.43775C14.7583 6.91397 13.523 5.67871 11.9993 5.67871C10.4755 5.67871 9.24023 6.91397 9.24023 8.43775C9.24023 9.96152 10.4755 11.1968 11.9993 11.1968Z" fill="white"/>
</svg>
