<svg width="25" height="24" viewBox="0 0 25 24" fill="none" xmlns="http://www.w3.org/2000/svg">
<g clip-path="url(#clip0_2504_36182)">
<path d="M9.58105 16.8191C10.1567 17.5915 10.7419 18.5596 11.049 19.1466C11.4231 19.9087 11.5766 20.4236 11.8549 21.3402C12.018 21.8449 12.1715 21.9993 12.4977 21.9993C12.8526 21.9993 13.0157 21.7419 13.1405 21.3402C13.3995 20.4751 13.601 19.816 13.9176 19.1878C14.5412 17.9829 15.3279 16.9118 16.0954 15.8819C16.3065 15.5936 17.6497 13.8943 18.2541 12.5452C18.2541 12.5452 18.9929 11.0725 18.9929 9.01272C18.9929 7.08687 18.2637 5.74805 18.2637 5.74805L16.153 6.35567L14.8674 9.9808L14.5508 10.4751L14.4836 10.5678L14.3973 10.6811L14.2534 10.8665L14.0423 11.0931L12.9006 12.092L10.0512 13.8634L9.58105 16.8191Z" fill="#34A853"/>
<path d="M6.63574 12.2978C7.33611 14.0073 8.66969 15.5006 9.58113 16.8189L14.407 10.6809C14.407 10.6809 13.7258 11.6386 12.4977 11.6386C11.1258 11.6386 10.0129 10.4646 10.0129 8.98159C10.0129 7.96203 10.5789 7.26172 10.5789 7.26172L7.30733 8.1989L6.63574 12.2978Z" fill="#FBBC04"/>
<path d="M14.4647 2.31836C16.0669 2.87449 17.4389 4.03824 18.264 5.75811L14.4071 10.6912C14.4071 10.6912 14.9732 9.98056 14.9732 8.97129C14.9732 7.45739 13.7835 6.31424 12.4979 6.31424C11.2795 6.31424 10.5791 7.26172 10.5791 7.26172V4.15152L14.4647 2.31836Z" fill="#4285F4"/>
<path d="M7.51855 4.4913C8.47796 3.26576 10.1569 1.99902 12.4787 1.99902C13.6012 1.99902 14.4551 2.31828 14.4551 2.31828L10.5791 7.26164H7.83516L7.51855 4.4913Z" fill="#1A73E8"/>
<path d="M6.63614 12.298C6.63614 12.298 6.00293 10.9489 6.00293 9.00247C6.00293 7.15901 6.67452 5.55242 7.52839 4.50195L10.5889 7.27229L6.63614 12.298Z" fill="#EA4335"/>
</g>
<defs>
<clipPath id="clip0_2504_36182">
<rect width="13" height="20" fill="white" transform="translate(6 2)"/>
</clipPath>
</defs>
</svg>
