<svg width="25" height="24" viewBox="0 0 25 24" fill="none" xmlns="http://www.w3.org/2000/svg">
<path d="M15.4396 6.56036H19.0196L18.2296 7.36036C18.0434 7.54772 17.9388 7.80117 17.9388 8.06536C17.9388 8.32954 18.0434 8.58299 18.2296 8.77036C18.417 8.95661 18.6704 9.06115 18.9346 9.06115C19.1988 9.06115 19.4522 8.95661 19.6396 8.77036L22.1396 6.27036C22.3259 6.08299 22.4304 5.82954 22.4304 5.56536C22.4304 5.30117 22.3259 5.04772 22.1396 4.86036L19.6396 2.36036C19.4483 2.19653 19.2022 2.11092 18.9506 2.12065C18.6989 2.13037 18.4601 2.2347 18.282 2.41279C18.104 2.59089 17.9996 2.82963 17.9899 3.0813C17.9802 3.33298 18.0658 3.57905 18.2296 3.77036L19.0196 4.56036H15.4396C15.1744 4.56036 14.92 4.66571 14.7325 4.85325C14.545 5.04079 14.4396 5.29514 14.4396 5.56036C14.4396 5.82557 14.545 6.07993 14.7325 6.26746C14.92 6.455 15.1744 6.56036 15.4396 6.56036ZM19.9396 13.0004C19.7196 13.0004 19.4896 12.9304 19.2696 12.8804C18.8241 12.7822 18.3863 12.6518 17.9596 12.4904C17.4957 12.3216 16.9858 12.3304 16.5279 12.515C16.0701 12.6996 15.6967 13.047 15.4796 13.4904L15.2596 13.9404C14.2856 13.3985 13.3906 12.7256 12.5996 11.9404C11.8144 11.1494 11.1414 10.2544 10.5996 9.28036L11.0196 9.00036C11.463 8.78327 11.8104 8.40989 11.995 7.95205C12.1796 7.49421 12.1884 6.98427 12.0196 6.52036C11.8608 6.09278 11.7305 5.65515 11.6296 5.21036C11.5796 4.99036 11.5396 4.76036 11.5096 4.53036C11.3882 3.82598 11.0192 3.1881 10.4692 2.7316C9.91923 2.27509 9.22431 2.02997 8.50961 2.04036H5.50961C5.07864 2.03631 4.65186 2.12517 4.25832 2.30089C3.86478 2.4766 3.51372 2.73505 3.22904 3.05864C2.94436 3.38222 2.73275 3.76335 2.6086 4.17607C2.48445 4.58879 2.45069 5.02342 2.50961 5.45036C3.04235 9.63974 4.95564 13.5322 7.94726 16.513C10.9389 19.4938 14.8383 21.3929 19.0296 21.9104H19.4096C20.147 21.9114 20.859 21.6409 21.4096 21.1504C21.726 20.8674 21.9787 20.5205 22.1511 20.1327C22.3235 19.7448 22.4116 19.3248 22.4096 18.9004V15.9004C22.3974 15.2057 22.1444 14.5369 21.694 14.008C21.2435 13.4791 20.6234 13.123 19.9396 13.0004ZM20.4396 19.0004C20.4394 19.1423 20.409 19.2827 20.3504 19.412C20.2918 19.5413 20.2063 19.6566 20.0996 19.7504C19.9879 19.8468 19.8572 19.9189 19.716 19.962C19.5748 20.005 19.4262 20.0181 19.2796 20.0004C15.5345 19.5202 12.0558 17.8068 9.39233 15.1306C6.72881 12.4545 5.03202 8.96769 4.56961 5.22036C4.5537 5.07387 4.56765 4.92569 4.61061 4.78475C4.65358 4.64381 4.72468 4.51304 4.81961 4.40036C4.91332 4.29369 5.02867 4.2082 5.15799 4.14957C5.28731 4.09095 5.42763 4.06054 5.56961 4.06036H8.56961C8.80216 4.05518 9.02924 4.13124 9.21176 4.27543C9.39428 4.41962 9.52082 4.62293 9.56961 4.85036C9.60961 5.12369 9.65961 5.39369 9.71961 5.66036C9.83513 6.1875 9.98887 6.70554 10.1796 7.21036L8.77961 7.86036C8.65991 7.91528 8.55223 7.9933 8.46277 8.08995C8.37331 8.1866 8.30381 8.29997 8.25828 8.42355C8.21275 8.54713 8.19208 8.67849 8.19746 8.81008C8.20284 8.94167 8.23415 9.0709 8.28961 9.19036C9.72881 12.2731 12.2069 14.7512 15.2896 16.1904C15.5331 16.2904 15.8062 16.2904 16.0496 16.1904C16.1743 16.1457 16.2889 16.0768 16.3868 15.9875C16.4846 15.8983 16.5638 15.7905 16.6196 15.6704L17.2396 14.2704C17.7566 14.4552 18.2842 14.6088 18.8196 14.7304C19.0863 14.7904 19.3563 14.8404 19.6296 14.8804C19.857 14.9291 20.0604 15.0557 20.2045 15.2382C20.3487 15.4207 20.4248 15.6478 20.4196 15.8804L20.4396 19.0004Z" fill="white"/>
</svg>
